<?xml version="1.0" encoding="UTF-8" standalone="no"?>
<!-- Created with Inkscape (http://www.inkscape.org/) -->

<svg
   width="52.661949mm"
   height="11.871446mm"
   viewBox="0 0 52.661948 11.871446"
   version="1.1"
   id="svg1"
   inkscape:version="1.4.3 (fcd0343856, 2026-01-01)"
   sodipodi:docname="airbuddy-logo-master.svg"
   xmlns:inkscape="http://www.inkscape.org/namespaces/inkscape"
   xmlns:sodipodi="http://sodipodi.sourceforge.net/DTD/sodipodi-0.dtd"
   xmlns="http://www.w3.org/2000/svg"
   xmlns:svg="http://www.w3.org/2000/svg">
  <sodipodi:namedview
     id="namedview1"
     pagecolor="#ffffff"
     bordercolor="#000000"
     borderopacity="0.25"
     inkscape:showpageshadow="2"
     inkscape:pageopacity="0.0"
     inkscape:pagecheckerboard="0"
     inkscape:deskcolor="#d1d1d1"
     inkscape:document-units="mm"
     inkscape:zoom="1.2371789"
     inkscape:cx="68.30055"
     inkscape:cy="21.419699"
     inkscape:window-width="1366"
     inkscape:window-height="699"
     inkscape:window-x="0"
     inkscape:window-y="0"
     inkscape:window-maximized="1"
     inkscape:current-layer="text1"
     showguides="true">
    <sodipodi:guide
       position="27.32064,-45.656948"
       orientation="0,-1"
       id="guide3"
       inkscape:locked="false" />
    <sodipodi:guide
       position="22.883041,-39.829258"
       orientation="0,-1"
       id="guide4"
       inkscape:locked="false" />
  </sodipodi:namedview>
  <defs
     id="defs1">
    <rect
       x="76.587394"
       y="78.873585"
       width="129.74133"
       height="141.74383"
       id="rect3" />
    <rect
       x="-15.35752"
       y="-150.34204"
       width="537.51318"
       height="357.26443"
       id="rect1" />
  </defs>
  <g
     inkscape:label="Layer 1"
     inkscape:groupmode="layer"
     id="layer1"
     transform="translate(-40.468321,-97.409356)">
    <g
       id="text1"
       style="font-size:45.3333px;line-height:1.2;font-family:Arvo;-inkscape-font-specification:Arvo;letter-spacing:-0.13px;writing-mode:tb-rl;white-space:pre;fill:#5e5e5e;fill-opacity:0.8;stroke-width:2.2715;stroke-linecap:square"
       transform="matrix(0,-0.26458333,0.26458333,0,79.836288,234.26934)"
       aria-label="airBuddy">
      <path
         style="letter-spacing:1.23px;fill:#00e0e0"
         d="m 484.9484,-134.6478 q -1.21744,-1.30599 -1.99218,-2.89974 -0.77474,-1.57161 -0.77474,-3.58593 0,-1.68229 0.53125,-3.09896 0.53125,-1.39453 1.4388,-2.41275 0.92968,-1.01823 2.14713,-1.59375 1.21745,-0.55339 2.58984,-0.55339 1.46094,0 2.58985,0.42057 1.1289,0.44271 1.94791,1.15104 0.84115,0.73047 1.39453,1.6823 0.57552,0.97395 0.90755,2.01432 0.35417,1.0625 0.48698,2.14713 0.15495,1.10677 0.15495,2.10286 0,1.59375 -0.11068,2.67839 -0.0885,1.08463 -0.26562,1.97005 l 1.88151,0.0221 q 1.21744,0 2.10286,-0.35416 0.90755,-0.35417 1.48307,-0.9961 0.59766,-0.64192 0.88542,-1.54947 0.28776,-0.88542 0.28776,-1.99219 0,-1.04036 -0.15495,-1.99219 -0.13281,-0.95182 -0.3763,-1.79296 -0.22136,-0.81901 -0.53125,-1.52735 -0.28776,-0.68619 -0.61979,-1.17317 l 2.85546,-1.35026 q 0.53125,0.81901 0.97396,1.79297 0.46485,0.97395 0.77474,2.03645 0.33203,1.08464 0.50912,2.19141 0.19921,1.1289 0.19921,2.21354 0,1.99218 -0.48698,3.58593 -0.46484,1.59375 -1.46093,2.70052 -0.99609,1.10677 -2.54557,1.70443 -1.52735,0.59765 -3.67448,0.59765 l -11.46614,-0.0221 v 2.54557 h -3.80729 v -6.66276 z m 0.6862,-5.57812 q 0,0.81901 0.19922,1.63802 0.19922,0.81901 0.53125,1.54948 0.35416,0.73047 0.79687,1.35026 0.46485,0.61979 0.95182,1.04036 l 5.17969,0.0221 v -4.78125 q 0,-1.19531 -0.26563,-2.1914 -0.26562,-0.97396 -0.77474,-1.70443 -0.50911,-0.70833 -1.26171,-1.10677 -0.75261,-0.39844 -1.72656,-0.39844 -0.90756,0 -1.59375,0.33203 -0.66407,0.33204 -1.12891,0.92969 -0.44271,0.61979 -0.6862,1.46094 -0.22135,0.84114 -0.22135,1.85937 z m 20.12108,17.94223 v 7.48176 h -19.12499 v 3.45313 h -3.80729 v -10.89062 h 3.80729 v 3.27604 h 15.3177 v -3.32031 z m 8.12369,2.54557 q 0.57552,0 1.08464,0.22135 0.53125,0.24349 0.90755,0.61979 0.39844,0.39844 0.61979,0.92969 0.24349,0.53125 0.24349,1.12891 0,0.57552 -0.24349,1.08463 -0.22135,0.53125 -0.61979,0.90755 -0.3763,0.39844 -0.90755,0.61979 -0.50912,0.24349 -1.08464,0.24349 -0.59765,0 -1.1289,-0.24349 -0.53125,-0.22135 -0.95183,-0.61979 -0.39843,-0.3763 -0.64192,-0.90755 -0.22136,-0.50911 -0.22136,-1.08463 0,-0.59766 0.22136,-1.12891 0.24349,-0.53125 0.64192,-0.92969 0.42058,-0.3763 0.95183,-0.61979 0.53125,-0.22135 1.1289,-0.22135 z m -12.97134,29.895346 V -94.0485 h 1.41666 q 0,-0.730468 -0.28776,-1.505207 -0.26562,-0.752604 -0.84114,-1.416666 -0.55339,-0.664062 -1.4388,-1.173176 -0.86328,-0.486979 -2.0586,-0.708333 h -11.0677 v 3.89583 h -3.80729 v -11.377598 h 3.80729 v 3.16536 l 15.3177,0.0221 v -3.1875 h 3.80729 v 7.32682 h -3.16536 q 0.70833,0.398437 1.30599,0.885416 0.61979,0.509114 1.0625,1.10677 0.46484,0.619791 0.70833,1.35026 0.26562,0.752603 0.26562,1.615884 0,1.151041 0,2.169269 0,1.018229 -0.0443,2.036457 z"
         id="path4" />
      <path
         style="font-weight:bold;-inkscape-font-specification:'Arvo Bold';letter-spacing:-3.53px;fill:#797979;fill-opacity:0.80000001"
         d="m 488.8885,-83.565907 v 3.430987 h 21.40494 v -3.430987 h 6.1315 l -0.0443,16.358061 c 0,1.519965 -0.273,2.907117 -0.81901,4.161456 -0.53125,1.269096 -1.26171,2.361109 -2.1914,3.276039 -0.91493,0.91493 -1.99219,1.623263 -3.23177,2.124999 -1.22483,0.516493 -2.53082,0.774739 -3.91797,0.774739 -1.62326,0 -2.96614,-0.28776 -4.02864,-0.863281 -1.0625,-0.560763 -1.9184,-1.365016 -2.56771,-2.412759 -0.70833,1.10677 -1.58637,1.977429 -2.63411,2.611978 -1.03299,0.649305 -2.2947,0.973957 -3.78515,0.973957 -1.51997,0 -2.9145,-0.265625 -4.18359,-0.796874 -1.2691,-0.516493 -2.36849,-1.232204 -3.29818,-2.147134 -0.91493,-0.900173 -1.63064,-1.97005 -2.14713,-3.209633 -0.50174,-1.239583 -0.75261,-2.575085 -0.75261,-4.006508 v -16.84504 z m 7.8138,10.77994 h -7.8138 v 5.578121 c 0,0.427951 0.11068,0.826389 0.33203,1.195312 0.22136,0.383681 0.50912,0.708333 0.86329,0.973958 0.36892,0.280381 0.78949,0.501735 1.26171,0.664062 0.48698,0.162326 0.98872,0.243489 1.50521,0.243489 0.54601,0 1.04774,-0.08116 1.50521,-0.243489 0.47222,-0.162327 0.87804,-0.383681 1.21745,-0.664062 0.35416,-0.280382 0.62716,-0.612413 0.819,-0.996093 0.2066,-0.368923 0.3099,-0.759982 0.3099,-1.173177 z m 13.59114,0 h -7.52604 v 5.268226 c 0,0.413194 0.1033,0.804253 0.3099,1.173176 0.20659,0.368923 0.4796,0.686197 0.81901,0.951822 0.35417,0.280382 0.74522,0.501736 1.17317,0.664062 0.44271,0.162327 0.90017,0.24349 1.3724,0.24349 0.45746,0 0.91492,-0.08116 1.37239,-0.24349 0.45747,-0.162326 0.87066,-0.38368 1.23958,-0.664062 0.36893,-0.265625 0.66407,-0.582899 0.88542,-0.951822 0.23611,-0.368923 0.35417,-0.759982 0.35417,-1.173176 z m -4.53776,29.872321 V -32.0673 c -5.41744,-0.358675 -10.06723,-2.060716 -16.86718,0 -2.18452,1.063501 -3.56908,1.699769 -6.0651,5.292833 v -12.243349 h 1.94792 c -0.70833,-0.782117 -1.25434,-1.697047 -1.63802,-2.74479 -0.38368,-1.047742 -0.57552,-2.25781 -0.57552,-3.630205 0,-1.269097 0.19922,-2.464408 0.59766,-3.585935 0.39843,-1.121527 0.99609,-2.102864 1.79296,-2.944009 0.81163,-0.826388 1.82248,-1.483071 3.03255,-1.97005 1.21007,-0.472222 2.63412,-0.708333 4.27213,-0.708333 h 7.4375 v -2.988279 c 1.4294,1.343485 3.22559,2.442447 5.86303,2.980572 l 0.20207,7.157441 h -13.5026 c -1.53472,0 -2.68576,0.391059 -3.45312,1.173177 -0.7526,0.782117 -1.1289,1.800346 -1.1289,3.054685 0,0.885416 0.273,1.689669 0.81901,2.412759 0.54601,0.723089 1.28385,1.24696 2.21354,1.571613 h 8.98697 v -3.674476 z m 11.51041,26.5882 v 10.0273369 h -11.14518 c -5.74414,-1.2200716 -11.48827,-1.8038835 -17.23241,0 -2.9895,1.0065491 -4.34592,2.8296403 -6.0651,4.471351 V -13.115813 h 0.88542 c -0.41319,-0.796875 -0.73785,-1.615884 -0.97396,-2.457029 -0.23611,-0.826389 -0.35416,-1.667534 -0.35416,-2.523436 0,-1.756075 0.30989,-3.37196 0.92968,-4.847653 0.63455,-1.460937 1.49783,-2.722655 2.58984,-3.785154 1.09201,-1.047742 2.36849,-1.866752 3.82943,-2.457029 1.47569,-0.590277 3.05468,-0.885416 4.73697,-0.885416 1.68229,0 3.24653,0.28776 4.69271,0.86328 1.46093,0.590278 2.73003,1.40191 3.80729,2.434895 1.07725,1.047742 1.92578,2.294703 2.54557,3.740882 0.61979,1.460937 0.92969,3.062064 0.92969,4.803382 0,0.959201 -0.0959,1.859374 -0.28776,2.700519 -0.17709,0.841145 -0.43533,1.645398 -0.77474,2.412759 h 5.82161 v -3.209633 z m -28.77602,-1.39453 c 0.0295,0.973957 0.2804,1.851995 0.7526,2.634112 0.47222,0.796875 1.09201,1.453558 1.85937,1.970051 h 6.7513 c 0.78212,-0.516493 1.38715,-1.187933 1.8151,-2.014321 0.44271,-0.811631 0.65669,-1.674912 0.64193,-2.589842 0.0147,-0.767361 -0.11808,-1.490451 -0.39844,-2.16927 -0.28038,-0.664062 -0.67882,-1.254339 -1.19531,-1.770832 -0.51649,-0.501735 -1.13628,-0.900172 -1.85937,-1.195311 -0.72309,-0.295139 -1.5421,-0.442708 -2.45703,-0.442708 -0.90017,0 -1.71918,0.147569 -2.45703,0.442708 -0.72309,0.295139 -1.34288,0.693576 -1.85937,1.195311 -0.50174,0.516493 -0.88542,1.10677 -1.15105,1.770832 -0.26562,0.678819 -0.41319,1.401909 -0.4427,2.16927 z M 517.40898,9.1337012 V 19.161038 h -11.28807 c -7.72145,-0.820791 -16.13404,-0.529692 -23.15462,4.471351 V 12.343334 h 0.88542 c -0.41319,-0.796874 -0.73785,-1.615884 -0.97396,-2.4570288 -0.23611,-0.826389 -0.35416,-1.667534 -0.35416,-2.5234359 0,-1.7560752 0.30989,-3.3719595 0.92968,-4.8476529 0.63455,-1.4609365 1.49783,-2.72265432 2.58984,-3.7851536 1.09201,-1.0477423 2.36849,-1.8667522 3.82943,-2.4570295 1.47569,-0.5902774 3.05468,-0.8854161 4.73697,-0.8854161 1.68229,0 3.24653,0.2877602 4.69271,0.8632807 1.46093,0.5902773 2.73003,1.4019087 3.80729,2.4348941 1.07725,1.04774228 1.92578,2.29470331 2.54557,3.7408828 0.61979,1.4609365 0.92969,3.0620638 0.92969,4.8033821 0,0.9592013 -0.0959,1.8593743 -0.28776,2.7005193 -0.17709,0.8411448 -0.43533,1.6453968 -0.77474,2.4127578 h 5.82161 V 9.1337012 Z m -28.77602,-1.39453 c 0.0295,0.973957 0.2804,1.851995 0.7526,2.6341128 0.47222,0.796874 1.09201,1.453557 1.85937,1.97005 h 6.7513 c 0.78212,-0.516493 1.38715,-1.187933 1.8151,-2.014321 0.44271,-0.8116308 0.65669,-1.6749118 0.64193,-2.5898418 0.0147,-0.7673607 -0.11808,-1.4904505 -0.39844,-2.1692694 -0.28038,-0.6640621 -0.67882,-1.2543394 -1.19531,-1.7708321 -0.51649,-0.5017358 -1.13628,-0.900173 -1.85937,-1.1953117 -0.72309,-0.2951387 -1.5421,-0.442708 -2.45703,-0.442708 -0.90017,0 -1.71918,0.1475693 -2.45703,0.442708 -0.72309,0.2951387 -1.34288,0.6935759 -1.85937,1.1953117 -0.50174,0.5164927 -0.88542,1.10677 -1.15105,1.7708321 -0.26562,0.6788189 -0.41319,1.4019087 -0.4427,2.1692694 z m 17.12272,13.2857268 -0.14289,10.244573 h -6.0651 v -2.413823 c -4.27484,0.01964 -8.6134,1.310136 -9.66019,3.798279 l 9.66019,3.529603 v -1.97005 h 6.0651 v 11.244783 h -6.0651 v -2.5013 l -21.22785,-8.876296 v 1.940102 l -6.26717,-0.707254 0.20207,-13.525809 5.96406,1.111399 0.10104,4.895108 4.36067,1.726562 c 2.38843,-2.71402 5.28938,-5.819736 17.01007,-7.60053 l -0.21433,-1.466895 c 2.34247,-0.313719 4.30836,-0.04322 6.27943,0.571548 z"
         id="path5"
         sodipodi:nodetypes="cccccccccscccscccsccccscccscccscccssccssccscccccccsssccsccccscssccccccccccccscccscccscccccccccccccsscccccccccccscccscccscccccccccccccssccccccccccccccccccccccccc" />
      <circle
         style="fill:#3fff00;fill-opacity:1;stroke-width:2.43375;stroke-linecap:square"
         id="path6"
         cx="-116.85258"
         cy="-513.8186"
         r="3.0310895"
         transform="rotate(90)" />
    </g>
  </g>
</svg>
