<?xml version="1.0" encoding="UTF-8" standalone="no"?>
<!-- Created with Inkscape (http://www.inkscape.org/) -->

<svg
   width="13.135633mm"
   height="2.4510131mm"
   viewBox="0 0 13.135632 2.4510131"
   version="1.1"
   id="svg1"
   inkscape:version="1.4.1-rc (06eac75fbf, 2025-03-29)"
   sodipodi:docname="b-logo.svg"
   xmlns:inkscape="http://www.inkscape.org/namespaces/inkscape"
   xmlns:sodipodi="http://sodipodi.sourceforge.net/DTD/sodipodi-0.dtd"
   xmlns:xlink="http://www.w3.org/1999/xlink"
   xmlns="http://www.w3.org/2000/svg"
   xmlns:svg="http://www.w3.org/2000/svg">
  <sodipodi:namedview
     id="namedview1"
     pagecolor="#ffffff"
     bordercolor="#000000"
     borderopacity="0.25"
     inkscape:showpageshadow="2"
     inkscape:pageopacity="0.0"
     inkscape:pagecheckerboard="0"
     inkscape:deskcolor="#d1d1d1"
     inkscape:document-units="mm"
     inkscape:zoom="50.735995"
     inkscape:cx="42.119998"
     inkscape:cy="8.5442298"
     inkscape:window-width="2256"
     inkscape:window-height="1427"
     inkscape:window-x="0"
     inkscape:window-y="40"
     inkscape:window-maximized="1"
     inkscape:current-layer="layer1" />
  <defs
     id="defs1">
    <linearGradient
       id="linearGradient2"
       inkscape:collect="always">
      <stop
         style="stop-color:#5c5c5c;stop-opacity:1;"
         offset="0"
         id="stop2" />
      <stop
         style="stop-color:#8e8e8e;stop-opacity:1;"
         offset="0.49671486"
         id="stop4" />
      <stop
         style="stop-color:#5c5c5c;stop-opacity:1;"
         offset="1"
         id="stop3" />
    </linearGradient>
    <linearGradient
       inkscape:collect="always"
       xlink:href="#linearGradient2"
       id="linearGradient3"
       x1="66.173889"
       y1="85.431679"
       x2="76.144875"
       y2="86.70018"
       gradientUnits="userSpaceOnUse" />
  </defs>
  <g
     inkscape:label="Layer 1"
     inkscape:groupmode="layer"
     id="layer1"
     transform="translate(-65.21514,-84.502432)">
    <path
       style="font-weight:bold;font-size:3.175px;font-family:Arvo;-inkscape-font-specification:'Arvo Bold';fill:url(#linearGradient3);fill-opacity:1;stroke-width:0.264583"
       d="m 65.324653,84.507647 0.591219,-0.0052 v 0.841809 c 0.05581,-0.02687 0.113174,-0.04754 0.172083,-0.06201 0.05891,-0.01447 0.119375,-0.0217 0.181384,-0.0217 0.118856,0 0.228927,0.02222 0.330212,0.06666 0.101286,0.04444 0.188619,0.104901 0.262,0.181384 0.07338,0.07648 0.130741,0.165882 0.172082,0.268201 0.04237,0.102319 0.06356,0.21084 0.06356,0.325562 0,0.115755 -0.02067,0.224792 -0.06201,0.327111 -0.04031,0.102319 -0.09715,0.19172 -0.170533,0.268201 -0.07338,0.07545 -0.160713,0.135392 -0.261999,0.179834 -0.101286,0.04341 -0.21239,0.06511 -0.333313,0.06511 -0.06511,0 -0.127125,-0.0062 -0.186035,-0.0186 -0.05891,-0.0124 -0.114724,-0.02997 -0.167432,-0.05271 v 0.04341 h -0.47594 V 84.927213 H 65.21514 Z m 0.91213,1.180759 c -0.06821,0 -0.129708,0.0155 -0.184485,0.04651 -0.05374,0.03101 -0.09921,0.07545 -0.136426,0.133325 v 0.480591 c 0.03307,0.04961 0.077,0.08991 0.131775,0.120923 0.05581,0.02997 0.117825,0.04496 0.186035,0.04496 0.05271,0 0.102833,-0.0093 0.150379,-0.02791 0.04754,-0.01963 0.08888,-0.04702 0.124023,-0.08217 0.03617,-0.03617 0.0646,-0.07906 0.08527,-0.128675 0.02067,-0.05064 0.03101,-0.107484 0.03101,-0.170532 0,-0.06408 -0.01034,-0.121958 -0.03101,-0.173633 -0.02067,-0.05167 -0.04858,-0.0956 -0.08372,-0.131775 -0.03514,-0.03617 -0.07648,-0.06356 -0.124023,-0.08217 -0.04651,-0.01964 -0.09612,-0.02946 -0.148828,-0.02946 z m 2.077392,-0.379821 h 0.759644 v 1.181323 l 0.428458,0.01043 0.166877,0.43521 -1.082127,-0.02086 v -0.136426 c -0.05478,0.04961 -0.118859,0.08785 -0.192236,0.114722 -0.07338,0.02687 -0.15813,0.04031 -0.254248,0.04031 -0.08888,0 -0.1726,-0.01395 -0.251148,-0.04186 -0.07855,-0.02791 -0.147278,-0.06977 -0.206189,-0.125574 -0.05788,-0.05685 -0.103872,-0.127643 -0.137976,-0.21239 -0.03307,-0.08475 -0.04961,-0.184485 -0.04961,-0.299207 v -0.520898 h -0.20929 c -0.102582,-0.141593 -0.09681,-0.281343 -0.303829,-0.433999 l 1.013863,0.0092 v 0.945678 c 0,0.107487 0.02739,0.188103 0.08217,0.241846 0.05478,0.05271 0.126093,0.07906 0.21394,0.07906 0.06201,0 0.118341,-0.01912 0.168982,-0.05736 0.05064,-0.03824 0.08733,-0.08992 0.110071,-0.155029 v -0.629419 h -0.257349 z m 1.076465,0 h 0.890857 v 0.42478 h -0.181384 l 0.170532,0.572058 0.330213,-0.996838 h 0.454235 l 0.333313,1.047998 0.202795,-0.599249 h -0.172083 l 0.0018,-0.448749 h 0.838709 l 0.08892,0.443163 -0.30625,0.0056 -0.427587,1.163555 H 71.151173 L 70.814759,85.89616 70.472144,86.920903 H 70.021009 L 69.622584,85.733379 H 69.44275 Z m 4.042603,1.519287 c -0.03617,0.02274 -0.06925,0.04238 -0.09922,0.05891 -0.02997,0.0155 -0.05995,0.0279 -0.08992,0.03721 -0.02997,0.01033 -0.06098,0.01757 -0.09302,0.0217 -0.03204,0.0052 -0.06718,0.0078 -0.10542,0.0078 -0.09612,0 -0.182418,-0.01292 -0.258899,-0.03876 -0.07545,-0.02687 -0.139527,-0.06305 -0.192237,-0.10852 -0.05167,-0.04651 -0.09146,-0.100767 -0.119372,-0.162781 -0.02791,-0.06305 -0.04186,-0.13126 -0.04186,-0.204639 0,-0.07441 0.01395,-0.143144 0.04186,-0.206189 0.02894,-0.06305 0.07028,-0.11679 0.124023,-0.16123 0.05375,-0.04547 0.119376,-0.08061 0.196888,-0.10542 0.07855,-0.02584 0.167948,-0.03876 0.2682,-0.03876 0.07338,0 0.140043,0.0041 0.199988,0.0124 0.06098,0.0072 0.117307,0.01654 0.168982,0.02791 v -0.04961 c 0,-0.04031 -0.0077,-0.07493 -0.02325,-0.10387 -0.0155,-0.02997 -0.0372,-0.05426 -0.06511,-0.07286 -0.02791,-0.01963 -0.0615,-0.03359 -0.100769,-0.04186 -0.03927,-0.0093 -0.08217,-0.01395 -0.128674,-0.01395 -0.143868,0 -0.421825,0.02553 -0.456833,0.04409 l -0.127019,-0.435125 c 0.182402,-0.0158 0.651412,-0.0114 0.940419,0.01272 0.08578,0.02171 0.159164,0.05788 0.220142,0.108521 0.06098,0.04961 0.108522,0.114719 0.142627,0.195337 0.03514,0.08062 0.05271,0.1788 0.05271,0.294555 v 0.584461 h 0.215491 v 0.42478 h -0.669727 z m -0.353467,-0.240296 c 0.07338,0 0.140043,-0.01189 0.199988,-0.03566 0.05995,-0.02377 0.111106,-0.05271 0.153479,-0.08682 v -0.204639 h -0.37207 c -0.02377,0 -0.04703,0.0036 -0.06976,0.01085 -0.02274,0.0072 -0.04341,0.01757 -0.06201,0.03101 -0.01757,0.01343 -0.03204,0.02997 -0.04341,0.04961 -0.01033,0.01963 -0.0155,0.04237 -0.0155,0.06821 0,0.04754 0.01705,0.08733 0.05116,0.119372 0.03514,0.03204 0.08785,0.04806 0.15813,0.04806 z m 2.671155,-0.596862 c 0,-0.08992 -0.02377,-0.160197 -0.07131,-0.21084 -0.04754,-0.05168 -0.110585,-0.07752 -0.189135,-0.07752 -0.05374,0 -0.108,0.01189 -0.162781,0.03566 -0.05478,0.02377 -0.108007,0.06821 -0.15968,0.133325 v 0.618567 h 0.260449 v 0.42478 h -0.998389 v -0.42478 h 0.235645 v -0.756543 h -0.232544 c -0.02392,-0.149302 -0.05804,-0.296055 -0.164269,-0.42478 h 0.896007 v 0.141076 c 0.06718,-0.05271 0.14211,-0.09405 0.224793,-0.124023 0.08371,-0.03101 0.171565,-0.04651 0.263549,-0.04651 0.19327,0 0.342098,0.05426 0.446485,0.162781 0.104386,0.107487 0.156579,0.2651 0.156579,0.472839 v 0.575159 h 0.227894 c 0.02858,0.122236 0.02242,0.22363 0.182522,0.42478 h -0.915811 z m 1.930115,0.837158 c -0.03617,0.02274 -0.06925,0.04238 -0.09922,0.05891 -0.02997,0.0155 -0.05995,0.0279 -0.08992,0.03721 -0.02997,0.01033 -0.06098,0.01757 -0.09302,0.0217 -0.03204,0.0052 -0.06718,0.0078 -0.10542,0.0078 -0.09612,0 -0.182417,-0.01292 -0.258898,-0.03876 -0.07545,-0.02687 -0.139527,-0.06305 -0.192237,-0.10852 -0.05167,-0.04651 -0.09146,-0.100767 -0.119372,-0.162781 -0.02791,-0.06305 -0.04186,-0.13126 -0.04186,-0.204639 0,-0.07441 0.01395,-0.143144 0.04186,-0.206189 0.02894,-0.06305 0.07028,-0.11679 0.124023,-0.16123 0.05375,-0.04547 0.119376,-0.08061 0.196887,-0.10542 0.07855,-0.02584 0.167949,-0.03876 0.268201,-0.03876 0.07338,0 0.140043,0.0041 0.199988,0.0124 0.06098,0.0072 0.117307,0.01654 0.168982,0.02791 v -0.04961 c 0,-0.04031 -0.0078,-0.07493 -0.02325,-0.10387 -0.0155,-0.02997 -0.0372,-0.05426 -0.06511,-0.07286 -0.02791,-0.01963 -0.0615,-0.03359 -0.100769,-0.04186 -0.03927,-0.0093 -0.08217,-0.01395 -0.128674,-0.01395 -0.09715,0 -0.182935,0.0098 -0.257349,0.02945 -0.07338,0.01861 -0.144177,0.046 -0.21239,0.08217 L 76.744669,85.49617 c 0.10542,-0.07235 0.215491,-0.12764 0.330212,-0.165881 0.115755,-0.03824 0.238229,-0.05736 0.36742,-0.05736 0.100252,0 0.192753,0.01137 0.277502,0.03411 0.08578,0.02171 0.159163,0.05788 0.220142,0.108521 0.06098,0.04961 0.108522,0.114719 0.142627,0.195337 0.03514,0.08062 0.05271,0.1788 0.05271,0.294555 v 0.584461 h 0.21549 l -0.104298,0.42478 h -0.565428 z m -0.353467,-0.240296 c 0.07338,0 0.140043,-0.01189 0.199988,-0.03566 0.05995,-0.02377 0.111106,-0.05271 0.153479,-0.08682 v -0.204639 h -0.372071 c -0.02377,0 -0.04703,0.0036 -0.06976,0.01085 -0.02274,0.0072 -0.04341,0.01757 -0.06201,0.03101 -0.01757,0.01343 -0.03204,0.02997 -0.04341,0.04961 -0.01033,0.01963 -0.0155,0.04237 -0.0155,0.06821 0,0.04754 0.01705,0.08733 0.05116,0.119372 0.03514,0.03204 0.08785,0.04806 0.15813,0.04806 z"
       id="text2"
       aria-label="buwana"
       sodipodi:nodetypes="ccccssccscccsccccccccccccscccscccccccccccccssccsccccscscccccccccccccccccccccccccccccccscccscccsccscccscccccsccccccsccscccscccccsscccccccccccccscscccccccccscccscccsccscccsccccscccsccccccsccssccsccc" />
    <circle
       style="fill:#ffffff;stroke-width:0.264583"
       id="path2"
       cx="66.26239"
       cy="86.080681"
       r="0.44249925" />
  </g>
</svg>
