<?xml version="1.0" encoding="UTF-8" standalone="no"?>
<!-- Created with Inkscape (http://www.inkscape.org/) -->

<svg
   width="13.135633mm"
   height="2.4510131mm"
   viewBox="0 0 13.135632 2.4510131"
   version="1.1"
   id="svg1"
   inkscape:version="1.4.1-rc (06eac75fbf, 2025-03-29)"
   sodipodi:docname="b-logo.svg"
   xmlns:inkscape="http://www.inkscape.org/namespaces/inkscape"
   xmlns:sodipodi="http://sodipodi.sourceforge.net/DTD/sodipodi-0.dtd"
   xmlns:xlink="http://www.w3.org/1999/xlink"
   xmlns="http://www.w3.org/2000/svg"
   xmlns:svg="http://www.w3.org/2000/svg">
  <sodipodi:namedview
     id="namedview1"
     pagecolor="#ffffff"
     bordercolor="#000000"
     borderopacity="0.25"
     inkscape:showpageshadow="2"
     inkscape:pageopacity="0.0"
     inkscape:pagecheckerboard="0"
     inkscape:deskcolor="#d1d1d1"
     inkscape:document-units="mm"
     inkscape:zoom="90.509668"
     inkscape:cx="4.2039708"
     inkscape:cy="3.6957378"
     inkscape:window-width="2256"
     inkscape:window-height="1427"
     inkscape:window-x="0"
     inkscape:window-y="40"
     inkscape:window-maximized="1"
     inkscape:current-layer="layer1" />
  <defs
     id="defs1">
    <linearGradient
       id="linearGradient2"
       inkscape:collect="always">
      <stop
         style="stop-color:#5c5c5c;stop-opacity:1;"
         offset="0"
         id="stop2" />
      <stop
         style="stop-color:#8e8e8e;stop-opacity:1;"
         offset="0.49671486"
         id="stop4" />
      <stop
         style="stop-color:#5c5c5c;stop-opacity:1;"
         offset="1"
         id="stop3" />
    </linearGradient>
    <linearGradient
       inkscape:collect="always"
       xlink:href="#linearGradient2"
       id="linearGradient3"
       x1="66.173889"
       y1="85.431679"
       x2="76.144875"
       y2="86.70018"
       gradientUnits="userSpaceOnUse" />
  </defs>
  <g
     inkscape:label="Layer 1"
     inkscape:groupmode="layer"
     id="layer1"
     transform="translate(-65.21514,-84.502432)">
    <path
       id="text2"
       style="font-weight:bold;font-size:3.175px;font-family:Arvo;-inkscape-font-specification:'Arvo Bold';fill:url(#linearGradient3);fill-opacity:1;stroke-width:0.264583"
       d="m 65.915872,84.502432 -0.591178,0.0052 c -0.09824,0.119298 -0.136471,0.258596 -0.109554,0.419612 0.06324,0.0086 0.132321,0.0029 0.224792,0 v 1.987476 c 0.158647,0.04923 0.317293,0.03356 0.47594,0 v -0.04341 c 0.05271,0.02274 0.108522,0.04031 0.167432,0.05271 0.05891,0.0124 0.120925,0.0186 0.186035,0.0186 0.120923,0 0.232027,-0.0217 0.333313,-0.06511 0.101286,-0.04444 0.18862,-0.104384 0.262,-0.179834 0.07338,-0.07648 0.130222,-0.165882 0.170532,-0.268201 0.04134,-0.102319 0.06201,-0.211357 0.06201,-0.327112 0,-0.114722 -0.02119,-0.223242 -0.06356,-0.325561 -0.04134,-0.102319 -0.0987,-0.191721 -0.172083,-0.268201 -0.07338,-0.07648 -0.160713,-0.136944 -0.261999,-0.181384 -0.101285,-0.04444 -0.211357,-0.06666 -0.330213,-0.06666 -0.06201,0 -0.122474,0.0072 -0.181384,0.0217 -0.05891,0.01447 -0.116273,0.03514 -0.172083,0.06201 z m 11.526429,0.770496 c -0.129191,0 -0.251665,0.01912 -0.36742,0.05736 -0.114721,0.03824 -0.224792,0.09353 -0.330212,0.165882 l 0.148828,0.300757 c 0.06821,-0.03617 0.13901,-0.06356 0.21239,-0.08217 0.07441,-0.01965 0.160199,-0.02945 0.257349,-0.02945 0.0465,0 0.0894,0.0047 0.128674,0.01395 0.03927,0.0083 0.07286,0.02223 0.100769,0.04186 0.02791,0.0186 0.04961,0.04289 0.06511,0.07286 0.01545,0.02894 0.02325,0.06356 0.02325,0.103869 v 0.04961 c -0.05167,-0.01137 -0.108002,-0.02071 -0.168982,-0.02791 -0.05994,-0.0083 -0.126608,-0.0124 -0.199988,-0.0124 -0.100252,0 -0.189651,0.01292 -0.268201,0.03876 -0.07751,0.02481 -0.143137,0.05995 -0.196887,0.105419 -0.05374,0.04444 -0.09508,0.09818 -0.124023,0.161231 -0.02791,0.06305 -0.04186,0.131779 -0.04186,0.206189 0,0.07338 0.01395,0.141589 0.04186,0.204639 0.02791,0.06201 0.0677,0.11627 0.119372,0.16278 0.05271,0.04547 0.116787,0.08165 0.192237,0.108521 0.07648,0.02584 0.162779,0.03876 0.258899,0.03876 0.03824,0 0.07338,-0.0026 0.105419,-0.0078 0.03204,-0.0041 0.06305,-0.01137 0.09302,-0.0217 0.02997,-0.0093 0.05995,-0.02171 0.08992,-0.03721 0.02997,-0.01653 0.06305,-0.03617 0.09922,-0.05891 v 0.08682 h 0.444935 c 0.133048,0.0064 0.127274,-0.06384 0.146209,-0.105005 l 0.05743,-0.233688 c 0.02648,-0.08717 -0.03255,-0.08479 -0.05481,-0.08609 h -0.139527 v -0.584461 c 0,-0.115755 -0.01757,-0.213936 -0.05271,-0.294556 -0.0341,-0.08062 -0.08165,-0.145726 -0.142627,-0.195336 -0.06098,-0.05064 -0.134362,-0.08681 -0.220142,-0.108521 -0.08475,-0.02274 -0.17725,-0.03411 -0.277502,-0.03411 z m -1.789038,0.0062 c -0.09198,0 -0.17984,0.0155 -0.26355,0.04651 -0.08268,0.02997 -0.157613,0.07131 -0.224793,0.124023 -0.0012,-0.139336 -0.07299,-0.125015 -0.112654,-0.141077 h -0.783415 c 0.106229,0.128725 0.140411,0.275479 0.164331,0.424781 h 0.232544 v 0.756543 h -0.144694 c -0.09318,4.39e-4 -0.08079,0.06072 -0.09095,0.104386 v 0.320394 h 0.998389 v -0.276986 c 0.0057,-0.160023 -0.03831,-0.128978 -0.09922,-0.147794 h -0.16123 v -0.618567 c 0.05167,-0.06512 0.1049,-0.109556 0.15968,-0.133326 0.05478,-0.02377 0.109041,-0.03566 0.162781,-0.03566 0.07855,0 0.141596,0.02583 0.189136,0.07751 0.04754,0.05064 0.07131,0.12092 0.07131,0.21084 v 0.923975 h 0.915706 c -0.09134,-0.114758 -0.132158,-0.196119 -0.148934,-0.269263 -0.02001,-0.08723 -0.04505,-0.152974 -0.09911,-0.155509 h -0.162264 v -0.575159 c 0,-0.207739 -0.05219,-0.365352 -0.15658,-0.472839 -0.104387,-0.108521 -0.253214,-0.162781 -0.446484,-0.162781 z m -3.121774,0.01499 0.101871,0.348682 c 0.02222,0.09904 0.07957,0.06889 0.13461,0.06589 0.1039,-0.0057 0.253793,-0.02338 0.347463,-0.02338 0.0465,0 0.0894,0.0047 0.128674,0.01395 0.03927,0.0083 0.07286,0.02223 0.100769,0.04186 0.02791,0.0186 0.04961,0.04289 0.06511,0.07286 0.01555,0.02894 0.02325,0.06356 0.02325,0.103869 v 0.04961 c -0.05168,-0.01137 -0.108002,-0.02071 -0.168982,-0.02791 -0.05994,-0.0083 -0.126608,-0.0124 -0.199988,-0.0124 -0.100252,0 -0.18965,0.01292 -0.2682,0.03876 -0.07751,0.02481 -0.143138,0.05995 -0.196888,0.105419 -0.05374,0.04444 -0.09508,0.09818 -0.124023,0.161231 -0.02791,0.06305 -0.04186,0.131779 -0.04186,0.206189 0,0.07338 0.01395,0.141589 0.04186,0.204639 0.02791,0.06201 0.0677,0.11627 0.119373,0.16278 0.05271,0.04547 0.116786,0.08165 0.192236,0.108521 0.07648,0.02584 0.162779,0.03876 0.258899,0.03876 0.03824,0 0.07338,-0.0026 0.10542,-0.0078 0.03204,-0.0041 0.06305,-0.01137 0.09302,-0.0217 0.02997,-0.0093 0.05995,-0.02171 0.08992,-0.03721 0.02997,-0.01653 0.06305,-0.03617 0.09922,-0.05891 v 0.08682 h 0.669727 v -0.42478 h -0.215491 v -0.584461 c 0,-0.115755 -0.01757,-0.213936 -0.05271,-0.294556 -0.0341,-0.08062 -0.08165,-0.145726 -0.142627,-0.195336 -0.06098,-0.05064 -0.134362,-0.08681 -0.220142,-0.108521 -0.289007,-0.02412 -0.758109,-0.02872 -0.940511,-0.01292 z m -5.245158,0.43928 h 0.20929 v 0.520898 c 0,0.114722 0.01654,0.214457 0.04961,0.299207 0.0341,0.08475 0.0801,0.15554 0.137976,0.21239 0.05891,0.0558 0.127639,0.09766 0.206189,0.125573 0.07855,0.02791 0.162268,0.04186 0.251148,0.04186 0.09612,0 0.180868,-0.01344 0.254248,-0.04031 0.07338,-0.02687 0.137456,-0.06511 0.192236,-0.114722 0.0046,0.128323 0.0601,0.123135 0.06721,0.13771 l 1.014896,0.01939 -0.138853,-0.361962 c -0.01691,-0.07549 -0.06609,-0.05129 -0.09638,-0.0748 l -0.360078,-0.0087 -0.0021,-1.078338 c 0.0098,-0.07415 -0.04459,-0.09343 -0.08403,-0.104017 l -0.612352,0.001 c -0.0487,0.0095 -0.0602,0.03805 -0.06119,0.06731 v 0.357476 h 0.257348 v 0.629419 c -0.02274,0.06511 -0.05943,0.116789 -0.110071,0.155029 -0.05064,0.03824 -0.106971,0.05736 -0.168981,0.05736 -0.08785,0 -0.159161,-0.02636 -0.213941,-0.07906 -0.05478,-0.05374 -0.08217,-0.134359 -0.08217,-0.241846 V 85.30862 l -0.92206,-0.0085 c -0.03732,0.005 -0.03419,0.06303 -0.01427,0.08744 0.07907,0.09686 0.179718,0.238061 0.226289,0.34584 z m 2.104265,-0.42478 0.04647,0.378242 c 0.01199,0.04116 0.03648,0.04383 0.05585,0.04654 h 0.129705 l 0.398425,1.187524 h 0.451135 l 0.342615,-1.024744 0.336414,1.024744 h 0.463537 l 0.427364,-1.163753 0.210828,-0.0036 c 0.07847,0.0013 0.09437,-0.106997 0.08382,-0.164113 l -0.07709,-0.280893 h -0.838708 l -0.0016,0.345594 c -9.46e-4,0.0997 0.04028,0.09827 0.0618,0.102958 h 0.109798 l -0.202571,0.599446 -0.333313,-1.047998 h -0.454236 l -0.330213,0.996839 -0.170532,-0.572058 h 0.121472 c 0.05811,-0.0143 0.05411,-0.0406 0.05991,-0.07132 v -0.353465 z m -3.122807,0.350367 c 0.244269,8.2e-5 0.442268,0.198081 0.44235,0.44235 2.03e-4,0.244471 -0.197879,0.442785 -0.44235,0.442867 -0.244673,2.03e-4 -0.44307,-0.198194 -0.442867,-0.442867 8.2e-5,-0.244471 0.198396,-0.442553 0.442867,-0.44235 z m 6.793384,0.601513 h 0.37207 v 0.204639 c -0.04237,0.03411 -0.09353,0.06305 -0.153479,0.08682 -0.05994,0.02377 -0.126608,0.03566 -0.199988,0.03566 -0.07028,0 -0.12299,-0.01602 -0.15813,-0.04806 -0.03411,-0.03204 -0.05116,-0.07183 -0.05116,-0.119373 0,-0.02584 0.0052,-0.04858 0.0155,-0.06821 0.01137,-0.01964 0.02584,-0.03618 0.04341,-0.04961 0.0186,-0.01344 0.03927,-0.02381 0.06201,-0.03101 0.02273,-0.0072 0.04599,-0.01085 0.06976,-0.01085 z m 4.247802,0 h 0.372071 v 0.204639 c -0.04237,0.03411 -0.09353,0.06305 -0.153479,0.08682 -0.05994,0.02377 -0.126608,0.03566 -0.199988,0.03566 -0.07028,0 -0.12299,-0.01602 -0.15813,-0.04806 -0.03411,-0.03204 -0.05116,-0.07183 -0.05116,-0.119373 0,-0.02584 0.0052,-0.04858 0.0155,-0.06821 0.01137,-0.01964 0.02584,-0.03618 0.04341,-0.04961 0.0186,-0.01344 0.03927,-0.02381 0.06201,-0.03101 0.02273,-0.0072 0.04599,-0.01085 0.06976,-0.01085 z"
       sodipodi:nodetypes="cccccccsscccscccscccsccccscccsccscccscccsccccccccccscccsscccccccccccccccsscscccscscsccccsccsccscccscccsccccccccscccccccccssccccccccccccccsscscccccsccsccccccccccccccccccccccccssccsscscccssccsscscccsccccscs" />
  </g>
</svg>
