<?xml version="1.0" encoding="UTF-8" standalone="no"?>
<!-- Created with Inkscape (http://www.inkscape.org/) -->

<svg
   width="127.17542mm"
   height="127.17542mm"
   viewBox="0 0 127.17542 127.17541"
   version="1.1"
   id="svg1"
   inkscape:version="1.4.2 (2aeb623e1d, 2025-05-12)"
   sodipodi:docname="buwana-icon.svg"
   xmlns:inkscape="http://www.inkscape.org/namespaces/inkscape"
   xmlns:sodipodi="http://sodipodi.sourceforge.net/DTD/sodipodi-0.dtd"
   xmlns="http://www.w3.org/2000/svg"
   xmlns:svg="http://www.w3.org/2000/svg">
  <sodipodi:namedview
     id="namedview1"
     pagecolor="#ffffff"
     bordercolor="#000000"
     borderopacity="0.25"
     inkscape:showpageshadow="2"
     inkscape:pageopacity="0.0"
     inkscape:pagecheckerboard="0"
     inkscape:deskcolor="#d1d1d1"
     inkscape:document-units="mm"
     showguides="true"
     inkscape:zoom="0.74896552"
     inkscape:cx="530.73205"
     inkscape:cy="430.59392"
     inkscape:window-width="2256"
     inkscape:window-height="1425"
     inkscape:window-x="0"
     inkscape:window-y="40"
     inkscape:window-maximized="1"
     inkscape:current-layer="layer1">
    <sodipodi:guide
       position="137.77336,63.58773"
       orientation="0,-1"
       id="guide1"
       inkscape:locked="false" />
    <sodipodi:guide
       position="63.587695,105.97953"
       orientation="1,0"
       id="guide2"
       inkscape:locked="false" />
  </sodipodi:namedview>
  <defs
     id="defs1">
    <clipPath
       clipPathUnits="userSpaceOnUse"
       id="clipPath3">
      <circle
         style="fill:#00ffff;stroke:none;stroke-width:0.263"
         id="circle3"
         cx="105.62625"
         cy="136.36032"
         r="63.587708" />
    </clipPath>
  </defs>
  <g
     inkscape:label="Layer 1"
     inkscape:groupmode="layer"
     id="layer1"
     transform="translate(-42.038544,-72.772598)">
    <circle
       style="fill:#00ffff;stroke:none;stroke-width:0.263"
       id="path1"
       cx="105.62625"
       cy="136.36031"
       r="63.587708"
       inkscape:export-filename="../5ad5cc91/buwana-icon-1000px.png"
       inkscape:export-xdpi="199.72414"
       inkscape:export-ydpi="199.72414" />
    <path
       d="m 98.397434,81.035103 -26.019776,0.228853 c -4.323746,5.250622 -6.006374,11.381442 -4.821795,18.468179 2.783464,0.378515 5.823855,0.127635 9.893529,0 v 87.473195 c 6.982512,2.16671 13.964755,1.47705 20.947264,0 v -1.91057 c 2.319894,1.00084 4.776454,1.77413 7.369104,2.31989 2.59264,0.54575 5.32217,0.81864 8.18783,0.81864 5.32219,0 10.21191,-0.95509 14.66996,-2.86567 4.45779,-1.95591 8.30165,-4.59416 11.53131,-7.91481 3.22966,-3.36603 5.73129,-7.30088 7.50545,-11.80405 1.81951,-4.50342 2.72927,-9.30241 2.72927,-14.39696 0,-5.04917 -0.9326,-9.82533 -2.79746,-14.32876 -1.81949,-4.50315 -4.34398,-8.43803 -7.5739,-11.80406 -3.22965,-3.36602 -7.07325,-6.0271 -11.53105,-7.983 -4.45777,-1.95592 -9.3024,-2.93383 -14.53331,-2.93383 -2.72928,0 -5.39037,0.31686 -7.98303,0.95508 -2.59265,0.63685 -5.11738,1.54657 -7.573905,2.72926 z m 15.488756,50.901347 c 10.75091,0.004 19.46531,8.71803 19.46895,19.46895 0.011,10.75973 -8.70922,19.48786 -19.46895,19.49149 -10.76857,0.011 -19.500611,-8.72294 -19.491528,-19.49149 0.0026,-10.75974 8.731758,-19.47775 19.491528,-19.46895 z"
       fill="#ffffff"
       stroke-width="11.6449"
       id="path112" />
    <path
       d="m 144.54144,130.92286 c -1.7448,-0.10051 -3.38236,-0.32502 -4.55073,-0.62415 -0.97773,-0.25044 -2.13729,-0.76562 -2.5594,-1.13786 -0.37734,-0.33269 -0.38898,-0.41271 -0.1786,-1.2201 0.51688,-1.98446 2.36251,-3.88374 4.82946,-4.97029 0.5507,-0.24246 0.70715,-0.28096 1.25784,-0.30983 1.07012,-0.0564 1.78194,0.17742 4.06903,1.33591 1.74439,0.88344 2.24665,1.05053 3.16541,1.0533 0.6025,0.002 0.76951,-0.0214 1.03694,-0.14496 0.17525,-0.0807 0.34669,-0.14693 0.38052,-0.14693 0.0952,0 0.89847,0.51129 1.46672,0.93613 1.77399,1.32511 2.15577,2.55821 1.07519,3.47422 -0.59616,0.50584 -1.49494,0.89054 -2.81156,1.20391 -1.89893,0.45199 -4.89809,0.6819 -7.18113,0.55057 z M 44.522559,141.54572 c -1.500113,-0.24937 -2.933311,-0.94119 -4.034803,-1.94793 -0.686013,-0.62709 -1.173089,-1.32087 -1.438076,-2.04937 -0.365735,-1.00633 -0.150098,-1.98504 0.572894,-2.59834 0.686013,-0.58119 1.778437,-0.9307 3.297984,-1.05477 l 0.564435,-0.0456 0.237824,-0.66888 c 0.281156,-0.79177 0.447127,-1.10702 0.867818,-1.65373 1.41587,-1.83802 3.98917,-2.1188 7.122521,-0.77718 1.272754,0.54492 2.883154,1.62541 3.682523,2.47049 0.291737,0.30837 0.527457,0.47132 1.042227,0.72061 2.234455,1.08196 3.317457,2.27694 3.162461,3.48976 -0.174389,1.36658 -1.917323,2.66207 -4.467139,3.3206 -1.870175,0.48301 -3.776542,0.52567 -5.563122,0.12471 l -0.614121,-0.13788 -0.513709,0.238 c -0.876276,0.40609 -1.6461,0.5804 -2.674067,0.60578 -0.493626,0.0118 -1.053852,-0.004 -1.245276,-0.036 z M 114.23076,95.402872 c -0.83926,-0.05842 -1.96244,-0.245003 -2.53913,-0.42193 -1.7724,-0.544058 -2.30153,-1.507077 -1.56988,-2.856797 0.33507,-0.618527 1.50837,-1.721238 2.38532,-2.242315 3.68921,-2.192361 7.26178,-2.06746 8.58553,0.300216 0.2706,0.483665 0.30335,0.514979 0.6786,0.650993 0.74307,0.269 2.07297,0.930308 2.48681,1.237113 0.24945,0.18509 0.48305,0.431765 0.58981,0.622303 0.15756,0.282041 0.16818,0.342899 0.0952,0.571852 -0.21129,0.649821 -1.54789,1.232431 -3.785,1.650251 -2.00373,0.37431 -5.261,0.603932 -6.92582,0.488334 z"
       fill="#ffffff"
       opacity="0.7"
       stroke-width="0.0688767"
       id="path117"
       sodipodi:nodetypes="ccsccccscsccsccccccccccssccscccccccccccccccccc" />
    <g
       id="g3"
       clip-path="url(#clipPath3)">
      <g
         transform="matrix(1.3786692,-0.03069003,0.01918219,1.0807924,37.466245,59.142978)"
         fill="#2db337"
         id="g115">
        <path
           d="M 9.0677,127.45 C 6.4312,121.1296 32.614387,110.49372 44.370148,110.95955 68.657919,110.71444 85.9107,118.6232 90.6937,127.496 c 0.2996,0.55578 0.16868,0.31312 0.38521,0.78324 0.28639,0.6218 0.38004,1.2773 -0.0052,1.5815 -14.96,12.445 -66.933,11.824 -82.006,-2.4102 z"
           id="path113"
           sodipodi:nodetypes="ccssccc" />
        <path
           d="m 28.835369,114.43357 c -0.488203,-2.56549 -0.666895,-1.32094 -0.626601,-0.31669 -0.565388,-1.88806 0.108245,1.84494 -0.712012,-0.49958 0.458821,2.54557 -1.005272,-2.37684 -0.394666,0.49177 -0.820939,-2.00914 -0.908275,-2.28503 -0.378605,-0.0224 -0.373268,-0.65142 -0.863783,-1.8292 -0.451894,0.43311 -0.584125,-0.55132 -0.358455,-1.06091 -0.494408,-0.0425 -0.818726,-0.63313 0.368893,1.29489 -0.798717,-0.38625 -0.01012,0.76641 -0.393495,0.0302 0.05846,1.71448 -0.667799,-1.36375 -0.830776,-2.83012 -0.656956,-0.51716 -1.082802,-2.48973 -0.08073,1.45861 -1.06594,-1.20892 -0.09238,0.31058 -0.03439,1.54887 -0.0407,2.24127"
           stroke-opacity="0"
           id="path114" />
        <path
           d="m 70.681275,114.33355 c 0.78266,-2.441 0.81359,-1.1754 0.65624,-0.19034 0.77965,-1.7561 -0.32288,1.803 0.76204,-0.35445 -0.75132,2.4271 1.2715,-2.1531 0.33244,0.5636 1.0464,-1.8257 1.165,-2.0814 0.37675,0.0521 0.44508,-0.57094 1.0677,-1.6394 0.39586,0.51681 0.64173,-0.43065 0.47837,-0.97874 0.49353,0.0549 0.88314,-0.46552 -0.51607,1.2081 0.83446,-0.22535 -0.0797,0.75977 0.3853,0.10695 -0.25842,1.6837 0.81951,-1.2176 1.1522,-2.6355 0.7097,-0.38257 1.3613,-2.2495 -0.09093,1.4581 1.1948,-0.9864 0.05491,0.32522 -0.14729,1.5382 -0.22208,2.224"
           stroke-opacity="0"
           id="path115" />
      </g>
      <path
         d="m 113.81987,177.75748 c -0.65688,-0.4909 -5.14623,-0.59982 -6.64847,-0.24341 -0.0955,0.0226 -0.10191,0.0582 -0.17216,0.0845 -10.389673,3.89459 -6.90762,11.70574 -5.07114,15.30813 3.14113,6.16027 -5.104917,11.32202 -7.232248,14.00308 -0.409868,0.51776 0.422201,0.7687 0.741746,0.84511 7.198552,1.72113 17.865782,1.43041 26.028422,-0.49786 0.24774,-0.0586 0.83918,-0.0892 0.78667,-0.77632 0,0 0.65127,-11.17154 -4.32768,-15.01035 -6.66324,-4.00118 -12.50934,-6.56933 -4.06531,-13.68136"
         fill="#b0c767"
         stroke-width="1.81522"
         id="path116"
         sodipodi:nodetypes="cssccccccc" />
    </g>
  </g>
</svg>
