<?xml version="1.0" encoding="UTF-8" standalone="no"?>
<!-- Created with Inkscape (http://www.inkscape.org/) -->

<svg
   width="156.42mm"
   height="63.157mm"
   version="1.1"
   viewBox="0 0 156.42 63.157"
   id="svg93062"
   sodipodi:docname="buwana-welcome-b-night.svg"
   inkscape:version="1.4.2 (2aeb623e1d, 2025-05-12)"
   xmlns:inkscape="http://www.inkscape.org/namespaces/inkscape"
   xmlns:sodipodi="http://sodipodi.sourceforge.net/DTD/sodipodi-0.dtd"
   xmlns:xlink="http://www.w3.org/1999/xlink"
   xmlns="http://www.w3.org/2000/svg"
   xmlns:svg="http://www.w3.org/2000/svg">
  <sodipodi:namedview
     id="namedview93064"
     pagecolor="#ffffff"
     bordercolor="#000000"
     borderopacity="0.25"
     inkscape:showpageshadow="2"
     inkscape:pageopacity="0.0"
     inkscape:pagecheckerboard="0"
     inkscape:deskcolor="#d1d1d1"
     inkscape:document-units="mm"
     showgrid="false"
     inkscape:zoom="1.9773474"
     inkscape:cx="378.79029"
     inkscape:cy="193.9467"
     inkscape:window-width="2256"
     inkscape:window-height="1427"
     inkscape:window-x="0"
     inkscape:window-y="0"
     inkscape:window-maximized="1"
     inkscape:current-layer="g92786"
     showguides="true">
    <sodipodi:guide
       position="89.317493,19.255185"
       orientation="0,-1"
       id="guide6"
       inkscape:locked="false" />
  </sodipodi:namedview>
  <defs
     id="defs92416">
    <linearGradient
       id="linearGradient50606"
       x1="421.46"
       x2="458.99"
       y1="81.216"
       y2="80.958"
       gradientTransform="matrix(0.36219,-0.0075634,0.0085593,0.45242,-122.38,55.957)"
       gradientUnits="userSpaceOnUse"
       xlink:href="#linearGradient15073" />
    <linearGradient
       id="linearGradient15073">
      <stop
         stop-color="#d1a448"
         offset="0"
         id="stop92390" />
      <stop
         stop-color="#9b7527"
         stop-opacity=".9918"
         offset="1"
         id="stop92392" />
    </linearGradient>
    <linearGradient
       id="linearGradient33560"
       x1="439.64"
       x2="412.56"
       y1="53.484"
       y2="53.871"
       gradientTransform="matrix(0.36219,-0.0075634,0.0085593,0.45242,-123.44,56.069)"
       gradientUnits="userSpaceOnUse"
       xlink:href="#linearGradient15111" />
    <linearGradient
       id="linearGradient15111">
      <stop
         stop-color="#96312a"
         offset="0"
         id="stop92396" />
      <stop
         stop-color="#65211c"
         stop-opacity=".9959"
         offset="1"
         id="stop92398" />
    </linearGradient>
    <linearGradient
       id="linearGradient33562"
       x1="419.65"
       x2="452.28"
       y1="64.964"
       y2="65.351"
       gradientTransform="matrix(0.36219,-0.0071478,0.0085593,0.42756,-122.85,57.356)"
       gradientUnits="userSpaceOnUse"
       xlink:href="#linearGradient15103" />
    <linearGradient
       id="linearGradient15103">
      <stop
         stop-color="#c33f37"
         offset="0"
         id="stop92402" />
      <stop
         stop-color="#b33a33"
         stop-opacity=".98039"
         offset="1"
         id="stop92404" />
    </linearGradient>
    <linearGradient
       id="linearGradient15121"
       x1="367.11"
       x2="367.22"
       y1="87.487"
       y2="90.811"
       gradientUnits="userSpaceOnUse">
      <stop
         stop-color="#916f6f"
         offset="0"
         id="stop92407" />
      <stop
         stop-color="#685050"
         stop-opacity=".9918"
         offset="1"
         id="stop92409" />
    </linearGradient>
    <mask
       maskUnits="userSpaceOnUse"
       id="mask92414">
      <path
         d="m1881.6-3090.4a411.14 386.68 0 0 1-411.14 386.69 411.14 386.68 0 0 1-411.14-386.69 411.14 386.68 0 0 1 411.14-386.68 411.14 386.68 0 0 1 411.14 386.68z"
         fill="#0ff"
         stroke-linecap="round"
         stroke-linejoin="round"
         stroke-miterlimit="10"
         stroke-width="3.4838"
         id="path92412" />
    </mask>
    <linearGradient
       inkscape:collect="always"
       xlink:href="#linearGradient15073"
       id="linearGradient1"
       gradientUnits="userSpaceOnUse"
       gradientTransform="matrix(0.36219,-0.0075634,0.0085593,0.45242,-122.38,55.957)"
       x1="421.46"
       y1="81.216"
       x2="458.99"
       y2="80.958" />
    <linearGradient
       inkscape:collect="always"
       xlink:href="#linearGradient15111"
       id="linearGradient2"
       gradientUnits="userSpaceOnUse"
       gradientTransform="matrix(0.36219,-0.0075634,0.0085593,0.45242,-123.44,56.069)"
       x1="439.64"
       y1="53.484"
       x2="412.56"
       y2="53.871" />
    <linearGradient
       inkscape:collect="always"
       xlink:href="#linearGradient15103"
       id="linearGradient3"
       gradientUnits="userSpaceOnUse"
       gradientTransform="matrix(0.36219,-0.0071478,0.0085593,0.42756,-122.85,57.356)"
       x1="419.65"
       y1="64.964"
       x2="452.28"
       y2="65.351" />
    <clipPath
       clipPathUnits="userSpaceOnUse"
       id="clipPath908-3">
      <ellipse
         style="opacity:0.8;fill:#554400;fill-opacity:1;stroke:#000000;stroke-width:0.558001;stroke-linejoin:bevel;paint-order:markers stroke fill"
         id="ellipse910-60"
         cx="102.80293"
         cy="142.71037"
         rx="16.567318"
         ry="26.42189" />
    </clipPath>
    <clipPath
       clipPathUnits="userSpaceOnUse"
       id="clipPath946-6">
      <ellipse
         style="display:inline;opacity:0.8;fill:#554400;fill-opacity:1;stroke:#000000;stroke-width:0.381132;stroke-linejoin:bevel;paint-order:markers stroke fill"
         id="ellipse948-2"
         cx="191.40788"
         cy="131.00757"
         rx="7.7861118"
         ry="26.228687" />
    </clipPath>
    <filter
       id="filter147397"
       x="0"
       y="0"
       width="1"
       height="1"
       color-interpolation-filters="sRGB">
      <feColorMatrix
         values="0.918789 0 0 -0.218724 0.0406056 0 0.918789 0 -0.218724 0.0406056 0 0 0.918789 -0.218724 0.0406056 0 0 0 1 0"
         id="feColorMatrix839" />
    </filter>
    <filter
       id="filter147401"
       x="0"
       y="-0.00069516243"
       width="1"
       height="1.0006952"
       color-interpolation-filters="sRGB">
      <feColorMatrix
         values="0.918789 0 0 -0.218724 0.0406056 0 0.918789 0 -0.218724 0.0406056 0 0 0.918789 -0.218724 0.0406056 0 0 0 1 0"
         id="feColorMatrix842" />
    </filter>
    <filter
       id="filter147405"
       x="0"
       y="0"
       width="1"
       height="1"
       color-interpolation-filters="sRGB">
      <feColorMatrix
         values="0.918789 0 0 -0.218724 0.0406056 0 0.918789 0 -0.218724 0.0406056 0 0 0.918789 -0.218724 0.0406056 0 0 0 1 0"
         id="feColorMatrix845" />
    </filter>
    <filter
       id="filter147409"
       x="0"
       y="0"
       width="1"
       height="1"
       color-interpolation-filters="sRGB">
      <feColorMatrix
         values="0.918789 0 0 -0.218724 0.0406056 0 0.918789 0 -0.218724 0.0406056 0 0 0.918789 -0.218724 0.0406056 0 0 0 1 0"
         id="feColorMatrix848" />
    </filter>
    <filter
       id="filter147413"
       x="0"
       y="0"
       width="1"
       height="1"
       color-interpolation-filters="sRGB">
      <feColorMatrix
         values="0.918789 0 0 -0.218724 0.0406056 0 0.918789 0 -0.218724 0.0406056 0 0 0.918789 -0.218724 0.0406056 0 0 0 1 0"
         id="feColorMatrix851" />
    </filter>
    <filter
       id="filter147417"
       x="0"
       y="0"
       width="1"
       height="1"
       color-interpolation-filters="sRGB">
      <feColorMatrix
         values="0.918789 0 0 -0.218724 0.0406056 0 0.918789 0 -0.218724 0.0406056 0 0 0.918789 -0.218724 0.0406056 0 0 0 1 0"
         id="feColorMatrix854" />
    </filter>
    <filter
       style="color-interpolation-filters:sRGB;"
       inkscape:label="Lighting"
       id="filter20"
       x="0"
       y="-0.004550847"
       width="1"
       height="1.0045508">
      <feComponentTransfer
         in="blur"
         result="component"
         id="feComponentTransfer20">
        <feFuncR
           type="gamma"
           amplitude="1.10958"
           exponent="1.68333"
           offset="0"
           id="feFuncR20" />
        <feFuncG
           type="gamma"
           amplitude="1.10958"
           exponent="1.68333"
           offset="0"
           id="feFuncG20" />
        <feFuncB
           type="gamma"
           amplitude="1.10958"
           exponent="1.68333"
           offset="0"
           id="feFuncB20" />
      </feComponentTransfer>
    </filter>
    <filter
       style="color-interpolation-filters:sRGB;"
       inkscape:label="Lighting"
       id="filter21"
       x="0"
       y="0"
       width="1"
       height="1">
      <feComponentTransfer
         in="blur"
         result="component"
         id="feComponentTransfer21">
        <feFuncR
           type="gamma"
           amplitude="1.10958"
           exponent="1.68333"
           offset="0"
           id="feFuncR21" />
        <feFuncG
           type="gamma"
           amplitude="1.10958"
           exponent="1.68333"
           offset="0"
           id="feFuncG21" />
        <feFuncB
           type="gamma"
           amplitude="1.10958"
           exponent="1.68333"
           offset="0"
           id="feFuncB21" />
      </feComponentTransfer>
    </filter>
    <filter
       style="color-interpolation-filters:sRGB;"
       inkscape:label="Lighting"
       id="filter22"
       x="-0.001857884"
       y="-0.0019369008"
       width="1.0037158"
       height="1.0041527">
      <feComponentTransfer
         in="blur"
         result="component"
         id="feComponentTransfer22">
        <feFuncR
           type="gamma"
           amplitude="1.10958"
           exponent="1.68333"
           offset="0"
           id="feFuncR22" />
        <feFuncG
           type="gamma"
           amplitude="1.10958"
           exponent="1.68333"
           offset="0"
           id="feFuncG22" />
        <feFuncB
           type="gamma"
           amplitude="1.10958"
           exponent="1.68333"
           offset="0"
           id="feFuncB22" />
      </feComponentTransfer>
    </filter>
  </defs>
  <ellipse
     cx="78.084511"
     cy="28.412701"
     rx="79.292625"
     ry="28.162001"
     fill-opacity="0.8"
     stroke-width="0.225159"
     id="ellipse11"
     style="display:inline;mix-blend-mode:difference;fill:#000000;fill-opacity:1"
     inkscape:label="black oval" />
  <g
     transform="matrix(0.87941692,0,0,1,-11.00915,-47.597907)"
     fill="#fbc02d"
     style="display:inline;mix-blend-mode:normal"
     id="g32"
     inkscape:label="stars">
    <path
       d="m 74.021992,65.520367 c -0.54276,-0.02542 -1.0345,-0.1814 -1.4709,-0.46665 -0.44097,-0.28821 -0.77949,-0.66864 -1.0151,-1.1407 -0.15942,-0.3195 -0.25144,-0.64276 -0.29118,-1.0229 -0.01024,-0.09691 -0.01002,-0.43517 0,-0.52679 0.01326,-0.11865 0.02508,-0.20192 0.04021,-0.28117 0.15798,-0.82707 0.66936,-1.545 1.4021,-1.9681 0.06857,-0.03961 0.29833,-0.15386 0.30942,-0.15386 0.0035,0 -0.0184,0.05131 -0.0488,0.11395 -0.15032,0.30981 -0.23589,0.61724 -0.27058,0.97221 -0.01141,0.11695 -0.0098,0.40488 0.0032,0.52383 0.06237,0.57676 0.27366,1.0769 0.64377,1.5242 0.06612,0.07991 0.25882,0.27167 0.34262,0.34094 0.18278,0.15115 0.34378,0.25663 0.54456,0.35675 0.31293,0.15605 0.61382,0.2435 0.97364,0.28301 0.09497,0.01047 0.46861,0.01047 0.55343,2.07e-4 0.24026,-0.02929 0.41144,-0.06608 0.60214,-0.12911 0.12066,-0.03986 0.20509,-0.07462 0.33698,-0.13856 0.1129,-0.05475 0.11903,-0.05705 0.11374,-0.04182 -0.0149,0.04287 -0.12811,0.26315 -0.17679,0.34413 -0.29288,0.4872 -0.70941,0.87014 -1.2164,1.1183 -0.32562,0.15942 -0.67038,0.25407 -1.0329,0.28357 -0.08461,0.0069 -0.27754,0.01165 -0.34329,0.0088 z"
       opacity="0.79214"
       stroke-width="0.0073911"
       id="path17" />
    <path
       d="m 125.15,60.837 c -0.0266,-0.25973 -0.12165,-0.51859 -0.25421,-0.6909 -0.16942,-0.22041 -0.45881,-0.3679 -0.80925,-0.41247 l -0.15634,-0.01984 0.14171,-0.01951 c 0.19252,-0.02657 0.33069,-0.06659 0.48112,-0.13897 0.10142,-0.04884 0.15252,-0.08672 0.25759,-0.19095 0.11147,-0.11059 0.14137,-0.15139 0.19974,-0.27288 0.32874,-0.82093 -0.0206,-0.67922 0.31428,0.01412 0.0497,0.10067 0.0899,0.15479 0.18435,0.24893 0.0664,0.06625 0.15959,0.14312 0.20705,0.17093 0.12486,0.07322 0.3154,0.13437 0.5095,0.16353 l 0.16943,0.02557 -0.14823,0.0185 c -0.35428,0.04449 -0.64751,0.19478 -0.81511,0.41771 -0.13349,0.17759 -0.20356,0.35821 -0.24496,0.63129 l -0.0252,0.16673 z"
       opacity="0.90921"
       stroke-width="0.01504"
       id="path18" />
    <path
       d="m 63.474594,71.999494 c -0.01642,-0.16016 -0.07512,-0.31973 -0.1567,-0.42595 -0.10447,-0.13589 -0.28288,-0.22682 -0.49894,-0.25432 l -0.09636,-0.01227 0.08738,-0.01202 c 0.11868,-0.01636 0.20386,-0.04099 0.29659,-0.08575 0.0625,-0.03015 0.09406,-0.05345 0.15882,-0.11771 0.06873,-0.06812 0.08718,-0.09336 0.12314,-0.16824 0.20266,-0.5061 -0.01254,-0.41874 0.19373,0.0087 0.03079,0.06207 0.05535,0.09549 0.11367,0.15349 0.04098,0.04079 0.0984,0.08825 0.12768,0.10538 0.07692,0.04514 0.19442,0.08283 0.31411,0.10083 l 0.10443,0.01585 -0.09131,0.01151 c -0.21845,0.02744 -0.39922,0.12006 -0.50253,0.25752 -0.08234,0.1095 -0.12553,0.22083 -0.15106,0.38921 l -0.01566,0.10278 z"
       opacity="0.90921"
       stroke-width="0.012196"
       id="path19" />
    <path
       d="m 41.921,70.818 c -0.0208,-0.20446 -0.0958,-0.40819 -0.20006,-0.54381 -0.13337,-0.17353 -0.36114,-0.2896 -0.63698,-0.32468 l -0.12307,-0.01547 0.11149,-0.01548 c 0.15153,-0.02085 0.26028,-0.0524 0.3787,-0.10948 0.0798,-0.03838 0.11998,-0.06825 0.20275,-0.15028 0.0877,-0.08695 0.11123,-0.1191 0.15722,-0.21479 0.25871,-0.64615 -0.0162,-0.53459 0.24735,0.01144 0.0391,0.07916 0.0708,0.12176 0.14509,0.19592 0.0523,0.05213 0.1256,0.11264 0.16301,0.13457 0.0983,0.05758 0.24825,0.10576 0.40101,0.12869 l 0.13337,0.02018 -0.11672,0.01446 c -0.27886,0.03497 -0.50966,0.15327 -0.64158,0.32878 -0.10514,0.13978 -0.16023,0.28192 -0.19282,0.49692 l -0.0198,0.13121 z"
       opacity="0.90921"
       stroke-width="0.011838"
       id="path20" />
    <path
       d="m 81.89,71.2 c 0.01837,-0.17826 0.08353,-0.35585 0.17442,-0.47409 0.11626,-0.15124 0.31482,-0.25244 0.55531,-0.28305 L 82.727,70.42919 82.62976,70.4158 c -0.1321,-0.01831 -0.2269,-0.04565 -0.33012,-0.09535 -0.06957,-0.03348 -0.10467,-0.0595 -0.17678,-0.13101 -0.07648,-0.07583 -0.09701,-0.10387 -0.13705,-0.18725 -0.22557,-0.5633 0.01398,-0.46606 -0.21562,0.0093 -0.03414,0.06914 -0.06169,0.10623 -0.1265,0.17081 -0.04559,0.04546 -0.10954,0.09816 -0.14212,0.1173 -0.08567,0.05021 -0.21638,0.09218 -0.34958,0.11221 l -0.11626,0.01749 0.10172,0.01285 c 0.24312,0.03059 0.44429,0.13364 0.5593,0.28664 0.09163,0.12183 0.1397,0.24576 0.16812,0.43318 l 0.01723,0.1144 z"
       opacity="0.90921"
       stroke-width="0.0095588"
       id="path21" />
    <path
       d="m 64.621,58.743 c 0.01927,-0.18879 0.08847,-0.37693 0.18475,-0.50216 0.12315,-0.16019 0.33347,-0.2674 0.58818,-0.29979 l 0.11361,-0.01455 -0.10298,-0.01432 c -0.13993,-0.01949 -0.24034,-0.04837 -0.34968,-0.10103 -0.07368,-0.0355 -0.11084,-0.06299 -0.18722,-0.13878 -0.08103,-0.08029 -0.10277,-0.11002 -0.14517,-0.19832 -0.23893,-0.59666 0.0148,-0.49366 -0.22842,0.01032 -0.03616,0.07311 -0.06527,0.11251 -0.13399,0.18095 -0.0483,0.04809 -0.11601,0.10401 -0.15052,0.12423 -0.09074,0.05325 -0.22922,0.09767 -0.3703,0.11887 l -0.12312,0.01855 0.10772,0.01361 c 0.25751,0.03231 0.47062,0.14156 0.59243,0.3036 0.09703,0.12909 0.14798,0.26036 0.17806,0.45884 l 0.01829,0.12115 z"
       opacity="0.90921"
       stroke-width="0.01566"
       id="path22" />
    <path
       d="m 140.54,58.93 c 0.0223,-0.21822 0.10227,-0.43567 0.21354,-0.58042 0.14233,-0.18514 0.38543,-0.30905 0.67983,-0.34651 l 0.13133,-0.01665 -0.11905,-0.01643 c -0.16171,-0.02238 -0.27778,-0.05592 -0.40416,-0.11678 -0.0852,-0.04099 -0.12811,-0.07284 -0.21639,-0.16039 -0.0936,-0.09284 -0.11876,-0.12718 -0.16778,-0.22923 -0.27617,-0.6896 0.0171,-0.57059 -0.26401,0.01192 -0.0418,0.08455 -0.0755,0.13005 -0.15485,0.20914 -0.0558,0.0556 -0.13409,0.12019 -0.17397,0.14358 -0.10491,0.06151 -0.26494,0.11288 -0.42799,0.13739 l -0.14233,0.02135 0.12451,0.01561 c 0.29764,0.03742 0.54394,0.16361 0.68478,0.35089 0.11214,0.14918 0.17102,0.30092 0.20578,0.53034 l 0.0212,0.14005 z"
       opacity="0.90921"
       stroke-width="0.020683"
       id="path23" />
    <path
       d="m 133.22,70.536 c 0.0188,-0.18407 0.0862,-0.36748 0.18009,-0.48958 0.12009,-0.15618 0.32514,-0.2607 0.57349,-0.29229 l 0.11076,-0.01419 -0.10042,-0.01396 c -0.13642,-0.01899 -0.23433,-0.04716 -0.34091,-0.0985 -0.0719,-0.03461 -0.10809,-0.06141 -0.18255,-0.13531 -0.079,-0.07828 -0.10017,-0.10726 -0.14153,-0.19336 -0.23294,-0.58172 0.0144,-0.48129 -0.22269,0.01007 -0.0352,0.07128 -0.0637,0.10969 -0.13063,0.17642 -0.0471,0.04688 -0.11311,0.1014 -0.14675,0.12111 -0.0885,0.05191 -0.22349,0.09522 -0.36103,0.11589 l -0.12007,0.01809 0.10505,0.01327 c 0.25104,0.03149 0.45884,0.138 0.5776,0.29599 0.0946,0.12586 0.14426,0.25384 0.1736,0.44736 l 0.0178,0.11812 z"
       opacity="0.90921"
       stroke-width="0.01566"
       id="path24" />
    <path
       d="m 156.5,77.742 c -0.0208,-0.20446 -0.0958,-0.40819 -0.20006,-0.54381 -0.13337,-0.17353 -0.36114,-0.2896 -0.63698,-0.32468 l -0.12307,-0.01547 0.11149,-0.01548 c 0.15153,-0.02085 0.26028,-0.0524 0.3787,-0.10948 0.0798,-0.03838 0.11998,-0.06825 0.20275,-0.15028 0.0877,-0.08695 0.11123,-0.1191 0.15722,-0.21479 0.25871,-0.64615 -0.0162,-0.53459 0.24735,0.01144 0.0391,0.07916 0.0708,0.12176 0.14509,0.19592 0.0523,0.05213 0.1256,0.11264 0.16301,0.13457 0.0983,0.05758 0.24825,0.10576 0.40101,0.12869 l 0.13337,0.02018 -0.11672,0.01446 c -0.27886,0.03497 -0.50966,0.15327 -0.64158,0.32878 -0.10514,0.13978 -0.16023,0.28192 -0.19282,0.49692 l -0.0198,0.13121 z"
       opacity="0.90921"
       stroke-width="0.011838"
       id="path25" />
    <g
       fill-opacity="0.67168"
       stroke-width="0.011838"
       id="g31">
      <path
         d="m 167.15166,65.564708 c -0.0208,-0.20447 -0.0959,-0.4082 -0.20006,-0.5438 -0.13336,-0.1735 -0.36114,-0.2896 -0.63698,-0.32468 l -0.12307,-0.01581 0.1115,-0.01547 c 0.15152,-0.02086 0.26028,-0.05238 0.37866,-0.10945 0.0798,-0.03841 0.12001,-0.06828 0.20275,-0.15031 0.0877,-0.08695 0.11126,-0.11911 0.15721,-0.21476 0.25875,-0.64617 -0.0162,-0.53463 0.24735,0.01143 0.0392,0.07918 0.0708,0.12176 0.1451,0.19592 0.0523,0.05214 0.12563,0.11264 0.16303,0.13458 0.0983,0.05758 0.24823,0.10574 0.40103,0.12868 l 0.13336,0.02018 -0.11671,0.01446 c -0.27888,0.03498 -0.50967,0.15332 -0.64159,0.32878 -0.10514,0.13979 -0.16023,0.28196 -0.19283,0.49692 l -0.0198,0.13121 z"
         opacity="0.90921"
         id="path26" />
      <path
         d="m 148.58,69.338 c -0.0208,-0.20447 -0.0959,-0.4082 -0.20006,-0.5438 -0.13336,-0.1735 -0.36114,-0.2896 -0.63698,-0.32468 l -0.12307,-0.01581 0.1115,-0.01547 c 0.15152,-0.02086 0.26028,-0.05238 0.37866,-0.10945 0.0798,-0.03841 0.12001,-0.06828 0.20275,-0.15031 0.0877,-0.08695 0.11126,-0.11911 0.15721,-0.21476 0.25875,-0.64617 -0.0162,-0.53463 0.24735,0.01143 0.0392,0.07918 0.0708,0.12176 0.1451,0.19592 0.0523,0.05214 0.12563,0.11264 0.16303,0.13458 0.0983,0.05758 0.24823,0.10574 0.40103,0.12868 l 0.13336,0.02018 -0.11671,0.01446 c -0.27888,0.03498 -0.50967,0.15332 -0.64159,0.32878 -0.10514,0.13979 -0.16023,0.28196 -0.19283,0.49692 l -0.0198,0.13121 z"
         opacity="0.90921"
         id="path27" />
      <path
         d="m 60.626161,80.807612 c -0.0208,-0.20447 -0.0959,-0.4082 -0.20006,-0.5438 -0.13336,-0.1735 -0.36114,-0.2896 -0.63698,-0.32468 l -0.12307,-0.01581 0.1115,-0.01547 c 0.15152,-0.02086 0.26028,-0.05238 0.37866,-0.10945 0.0798,-0.03841 0.12001,-0.06828 0.20275,-0.15031 0.0877,-0.08695 0.11126,-0.11911 0.15721,-0.21476 0.25875,-0.64617 -0.0162,-0.53463 0.24735,0.01143 0.0392,0.07918 0.0708,0.12176 0.1451,0.19592 0.0523,0.05214 0.12563,0.11264 0.16303,0.13458 0.0983,0.05758 0.24823,0.10574 0.40103,0.12868 l 0.13336,0.02018 -0.11671,0.01446 c -0.27888,0.03498 -0.50967,0.15332 -0.64159,0.32878 -0.10514,0.13979 -0.16023,0.28196 -0.19283,0.49692 l -0.0198,0.13121 z"
         opacity="0.90921"
         id="path28" />
      <path
         d="M 30.366,78.403 C 30.3452,78.19853 30.2701,77.9948 30.16594,77.8592 30.03258,77.6857 29.8048,77.5696 29.52896,77.53452 l -0.12307,-0.01581 0.1115,-0.01547 c 0.15152,-0.02086 0.26028,-0.05238 0.37866,-0.10945 0.0798,-0.03841 0.12001,-0.06828 0.20275,-0.15031 0.0877,-0.08695 0.11126,-0.11911 0.15721,-0.21476 0.25875,-0.64617 -0.0162,-0.53463 0.24735,0.01143 0.0392,0.07918 0.0708,0.12176 0.1451,0.19592 0.0523,0.05214 0.12563,0.11264 0.16303,0.13458 0.0983,0.05758 0.24823,0.10574 0.40103,0.12868 l 0.13336,0.02018 -0.11671,0.01446 c -0.27888,0.03498 -0.50967,0.15332 -0.64159,0.32878 -0.10514,0.13979 -0.16023,0.28196 -0.19283,0.49692 l -0.0198,0.13121 z"
         opacity="0.90921"
         id="path29" />
      <path
         d="M 48.44,62.55 C 48.4192,62.34553 48.3441,62.1418 48.23994,62.0062 48.10658,61.8327 47.8788,61.7166 47.60296,61.68152 l -0.12307,-0.01581 0.1115,-0.01547 c 0.15152,-0.02086 0.26028,-0.05238 0.37866,-0.10945 0.0798,-0.03841 0.12001,-0.06828 0.20275,-0.15031 0.0877,-0.08695 0.11126,-0.11911 0.15721,-0.21476 0.25875,-0.64617 -0.0162,-0.53463 0.24735,0.01143 0.0392,0.07918 0.0708,0.12176 0.1451,0.19592 0.0523,0.05214 0.12563,0.11264 0.16303,0.13458 0.0983,0.05758 0.24823,0.10574 0.40103,0.12868 l 0.13336,0.02018 -0.11671,0.01446 c -0.27888,0.03498 -0.50967,0.15332 -0.64159,0.32878 -0.10514,0.13979 -0.16023,0.28196 -0.19283,0.49692 l -0.0198,0.13121 z"
         opacity="0.90921"
         id="path30" />
      <path
         d="m 174.49,72.36 c -0.0208,-0.20447 -0.0959,-0.4082 -0.20006,-0.5438 -0.13336,-0.1735 -0.36114,-0.2896 -0.63698,-0.32468 l -0.12307,-0.01581 0.1115,-0.01547 c 0.15152,-0.02086 0.26028,-0.05238 0.37866,-0.10945 0.0798,-0.03841 0.12001,-0.06828 0.20275,-0.15031 0.0877,-0.08695 0.11126,-0.11911 0.15721,-0.21476 0.25875,-0.64617 -0.0162,-0.53463 0.24735,0.01143 0.0392,0.07918 0.0708,0.12176 0.1451,0.19592 0.0523,0.05214 0.12563,0.11264 0.16303,0.13458 0.0983,0.05758 0.24823,0.10574 0.40103,0.12868 l 0.13336,0.02018 -0.11671,0.01446 c -0.27888,0.03498 -0.50967,0.15332 -0.64159,0.32878 -0.10514,0.13979 -0.16023,0.28196 -0.19283,0.49692 l -0.0198,0.13121 z"
         opacity="0.90921"
         id="path31" />
      <path
         d="m 115.69823,78.628533 c -0.0208,-0.20447 -0.0959,-0.4082 -0.20006,-0.5438 -0.13336,-0.1735 -0.36114,-0.2896 -0.63698,-0.32468 l -0.12307,-0.01581 0.1115,-0.01547 c 0.15152,-0.02086 0.26028,-0.05238 0.37866,-0.10945 0.0798,-0.03841 0.12001,-0.06828 0.20275,-0.15031 0.0877,-0.08695 0.11126,-0.11911 0.15721,-0.21476 0.25875,-0.64617 -0.0162,-0.53463 0.24735,0.01143 0.0392,0.07918 0.0708,0.12176 0.1451,0.19592 0.0523,0.05214 0.12563,0.11264 0.16303,0.13458 0.0983,0.05758 0.24823,0.10574 0.40103,0.12868 l 0.13336,0.02018 -0.11671,0.01446 c -0.27888,0.03498 -0.50967,0.15332 -0.64159,0.32878 -0.10514,0.13979 -0.16023,0.28196 -0.19283,0.49692 l -0.0198,0.13121 z"
         opacity="0.90921"
         id="path9" />
      <path
         d="m 96.02199,93.72565 c -0.0208,-0.20447 -0.0959,-0.4082 -0.20006,-0.5438 -0.13336,-0.1735 -0.36114,-0.2896 -0.63698,-0.32468 l -0.12307,-0.01581 0.1115,-0.01547 c 0.15152,-0.02086 0.26028,-0.05238 0.37866,-0.10945 0.0798,-0.03841 0.12001,-0.06828 0.20275,-0.15031 0.0877,-0.08695 0.11126,-0.11911 0.15721,-0.21476 0.25875,-0.64617 -0.0162,-0.53463 0.24735,0.01143 0.0392,0.07918 0.0708,0.12176 0.1451,0.19592 0.0523,0.05214 0.12563,0.11264 0.16303,0.13458 0.0983,0.05758 0.24823,0.10574 0.40103,0.12868 l 0.13336,0.02018 -0.11671,0.01446 c -0.27888,0.03498 -0.50967,0.15332 -0.64159,0.32878 -0.10514,0.13979 -0.16023,0.28196 -0.19283,0.49692 l -0.0198,0.13121 z"
         opacity="0.90921"
         id="path10" />
      <path
         d="m 168.38829,84.783512 c -0.0208,-0.20447 -0.0959,-0.4082 -0.20006,-0.5438 -0.13336,-0.1735 -0.36114,-0.2896 -0.63698,-0.32468 l -0.12307,-0.01581 0.1115,-0.01547 c 0.15152,-0.02086 0.26028,-0.05238 0.37866,-0.10945 0.0798,-0.03841 0.12001,-0.06828 0.20275,-0.15031 0.0877,-0.08695 0.11126,-0.11911 0.15721,-0.21476 0.25875,-0.64617 -0.0162,-0.53463 0.24735,0.01143 0.0392,0.07918 0.0708,0.12176 0.1451,0.19592 0.0523,0.05214 0.12563,0.11264 0.16303,0.13458 0.0983,0.05758 0.24823,0.10574 0.40103,0.12868 l 0.13336,0.02018 -0.11671,0.01446 c -0.27888,0.03498 -0.50967,0.15332 -0.64159,0.32878 -0.10514,0.13979 -0.16023,0.28196 -0.19283,0.49692 l -0.0198,0.13121 z"
         opacity="0.90921"
         id="path11" />
      <path
         d="m 179.08477,77.351085 c -0.0208,-0.20447 -0.0959,-0.4082 -0.20006,-0.5438 -0.13336,-0.1735 -0.36114,-0.2896 -0.63698,-0.32468 l -0.12307,-0.01581 0.1115,-0.01547 c 0.15152,-0.02086 0.26028,-0.05238 0.37866,-0.10945 0.0798,-0.03841 0.12001,-0.06828 0.20275,-0.15031 0.0877,-0.08695 0.11126,-0.11911 0.15721,-0.21476 0.25875,-0.64617 -0.0162,-0.53463 0.24735,0.01143 0.0392,0.07918 0.0708,0.12176 0.1451,0.19592 0.0523,0.05214 0.12563,0.11264 0.16303,0.13458 0.0983,0.05758 0.24823,0.10574 0.40103,0.12868 l 0.13336,0.02018 -0.11671,0.01446 c -0.27888,0.03498 -0.50967,0.15332 -0.64159,0.32878 -0.10514,0.13979 -0.16023,0.28196 -0.19283,0.49692 l -0.0198,0.13121 z"
         opacity="0.90921"
         id="path12" />
    </g>
    <path
       d="m 45.954433,85.937775 c -0.01642,-0.16016 -0.07512,-0.31973 -0.1567,-0.42595 -0.10447,-0.13589 -0.28288,-0.22682 -0.49894,-0.25432 l -0.09636,-0.01227 0.08738,-0.01202 c 0.11868,-0.01636 0.20386,-0.04099 0.29659,-0.08575 0.0625,-0.03015 0.09406,-0.05345 0.15882,-0.11771 0.06873,-0.06812 0.08718,-0.09336 0.12314,-0.16824 0.20266,-0.5061 -0.01254,-0.41874 0.19373,0.0087 0.03079,0.06207 0.05535,0.09549 0.11367,0.15349 0.04098,0.04079 0.0984,0.08825 0.12768,0.10538 0.07692,0.04514 0.19442,0.08283 0.31411,0.10083 l 0.10443,0.01585 -0.09131,0.01151 c -0.21845,0.02744 -0.39922,0.12006 -0.50253,0.25752 -0.08234,0.1095 -0.12553,0.22083 -0.15106,0.38921 l -0.01566,0.10278 z"
       opacity="0.90921"
       stroke-width="0.012196"
       id="path1" />
    <path
       d="m 65.366562,94.64765 c -0.01642,-0.16016 -0.07512,-0.31973 -0.1567,-0.42595 -0.10447,-0.13589 -0.28288,-0.22682 -0.49894,-0.25432 l -0.09636,-0.01227 0.08738,-0.01202 c 0.11868,-0.01636 0.20386,-0.04099 0.29659,-0.08575 0.0625,-0.03015 0.09406,-0.05345 0.15882,-0.11771 0.06873,-0.06812 0.08718,-0.09336 0.12314,-0.16824 0.20266,-0.5061 -0.01254,-0.41874 0.19373,0.0087 0.03079,0.06207 0.05535,0.09549 0.11367,0.15349 0.04098,0.04079 0.0984,0.08825 0.12768,0.10538 0.07692,0.04514 0.19442,0.08283 0.31411,0.10083 l 0.10443,0.01585 -0.09131,0.01151 c -0.21845,0.02744 -0.39922,0.12006 -0.50253,0.25752 -0.08234,0.1095 -0.12553,0.22083 -0.15106,0.38921 l -0.01566,0.10278 z"
       opacity="0.90921"
       stroke-width="0.012196"
       id="path2" />
    <path
       d="m 92.173788,77.460163 c -0.01642,-0.16016 -0.07512,-0.31973 -0.1567,-0.42595 -0.10447,-0.13589 -0.28288,-0.22682 -0.49894,-0.25432 l -0.09636,-0.01227 0.08738,-0.01202 c 0.11868,-0.01636 0.20386,-0.04099 0.29659,-0.08575 0.0625,-0.03015 0.09406,-0.05345 0.15882,-0.11771 0.06873,-0.06812 0.08718,-0.09336 0.12314,-0.16824 0.20266,-0.5061 -0.01254,-0.41874 0.19373,0.0087 0.03079,0.06207 0.05535,0.09549 0.11367,0.15349 0.04098,0.04079 0.0984,0.08825 0.12768,0.10538 0.07692,0.04514 0.19442,0.08283 0.31411,0.10083 l 0.10443,0.01585 -0.09131,0.01151 c -0.21845,0.02744 -0.39922,0.12006 -0.50253,0.25752 -0.08234,0.1095 -0.12553,0.22083 -0.15106,0.38921 l -0.01566,0.10278 z"
       opacity="0.90921"
       stroke-width="0.012196"
       id="path3" />
    <path
       d="m 101.99265,70.240035 c 0.0193,-0.18879 0.0885,-0.37693 0.18475,-0.50216 0.12315,-0.16019 0.33347,-0.2674 0.58818,-0.29979 l 0.11361,-0.01455 -0.10298,-0.01432 c -0.13993,-0.01949 -0.24034,-0.04837 -0.34968,-0.10103 -0.0737,-0.0355 -0.11084,-0.06299 -0.18722,-0.13878 -0.081,-0.08029 -0.10277,-0.11002 -0.14517,-0.19832 -0.23893,-0.59666 0.0148,-0.49366 -0.22842,0.01032 -0.0362,0.07311 -0.0653,0.11251 -0.13399,0.18095 -0.0483,0.04809 -0.11601,0.10401 -0.15052,0.12423 -0.0907,0.05325 -0.22922,0.09767 -0.3703,0.11887 l -0.12312,0.01855 0.10772,0.01361 c 0.25751,0.03231 0.47062,0.14156 0.59243,0.3036 0.097,0.12909 0.14798,0.26036 0.17806,0.45884 l 0.0183,0.12115 z"
       opacity="0.90921"
       stroke-width="0.01566"
       id="path4" />
    <path
       d="m 112.16091,90.79534 c 0.0193,-0.18879 0.0885,-0.37693 0.18475,-0.50216 0.12315,-0.16019 0.33347,-0.2674 0.58818,-0.29979 l 0.11361,-0.01455 -0.10298,-0.01432 c -0.13993,-0.01949 -0.24034,-0.04837 -0.34968,-0.10103 -0.0737,-0.0355 -0.11084,-0.06299 -0.18722,-0.13878 -0.081,-0.08029 -0.10277,-0.11002 -0.14517,-0.19832 -0.23893,-0.59666 0.0148,-0.49366 -0.22842,0.01032 -0.0362,0.07311 -0.0653,0.11251 -0.13399,0.18095 -0.0483,0.04809 -0.11601,0.10401 -0.15052,0.12423 -0.0907,0.05325 -0.22922,0.09767 -0.3703,0.11887 l -0.12312,0.01855 0.10772,0.01361 c 0.25751,0.03231 0.47062,0.14156 0.59243,0.3036 0.097,0.12909 0.14798,0.26036 0.17806,0.45884 l 0.0183,0.12115 z"
       opacity="0.90921"
       stroke-width="0.01566"
       id="path5" />
    <path
       d="m 84.429297,97.76324 c 0.0193,-0.18879 0.0885,-0.37693 0.18475,-0.50216 0.12315,-0.16019 0.33347,-0.2674 0.58818,-0.29979 l 0.11361,-0.01455 -0.10298,-0.01432 c -0.13993,-0.01949 -0.24034,-0.04837 -0.34968,-0.10103 -0.0737,-0.0355 -0.11084,-0.06299 -0.18722,-0.13878 -0.081,-0.08029 -0.10277,-0.11002 -0.14517,-0.19832 -0.23893,-0.59666 0.0148,-0.49366 -0.22842,0.01032 -0.0362,0.07311 -0.0653,0.11251 -0.13399,0.18095 -0.0483,0.04809 -0.11601,0.10401 -0.15052,0.12423 -0.0907,0.05325 -0.22922,0.09767 -0.3703,0.11887 l -0.12312,0.01855 0.10772,0.01361 c 0.25751,0.03231 0.47062,0.14156 0.59243,0.3036 0.097,0.12909 0.14798,0.26036 0.17806,0.45884 l 0.0183,0.12115 z"
       opacity="0.90921"
       stroke-width="0.01566"
       id="path6-3" />
    <path
       d="m 84.429297,97.76324 c 0.0193,-0.18879 0.0885,-0.37693 0.18475,-0.50216 0.12315,-0.16019 0.33347,-0.2674 0.58818,-0.29979 l 0.11361,-0.01455 -0.10298,-0.01432 c -0.13993,-0.01949 -0.24034,-0.04837 -0.34968,-0.10103 -0.0737,-0.0355 -0.11084,-0.06299 -0.18722,-0.13878 -0.081,-0.08029 -0.10277,-0.11002 -0.14517,-0.19832 -0.23893,-0.59666 0.0148,-0.49366 -0.22842,0.01032 -0.0362,0.07311 -0.0653,0.11251 -0.13399,0.18095 -0.0483,0.04809 -0.11601,0.10401 -0.15052,0.12423 -0.0907,0.05325 -0.22922,0.09767 -0.3703,0.11887 l -0.12312,0.01855 0.10772,0.01361 c 0.25751,0.03231 0.47062,0.14156 0.59243,0.3036 0.097,0.12909 0.14798,0.26036 0.17806,0.45884 l 0.0183,0.12115 z"
       opacity="0.90921"
       stroke-width="0.01566"
       id="path7" />
    <path
       d="m 146.59585,90.400352 c -0.0208,-0.20446 -0.0958,-0.40819 -0.20006,-0.54381 -0.13337,-0.17353 -0.36114,-0.2896 -0.63698,-0.32468 l -0.12307,-0.01547 0.11149,-0.01548 c 0.15153,-0.02085 0.26028,-0.0524 0.3787,-0.10948 0.0798,-0.03838 0.11998,-0.06825 0.20275,-0.15028 0.0877,-0.08695 0.11123,-0.1191 0.15722,-0.21479 0.25871,-0.64615 -0.0162,-0.53459 0.24735,0.01144 0.0391,0.07916 0.0708,0.12176 0.14509,0.19592 0.0523,0.05213 0.1256,0.11264 0.16301,0.13457 0.0983,0.05758 0.24825,0.10576 0.40101,0.12869 l 0.13337,0.02018 -0.11672,0.01446 c -0.27886,0.03497 -0.50966,0.15327 -0.64158,0.32878 -0.10514,0.13978 -0.16023,0.28192 -0.19282,0.49692 l -0.0198,0.13121 z"
       opacity="0.90921"
       stroke-width="0.011838"
       id="path8" />
    <path
       d="m 27.261832,69.457157 c -0.01642,-0.16016 -0.07512,-0.31973 -0.1567,-0.42595 -0.10447,-0.13589 -0.28288,-0.22682 -0.49894,-0.25432 l -0.09636,-0.01227 0.08738,-0.01202 c 0.11868,-0.01636 0.20386,-0.04099 0.29659,-0.08575 0.0625,-0.03015 0.09406,-0.05345 0.15882,-0.11771 0.06873,-0.06812 0.08718,-0.09336 0.12314,-0.16824 0.20266,-0.5061 -0.01254,-0.41874 0.19373,0.0087 0.03079,0.06207 0.05535,0.09549 0.11367,0.15349 0.04098,0.04079 0.0984,0.08825 0.12768,0.10538 0.07692,0.04514 0.19442,0.08283 0.31411,0.10083 l 0.10443,0.01585 -0.09131,0.01151 c -0.21845,0.02744 -0.39922,0.12006 -0.50253,0.25752 -0.08234,0.1095 -0.12553,0.22083 -0.15106,0.38921 l -0.01566,0.10278 z"
       opacity="0.90921"
       stroke-width="0.012196"
       id="path13" />
    <path
       d="m 108.96878,59.421617 c -0.0164,-0.16016 -0.0751,-0.31973 -0.1567,-0.42595 -0.10447,-0.13589 -0.28288,-0.22682 -0.49894,-0.25432 l -0.0964,-0.01227 0.0874,-0.01202 c 0.11868,-0.01636 0.20386,-0.04099 0.29659,-0.08575 0.0625,-0.03015 0.0941,-0.05345 0.15882,-0.11771 0.0687,-0.06812 0.0872,-0.09336 0.12314,-0.16824 0.20266,-0.5061 -0.0125,-0.41874 0.19373,0.0087 0.0308,0.06207 0.0553,0.09549 0.11367,0.15349 0.041,0.04079 0.0984,0.08825 0.12768,0.10538 0.0769,0.04514 0.19442,0.08283 0.31411,0.10083 l 0.10443,0.01585 -0.0913,0.01151 c -0.21845,0.02744 -0.39922,0.12006 -0.50253,0.25752 -0.0823,0.1095 -0.12553,0.22083 -0.15106,0.38921 l -0.0157,0.10278 z"
       opacity="0.90921"
       stroke-width="0.012196"
       id="path14" />
    <path
       d="m 108.05585,77.217976 c -0.0164,-0.16016 -0.0751,-0.31973 -0.1567,-0.42595 -0.10447,-0.13589 -0.28288,-0.22682 -0.49894,-0.25432 l -0.0964,-0.01227 0.0874,-0.01202 c 0.11868,-0.01636 0.20386,-0.04099 0.29659,-0.08575 0.0625,-0.03015 0.0941,-0.05345 0.15882,-0.11771 0.0687,-0.06812 0.0872,-0.09336 0.12314,-0.16824 0.20266,-0.5061 -0.0125,-0.41874 0.19373,0.0087 0.0308,0.06207 0.0553,0.09549 0.11367,0.15349 0.041,0.04079 0.0984,0.08825 0.12768,0.10538 0.0769,0.04514 0.19442,0.08283 0.31411,0.10083 l 0.10443,0.01585 -0.0913,0.01151 c -0.21845,0.02744 -0.39922,0.12006 -0.50253,0.25752 -0.0823,0.1095 -0.12553,0.22083 -0.15106,0.38921 l -0.0157,0.10278 z"
       opacity="0.90921"
       stroke-width="0.012196"
       id="path15" />
  </g>
  <g
     transform="translate(-23.737052,-48.924431)"
     opacity="0.81761"
     style="display:inline;mix-blend-mode:difference"
     id="g92420" />
  <g
     transform="translate(35.573 -21.791)"
     id="g92452">
    <path
       d="m 5.4386,67.223 c -2.3897,1.5662 -5.146,3.801 -3.37,-0.89097 0.27493,-0.72635 -29.842,-1.3879 -30.068,-2.4852 0.336833,-0.487634 -1.473263,-2.606674 0.730925,-4.372317 0.666959,-0.534262 0.942528,-1.475902 2.01528,-1.113219 0.544154,0.183972 0.910659,-0.745229 1.494031,-1.025799 0.839245,-0.403632 1.8666,-0.660606 3.131464,-0.686065 0.56944,-0.57961 27.994,5.5487 27.893,6.5665 -0.026907,0.27185 0.49258,-0.29028 -0.22498,-1.2985 -0.75164,-1.0561 -14.539,-2.3145 -11.242,-2.976 8.7878,-0.362 8.6757,-0.35409 10.551,-2.9276 -0.2636003,-1.336706 2.4491319,2.131567 4.765924,1.005915 2.344451,-1.13909 4.824162,0.294458 4.454176,1.378485 0.89609,-1.3425 1.3224,-4.1481 3.5778,-3.3634 2.8118,0.4306 -0.25368,1.6879 0.50966,1.7831 4.2998,0.53633 33.686,14.253 49.914,0.17166 3.6715,-3.1858 6.9002,0.3583 7.0548,0.80848 8.037073,-1.376215 22.692455,-8.235349 32.61965,0.05623 0.36592,0.305633 0.6211,0.800016 1.01768,0.821627 3.41417,0.186055 4.12598,0.839159 4.12491,1.7657 -8.5e-4,0.73237 1.06676,2.439817 -0.35622,2.614015 l -3.39154,0.408832"
       fill="#469946"
       id="path92422"
       sodipodi:nodetypes="cscsssccsccscccccssscc" />
    <path
       d="m13.781 67.223c-1.5045 1.5662-3.2398 3.801-2.1216-0.89097 0.17309-0.72635-0.9171-1.2467-1.0589-2.344 0.40788-0.92 0.06293-2.1518 2.3789-2.2816 0.3585-0.57961 2.0157 0.49174 1.9522 1.5096-0.01694 0.27185 0.31012-0.29028-0.14164-1.2985-0.47321-1.0561-0.06342-1.9755 2.0119-2.637 5.5326-0.362 2.3093 0.87738 3.4901-1.6961-1.1328-0.72167-1.021-1.4718-0.25811-2.2368 1.2629-1.0504 1.8434-0.72734 2.3784-0.31263 1.7702 0.4306-0.15971 1.6879 0.32087 1.7831 4.1466 0.82154 1.707 2.2241 2.9515 0.74253l2.2757 5.3588"
       fill="#008000"
       id="path92424" />
    <path
       d="m 24.090071,59.092168 c 0.136305,-0.02055 1.605911,-3.000065 4.304588,-3.075918 1.574987,-0.04427 3.951665,1.389513 6.048264,1.441064 1.413413,0.03475 4.100862,-2.175602 5.483214,-2.843238 3.116895,-1.505372 4.423519,1.235954 4.82091,1.571587 0.62777,0.53021 -1.120047,-0.424934 3.42577,-1.06729 4.971514,-0.70251 4.697835,1.524258 5.168541,1.619202 2.06966,0.417461 5.331045,-0.945072 6.15087,-0.877875 4.698383,0.385106 3.794334,1.30768 4.033072,0.74349 -0.19082,-1.1811 1.0209,-1.3774 2.4324,-1.4335 2.9615,0.89405 2.1445,1.7539 1.2433,2.613 0.12252,0.41875 -0.3725,1.3325 0.50001,1.1501 1.3796,-1.7871 1.3786,-0.03481 1.9814,0.1694 1.7249,1.4707 0.25722,1.4374 0.29889,2.1152 -1.1826,2.2136 1.6429,0.87307 2.5707,1.2152 2.714,0.73916 1.1599,1.8285 1.0952,2.7956 l -0.9997,2.8043 -12.047,-3.563"
       fill="#008000"
       id="path92426"
       sodipodi:nodetypes="cssssssscccccccccc" />
    <g
       transform="matrix(.10901 0 0 .10901 -252.95 -161.51)"
       id="g92450">
      <g
         transform="translate(-352.25 60.347)"
         id="g92448">
        <g
           transform="matrix(.13024 0 0 .13024 2156.3 1790.8)"
           id="g92446">
          <path
             d="m4964.9 2184.7c0 12.865-10.43 23.293-23.294 23.293h-166.32c-12.864 0-23.293-10.429-23.293-23.293 0-12.865 10.429-23.293 23.293-23.293h166.32c12.864-1e-3 23.294 10.428 23.294 23.293z"
             fill="#38200e"
             opacity=".2"
             id="path92428" />
          <g
             stroke="#283f00"
             stroke-linecap="round"
             stroke-linejoin="round"
             stroke-miterlimit="10"
             stroke-width="4.298"
             id="g92442">
            <path
               d="m4863.5 2174.7v-31.525c0-1.928 1.562-3.493 3.501-3.493 1.928 0 3.486 1.565 3.486 3.493v30.983c41.307 0.472 40.213 9.235 40.213 9.235h-53.613c-0.541-5.616 3.346-7.826 6.413-8.693z"
               fill="#ffde55"
               id="path92430" />
            <path
               d="m4847.2 2180.7v-31.53c0-1.928 1.559-3.494 3.486-3.494 1.939 0 3.5 1.566 3.5 3.494v30.983c41.308 0.472 40.213 9.235 40.213 9.235h-53.624c-0.532-5.617 3.358-7.821 6.425-8.688z"
               fill="#ffde55"
               id="path92432" />
            <path
               d="m4792.5 2130.8c-0.064-0.455 74.498-73.248 99.785-73.248 25.273 0 45.777 20.501 45.777 45.786s-20.504 45.786-45.777 45.786c-21.063 0-76.32 3.857-94.206-9.457-27.938 50.054-53.277 17.479-53.277 17.479z"
               fill="#fff"
               id="path92434" />
            <path
               d="m4928.7 2087.2c18.546-6.072 30.256-25.019 26.747-44.773-3.868-21.628-24.526-36.031-46.151-32.179-21.633 3.856-36.028 24.509-32.184 46.144 0.66 3.656 1.799 7.111 3.324 10.297"
               fill="#fff"
               id="path92436" />
            <path
               d="m4942 2077.8c-21.202 2.194-21.624-18.449-3.651-20.469 0 0 8.05-8.764 17.149-14.869 11.481 13.818 32.543 14.939 34.655 36.768z"
               fill="#ffde55"
               id="path92438" />
            <path
               d="m4919.7 2099.5s6.986 36.644-23.314 39.557c0 0-82.766 4.653-81.596-11.077l31.234-13.405"
               fill="#fff"
               id="path92440" />
          </g>
          <path
             d="m4907.5 2044.8c1.094 3.954 5.188 6.278 9.145 5.173 3.961-1.089 6.271-5.195 5.176-9.148-1.094-3.949-5.188-6.268-9.152-5.173-3.954 1.104-6.263 5.193-5.169 9.148z"
             fill="#283f00"
             id="path92444" />
        </g>
      </g>
    </g>
  </g>
  <g
     transform="translate(-24.288,-47.076)"
     id="g92834"
     style="display:inline">
    <path
       d="m 49.995,98.132 c 2.9869,6.4101 7.994593,5.60601 11.034,5.4279 l 4.9769,-1.0765 c 8.5707,6.5975 48.72,11.885 75.684,-0.26456 2.21819,1.26797 4.61328,0.94375 7.0053,0.64724 4.11749,-1.2183 6.22574,-2.62499 6.81574,-4.728088 l -24.69664,-3.184012 -57.105,1.2775 z"
       fill="#b0c767"
       stroke-width="5.413"
       id="path92454"
       sodipodi:nodetypes="ccccccccc"
       style="fill:#748931;fill-opacity:1" />
    <g
       transform="matrix(0.10901,0,0,0.10901,-76.174,-159.14)"
       id="g92626">
      <g
         transform="rotate(1.5235771,1246.6769,115.22989)"
         id="g92612">
        <g
           id="g92468">
          <g
             transform="matrix(6.3401,-0.14113,0.088212,4.9703,1822.7,1661.8)"
             fill="#31c23c"
             id="g92462"
             style="fill:#008409;fill-opacity:1">
            <path
               d="m 9.0677,127.45 c -2.6365,-6.3204 27.682,-17.354 34.41,-18.729 10.078,-0.65272 42.433,9.9018 47.216,18.775 0.2996,0.55578 0.16868,0.31312 0.38521,0.78324 0.28639,0.6218 0.38004,1.2773 -0.0052,1.5815 -14.96,12.445 -66.933,11.824 -82.006,-2.4102 z"
               id="path92456"
               style="fill:#008409;fill-opacity:1" />
            <path
               d="m 22.343,116.72 c -0.74942,-2.4622 -0.7975,-1.1977 -0.65354,-0.20845 -0.7557,-1.7773 0.29837,1.8116 -0.7571,-0.37545 0.71825,2.4474 -1.2421,-2.1879 -0.34002,0.5543 -1.0214,-1.8543 -1.1365,-2.1132 -0.37738,0.0416 -0.43726,-0.58316 -1.0452,-1.6686 -0.40279,0.50576 -0.63577,-0.44832 -0.46501,-0.9918 -0.49418,0.0412 -0.87665,-0.48991 0.49959,1.2221 -0.83125,-0.24842 0.06938,0.76185 -0.38668,0.0963 0.23554,1.6906 -0.80283,-1.24 -1.1162,-2.6669 -0.70438,-0.40216 -1.3306,-2.2868 0.07114,1.4603 -1.1812,-1.0193 -0.05934,0.32361 0.1264,1.542 0.19188,2.2298"
               stroke-opacity="0"
               id="path92458"
               style="fill:#008409;fill-opacity:1" />
            <path
               d="m 80.205,119.5 c 0.78266,-2.441 0.81359,-1.1754 0.65624,-0.19034 0.77965,-1.7561 -0.32288,1.803 0.76204,-0.35445 -0.75132,2.4271 1.2715,-2.1531 0.33244,0.5636 1.0464,-1.8257 1.165,-2.0814 0.37675,0.0521 0.44508,-0.57094 1.0677,-1.6394 0.39586,0.51681 0.64173,-0.43065 0.47837,-0.97874 0.49353,0.0549 0.88314,-0.46552 -0.51607,1.2081 0.83446,-0.22535 -0.0797,0.75977 0.3853,0.10695 -0.25842,1.6837 0.81951,-1.2176 1.1522,-2.6355 0.7097,-0.38257 1.3613,-2.2495 -0.09093,1.4581 1.1948,-0.9864 0.05491,0.32522 -0.14729,1.5382 -0.22208,2.224"
               stroke-opacity="0"
               id="path92460"
               style="fill:#008409;fill-opacity:1" />
          </g>
          <path
             transform="matrix(9.1738,0,0,9.1738,1642,1444.7)"
             d="m 52.289,88.401 c -1.9559,2.0144 -1.4635,3.4337 -0.28694,4.9762 1.5746,2.0643 -2.5591,3.794 -3.6254,4.6924 -0.20546,0.1735 0.21165,0.25759 0.37183,0.2832 3.6085,0.57676 5.2318,0.57048 9.3235,-0.07568 2.3117,-1.2399 2.0671,-4.3372 0.10415,-5.4633 -2.6328,-1.3571 -1.8252,-2.2977 -1.8132,-4.5837"
             fill="#b0c767"
             id="path92464"
             style="fill:#748931;fill-opacity:1" />
          <path
             transform="matrix(9.1738,0,0,9.1738,1642,1444.7)"
             d="m 41.537,84.883 c -11.272,4.3752 1.4261,7.4758 14.212,6.8867 12.409,-0.57169 24.277,-3.5878 14.409,-6.3004 L 53.706,84.2678 Z"
             opacity="0.2"
             id="path92466" />
        </g>
        <g
           transform="matrix(7.2183,0,0,7.2183,1918.7,1565)"
           id="g92610"
           style="filter:url(#filter21)">
          <g
             id="g92478">
            <path
               d="m 13.371,93.457 c -1.524,-3.4624 -1.3981,-6.2868 -0.81767,-9.5353 0.12664,-1.7274 2.9456,-4.307 2.9456,-4.307 l 5.6019,-1.4437 8.5354,-0.77527 12.74,-0.26604 6.7757,1.6496 1.649,2.9507 c 0.21782,1.085 0.6517,2.2002 0.76971,3.2317 0.32795,2.867 0.38797,5.8858 -0.39467,8.1703 -2.7312,2.2785 -13.245,3.2692 -16.842,3.2946 l -7.2782,0.27329 c -4.7611,-0.07077 -9.3197,-1.0078 -13.685,-3.2428 z"
               fill="url(#linearGradient50606)"
               id="path92470"
               style="fill:url(#linearGradient50606)" />
            <path
               d="m 49.95,91.679 c 2.3175,-2.4968 2.5339,-1.6274 2.5811,-0.3891 0.0466,1.225 0.33907,0.86951 0.11154,1.4677 -0.36897,0.55315 -0.7498,0.79732 -2.0245,1.1701 -0.42748,-0.7244 -1.3213,0.59513 -0.66813,-2.2487 z"
               fill="#43cc32"
               id="path92472" />
            <path
               d="m 27.188,96.752 c -0.21241,-4.913 -0.59134,-8.7796 3.4735,-9.6391 4.4574,0 3.4789,5.6776 3.7577,9.4217"
               fill="#6c5353"
               id="path92474" />
            <path
               d="M 21.017,79.366 C 32.23,76.9428 31.111,76.7671 32.23,76.9428 l 1.1185,0.17566 c 0,0 6.1365,-1.2559 9.4592,0.33315 l 3.3226,1.589 -6.3263,2.4539 -11.626,0.24278 z"
               fill="#906821"
               stroke="#000000"
               stroke-width="0.083078px"
               id="path92476" />
          </g>
          <g
             fill="#74541a"
             id="g92486">
            <path
               d="m 36.185,78.041 0.11682,2.6808 0.59384,-0.05367 -0.16155,-3.299 -0.58994,0.26 z"
               id="path92480" />
            <path
               d="m 29.906,78.172 0.11682,2.6808 0.59382,-0.05366 -0.16154,-3.299 -0.58995,0.26001 z"
               id="path92482" />
            <path
               d="m 26.075,78.293 0.11683,2.6808 0.59381,-0.05366 -0.16155,-3.299 -0.58994,0.26 z"
               id="path92484" />
          </g>
          <g
             id="g92506">
            <path
               d="m 39.324,77.975 0.11682,2.6808 0.59384,-0.05367 -0.16157,-3.299 -0.58992,0.26 z"
               fill="#6f5019"
               id="path92488" />
            <path
               d="m 21.712,79.309 c 10.145,-2.9778 15.871,-1.1007 22.097,0.26826 l 2.8314,-1.9165 -3.43,-1.6531 c -3.9462,-0.3755 -5.6547,-1.2747 -11.838,-1.1265 -4.7249,0.48679 -5.5175,0.69683 -6.2664,0.90379 l -7.0336,2.0081 z"
               fill="url(#linearGradient33560)"
               id="path92490"
               style="fill:url(#linearGradient33560)" />
            <ellipse
               transform="matrix(0.99978,-0.020878,0.018915,0.99982,0,0)"
               cx="18.944"
               cy="89.616997"
               rx="2.7227001"
               ry="3.1271999"
               fill="#836652"
               id="ellipse92492" />
            <ellipse
               transform="matrix(0.99978,-0.020878,0.018915,0.99982,0,0)"
               cx="19.224001"
               cy="89.616997"
               rx="2.1782999"
               ry="2.6529"
               fill="#8fffff"
               id="ellipse92494" />
            <ellipse
               transform="matrix(0.99983,-0.018221,0.021673,0.99977,0,0)"
               cx="38.908001"
               cy="89.736"
               rx="2.8633001"
               ry="2.9012001"
               fill="#755b49"
               id="ellipse92496" />
            <ellipse
               transform="matrix(0.99983,-0.018426,0.021432,0.99977,0,0)"
               cx="38.694"
               cy="89.741997"
               rx="2.3654001"
               ry="2.6198001"
               fill="#8fffff"
               id="ellipse92498" />
            <ellipse
               transform="matrix(0.99978,-0.020878,0.018915,0.99982,0,0)"
               cx="47.806999"
               cy="88.075996"
               rx="1.3746001"
               ry="2.1772001"
               fill="#836652"
               id="ellipse92500" />
            <ellipse
               transform="matrix(0.99978,-0.020878,0.018915,0.99982,0,0)"
               cx="47.599998"
               cy="88.078003"
               rx="1.1681"
               ry="1.9895999"
               fill="#8fffff"
               id="ellipse92502" />
            <path
               d="m 11.583,82.414 c 4.2043,-5.0355 5.1443,-5.0541 5.1563,-5.0543 9.3154,-2.9691 16.553,-1.9032 15.388,-2.0745 -3.0326,-0.54809 -15.586,2.6677 -12.456,2.9196 1.6395,1.6068 17.56,2.5166 26.181,-0.29129 -0.56564,-1.6898 -11.632,-2.6726 -13.649,-2.6771 5.4035,-0.55233 11.109,-0.38676 15.704,1.8842 2.5877,1.7927 2.6707,3.046 3.968,4.5608 -7.2228,2.337 -12.785,3.0227 -19.473,3.4024 -7.4187,0.95978 -15.113,-1.39 -20.82,-2.6699 z"
               fill="url(#linearGradient33562)"
               id="path92504"
               style="fill:url(#linearGradient33562)" />
          </g>
          <g
             transform="translate(4.6805,0.46368)"
             id="g92512">
            <ellipse
               transform="matrix(0.99978,-0.020878,0.018915,0.99982,0,0)"
               cx="7.7874999"
               cy="86.828003"
               rx="1.0638"
               ry="2.4870999"
               fill="#836652"
               id="ellipse92508" />
            <ellipse
               transform="matrix(0.99978,-0.020878,0.018915,0.99982,0,0)"
               cx="7.9752002"
               cy="86.828003"
               rx="0.87608999"
               ry="2.4870999"
               fill="#8fffff"
               id="ellipse92510" />
          </g>
          <g
             fill="#ac9393"
             id="g92592">
            <ellipse
               transform="matrix(0.99978,-0.020878,0.018915,0.99982,0,0)"
               cx="23.969999"
               cy="95.666"
               rx="0.31913"
               ry="0.42207"
               id="ellipse92516" />
            <ellipse
               transform="matrix(0.99978,-0.020878,0.018915,0.99982,0,0)"
               cx="22.823999"
               cy="95.526001"
               rx="0.31913"
               ry="0.42207"
               id="ellipse92518" />
            <ellipse
               transform="matrix(0.99978,-0.020878,0.018915,0.99982,0,0)"
               cx="21.698"
               cy="95.337997"
               rx="0.26280999"
               ry="0.34759"
               id="ellipse92520" />
            <ellipse
               transform="matrix(0.99978,-0.020878,0.018915,0.99982,0,0)"
               cx="20.666"
               cy="95.151001"
               rx="0.31913"
               ry="0.42207"
               id="ellipse92522" />
            <ellipse
               transform="matrix(0.99978,-0.020878,0.018915,0.99982,0,0)"
               cx="23.444"
               cy="94.494003"
               rx="0.31913"
               ry="0.42207"
               id="ellipse92524" />
            <ellipse
               transform="matrix(0.99978,-0.020878,0.018915,0.99982,0,0)"
               cx="22.224001"
               cy="94.330002"
               rx="0.31913"
               ry="0.42207"
               id="ellipse92526" />
            <ellipse
               transform="matrix(0.99978,-0.020878,0.018915,0.99982,0,0)"
               cx="18.488001"
               cy="94.705002"
               rx="0.31913"
               ry="0.42207"
               id="ellipse92528" />
            <ellipse
               transform="matrix(0.99978,-0.020878,0.018915,0.99982,0,0)"
               cx="17.417999"
               cy="94.400002"
               rx="0.31913"
               ry="0.42207"
               id="ellipse92530" />
            <ellipse
               transform="matrix(0.99978,-0.020878,0.018915,0.99982,0,0)"
               cx="33.469002"
               cy="94.352997"
               rx="0.31913"
               ry="0.42207"
               id="ellipse92532" />
            <ellipse
               transform="matrix(0.99978,-0.020878,0.018915,0.99982,0,0)"
               cx="34.481998"
               cy="94.306"
               rx="0.26594001"
               ry="0.35172001"
               id="ellipse92534" />
            <ellipse
               transform="matrix(0.99978,-0.020878,0.018915,0.99982,0,0)"
               cx="35.477001"
               cy="94.166"
               rx="0.31913"
               ry="0.42207"
               id="ellipse92536" />
            <ellipse
               transform="matrix(0.99978,-0.020878,0.018915,0.99982,0,0)"
               cx="35.063999"
               cy="95.455002"
               rx="0.31913"
               ry="0.42207"
               id="ellipse92538" />
            <ellipse
               transform="matrix(0.99978,-0.020878,0.018915,0.99982,0,0)"
               cx="42.426998"
               cy="87.400002"
               rx="0.31913"
               ry="0.42207"
               id="ellipse92540" />
            <ellipse
               transform="matrix(0.99978,-0.020878,0.018915,0.99982,0,0)"
               cx="43.467999"
               cy="87.213997"
               rx="0.31913"
               ry="0.42207"
               id="ellipse92542" />
            <ellipse
               transform="matrix(0.99978,-0.020878,0.018915,0.99982,0,0)"
               cx="44.360001"
               cy="87.028"
               rx="0.31913"
               ry="0.42207"
               id="ellipse92544" />
            <ellipse
               transform="matrix(0.99978,-0.020878,0.018915,0.99982,0,0)"
               cx="45.698002"
               cy="86.843002"
               rx="0.31913"
               ry="0.42207"
               id="ellipse92546" />
            <ellipse
               transform="matrix(0.99978,-0.020878,0.018915,0.99982,0,0)"
               cx="44.063"
               cy="88.328003"
               rx="0.31913"
               ry="0.42207"
               id="ellipse92548" />
            <ellipse
               transform="matrix(0.99978,-0.020878,0.018915,0.99982,0,0)"
               cx="43.617001"
               cy="92.042"
               rx="0.31913"
               ry="0.42207"
               id="ellipse92550" />
            <ellipse
               transform="matrix(0.99978,-0.020878,0.018915,0.99982,0,0)"
               cx="44.508999"
               cy="91.857002"
               rx="0.31913"
               ry="0.42207"
               id="ellipse92552" />
            <ellipse
               transform="matrix(0.99978,-0.020878,0.018915,0.99982,0,0)"
               cx="45.401001"
               cy="91.485001"
               rx="0.31913"
               ry="0.42207"
               id="ellipse92554" />
            <ellipse
               transform="matrix(0.99978,-0.020878,0.018915,0.99982,0,0)"
               cx="44.063"
               cy="93.342003"
               rx="0.31913"
               ry="0.42207"
               id="ellipse92556" />
            <ellipse
               transform="matrix(0.99978,-0.020878,0.018915,0.99982,0,0)"
               cx="42.576"
               cy="92.227997"
               rx="0.31913"
               ry="0.42207"
               id="ellipse92558" />
            <ellipse
               transform="matrix(0.99978,-0.020878,0.018915,0.99982,0,0)"
               cx="43.021999"
               cy="90.928001"
               rx="0.31913"
               ry="0.42207"
               id="ellipse92560" />
            <ellipse
               transform="matrix(0.99978,-0.020878,0.018915,0.99982,0,0)"
               cx="33.722"
               cy="90.290001"
               rx="0.24821"
               ry="0.32828"
               id="ellipse92562" />
            <ellipse
               transform="matrix(0.99978,-0.020878,0.018915,0.99982,0,0)"
               cx="34.763"
               cy="90.103996"
               rx="0.31913"
               ry="0.42207"
               id="ellipse92564" />
            <ellipse
               transform="matrix(0.99978,-0.020878,0.018915,0.99982,0,0)"
               cx="34.167999"
               cy="88.989998"
               rx="0.31913"
               ry="0.42207"
               id="ellipse92566" />
            <ellipse
               transform="matrix(0.99978,-0.020878,0.018915,0.99982,0,0)"
               cx="39.724998"
               cy="94.735001"
               rx="0.31913"
               ry="0.42207"
               id="ellipse92568" />
            <ellipse
               transform="matrix(0.99978,-0.020878,0.018915,0.99982,0,0)"
               cx="47.158001"
               cy="92.789001"
               rx="0.31913"
               ry="0.42207"
               id="ellipse92570" />
            <ellipse
               transform="matrix(0.99978,-0.020878,0.018915,0.99982,0,0)"
               cx="24.438999"
               cy="89.170998"
               rx="0.31913"
               ry="0.42207"
               id="ellipse92572" />
            <ellipse
               transform="matrix(0.99978,-0.020878,0.018915,0.99982,0,0)"
               cx="23.462999"
               cy="89.007004"
               rx="0.28159001"
               ry="0.37241"
               id="ellipse92574" />
            <ellipse
               transform="matrix(0.99978,-0.020878,0.018915,0.99982,0,0)"
               cx="22.504999"
               cy="88.773003"
               rx="0.31913"
               ry="0.42207"
               id="ellipse92576" />
            <ellipse
               transform="matrix(0.99978,-0.020878,0.018915,0.99982,0,0)"
               cx="23.988001"
               cy="88.045998"
               rx="0.31913"
               ry="0.42207"
               id="ellipse92578" />
            <ellipse
               transform="matrix(0.99978,-0.020878,0.018915,0.99982,0,0)"
               cx="15.635"
               cy="87.202003"
               rx="0.31913"
               ry="0.42207"
               id="ellipse92580" />
            <ellipse
               transform="matrix(0.99978,-0.020878,0.018915,0.99982,0,0)"
               cx="14.743"
               cy="86.830002"
               rx="0.31913"
               ry="0.42207"
               id="ellipse92582" />
            <ellipse
               transform="matrix(0.99978,-0.020878,0.018915,0.99982,0,0)"
               cx="14.891"
               cy="90.730003"
               rx="0.31913"
               ry="0.42207"
               id="ellipse92584" />
            <ellipse
               transform="matrix(0.99978,-0.020878,0.018915,0.99982,0,0)"
               cx="14.148"
               cy="91.844002"
               rx="0.26280999"
               ry="0.34759"
               id="ellipse92586" />
            <ellipse
               transform="matrix(0.84468,0.53528,-0.37309,0.92779,0,0)"
               cx="44.772999"
               cy="64.810997"
               rx="0.25942001"
               ry="0.31123999"
               id="ellipse92588" />
            <ellipse
               transform="matrix(0.99978,-0.020878,0.018915,0.99982,0,0)"
               cx="48.626999"
               cy="84.849998"
               rx="0.24821"
               ry="0.32828"
               id="ellipse92590" />
          </g>
          <ellipse
             transform="matrix(0.99978,-0.020878,0.018915,0.99982,0,0)"
             cx="27.384001"
             cy="93.500999"
             rx="0.41302001"
             ry="0.51589"
             fill="#6c5353"
             id="ellipse92594" />
          <g
             fill="#ffffff"
             fill-opacity="0.9918"
             id="g92604">
            <ellipse
               transform="matrix(0.99978,-0.020878,0.018915,0.99982,0,0)"
               cx="18.375"
               cy="88.929001"
               rx="0.63081998"
               ry="0.76824999"
               id="ellipse92596" />
            <ellipse
               transform="matrix(0.99978,-0.020878,0.018915,0.99982,0,0)"
               cx="37.953999"
               cy="89.192001"
               rx="0.63081998"
               ry="0.76824999"
               id="ellipse92598" />
            <ellipse
               transform="matrix(0.99999,-0.0037542,0.0079401,0.99997,0,0)"
               cx="13.341"
               cy="87.191002"
               rx="0.33877999"
               ry="0.76823997"
               id="ellipse92600" />
            <ellipse
               transform="matrix(0.99816,-0.060674,0.044444,0.99901,0,0)"
               cx="46.015999"
               cy="89.357002"
               rx="0.25709"
               ry="0.76806998"
               id="ellipse92602" />
          </g>
          <path
             d="m 36.823,96.756 c 0,0 -0.81782,-1.0798 -0.49843,-1.5639 0.31945,-0.48412 0.38394,-0.55362 0.38394,-0.55362 0,0 -0.94526,-0.8725 0.30068,-1.3043 l 1.2459,-0.43178 c 3.3504,2.1277 1.2422,-0.08851 2.1126,-0.10491 1.2249,-0.07802 0.59735,0.46522 1.466,0.52162 1.0587,0.05006 0.96058,-0.5028 1.113,0.38341 0.28088,0.74304 0.10734,1.3449 -0.51576,2.6146 -1.6737,0.45969 -3.423,0.79838 -5.608,0.43884 z"
             fill="#43cc32"
             id="path92606" />
          <path
             d="m 18.169,95.685 c 0,0 -0.40142,-1.2124 -0.05672,-1.5721 2.5848,0.60868 -1.561,-1.3754 1.9512,-1.5889 0.39421,2.1918 -0.47664,0.7989 1.5392,1.8282 1.5868,0.41096 1.7001,1.4044 0.94597,2.4317 -1.3753,-0.0256 -2.7832,-0.18276 -4.3796,-1.0989 z"
             fill="#43cc32"
             id="path92608" />
          <path
             d="m 27.761326,96.632856 c -0.179195,-4.381693 -0.49886,-7.830159 2.930305,-8.596666 3.760344,0 2.93483,5.063589 3.170086,8.402897"
             fill="#f2b200"
             id="path92974-7"
             style="stroke-width:0.962586" />
          <path
             d="m 36.895308,97.73598 c 0.09839,-4.358591 0.253372,-8.742017 -1.464671,-9.491005 -1.885611,0.01497 -1.277738,4.96194 -1.4022,8.283922"
             fill="#97623e"
             id="path92976-5"
             style="stroke-width:0.962586" />
          <path
             d="m 30.194744,96.561625 c 0.02907,-0.08175 0.05323,-0.167827 0.07329,-0.25754 0.02432,-0.108782 0.335625,0.01351 0.349265,-0.10471 0.03235,-0.28046 -0.132568,-0.700937 -0.190939,-1.057113 -0.08541,-0.52126 0.381232,-1.200537 0.407655,-1.62937 L 30.692467,92.038691 29.567396,91.460783 29.14586,90.522127 28.883854,90.120921 c 0.03568,-0.192094 0.193008,-0.475787 0.539587,-0.54879 l 0.03124,0.477347 0.224475,-0.03994 -0.08592,0.383004 0.575328,0.75177 0.888448,0.355242 0.241513,-0.341573 -0.170311,-0.224379 c -0.03456,-0.244805 -0.04613,-0.419688 -0.0196,-0.554296 0.02061,-0.104575 -0.03899,-0.208227 0.03186,-0.292482 0.07962,-0.09467 0.194644,-0.189264 0.353385,-0.312446 l 0.713334,0.05754 0.244737,0.649582 -0.162003,0.07766 -0.04778,0.485327 -0.158865,0.136928 0.114423,0.2529 0.296707,0.123153 c 0.315709,0.04008 0.585388,0.173526 1.017743,-0.02303 l 0.503702,-0.199746 0.153321,-0.0608 c 0.07982,-0.353173 0.145976,-0.218863 0.212125,-0.08412 l 0.229731,-0.0911 c 0.204299,0.144398 0.21842,0.375082 0.113364,0.659834 -0.09614,0.03818 -0.296641,0.166912 -0.393361,0.198986 -0.09716,0.03222 -0.09054,-0.03224 -0.18834,-0.0054 -0.52126,0.143329 -1.051818,0.216756 -1.595487,0.282702 -0.119466,0.548232 -0.120708,1.096482 -0.07465,1.644675 0.0036,0.934498 0.152377,1.517807 0.272537,2.194216 0.01061,0.05973 0.201276,0.157267 0.211316,0.218757 0.01176,0.07201 0.02305,0.145437 0.03368,0.220769 l -0.810777,-0.01436 c -0.01349,-0.06687 -0.02729,-0.131403 -0.04131,-0.194096 -0.02042,-0.0913 0.04783,-0.09722 0.02677,-0.182227 -0.149971,-0.605294 -0.398107,-1.170794 -0.463139,-2.079861 l -0.275666,0.01611 c -0.123846,0.390059 -0.238086,0.436523 -0.305515,1.154526 l 0.101803,1.311331 z"
             fill="#4d4d4d"
             stroke-width="4.92661"
             style="mix-blend-mode:normal"
             id="path92978-3" />
        </g>
      </g>
      <g
         transform="matrix(2.4272,0,0,2.4272,-5234.5,-3072.8)"
         id="g92622"
         style="filter:url(#filter22)">
        <g
           transform="translate(-352.25,60.347)"
           id="g92620">
          <g
             transform="matrix(0.45476,0,0,0.45476,1907.3,1127.6)"
             stroke="#283f00"
             stroke-linecap="round"
             stroke-linejoin="round"
             stroke-miterlimit="10"
             id="g92618">
            <path
               d="m 3221.8,2045.5 c -0.9497,27.558 1.3953,47.908 -8.08,86.859 6.0949,-0.5045 7.1257,2.7217 16.428,-1.5828 0,-0.2149 3.8392,-29.724 1.9134,-86.549 z"
               fill="#c1a778"
               stroke-width="0.61761"
               id="path92614" />
            <path
               d="m 3237.7233,2051.5351 5.555,4.1563 -0.3569,6.4938 4.2552,-1.0874 1.6761,9.3099 19.2397,13.7385 c 5.0012,-21.9142 -2.7684,-40.229 -14.1768,-51.3317 l 12.4876,-10.8981 6.2853,1.697 -0.1898,-4.3835 9.464,0.3103 17.4575,-15.9482 c -28.9332,-13.433 -56.1664,-0.2502 -66.0929,16.3104 -5.7896,-15.4313 -26.3179,-30.7323 -52.6369,-24.34 l 12.0003,16.314 7.9926,1.3287 -0.8841,3.6486 5.5529,-0.3715 3.5063,4.5424 c -16.8525,-3.2533 -37.9493,1.3092 -54.0557,19.5899 l 23.8812,8.0787 9.0931,-4.35 1.7136,4.35 5.394,-4.35 10.2768,3.2234 c -3.8826,6.9224 -5.9533,15.6101 -4.6307,25.6043 l 14.9701,-8.7304 1.8516,-6.6835 3.0238,1.0825 0.1918,-4.7653 5.5779,-3.4142 11.8167,17.3368 c 0,0 2.0127,-7.914 -0.2377,-16.4614 z"
               fill="#75c108"
               stroke-width="0.537405"
               id="path92616" />
          </g>
        </g>
      </g>
      <path
         d="m 2053.6985,2133.6756 c 17.2606,-10.8047 22.4559,-9.6773 22.9033,6.4359 0.4336,15.9416 31.2551,-9.5627 24.8517,-0.6387 -7.41,9.0117 47.8027,8.1542 44.1394,22.6079 -5.1589,-1.3079 -88.0274,11.0198 -126.8362,-4.9644 -1.8297,-11.9003 32.6891,7.827 34.9405,-23.4408 z"
         fill="#36a528"
         id="path92624"
         style="stroke-width:1.52471" />
    </g>
    <g
       transform="matrix(0.10901,0,0,0.10901,-175.61,-159.26)"
       id="g92810">
      <g
         transform="translate(-56.498,23.317)"
         id="g92786">
        <g
           id="g92640"
           transform="rotate(-2.3026056,2151.7355,2276.4956)">
          <g
             transform="matrix(6.3401,-0.14113,0.088212,4.9703,1822.7,1661.8)"
             fill="#31c23c"
             id="g92634">
            <path
               d="m 9.0677,127.45 c -2.6365,-6.3204 27.682,-17.354 34.41,-18.729 10.078,-0.65272 42.433,9.9018 47.216,18.775 0.2996,0.55578 0.16868,0.31312 0.38521,0.78324 0.28639,0.6218 0.38004,1.2773 -0.0052,1.5815 -14.96,12.445 -66.933,11.824 -82.006,-2.4102 z"
               id="path92628"
               style="fill:#008409;fill-opacity:1" />
            <path
               d="m 22.343,116.72 c -0.74942,-2.4622 -0.7975,-1.1977 -0.65354,-0.20845 -0.7557,-1.7773 0.29837,1.8116 -0.7571,-0.37545 0.71825,2.4474 -1.2421,-2.1879 -0.34002,0.5543 -1.0214,-1.8543 -1.1365,-2.1132 -0.37738,0.0416 -0.43726,-0.58316 -1.0452,-1.6686 -0.40279,0.50576 -0.63577,-0.44832 -0.46501,-0.9918 -0.49418,0.0412 -0.87665,-0.48991 0.49959,1.2221 -0.83125,-0.24842 0.06938,0.76185 -0.38668,0.0963 0.23554,1.6906 -0.80283,-1.24 -1.1162,-2.6669 -0.70438,-0.40216 -1.3306,-2.2868 0.07114,1.4603 -1.1812,-1.0193 -0.05934,0.32361 0.1264,1.542 0.19188,2.2298"
               stroke-opacity="0"
               id="path92630"
               style="fill:#008409;fill-opacity:1" />
            <path
               d="m 80.205,119.5 c 0.78266,-2.441 0.81359,-1.1754 0.65624,-0.19034 0.77965,-1.7561 -0.32288,1.803 0.76204,-0.35445 -0.75132,2.4271 1.2715,-2.1531 0.33244,0.5636 1.0464,-1.8257 1.165,-2.0814 0.37675,0.0521 0.44508,-0.57094 1.0677,-1.6394 0.39586,0.51681 0.64173,-0.43065 0.47837,-0.97874 0.49353,0.0549 0.88314,-0.46552 -0.51607,1.2081 0.83446,-0.22535 -0.0797,0.75977 0.3853,0.10695 -0.25842,1.6837 0.81951,-1.2176 1.1522,-2.6355 0.7097,-0.38257 1.3613,-2.2495 -0.09093,1.4581 1.1948,-0.9864 0.05491,0.32522 -0.14729,1.5382 -0.22208,2.224"
               stroke-opacity="0"
               id="path92632"
               style="fill:#008409;fill-opacity:1" />
          </g>
          <path
             transform="matrix(9.1738,0,0,9.1738,1642,1444.7)"
             d="m 52.289,88.401 c -1.9559,2.0144 -3.1481,3.8339 -1.9715,5.3764 0.805236,2.432257 2.540489,4.788964 3.447675,5.419759 7.819,0.74904 3.655125,-0.159679 8.030925,-1.011179 -3.99,0.94224 3.0069,0.01397 2.9806,-0.21627 0,0 -3.8024,-1.7175 -6.1156,-3.3092 -4.4487,-3.0611 -2.3101,-4.1445 -2.298,-6.4304"
             fill="#b0c767"
             id="path92636"
             sodipodi:nodetypes="ccccccc"
             style="fill:#748931;fill-opacity:1" />
          <path
             transform="matrix(9.1738,0,0,9.1738,1642,1444.7)"
             d="m 41.537,84.883 c -11.272,4.3752 1.4261,7.4758 14.212,6.8867 12.409,-0.57169 24.277,-3.5878 14.409,-6.3004 L 53.706,84.2678 Z"
             opacity="0.2"
             id="path92638" />
        </g>
      </g>
    </g>
    <g
       id="g92832">
      <path
         id="text2"
         style="font-weight:bold;font-size:3.175px;font-family:Arvo;-inkscape-font-specification:'Arvo Bold';display:inline;fill:#ffdf87;fill-opacity:1;stroke-width:4.49152"
         d="m 98.574153,50.896781 -10.035731,0.08827 c -1.667703,2.025182 -2.316708,4.389881 -1.859767,7.12326 1.073561,0.145999 2.246264,0.04922 3.816023,0 v 33.739048 c 2.693176,0.83572 5.386319,0.56971 8.079475,0 v -0.73692 c 0.894804,0.38603 1.842267,0.68429 2.842297,0.8948 1.00005,0.2105 2.05281,0.31575 3.15811,0.31575 2.05278,0 3.93884,-0.36838 5.65826,-1.1053 1.71941,-0.75441 3.20198,-1.77201 4.44767,-3.05283 1.24568,-1.29831 2.21062,-2.81598 2.8949,-4.55293 0.7018,-1.73695 1.05268,-3.587967 1.05268,-5.553003 0,-1.947502 -0.35971,-3.789716 -1.07897,-5.526666 -0.70179,-1.736949 -1.67553,-3.254623 -2.92127,-4.552931 -1.24568,-1.298315 -2.72822,-2.324741 -4.44763,-3.079144 -1.71939,-0.75441 -3.58795,-1.13161 -5.60564,-1.13161 -1.05266,0 -2.07909,0.122221 -3.07914,0.368376 -1.00005,0.245639 -1.973833,0.596527 -2.921267,1.052669 z m 5.974087,19.633443 c 4.14667,0.0015 7.50787,3.362589 7.50926,7.509256 0.004,4.150099 -3.35917,7.516639 -7.50926,7.518039 -4.15352,0.004 -7.521473,-3.36451 -7.518028,-7.518039 0.0015,-4.1501 3.367938,-7.512701 7.518028,-7.509256 z"
         sodipodi:nodetypes="cccccccsscccscccscccsccss" />
      <g
         transform="matrix(0.92895,-0.020679,0.012925,0.72824,55.479,5.1355)"
         fill="#2db337"
         id="g92826"
         style="fill:#007705;fill-opacity:1">
        <path
           d="M 9.0677,127.45 C 6.4312,121.1296 33.373628,111.16945 43.354204,110.27658 58.430046,109.11616 85.9107,118.6228 90.6937,127.496 c 0.2996,0.55578 0.16868,0.31312 0.38521,0.78324 0.28639,0.6218 0.38004,1.2773 -0.0052,1.5815 -14.96,12.445 -66.933,11.824 -82.006,-2.4102 z"
           id="path92820"
           sodipodi:nodetypes="ccssccc"
           style="fill:#007705;fill-opacity:1" />
        <path
           d="m 22.343,116.72 c -0.74942,-2.4622 -0.7975,-1.1977 -0.65354,-0.20845 -0.7557,-1.7773 0.29837,1.8116 -0.7571,-0.37545 0.71825,2.4474 -1.2421,-2.1879 -0.34002,0.5543 -1.0214,-1.8543 -1.1365,-2.1132 -0.37738,0.0416 -0.43726,-0.58316 -1.0452,-1.6686 -0.40279,0.50576 -0.63577,-0.44832 -0.46501,-0.9918 -0.49418,0.0412 -0.87665,-0.48991 0.49959,1.2221 -0.83125,-0.24842 0.06938,0.76185 -0.38668,0.0963 0.23554,1.6906 -0.80283,-1.24 -1.1162,-2.6669 -0.70438,-0.40216 -1.3306,-2.2868 0.07114,1.4603 -1.1812,-1.0193 -0.05934,0.32361 0.1264,1.542 0.19188,2.2298"
           stroke-opacity="0"
           id="path92822"
           style="fill:#007705;fill-opacity:1" />
        <path
           d="m 80.205,119.5 c 0.78266,-2.441 0.81359,-1.1754 0.65624,-0.19034 0.77965,-1.7561 -0.32288,1.803 0.76204,-0.35445 -0.75132,2.4271 1.2715,-2.1531 0.33244,0.5636 1.0464,-1.8257 1.165,-2.0814 0.37675,0.0521 0.44508,-0.57094 1.0677,-1.6394 0.39586,0.51681 0.64173,-0.43065 0.47837,-0.97874 0.49353,0.0549 0.88314,-0.46552 -0.51607,1.2081 0.83446,-0.22535 -0.0797,0.75977 0.3853,0.10695 -0.25842,1.6837 0.81951,-1.2176 1.1522,-2.6355 0.7097,-0.38257 1.3613,-2.2495 -0.09093,1.4581 1.1948,-0.9864 0.05491,0.32522 -0.14729,1.5382 -0.22208,2.224"
           stroke-opacity="0"
           id="path92824"
           style="fill:#007705;fill-opacity:1" />
      </g>
      <path
         d="m 105.26081,84.596953 c 0.35494,0.325106 -4.68113,-0.216861 -5.761123,0.524756 -5.973003,4.101584 -1.822805,7.71674 -0.585377,10.143604 2.1165,4.150787 -3.4397,7.628847 -4.8731,9.435347 -0.27617,0.34887 0.28448,0.51795 0.49979,0.56944 4.8504,1.15973 12.038,0.96381 17.538,-0.33546 0.16693,-0.0395 0.56544,-0.0601 0.53006,-0.52309 0,0 0.43883,-7.527419 -2.916,-10.1142 -4.48972,-2.695958 -9.849656,-4.684044 -4.16007,-9.476109"
         fill="#b0c767"
         id="path92828"
         style="stroke-width:1.22309;fill:#748931;fill-opacity:1"
         sodipodi:nodetypes="csccccccc" />
    </g>
  </g>
  <g
     transform="matrix(0.0780312,-0.00230284,0.00230284,0.0780312,-178.8609,-129.81424)"
     id="g93060"
     style="filter:url(#filter20)">
    <g
       transform="matrix(9.7025,0,0,9.7025,2280.2,1361.8)"
       id="g92984">
      <g
         id="g92846">
        <path
           d="m 13.371,93.457 c -1.524,-3.4624 -1.3981,-6.2868 -0.81767,-9.5353 0.12664,-1.7274 2.9456,-4.307 2.9456,-4.307 l 5.6019,-1.4437 8.5354,-0.77527 12.74,-0.26604 6.7757,1.6496 1.649,2.9507 c 0.21782,1.085 0.6517,2.2002 0.76971,3.2317 0.32795,2.867 0.38797,5.8858 -0.39467,8.1703 -2.7312,2.2785 -13.245,3.2692 -16.842,3.2946 l -7.2782,0.27329 c -4.7611,-0.07077 -9.3197,-1.0078 -13.685,-3.2428 z"
           fill="url(#linearGradient50606)"
           id="path92836"
           style="fill:url(#linearGradient1)" />
        <path
           d="m 11.871,90.793 c 1.8544,-0.83026 2.4126,-0.74364 2.4607,0.49454 0.04659,1.225 0.73459,0.53924 0.04659,1.225 -0.79611,0.69249 -0.38767,0.32707 -0.7812,1.4377 -0.55425,-0.10051 -0.99472,-0.30527 -1.2967,-0.63689 C 12.10381,92.3989 11.6291,93.19566 11.871,90.79305 Z"
           fill="#43cc32"
           id="path92838" />
        <path
           d="m 49.95,91.679 c 2.3175,-2.4968 2.5339,-1.6274 2.5811,-0.3891 0.0466,1.225 0.33907,0.86951 0.11154,1.4677 -0.36897,0.55315 -0.7498,0.79732 -2.0245,1.1701 -0.42748,-0.7244 -1.3213,0.59513 -0.66813,-2.2487 z"
           fill="#43cc32"
           id="path92840" />
        <path
           d="m 27.188,96.752 c -0.21241,-4.913 -0.59134,-8.7796 3.4735,-9.6391 4.4574,0 3.4789,5.6776 3.7577,9.4217"
           fill="#6c5353"
           id="path92842" />
        <path
           d="M 21.017,79.366 C 32.23,76.9428 31.111,76.7671 32.23,76.9428 l 1.1185,0.17566 c 0,0 6.1365,-1.2559 9.4592,0.33315 l 3.3226,1.589 -6.3263,2.4539 -11.626,0.24278 z"
           fill="#906821"
           stroke="#000000"
           stroke-width="0.083078px"
           id="path92844" />
      </g>
      <g
         fill="#74541a"
         id="g92854">
        <path
           d="m 36.185,78.041 0.11682,2.6808 0.59384,-0.05367 -0.16155,-3.299 -0.58994,0.26 z"
           id="path92848" />
        <path
           d="m 29.906,78.172 0.11682,2.6808 0.59382,-0.05366 -0.16154,-3.299 -0.58995,0.26001 z"
           id="path92850" />
        <path
           d="m 26.075,78.293 0.11683,2.6808 0.59381,-0.05366 -0.16155,-3.299 -0.58994,0.26 z"
           id="path92852" />
      </g>
      <g
         id="g92874">
        <path
           d="m 39.324,77.975 0.11682,2.6808 0.59384,-0.05367 -0.16157,-3.299 -0.58992,0.26 z"
           fill="#6f5019"
           id="path92856" />
        <path
           d="m 21.712,79.309 c 10.145,-2.9778 15.871,-1.1007 22.097,0.26826 l 2.8314,-1.9165 -3.43,-1.6531 c -3.9462,-0.3755 -5.6547,-1.2747 -11.838,-1.1265 -4.7249,0.48679 -5.5175,0.69683 -6.2664,0.90379 l -7.0336,2.0081 z"
           fill="url(#linearGradient33560)"
           id="path92858"
           style="fill:url(#linearGradient2)" />
        <ellipse
           transform="matrix(0.99978,-0.020878,0.018915,0.99982,0,0)"
           cx="18.944"
           cy="89.616997"
           rx="2.7227001"
           ry="3.1271999"
           fill="#836652"
           id="ellipse92860" />
        <ellipse
           transform="matrix(0.99978,-0.020878,0.018915,0.99982,0,0)"
           cx="19.224001"
           cy="89.616997"
           rx="2.1782999"
           ry="2.6529"
           fill="#8fffff"
           id="ellipse92862" />
        <ellipse
           transform="matrix(0.99983,-0.018221,0.021673,0.99977,0,0)"
           cx="38.908001"
           cy="89.736"
           rx="2.8633001"
           ry="2.9012001"
           fill="#755b49"
           id="ellipse92864" />
        <ellipse
           transform="matrix(0.99983,-0.018426,0.021432,0.99977,0,0)"
           cx="38.694"
           cy="89.741997"
           rx="2.3654001"
           ry="2.6198001"
           fill="#8fffff"
           id="ellipse92866" />
        <ellipse
           transform="matrix(0.99978,-0.020878,0.018915,0.99982,0,0)"
           cx="47.806999"
           cy="88.075996"
           rx="1.3746001"
           ry="2.1772001"
           fill="#836652"
           id="ellipse92868" />
        <ellipse
           transform="matrix(0.99978,-0.020878,0.018915,0.99982,0,0)"
           cx="47.599998"
           cy="88.078003"
           rx="1.1681"
           ry="1.9895999"
           fill="#8fffff"
           id="ellipse92870" />
        <path
           d="m 11.583,82.414 c 4.2043,-5.0355 5.1443,-5.0541 5.1563,-5.0543 9.3154,-2.9691 16.553,-1.9032 15.388,-2.0745 -3.0326,-0.54809 -15.586,2.6677 -12.456,2.9196 1.6395,1.6068 17.56,2.5166 26.181,-0.29129 -0.56564,-1.6898 -11.632,-2.6726 -13.649,-2.6771 5.4035,-0.55233 11.109,-0.38676 15.704,1.8842 2.5877,1.7927 2.6707,3.046 3.968,4.5608 -7.2228,2.337 -12.785,3.0227 -19.473,3.4024 -7.4187,0.95978 -15.113,-1.39 -20.82,-2.6699 z"
           fill="url(#linearGradient33562)"
           id="path92872"
           style="fill:url(#linearGradient3)" />
      </g>
      <g
         transform="translate(4.6805,0.46368)"
         id="g92880">
        <ellipse
           transform="matrix(0.99978,-0.020878,0.018915,0.99982,0,0)"
           cx="7.7874999"
           cy="86.828003"
           rx="1.0638"
           ry="2.4870999"
           fill="#836652"
           id="ellipse92876" />
        <ellipse
           transform="matrix(0.99978,-0.020878,0.018915,0.99982,0,0)"
           cx="7.9752002"
           cy="86.828003"
           rx="0.87608999"
           ry="2.4870999"
           fill="#8fffff"
           id="ellipse92878" />
      </g>
      <g
         fill="#ac9393"
         id="g92958">
        <ellipse
           transform="matrix(0.99978,-0.020878,0.018915,0.99982,0,0)"
           cx="23.969999"
           cy="95.666"
           rx="0.31913"
           ry="0.42207"
           id="ellipse92882" />
        <ellipse
           transform="matrix(0.99978,-0.020878,0.018915,0.99982,0,0)"
           cx="22.823999"
           cy="95.526001"
           rx="0.31913"
           ry="0.42207"
           id="ellipse92884" />
        <ellipse
           transform="matrix(0.99978,-0.020878,0.018915,0.99982,0,0)"
           cx="21.698"
           cy="95.337997"
           rx="0.26280999"
           ry="0.34759"
           id="ellipse92886" />
        <ellipse
           transform="matrix(0.99978,-0.020878,0.018915,0.99982,0,0)"
           cx="20.666"
           cy="95.151001"
           rx="0.31913"
           ry="0.42207"
           id="ellipse92888" />
        <ellipse
           transform="matrix(0.99978,-0.020878,0.018915,0.99982,0,0)"
           cx="23.444"
           cy="94.494003"
           rx="0.31913"
           ry="0.42207"
           id="ellipse92890" />
        <ellipse
           transform="matrix(0.99978,-0.020878,0.018915,0.99982,0,0)"
           cx="22.224001"
           cy="94.330002"
           rx="0.31913"
           ry="0.42207"
           id="ellipse92892" />
        <ellipse
           transform="matrix(0.99978,-0.020878,0.018915,0.99982,0,0)"
           cx="18.488001"
           cy="94.705002"
           rx="0.31913"
           ry="0.42207"
           id="ellipse92894" />
        <ellipse
           transform="matrix(0.99978,-0.020878,0.018915,0.99982,0,0)"
           cx="17.417999"
           cy="94.400002"
           rx="0.31913"
           ry="0.42207"
           id="ellipse92896" />
        <ellipse
           transform="matrix(0.99978,-0.020878,0.018915,0.99982,0,0)"
           cx="33.469002"
           cy="94.352997"
           rx="0.31913"
           ry="0.42207"
           id="ellipse92898" />
        <ellipse
           transform="matrix(0.99978,-0.020878,0.018915,0.99982,0,0)"
           cx="34.481998"
           cy="94.306"
           rx="0.26594001"
           ry="0.35172001"
           id="ellipse92900" />
        <ellipse
           transform="matrix(0.99978,-0.020878,0.018915,0.99982,0,0)"
           cx="35.477001"
           cy="94.166"
           rx="0.31913"
           ry="0.42207"
           id="ellipse92902" />
        <ellipse
           transform="matrix(0.99978,-0.020878,0.018915,0.99982,0,0)"
           cx="35.063999"
           cy="95.455002"
           rx="0.31913"
           ry="0.42207"
           id="ellipse92904" />
        <ellipse
           transform="matrix(0.99978,-0.020878,0.018915,0.99982,0,0)"
           cx="42.426998"
           cy="87.400002"
           rx="0.31913"
           ry="0.42207"
           id="ellipse92906" />
        <ellipse
           transform="matrix(0.99978,-0.020878,0.018915,0.99982,0,0)"
           cx="43.467999"
           cy="87.213997"
           rx="0.31913"
           ry="0.42207"
           id="ellipse92908" />
        <ellipse
           transform="matrix(0.99978,-0.020878,0.018915,0.99982,0,0)"
           cx="44.360001"
           cy="87.028"
           rx="0.31913"
           ry="0.42207"
           id="ellipse92910" />
        <ellipse
           transform="matrix(0.99978,-0.020878,0.018915,0.99982,0,0)"
           cx="45.698002"
           cy="86.843002"
           rx="0.31913"
           ry="0.42207"
           id="ellipse92912" />
        <ellipse
           transform="matrix(0.99978,-0.020878,0.018915,0.99982,0,0)"
           cx="44.063"
           cy="88.328003"
           rx="0.31913"
           ry="0.42207"
           id="ellipse92914" />
        <ellipse
           transform="matrix(0.99978,-0.020878,0.018915,0.99982,0,0)"
           cx="43.617001"
           cy="92.042"
           rx="0.31913"
           ry="0.42207"
           id="ellipse92916" />
        <ellipse
           transform="matrix(0.99978,-0.020878,0.018915,0.99982,0,0)"
           cx="44.508999"
           cy="91.857002"
           rx="0.31913"
           ry="0.42207"
           id="ellipse92918" />
        <ellipse
           transform="matrix(0.99978,-0.020878,0.018915,0.99982,0,0)"
           cx="45.401001"
           cy="91.485001"
           rx="0.31913"
           ry="0.42207"
           id="ellipse92920" />
        <ellipse
           transform="matrix(0.99978,-0.020878,0.018915,0.99982,0,0)"
           cx="44.063"
           cy="93.342003"
           rx="0.31913"
           ry="0.42207"
           id="ellipse92922" />
        <ellipse
           transform="matrix(0.99978,-0.020878,0.018915,0.99982,0,0)"
           cx="42.576"
           cy="92.227997"
           rx="0.31913"
           ry="0.42207"
           id="ellipse92924" />
        <ellipse
           transform="matrix(0.99978,-0.020878,0.018915,0.99982,0,0)"
           cx="43.021999"
           cy="90.928001"
           rx="0.31913"
           ry="0.42207"
           id="ellipse92926" />
        <ellipse
           transform="matrix(0.99978,-0.020878,0.018915,0.99982,0,0)"
           cx="33.722"
           cy="90.290001"
           rx="0.24821"
           ry="0.32828"
           id="ellipse92928" />
        <ellipse
           transform="matrix(0.99978,-0.020878,0.018915,0.99982,0,0)"
           cx="34.763"
           cy="90.103996"
           rx="0.31913"
           ry="0.42207"
           id="ellipse92930" />
        <ellipse
           transform="matrix(0.99978,-0.020878,0.018915,0.99982,0,0)"
           cx="34.167999"
           cy="88.989998"
           rx="0.31913"
           ry="0.42207"
           id="ellipse92932" />
        <ellipse
           transform="matrix(0.99978,-0.020878,0.018915,0.99982,0,0)"
           cx="39.724998"
           cy="94.735001"
           rx="0.31913"
           ry="0.42207"
           id="ellipse92934" />
        <ellipse
           transform="matrix(0.99978,-0.020878,0.018915,0.99982,0,0)"
           cx="47.158001"
           cy="92.789001"
           rx="0.31913"
           ry="0.42207"
           id="ellipse92936" />
        <ellipse
           transform="matrix(0.99978,-0.020878,0.018915,0.99982,0,0)"
           cx="24.438999"
           cy="89.170998"
           rx="0.31913"
           ry="0.42207"
           id="ellipse92938" />
        <ellipse
           transform="matrix(0.99978,-0.020878,0.018915,0.99982,0,0)"
           cx="23.462999"
           cy="89.007004"
           rx="0.28159001"
           ry="0.37241"
           id="ellipse92940" />
        <ellipse
           transform="matrix(0.99978,-0.020878,0.018915,0.99982,0,0)"
           cx="22.504999"
           cy="88.773003"
           rx="0.31913"
           ry="0.42207"
           id="ellipse92942" />
        <ellipse
           transform="matrix(0.99978,-0.020878,0.018915,0.99982,0,0)"
           cx="23.988001"
           cy="88.045998"
           rx="0.31913"
           ry="0.42207"
           id="ellipse92944" />
        <ellipse
           transform="matrix(0.99978,-0.020878,0.018915,0.99982,0,0)"
           cx="15.635"
           cy="87.202003"
           rx="0.31913"
           ry="0.42207"
           id="ellipse92946" />
        <ellipse
           transform="matrix(0.99978,-0.020878,0.018915,0.99982,0,0)"
           cx="14.743"
           cy="86.830002"
           rx="0.31913"
           ry="0.42207"
           id="ellipse92948" />
        <ellipse
           transform="matrix(0.99978,-0.020878,0.018915,0.99982,0,0)"
           cx="14.891"
           cy="90.730003"
           rx="0.31913"
           ry="0.42207"
           id="ellipse92950" />
        <ellipse
           transform="matrix(0.99978,-0.020878,0.018915,0.99982,0,0)"
           cx="14.148"
           cy="91.844002"
           rx="0.26280999"
           ry="0.34759"
           id="ellipse92952" />
        <ellipse
           transform="matrix(0.84468,0.53528,-0.37309,0.92779,0,0)"
           cx="44.772999"
           cy="64.810997"
           rx="0.25942001"
           ry="0.31123999"
           id="ellipse92954" />
        <ellipse
           transform="matrix(0.99978,-0.020878,0.018915,0.99982,0,0)"
           cx="48.626999"
           cy="84.849998"
           rx="0.24821"
           ry="0.32828"
           id="ellipse92956" />
      </g>
      <g
         fill="#ffffff"
         fill-opacity="0.9918"
         id="g92968">
        <ellipse
           transform="matrix(0.99978,-0.020878,0.018915,0.99982,0,0)"
           cx="18.375"
           cy="88.929001"
           rx="0.63081998"
           ry="0.76824999"
           id="ellipse92960" />
        <ellipse
           transform="matrix(0.99978,-0.020878,0.018915,0.99982,0,0)"
           cx="37.953999"
           cy="89.192001"
           rx="0.63081998"
           ry="0.76824999"
           id="ellipse92962" />
        <ellipse
           transform="matrix(0.99999,-0.0037542,0.0079401,0.99997,0,0)"
           cx="13.341"
           cy="87.191002"
           rx="0.33877999"
           ry="0.76823997"
           id="ellipse92964" />
        <ellipse
           transform="matrix(0.99816,-0.060674,0.044444,0.99901,0,0)"
           cx="46.015999"
           cy="89.357002"
           rx="0.25709"
           ry="0.76806998"
           id="ellipse92966" />
      </g>
      <g
         id="g92982">
        <path
           d="m 36.823,96.756 c 0,0 -0.81782,-1.0798 -0.49843,-1.5639 0.31945,-0.48412 0.38394,-0.55362 0.38394,-0.55362 0,0 -0.94526,-0.8725 0.30068,-1.3043 l 1.2459,-0.43178 c 3.3504,2.1277 1.2422,-0.08851 2.1126,-0.10491 1.2249,-0.07802 0.59735,0.46522 1.466,0.52162 1.0587,0.05006 0.96058,-0.5028 1.113,0.38341 0.28088,0.74304 0.10734,1.3449 -0.51576,2.6146 -1.6737,0.45969 -3.423,0.79838 -5.608,0.43884 z"
           fill="#43cc32"
           id="path92970" />
        <path
           d="m 14.702,94.892 c 0,0 -0.40142,-1.2124 -0.05672,-1.5721 1.0332,-0.82297 -0.26683,-1.4078 0.90888,-1.5255 l 1.0424,-0.06335 c 0.39421,2.1918 0.63441,0.31287 2.6502,1.3422 0.79922,0.3297 0.83887,-0.20513 0.77164,0.65087 0.06066,0.75875 -0.19687,1.2658 -0.93673,2.2669 -1.3753,-0.0256 -2.7832,-0.18276 -4.3796,-1.0989 z"
           fill="#43cc32"
           id="path92972" />
        <path
           d="m 27.627,96.656 c -0.18616,-4.552 -0.51825,-8.1345 3.0442,-8.9308 3.9065,0 3.0489,5.2604 3.2933,8.7295"
           fill="#f2b200"
           id="path92974" />
        <path
           d="m 24.146337,98.022825 c -0.10221,-4.528 -0.26322,-9.0818 1.5216,-9.8599 1.9589,0.01555 1.3274,5.1548 1.4567,8.6059"
           fill="#97623e"
           id="path92976" />
        <ellipse
           transform="matrix(-0.99935305,-0.03596511,-0.010977,0.99993975,0,0)"
           cx="-25.818052"
           cy="93.239067"
           rx="0.23975927"
           ry="0.5158301"
           fill="#6c5353"
           id="ellipse92980"
           style="stroke-width:0.999999" />
        <path
           style="fill:#4d4d4d;fill-opacity:1;stroke-width:0.40947"
           d="m 30.647909,92.970034 -0.268874,2.172722 0.54716,-0.0059 -0.08545,1.676417 c -0.646228,0.382364 -0.209118,0.269899 -0.003,0.262965 l 0.35472,0.0068 0.253253,-1.95876 0.459803,0.0513 -0.09335,1.898076 0.293273,-0.03063 c 0.09101,-0.08864 0.570115,0.125181 0.03722,-0.449705 l 0.162505,-1.414989 0.320314,0.01271 0.08673,-2.037529 -0.190812,-1.071877 c 0.0967,-0.361297 -0.03616,-0.61013 -0.164796,-0.946339 l 0.47189,-0.161004 0.05276,-0.135124 1.088594,-0.254294 0.659175,-0.98497 c 0.2348,-0.238196 0.09503,-0.47639 -0.104082,-0.714586 l -0.320914,0.01931 -0.130099,0.212445 0.06939,0.395919 -0.433667,0.714584 -0.901352,0.238293 -0.148123,-0.103105 -0.64183,0.115882 -0.372954,0.03865 -0.01734,-0.318665 0.286221,-0.04828 0.02601,-0.560078 c -0.19439,-0.926297 -0.481532,-1.140654 -1.274981,-0.946341 -0.259036,0.41018 -0.265065,0.76621 -0.277544,1.245693 l 0.121425,0.618018 0.451014,-0.08692 0.04337,0.222104 -0.451018,0.193128 -0.754581,0.820806 0.104082,0.183476 -0.369775,0.716647 c -0.211395,0.196582 0.01915,0.18517 0.04489,0.329838 l 0.715182,0.691691 0.164792,0.202786 0.147445,-0.09656 0.03469,-0.540764 c -0.33246,-0.06604 -0.480571,-0.260976 -0.702541,-0.521469 l 0.329587,-0.415231 0.138773,0.135194 0.268871,-0.289698 c 0.03485,0.263028 0.161994,0.348108 0.312238,0.40557 l -0.147445,0.60836 -0.190812,0.173821 v 0"
           id="path6"
           sodipodi:nodetypes="cccccccccccccccccccccccccccccccccccccccccccccccccccccc" />
      </g>
    </g>
    <g
       transform="matrix(0.16434,0,0,0.16434,1936.5,1755.3)"
       id="g93004">
      <ellipse
         cx="4894.7002"
         cy="2192.6001"
         rx="49.935001"
         ry="12.142"
         opacity="0.3"
         id="ellipse92986" />
      <g
         stroke="#283f00"
         stroke-linecap="round"
         stroke-linejoin="round"
         stroke-miterlimit="10"
         stroke-width="2.965"
         id="g93000">
        <path
           d="m 4881,2180.9 v -21.748 c 0,-1.3301 1.0776,-2.4097 2.4152,-2.4097 1.3301,0 2.4049,1.0796 2.4049,2.4097 v 21.374 c 28.496,0.3256 27.742,6.3709 27.742,6.3709 h -36.986 c -0.3732,-3.8743 2.3083,-5.3989 4.4241,-5.997 z"
           fill="#ffde55"
           id="path92988" />
        <path
           d="m 4869.7,2185.1 v -21.752 c 0,-1.33 1.0755,-2.4103 2.4049,-2.4103 1.3377,0 2.4145,1.0803 2.4145,2.4103 v 21.374 c 28.497,0.3256 27.742,6.3709 27.742,6.3709 h -36.993 c -0.367,-3.875 2.3166,-5.3955 4.4324,-5.9936 z"
           fill="#ffde55"
           id="path92990" />
        <path
           d="m 4832,2150.6 c -0.044,-0.3139 51.394,-50.531 68.838,-50.531 17.435,0 31.58,14.143 31.58,31.586 0,17.443 -14.145,31.586 -31.58,31.586 -14.531,0 -52.651,2.6608 -64.99,-6.5241 -19.274,34.531 -36.754,12.058 -36.754,12.058 z"
           fill="#ffffff"
           id="path92992" />
        <path
           d="m 4925.9,2120.6 c 12.794,-4.1889 20.872,-17.26 18.452,-30.887 -2.6684,-14.92 -16.92,-24.857 -31.838,-22.199 -14.924,2.6601 -24.854,16.908 -22.203,31.833 0.4553,2.5221 1.241,4.9056 2.2931,7.1035"
           fill="#ffffff"
           id="path92994" />
        <path
           d="m 4935.1,2114.1 c -14.626,1.5136 -14.918,-12.727 -2.5187,-14.121 0,0 5.5534,-6.0459 11.83,-10.258 7.9204,9.5326 22.45,10.306 23.907,25.365 z"
           fill="#ffde55"
           id="path92996" />
        <path
           d="m 4875.3,2128.1 c 7.3754,-5.9986 44.058,-2.3577 44.853,4.769 0.7961,7.135 -0.7559,21.892 -16.505,23.406 0,0 -57.097,3.21 -56.29,-7.6416 l 27.942,-20.533"
           fill="#b3b3b3"
           id="path92998" />
      </g>
      <path
         d="m 4911.3,2091.3 c 0.7548,2.7278 3.5791,4.331 6.3089,3.5687 2.7325,-0.7513 4.3261,-3.5838 3.5707,-6.3109 -0.7547,-2.7243 -3.579,-4.3241 -6.3136,-3.5687 -2.7278,0.7617 -4.3207,3.5825 -3.566,6.3109 z"
         fill="#283f00"
         id="path93002" />
    </g>
    <g
       transform="matrix(0.21545,0.050005,-0.050005,0.21545,2816.9,2938.6)"
       id="g93012">
      <g
         stroke="#283f00"
         stroke-linecap="round"
         stroke-linejoin="round"
         stroke-miterlimit="10"
         id="g93010">
        <path
           d="m -2242,-2580.9 c -3.973,-3.974 -10.215,-4.29 -14.554,-0.954 -4.338,-3.335 -10.579,-3.02 -14.554,0.954 -3.971,3.973 -4.287,10.214 -0.951,14.553 -3.336,4.338 -3.02,10.58 0.951,14.552 3.975,3.974 10.216,4.29 14.554,0.954 4.339,3.335 10.581,3.02 14.554,-0.954 3.973,-3.973 4.29,-10.214 0.954,-14.552 3.336,-4.339 3.019,-10.58 -0.954,-14.553 z"
           fill="#ffcc00"
           stroke-width="2.5855"
           id="path93006" />
        <circle
           cx="-2256.5"
           cy="-2566.3999"
           r="7.1368999"
           fill="#ffe680"
           stroke-width="3.5445"
           id="circle93008" />
      </g>
    </g>
    <g
       transform="matrix(0.21545,0.050005,-0.050005,0.21545,3012.6,2946.5)"
       id="g93020">
      <g
         stroke="#283f00"
         stroke-linecap="round"
         stroke-linejoin="round"
         stroke-miterlimit="10"
         id="g93018">
        <path
           d="m -2242,-2580.9 c -3.973,-3.974 -10.215,-4.29 -14.554,-0.954 -4.338,-3.335 -10.579,-3.02 -14.554,0.954 -3.971,3.973 -4.287,10.214 -0.951,14.553 -3.336,4.338 -3.02,10.58 0.951,14.552 3.975,3.974 10.216,4.29 14.554,0.954 4.339,3.335 10.581,3.02 14.554,-0.954 3.973,-3.973 4.29,-10.214 0.954,-14.552 3.336,-4.339 3.019,-10.58 -0.954,-14.553 z"
           fill="#ffcc00"
           stroke-width="2.5855"
           id="path93014" />
        <circle
           cx="-2256.5"
           cy="-2566.3999"
           r="7.1368999"
           fill="#ffe680"
           stroke-width="3.5445"
           id="circle93016" />
      </g>
    </g>
    <g
       transform="matrix(-3.1993236,0,0,3.2181196,4411.3294,2046.1349)"
       id="g93050">
      <path
         d="m 558.46,15.698 c -4.4173,0.54768 -9.7067,3.4372 -10.138,-6.716 0,0 -12.994,4.0608 -12.566,-6.5598 l 0.42845,-10.621 2.9987,-6.4036 c -4.0091,-0.78715 -1.6406,-4.6748 -2.4275,-7.0284 -4.5754,-7.0048 1.5395,-11.159 8.5674,-12.022 1.2905,-4.9378 3.7935,-8.4985 14.851,-2.3428 l 7.4252,-9.8398 c 10.913,-2.4519 17.74,3.5934 20.276,12.803 11.843,-3.671 9.0449,4.1887 12.423,7.1847 6.0448,3.6964 1.4721,8.6832 1.428,13.12 6.7251,17.274 -0.0828,16.157 -6.9969,21.397 0.76193,6.3363 -2.7154,8.4992 -9.5669,7.3408 -7.9839,-2.7249 -13.607,-5.3628 -17.402,-2.9261 -4.0035,2.5707 -7.0297,4.1042 -9.3001,2.6137 z"
         fill="#43cc32"
         stroke="#43cc32"
         stroke-width="1.1827px"
         id="path93022" />
      <g
         transform="matrix(-2.8111,0,0,3.3424,1603.8,-281.36)"
         fill="#916f6f"
         id="g93026">
        <path
           d="m 366.26,88.642 c -0.68926,-1.0208 -1.3886,-2.117 -2.7007,-2.8709 -0.76316,-0.43377 -1.3843,-0.0191 -2.6292,0.02894 -0.31184,-0.10072 -0.66929,-0.18775 -0.11625,-0.54793 l 1.7426,-0.07748 c -0.61734,-0.58621 -0.38726,-0.42005 -0.79888,-1.0929 -0.25824,-0.42216 -0.39918,-0.88466 -0.32644,-1.4167 0.12197,-0.63955 0.26331,-0.77547 0.4298,-0.25731 0.68962,1.478 0.4694,1.6867 1.305,2.2242 1.6442,1.0577 2.2117,1.8463 3.2648,2.4799 0.15356,-1.1454 0.73824,-2.7579 -0.0945,-2.8348 -1.3569,-1.6465 -2.7418,-3.3425 -4.8203,-5.0907 -0.95217,-0.84718 -1.5692,-1.5396 -0.33378,-1.5993 0.0208,0.70932 2.3802,3.1181 3.3031,3.4579 0.38196,-0.90387 -0.25182,-2.5568 -0.51771,-3.79 -0.19251,-0.07764 -0.349,-1.5034 0.70652,0.17044 0.23274,0.36909 0.39443,1.3511 0.62352,4.2765 0.39457,1.0419 1.9471,2.3361 2.7508,1.2512 2.7572,-0.82621 3.5563,-3.1555 5.791,-5.0935 0.99838,-0.86586 1.0234,-0.07788 0.88689,0.09641 -0.22915,0.02864 -3.5076,2.9829 -2.2068,2.7317 0.82192,-0.25381 1.9576,-0.18612 2.5213,-0.0859 0.62308,0.12263 0.24092,0.51202 -0.23087,0.52236 -3.3002,0.0723 -3.2349,0.40555 -4.2146,1.44 -0.29414,0.47433 -2.0983,0.9568 -1.9826,2.5437 1.7227,-0.23793 6.8486,-2.2968 5.8628,-0.6523 -1.5723,-0.07752 -2.7334,0.63649 -3.4943,0.80241 0.46446,0.58694 1.0572,0.78909 1.6523,0.98404 0.20863,0.57954 -0.11158,0.45395 -0.4239,0.33888 -2.3941,-1.0817 -3.6075,-0.68714 -3.9845,0.7733 -0.17538,1.9568 -0.43803,3.1801 0.0853,5.1515 -0.74522,0.03847 -1.8256,0.0103 -2.6262,0.01329 0.294,-1.2665 0.51107,-2.0219 0.57586,-3.8769 z"
           fill="url(#linearGradient15121)"
           id="path93024"
           style="fill:url(#linearGradient15121)" />
      </g>
      <g
         transform="matrix(1.2939,0,0,1.5385,22.342,-63.895)"
         fill="#fa4545"
         id="g93048">
        <ellipse
           cx="409.17999"
           cy="43.112"
           rx="0.67365003"
           ry="0.72547001"
           id="ellipse93028" />
        <ellipse
           cx="412.64999"
           cy="36.220001"
           rx="0.67365003"
           ry="0.72547001"
           id="ellipse93030" />
        <ellipse
           cx="406.59"
           cy="30.157"
           rx="0.67365003"
           ry="0.72547001"
           id="ellipse93032" />
        <ellipse
           cx="402.44"
           cy="37.203999"
           rx="0.67365003"
           ry="0.72547001"
           id="ellipse93034" />
        <ellipse
           cx="402.44"
           cy="37.203999"
           rx="0.67365003"
           ry="0.72547001"
           id="ellipse93036" />
        <ellipse
           cx="437.22"
           cy="32.299"
           rx="0.76525003"
           ry="0.72547001"
           id="ellipse93038" />
        <ellipse
           cx="437.98999"
           cy="46.731998"
           rx="0.76525003"
           ry="0.72547001"
           id="ellipse93040" />
        <ellipse
           cx="444.25"
           cy="37.612"
           rx="0.76525003"
           ry="0.72547001"
           id="ellipse93042" />
        <ellipse
           cx="426.39001"
           cy="32.116001"
           rx="0.76525003"
           ry="0.72547001"
           id="ellipse93044" />
        <ellipse
           cx="419.19"
           cy="26.07"
           rx="0.76525003"
           ry="0.72547001"
           id="ellipse93046" />
      </g>
    </g>
    <g
       transform="matrix(0.17047,0.039564,-0.039564,0.17047,2966.3,2811.9)"
       id="g93058">
      <g
         stroke="#283f00"
         stroke-linecap="round"
         stroke-linejoin="round"
         stroke-miterlimit="10"
         id="g93056">
        <path
           d="m -2242,-2580.9 c -3.973,-3.974 -10.215,-4.29 -14.554,-0.954 -4.338,-3.335 -10.579,-3.02 -14.554,0.954 -3.971,3.973 -4.287,10.214 -0.951,14.553 -3.336,4.338 -3.02,10.58 0.951,14.552 3.975,3.974 10.216,4.29 14.554,0.954 4.339,3.335 10.581,3.02 14.554,-0.954 3.973,-3.973 4.29,-10.214 0.954,-14.552 3.336,-4.339 3.019,-10.58 -0.954,-14.553 z"
           fill="#ffcc00"
           stroke-width="2.5855"
           id="path93052" />
        <circle
           cx="-2256.5"
           cy="-2566.3999"
           r="7.1368999"
           fill="#ffe680"
           stroke-width="3.5445"
           id="circle93054" />
      </g>
    </g>
  </g>
</svg>
