<?xml version="1.0" encoding="UTF-8" standalone="no"?>
<!-- Created with Inkscape (http://www.inkscape.org/) -->

<svg
   width="168.70773mm"
   height="95.511864mm"
   version="1.1"
   viewBox="0 0 168.70773 95.511865"
   id="svg30"
   sodipodi:docname="registration-confirmed.svg"
   inkscape:version="1.4.2 (2aeb623e1d, 2025-05-12)"
   xmlns:inkscape="http://www.inkscape.org/namespaces/inkscape"
   xmlns:sodipodi="http://sodipodi.sourceforge.net/DTD/sodipodi-0.dtd"
   xmlns:xlink="http://www.w3.org/1999/xlink"
   xmlns="http://www.w3.org/2000/svg"
   xmlns:svg="http://www.w3.org/2000/svg">
  <sodipodi:namedview
     id="namedview30"
     pagecolor="#ffffff"
     bordercolor="#000000"
     borderopacity="0.25"
     inkscape:showpageshadow="2"
     inkscape:pageopacity="0.0"
     inkscape:pagecheckerboard="0"
     inkscape:deskcolor="#d1d1d1"
     inkscape:document-units="mm"
     inkscape:zoom="1.191994"
     inkscape:cx="176.59486"
     inkscape:cy="228.60854"
     inkscape:window-width="2256"
     inkscape:window-height="1425"
     inkscape:window-x="0"
     inkscape:window-y="40"
     inkscape:window-maximized="1"
     inkscape:current-layer="svg30" />
  <defs
     id="defs1">
    <clipPath
       id="clipPath14">
      <ellipse
         transform="matrix(0.9996,0.028384,-0.013912,0.9999,0,0)"
         cx="106.13"
         cy="91.443001"
         rx="117.86"
         ry="38.66"
         fill="#00ffff"
         stroke-width="0.32164"
         id="ellipse1" />
    </clipPath>
    <linearGradient
       id="linearGradient1"
       x1="421.45999"
       x2="458.98999"
       y1="81.216003"
       y2="80.958"
       gradientTransform="matrix(0.36219,-0.0075634,0.0085593,0.45242,-122.38,55.957)"
       gradientUnits="userSpaceOnUse"
       xlink:href="#linearGradient15073" />
    <linearGradient
       id="linearGradient15073">
      <stop
         stop-color="#d1a448"
         offset="0"
         id="stop1" />
      <stop
         stop-color="#9b7527"
         stop-opacity=".9918"
         offset="1"
         id="stop2" />
    </linearGradient>
    <linearGradient
       id="linearGradient2"
       x1="439.64001"
       x2="412.56"
       y1="53.484001"
       y2="53.870998"
       gradientTransform="matrix(0.36219,-0.0075634,0.0085593,0.45242,-123.44,56.069)"
       gradientUnits="userSpaceOnUse"
       xlink:href="#linearGradient15111" />
    <linearGradient
       id="linearGradient15111">
      <stop
         stop-color="#96312a"
         offset="0"
         id="stop3" />
      <stop
         stop-color="#65211c"
         stop-opacity=".9959"
         offset="1"
         id="stop4" />
    </linearGradient>
    <linearGradient
       id="linearGradient3"
       x1="419.64999"
       x2="452.28"
       y1="64.963997"
       y2="65.350998"
       gradientTransform="matrix(0.36219,-0.0071478,0.0085593,0.42756,-122.85,57.356)"
       gradientUnits="userSpaceOnUse"
       xlink:href="#linearGradient15103" />
    <linearGradient
       id="linearGradient15103">
      <stop
         stop-color="#c33f37"
         offset="0"
         id="stop5" />
      <stop
         stop-color="#b33a33"
         stop-opacity=".98039"
         offset="1"
         id="stop6" />
    </linearGradient>
    <linearGradient
       id="linearGradient15121"
       x1="367.10999"
       x2="367.22"
       y1="87.487"
       y2="90.810997"
       gradientUnits="userSpaceOnUse">
      <stop
         stop-color="#916f6f"
         offset="0"
         id="stop7" />
      <stop
         stop-color="#685050"
         stop-opacity=".9918"
         offset="1"
         id="stop8" />
    </linearGradient>
  </defs>
  <g
     transform="matrix(0.93555,0,0,1,-12.419428,-9.5665279)"
     style="mix-blend-mode:difference"
     id="g13">
    <ellipse
       cx="103.44"
       cy="70.320999"
       rx="90.165001"
       ry="28.162001"
       fill="#4cffff"
       fill-opacity=".5848"
       stroke-width="0.2401"
       id="ellipse2"
       style="fill:#87ffff;fill-opacity:1" />
    <path
       d="M 74.906337,38.527471 97.01695,59.213257 147.5567,9.5665279 171.68924,30.72515 97.396061,97.629868 51.279279,59.449149 C 58.606868,53.07355 67.831699,45.146122 74.906337,38.526418 Z"
       fill="#00fcfc"
       stroke-width="0.288061"
       id="path2"
       style="fill:#00f3fa;fill-opacity:1" />
    <path
       d="m 136.75644,64.153436 c -0.20824,0 -0.40647,0.04054 -0.58978,0.110883 -0.27432,-1.122862 -1.28639,-1.956902 -2.49398,-1.956902 -1.20797,2.8e-5 -2.22024,0.834013 -2.49413,1.956902 -0.18321,-0.0703 -0.38196,-0.110855 -0.58994,-0.110855 -0.90838,-1.8e-5 -1.64459,0.736856 -1.64459,1.645193 -2e-5,0.908529 0.73626,1.645039 1.64459,1.645039 0.285,2.7e-5 1.70995,0 3.08407,1.8e-5 1.37389,-1.8e-5 2.7987,-1.8e-5 3.08376,-1.8e-5 0.90826,0 1.6446,-0.736465 1.6446,-1.645039 0,-0.908255 -0.73635,-1.645048 -1.6446,-1.645193 z"
       stroke-width="0.0275434"
       id="path10"
       style="mix-blend-mode:normal;fill:#ffffff" />
    <g
       transform="matrix(0.92895,-0.020679,0.012925,0.72824,6.7956,3.7091)"
       clip-path="url(#clipPath14)"
       opacity="0.86056"
       id="g8">
      <path
         d="m 80.205,119.5 c 0.78266,-2.441 0.81359,-1.1754 0.65624,-0.19034 0.77965,-1.7561 -0.32288,1.803 0.76204,-0.35445 -0.75132,2.4271 1.2715,-2.1531 0.33244,0.5636 1.0464,-1.8257 1.165,-2.0814 0.37675,0.0521 0.44508,-0.57094 1.0677,-1.6394 0.39586,0.51681 0.64173,-0.43065 0.47837,-0.97874 0.49353,0.0549 0.88314,-0.46552 -0.51607,1.2081 0.83446,-0.22535 -0.0797,0.75977 0.3853,0.10695 -0.25842,1.6837 0.81951,-1.2176 1.1522,-2.6355 0.7097,-0.38257 1.3613,-2.2495 -0.09093,1.4581 1.1948,-0.9864 0.05491,0.32522 -0.14729,1.5382 -0.22208,2.224"
         fill="#32c63d"
         stroke-opacity="0"
         id="path3" />
      <path
         d="m 15.274,121.06 c -0.05467,-5.4217 -0.58405,-11.475 6.9305,-6.8322 2.1259,-2.8852 0.42816,-6.2696 7.0794,-8.564 l 0.56058,1.7068 c 6.613,-1.8719 5.6384,-0.5814 6.6693,1.4147 1.5957,-3.9695 5.014,-4.3044 8.2441,-5.0149 8.2767,-0.86306 7.3899,4.0338 9.8397,6.8333 2.3327,-2.4244 3.9663,-6.9934 9.5577,-2.9283 1.9929,-3.972 4.0214,-7.7994 8.785,-0.51663 3.1456,-5.3403 5.7476,-6.0531 7.8647,-2.6387 8.6584,7.5159 3.3309,9.8592 4.8316,17.228 z"
         fill="#26972e"
         stroke-width="0.32162"
         id="path4" />
      <path
         d="m 9.0677,127.45 c -2.6365,-6.3204 27.569,-15.03 37.542,-15.489 16.721,-0.76192 39.3,6.6615 44.083,15.534 0.2996,0.55578 0.16868,0.31312 0.38521,0.78324 0.28639,0.6218 0.38004,1.2773 -0.0052,1.5815 -14.96,12.445 -66.933,11.824 -82.006,-2.4102 z"
         fill="#32c63d"
         id="path5" />
      <path
         d="m 28.658,116.04 c -0.50948,-2.5589 -0.67781,-1.3119 -0.62917,-0.30821 -0.58102,-1.8804 0.12358,1.8434 -0.71609,-0.48995 0.47994,2.5394 -1.0249,-2.3632 -0.39054,0.49711 -0.83757,-1.9981 -0.92721,-2.2728 -0.37876,-0.0173 -0.37864,-0.64637 -0.87894,-1.8175 -0.44824,0.43922 -0.58864,-0.54341 -0.36724,-1.0561 -0.49471,-0.0358 -0.8239,-0.62205 0.37962,1.2899 -0.80184,-0.37544 -0.0037,0.76654 -0.39321,0.0355 0.07271,1.7136 -0.67907,-1.3547 -0.85424,-2.8188 -0.66119,-0.50827 -1.1034,-2.475 -0.0686,1.4597 -1.0759,-1.1944 -0.08979,0.31182 -0.02151,1.5493 -0.02206,2.2417"
         fill="#32c63d"
         stroke-opacity="0"
         id="path6" />
      <path
         d="m 185.13,131.15 c 0.63699,-5.3569 -0.34021,-14.314 -8.2782,-11.119 -1.7943,-3.2523 2.4021,-3.2224 -3.9356,-6.7332 l -2.7632,1.5277 c -6.3452,-3.0854 -3.4943,-1.5688 -4.7294,0.21509 -1.1529,-4.2269 -4.3756,-2.5316 -7.4967,-3.8368 -4.6285,-5.1958 -7.8744,-0.0478 -10.6,2.267 -2.0485,-2.8347 0.12337,-8.5676 -5.8487,-5.5854 -1.0198,-2.8389 -3.5257,-3.1504 -6.6721,-2.6303 -1.6232,0.26829 -3.3956,-0.7641 -5.2668,1.3873 -2.5399,-5.8727 -5.039,-7.0633 -7.5019,-4.0778 -1.8038,1.3573 -0.59305,7.6783 -2.022,8.1787 -7.512,2.6305 -5.0008,6.7632 -6.5266,12.179 z"
         fill="#26972e"
         stroke-width="0.32162"
         id="path7" />
      <path
         d="m 185.95,134.06 c 2.8102,-6.1657 -27.129,-16.584 -37.082,-17.608 -16.687,-1.7106 -39.454,4.4252 -44.481,13.02 -0.31483,0.53833 -0.17725,0.3033 -0.40669,0.76075 -0.30346,0.60506 -0.41527,1.2547 -0.039,1.5805 14.602,13.284 66.552,15.615 82.008,2.247 z"
         fill="#32c63d"
         id="path8" />
    </g>
    <g
       transform="matrix(0.090962,0,0,0.090962,-30.683,344.62)"
       fill="#ffffff"
       id="g12">
      <path
         d="m 815.75521,-3066.5163 c -1.7571,5e-4 -3.4298,0.3656 -4.977,0.9983 -2.3148,-10.109 -10.856,-17.617 -21.046,-17.617 -10.193,-10e-5 -18.735,7.5079 -21.047,17.616 -1.5463,-0.6331 -3.223,-0.9977 -4.9783,-0.9977 -7.6652,0 -13.878,6.6331 -13.878,14.81 0,8.1793 6.2132,14.81 13.878,14.809 2.4052,1e-4 14.43,1e-4 26.026,1e-4 11.594,10e-5 23.617,10e-5 26.023,-1e-4 7.6645,1e-4 13.878,-6.6301 13.878,-14.81 -7e-5,-8.1764 -6.2136,-14.81 -13.878,-14.81 z"
         stroke-width="0.24007"
         id="path9" />
      <path
         d="m 2161.6498,-3110.3576 c -1.6645,-6e-4 -3.2489,0.3244 -4.7145,0.8864 -2.1924,-8.9753 -10.282,-15.642 -19.934,-15.642 -9.6553,10e-5 -17.746,6.6665 -19.936,15.642 -1.4644,-0.5619 -3.053,-0.886 -4.7154,-0.8862 -7.2605,2e-4 -13.146,5.89 -13.146,13.15 -2e-4,7.2624 5.8852,13.149 13.146,13.149 2.2777,0 13.668,-4e-4 24.652,0 h 24.649 c 7.2597,0 13.146,-5.8869 13.146,-13.149 0,-7.2596 -5.8859,-13.149 -13.145,-13.15 z"
         stroke-width="0.22016"
         id="path11" />
      <path
         d="m 1133.9121,-3167.7583 c -2.0056,-7e-4 -3.9148,0.3909 -5.6807,1.0681 -2.6418,-10.8147 -12.3896,-18.8474 -24.0191,-18.8474 -11.634,1e-4 -21.3829,8.0327 -24.022,18.8474 -1.7644,-0.6771 -3.6787,-1.0676 -5.6818,-1.0678 -8.7483,2e-4 -15.8404,7.097 -15.8404,15.8446 -3e-4,8.7508 7.0913,15.8433 15.8404,15.8433 2.7445,0 16.4697,-4e-4 29.7036,0 h 29.7008 c 8.7475,0 15.839,-7.0934 15.839,-15.8433 0,-8.7474 -7.0921,-15.8446 -15.839,-15.8446 z"
         stroke-width="0.265276"
         id="path12" />
    </g>
  </g>
  <g
     transform="translate(-20.916428,-9.5665279)"
     id="g30">
    <g
       transform="matrix(0.92895,-0.020679,0.012925,0.72824,55.479,5.1355)"
       fill="#2db337"
       id="g29">
      <path
         d="m 9.0677,127.45 c -2.6365,-6.3204 27.402,-16.349 34.13,-17.724 3.2117,-0.20801 7.777,-0.8166 13.939,0.69551 13.174,3.2328 30.299,11.029 33.557,17.074 0.29959,0.55579 0.16868,0.31312 0.38521,0.78324 0.28639,0.6218 0.38004,1.2773 -0.0052,1.5815 -14.96,12.445 -66.933,11.824 -82.006,-2.4102 z"
         id="path13" />
      <path
         d="m 27.699265,111.88456 c -18.0452984,8.36464 2.056461,15.2264 22.401938,14.60888 19.745735,-0.59923 38.700288,-6.18053 23.087277,-12.12761 l -26.123837,-3.17958 z"
         opacity="0.2"
         id="path111"
         style="stroke-width:1.79609" />
      <g
         transform="matrix(0.12411444,0.00352433,-0.00220282,0.15832159,-267.68335,-249.50282)"
         id="g205">
        <g
           transform="matrix(9.7025,0,0,9.7025,2280.2,1361.8)"
           id="g180">
          <path
             d="m 13.371,93.457 c -1.524,-3.4624 -1.3981,-6.2868 -0.81767,-9.5353 0.12664,-1.7274 2.9456,-4.307 2.9456,-4.307 l 5.6019,-1.4437 8.5354,-0.77527 12.74,-0.26604 6.7757,1.6496 1.649,2.9507 c 0.21782,1.085 0.6517,2.2002 0.76971,3.2317 0.32795,2.867 0.38797,5.8858 -0.39467,8.1703 -2.7312,2.2785 -13.245,3.2692 -16.842,3.2946 l -7.2782,0.27329 c -4.7611,-0.07077 -9.3197,-1.0078 -13.685,-3.2428 z"
             fill="url(#linearGradient1)"
             id="path118"
             style="fill:url(#linearGradient1)" />
          <path
             d="m 11.871,90.793 c 1.8544,-0.83026 2.4126,-0.74364 2.4607,0.49454 0.04659,1.225 0.73459,0.53924 0.04659,1.225 -0.79611,0.69249 -0.38767,0.32707 -0.7812,1.4377 -0.55425,-0.10051 -0.99472,-0.30527 -1.2967,-0.63689 C 12.10381,92.3989 11.6291,93.19566 11.871,90.79305 Z"
             fill="#43cc32"
             id="path119" />
          <path
             d="m 49.95,91.679 c 2.3175,-2.4968 2.5339,-1.6274 2.5811,-0.3891 0.0466,1.225 0.33907,0.86951 0.11154,1.4677 -0.36897,0.55315 -0.7498,0.79732 -2.0245,1.1701 -0.42748,-0.7244 -1.3213,0.59513 -0.66813,-2.2487 z"
             fill="#43cc32"
             id="path120" />
          <path
             d="m 27.188,96.752 c -0.21241,-4.913 -0.59134,-8.7796 3.4735,-9.6391 4.4574,0 3.4789,5.6776 3.7577,9.4217"
             fill="#6c5353"
             id="path121" />
          <path
             d="M 21.017,79.366 C 32.23,76.9428 31.111,76.7671 32.23,76.9428 l 1.1185,0.17566 c 0,0 6.1365,-1.2559 9.4592,0.33315 l 3.3226,1.589 -6.3263,2.4539 -11.626,0.24278 z"
             fill="#906821"
             stroke="#000000"
             stroke-width="0.083078px"
             id="path122" />
          <g
             fill="#74541a"
             id="g125">
            <path
               d="m 36.185,78.041 0.11682,2.6808 0.59384,-0.05367 -0.16155,-3.299 -0.58994,0.26 z"
               id="path123" />
            <path
               d="m 29.906,78.172 0.11682,2.6808 0.59382,-0.05366 -0.16154,-3.299 -0.58995,0.26001 z"
               id="path124" />
            <path
               d="m 26.075,78.293 0.11683,2.6808 0.59381,-0.05366 -0.16155,-3.299 -0.58994,0.26 z"
               id="path125" />
          </g>
          <path
             d="m 39.324,77.975 0.11682,2.6808 0.59384,-0.05367 -0.16157,-3.299 -0.58992,0.26 z"
             fill="#6f5019"
             id="path126" />
          <path
             d="m 21.712,79.309 c 10.145,-2.9778 15.871,-1.1007 22.097,0.26826 l 2.8314,-1.9165 -3.43,-1.6531 c -3.9462,-0.3755 -5.6547,-1.2747 -11.838,-1.1265 -4.7249,0.48679 -5.5175,0.69683 -6.2664,0.90379 l -7.0336,2.0081 z"
             fill="url(#linearGradient2)"
             id="path127"
             style="fill:url(#linearGradient2)" />
          <ellipse
             transform="matrix(0.99978,-0.020878,0.018915,0.99982,0,0)"
             cx="18.944"
             cy="89.616997"
             rx="2.7227001"
             ry="3.1271999"
             fill="#836652"
             id="ellipse127" />
          <ellipse
             transform="matrix(0.99978,-0.020878,0.018915,0.99982,0,0)"
             cx="19.224001"
             cy="89.616997"
             rx="2.1782999"
             ry="2.6529"
             fill="#8fffff"
             id="ellipse128" />
          <ellipse
             transform="matrix(0.99983,-0.018221,0.021673,0.99977,0,0)"
             cx="38.908001"
             cy="89.736"
             rx="2.8633001"
             ry="2.9012001"
             fill="#755b49"
             id="ellipse129" />
          <ellipse
             transform="matrix(0.99983,-0.018426,0.021432,0.99977,0,0)"
             cx="38.694"
             cy="89.741997"
             rx="2.3654001"
             ry="2.6198001"
             fill="#8fffff"
             id="ellipse130" />
          <ellipse
             transform="matrix(0.99978,-0.020878,0.018915,0.99982,0,0)"
             cx="47.806999"
             cy="88.075996"
             rx="1.3746001"
             ry="2.1772001"
             fill="#836652"
             id="ellipse131" />
          <ellipse
             transform="matrix(0.99978,-0.020878,0.018915,0.99982,0,0)"
             cx="47.599998"
             cy="88.078003"
             rx="1.1681"
             ry="1.9895999"
             fill="#8fffff"
             id="ellipse132" />
          <path
             d="m 11.583,82.414 c 4.2043,-5.0355 5.1443,-5.0541 5.1563,-5.0543 9.3154,-2.9691 16.553,-1.9032 15.388,-2.0745 -3.0326,-0.54809 -15.586,2.6677 -12.456,2.9196 1.6395,1.6068 17.56,2.5166 26.181,-0.29129 -0.56564,-1.6898 -11.632,-2.6726 -13.649,-2.6771 5.4035,-0.55233 11.109,-0.38676 15.704,1.8842 2.5877,1.7927 2.6707,3.046 3.968,4.5608 -7.2228,2.337 -12.785,3.0227 -19.473,3.4024 -7.4187,0.95978 -15.113,-1.39 -20.82,-2.6699 z"
             fill="url(#linearGradient3)"
             id="path132"
             style="fill:url(#linearGradient3)" />
          <g
             transform="translate(4.6805,0.46368)"
             id="g134">
            <ellipse
               transform="matrix(0.99978,-0.020878,0.018915,0.99982,0,0)"
               cx="7.7874999"
               cy="86.828003"
               rx="1.0638"
               ry="2.4870999"
               fill="#836652"
               id="ellipse133" />
            <ellipse
               transform="matrix(0.99978,-0.020878,0.018915,0.99982,0,0)"
               cx="7.9752002"
               cy="86.828003"
               rx="0.87608999"
               ry="2.4870999"
               fill="#8fffff"
               id="ellipse134" />
          </g>
          <g
             fill="#ac9393"
             id="g172">
            <ellipse
               transform="matrix(0.99978,-0.020878,0.018915,0.99982,0,0)"
               cx="23.969999"
               cy="95.666"
               rx="0.31913"
               ry="0.42207"
               id="ellipse135" />
            <ellipse
               transform="matrix(0.99978,-0.020878,0.018915,0.99982,0,0)"
               cx="22.823999"
               cy="95.526001"
               rx="0.31913"
               ry="0.42207"
               id="ellipse136" />
            <ellipse
               transform="matrix(0.99978,-0.020878,0.018915,0.99982,0,0)"
               cx="21.698"
               cy="95.337997"
               rx="0.26280999"
               ry="0.34759"
               id="ellipse137" />
            <ellipse
               transform="matrix(0.99978,-0.020878,0.018915,0.99982,0,0)"
               cx="20.666"
               cy="95.151001"
               rx="0.31913"
               ry="0.42207"
               id="ellipse138" />
            <ellipse
               transform="matrix(0.99978,-0.020878,0.018915,0.99982,0,0)"
               cx="23.444"
               cy="94.494003"
               rx="0.31913"
               ry="0.42207"
               id="ellipse139" />
            <ellipse
               transform="matrix(0.99978,-0.020878,0.018915,0.99982,0,0)"
               cx="22.224001"
               cy="94.330002"
               rx="0.31913"
               ry="0.42207"
               id="ellipse140" />
            <ellipse
               transform="matrix(0.99978,-0.020878,0.018915,0.99982,0,0)"
               cx="18.488001"
               cy="94.705002"
               rx="0.31913"
               ry="0.42207"
               id="ellipse141" />
            <ellipse
               transform="matrix(0.99978,-0.020878,0.018915,0.99982,0,0)"
               cx="17.417999"
               cy="94.400002"
               rx="0.31913"
               ry="0.42207"
               id="ellipse142" />
            <ellipse
               transform="matrix(0.99978,-0.020878,0.018915,0.99982,0,0)"
               cx="33.469002"
               cy="94.352997"
               rx="0.31913"
               ry="0.42207"
               id="ellipse143" />
            <ellipse
               transform="matrix(0.99978,-0.020878,0.018915,0.99982,0,0)"
               cx="34.481998"
               cy="94.306"
               rx="0.26594001"
               ry="0.35172001"
               id="ellipse144" />
            <ellipse
               transform="matrix(0.99978,-0.020878,0.018915,0.99982,0,0)"
               cx="35.477001"
               cy="94.166"
               rx="0.31913"
               ry="0.42207"
               id="ellipse145" />
            <ellipse
               transform="matrix(0.99978,-0.020878,0.018915,0.99982,0,0)"
               cx="35.063999"
               cy="95.455002"
               rx="0.31913"
               ry="0.42207"
               id="ellipse146" />
            <ellipse
               transform="matrix(0.99978,-0.020878,0.018915,0.99982,0,0)"
               cx="42.426998"
               cy="87.400002"
               rx="0.31913"
               ry="0.42207"
               id="ellipse147" />
            <ellipse
               transform="matrix(0.99978,-0.020878,0.018915,0.99982,0,0)"
               cx="43.467999"
               cy="87.213997"
               rx="0.31913"
               ry="0.42207"
               id="ellipse148" />
            <ellipse
               transform="matrix(0.99978,-0.020878,0.018915,0.99982,0,0)"
               cx="44.360001"
               cy="87.028"
               rx="0.31913"
               ry="0.42207"
               id="ellipse149" />
            <ellipse
               transform="matrix(0.99978,-0.020878,0.018915,0.99982,0,0)"
               cx="45.698002"
               cy="86.843002"
               rx="0.31913"
               ry="0.42207"
               id="ellipse150" />
            <ellipse
               transform="matrix(0.99978,-0.020878,0.018915,0.99982,0,0)"
               cx="44.063"
               cy="88.328003"
               rx="0.31913"
               ry="0.42207"
               id="ellipse151" />
            <ellipse
               transform="matrix(0.99978,-0.020878,0.018915,0.99982,0,0)"
               cx="43.617001"
               cy="92.042"
               rx="0.31913"
               ry="0.42207"
               id="ellipse152" />
            <ellipse
               transform="matrix(0.99978,-0.020878,0.018915,0.99982,0,0)"
               cx="44.508999"
               cy="91.857002"
               rx="0.31913"
               ry="0.42207"
               id="ellipse153" />
            <ellipse
               transform="matrix(0.99978,-0.020878,0.018915,0.99982,0,0)"
               cx="45.401001"
               cy="91.485001"
               rx="0.31913"
               ry="0.42207"
               id="ellipse154" />
            <ellipse
               transform="matrix(0.99978,-0.020878,0.018915,0.99982,0,0)"
               cx="44.063"
               cy="93.342003"
               rx="0.31913"
               ry="0.42207"
               id="ellipse155" />
            <ellipse
               transform="matrix(0.99978,-0.020878,0.018915,0.99982,0,0)"
               cx="42.576"
               cy="92.227997"
               rx="0.31913"
               ry="0.42207"
               id="ellipse156" />
            <ellipse
               transform="matrix(0.99978,-0.020878,0.018915,0.99982,0,0)"
               cx="43.021999"
               cy="90.928001"
               rx="0.31913"
               ry="0.42207"
               id="ellipse157" />
            <ellipse
               transform="matrix(0.99978,-0.020878,0.018915,0.99982,0,0)"
               cx="33.722"
               cy="90.290001"
               rx="0.24821"
               ry="0.32828"
               id="ellipse158" />
            <ellipse
               transform="matrix(0.99978,-0.020878,0.018915,0.99982,0,0)"
               cx="34.763"
               cy="90.103996"
               rx="0.31913"
               ry="0.42207"
               id="ellipse159" />
            <ellipse
               transform="matrix(0.99978,-0.020878,0.018915,0.99982,0,0)"
               cx="34.167999"
               cy="88.989998"
               rx="0.31913"
               ry="0.42207"
               id="ellipse160" />
            <ellipse
               transform="matrix(0.99978,-0.020878,0.018915,0.99982,0,0)"
               cx="39.724998"
               cy="94.735001"
               rx="0.31913"
               ry="0.42207"
               id="ellipse161" />
            <ellipse
               transform="matrix(0.99978,-0.020878,0.018915,0.99982,0,0)"
               cx="47.158001"
               cy="92.789001"
               rx="0.31913"
               ry="0.42207"
               id="ellipse162" />
            <ellipse
               transform="matrix(0.99978,-0.020878,0.018915,0.99982,0,0)"
               cx="24.438999"
               cy="89.170998"
               rx="0.31913"
               ry="0.42207"
               id="ellipse163" />
            <ellipse
               transform="matrix(0.99978,-0.020878,0.018915,0.99982,0,0)"
               cx="23.462999"
               cy="89.007004"
               rx="0.28159001"
               ry="0.37241"
               id="ellipse164" />
            <ellipse
               transform="matrix(0.99978,-0.020878,0.018915,0.99982,0,0)"
               cx="22.504999"
               cy="88.773003"
               rx="0.31913"
               ry="0.42207"
               id="ellipse165" />
            <ellipse
               transform="matrix(0.99978,-0.020878,0.018915,0.99982,0,0)"
               cx="23.988001"
               cy="88.045998"
               rx="0.31913"
               ry="0.42207"
               id="ellipse166" />
            <ellipse
               transform="matrix(0.99978,-0.020878,0.018915,0.99982,0,0)"
               cx="15.635"
               cy="87.202003"
               rx="0.31913"
               ry="0.42207"
               id="ellipse167" />
            <ellipse
               transform="matrix(0.99978,-0.020878,0.018915,0.99982,0,0)"
               cx="14.743"
               cy="86.830002"
               rx="0.31913"
               ry="0.42207"
               id="ellipse168" />
            <ellipse
               transform="matrix(0.99978,-0.020878,0.018915,0.99982,0,0)"
               cx="14.891"
               cy="90.730003"
               rx="0.31913"
               ry="0.42207"
               id="ellipse169" />
            <ellipse
               transform="matrix(0.99978,-0.020878,0.018915,0.99982,0,0)"
               cx="14.148"
               cy="91.844002"
               rx="0.26280999"
               ry="0.34759"
               id="ellipse170" />
            <ellipse
               transform="matrix(0.84468,0.53528,-0.37309,0.92779,0,0)"
               cx="44.772999"
               cy="64.810997"
               rx="0.25942001"
               ry="0.31123999"
               id="ellipse171" />
            <ellipse
               transform="matrix(0.99978,-0.020878,0.018915,0.99982,0,0)"
               cx="48.626999"
               cy="84.849998"
               rx="0.24821"
               ry="0.32828"
               id="ellipse172" />
          </g>
          <g
             fill="#ffffff"
             fill-opacity="0.9918"
             id="g176">
            <ellipse
               transform="matrix(0.99978,-0.020878,0.018915,0.99982,0,0)"
               cx="18.375"
               cy="88.929001"
               rx="0.63081998"
               ry="0.76824999"
               id="ellipse173" />
            <ellipse
               transform="matrix(0.99978,-0.020878,0.018915,0.99982,0,0)"
               cx="37.953999"
               cy="89.192001"
               rx="0.63081998"
               ry="0.76824999"
               id="ellipse174" />
            <ellipse
               transform="matrix(0.99999,-0.0037542,0.0079401,0.99997,0,0)"
               cx="13.341"
               cy="87.191002"
               rx="0.33877999"
               ry="0.76823997"
               id="ellipse175" />
            <ellipse
               transform="matrix(0.99816,-0.060674,0.044444,0.99901,0,0)"
               cx="46.015999"
               cy="89.357002"
               rx="0.25709"
               ry="0.76806998"
               id="ellipse176" />
          </g>
          <path
             d="m 36.823,96.756 c 0,0 -0.81782,-1.0798 -0.49843,-1.5639 0.31945,-0.48412 0.38394,-0.55362 0.38394,-0.55362 0,0 -0.94526,-0.8725 0.30068,-1.3043 l 1.2459,-0.43178 c 3.3504,2.1277 1.2422,-0.08851 2.1126,-0.10491 1.2249,-0.07802 0.59735,0.46522 1.466,0.52162 1.0587,0.05006 0.96058,-0.5028 1.113,0.38341 0.28088,0.74304 0.10734,1.3449 -0.51576,2.6146 -1.6737,0.45969 -3.423,0.79838 -5.608,0.43884 z"
             fill="#43cc32"
             id="path176" />
          <path
             d="m 14.702,94.892 c 0,0 -0.40142,-1.2124 -0.05672,-1.5721 1.0332,-0.82297 -0.26683,-1.4078 0.90888,-1.5255 l 1.0424,-0.06335 c 0.39421,2.1918 0.63441,0.31287 2.6502,1.3422 0.79922,0.3297 0.83887,-0.20513 0.77164,0.65087 0.06066,0.75875 -0.19687,1.2658 -0.93673,2.2669 -1.3753,-0.0256 -2.7832,-0.18276 -4.3796,-1.0989 z"
             fill="#43cc32"
             id="path177" />
          <path
             d="m 27.627,96.656 c -0.18616,-4.552 -0.51825,-8.1345 3.0442,-8.9308 3.9065,0 3.0489,5.2604 3.2933,8.7295"
             fill="#f2b200"
             id="path178" />
          <path
             d="m 24.146,98.023 c -0.10221,-4.528 -0.26322,-9.0818 1.5216,-9.8599 1.9589,0.01555 1.3274,5.1548 1.4567,8.6059"
             fill="#97623e"
             id="path179" />
          <ellipse
             transform="matrix(-0.99935,-0.035965,-0.010977,0.99994,0,0)"
             cx="-25.818001"
             cy="93.238998"
             rx="0.23976"
             ry="0.51582998"
             fill="#6c5353"
             id="ellipse179" />
          <path
             d="m 30.648,92.97 -0.26887,2.1727 0.54716,-0.0059 -0.08545,1.6764 c -0.64623,0.38236 -0.20912,0.2699 -0.003,0.26296 l 0.35472,0.0068 0.25325,-1.9588 0.4598,0.0513 -0.09335,1.8981 0.29327,-0.03063 c 0.09101,-0.08864 0.57012,0.12518 0.03722,-0.4497 l 0.1625,-1.415 0.32031,0.01271 0.08673,-2.0375 -0.19081,-1.0719 c 0.0967,-0.3613 -0.03616,-0.61013 -0.1648,-0.94634 l 0.47189,-0.161 0.05276,-0.13512 1.0886,-0.25429 0.65918,-0.98497 c 0.2348,-0.2382 0.09503,-0.47639 -0.10408,-0.71459 l -0.32091,0.01931 -0.1301,0.21244 0.06939,0.39592 -0.43367,0.71458 -0.90135,0.23829 -0.14812,-0.1031 -0.64183,0.11588 -0.37295,0.03865 -0.01734,-0.31866 0.28622,-0.04828 0.02601,-0.56008 c -0.19439,-0.9263 -0.48153,-1.1407 -1.275,-0.94634 -0.25904,0.41018 -0.26506,0.76621 -0.27754,1.2457 l 0.12142,0.61802 0.45101,-0.08692 0.04337,0.2221 -0.45102,0.19313 -0.75458,0.82081 0.10408,0.18348 -0.36978,0.71665 c -0.2114,0.19658 0.01915,0.18517 0.04489,0.32984 l 0.71518,0.69169 0.16479,0.20279 0.14744,-0.09656 0.03469,-0.54076 c -0.33246,-0.06604 -0.48057,-0.26098 -0.70254,-0.52147 l 0.32959,-0.41523 0.13877,0.13519 0.26887,-0.2897 c 0.03485,0.26303 0.16199,0.34811 0.31224,0.40557 l -0.14744,0.60836 -0.19081,0.17382"
             fill="#4d4d4d"
             stroke-width="0.40947"
             id="path180" />
        </g>
        <g
           transform="matrix(0.16434,0,0,0.16434,1936.5,1755.3)"
           id="g187">
          <ellipse
             cx="4894.7002"
             cy="2192.6001"
             rx="49.935001"
             ry="12.142"
             opacity="0.3"
             id="ellipse180" />
          <g
             stroke="#283f00"
             stroke-linecap="round"
             stroke-linejoin="round"
             stroke-miterlimit="10"
             stroke-width="2.965"
             id="g186">
            <path
               d="m 4881,2180.9 v -21.748 c 0,-1.3301 1.0776,-2.4097 2.4152,-2.4097 1.3301,0 2.4049,1.0796 2.4049,2.4097 v 21.374 c 28.496,0.3256 27.742,6.3709 27.742,6.3709 h -36.986 c -0.3732,-3.8743 2.3083,-5.3989 4.4241,-5.997 z"
               fill="#ffde55"
               id="path181" />
            <path
               d="m 4869.7,2185.1 v -21.752 c 0,-1.33 1.0755,-2.4103 2.4049,-2.4103 1.3377,0 2.4145,1.0803 2.4145,2.4103 v 21.374 c 28.497,0.3256 27.742,6.3709 27.742,6.3709 h -36.993 c -0.367,-3.875 2.3166,-5.3955 4.4324,-5.9936 z"
               fill="#ffde55"
               id="path182" />
            <path
               d="m 4832,2150.6 c -0.044,-0.3139 51.394,-50.531 68.838,-50.531 17.435,0 31.58,14.143 31.58,31.586 0,17.443 -14.145,31.586 -31.58,31.586 -14.531,0 -52.651,2.6608 -64.99,-6.5241 -19.274,34.531 -36.754,12.058 -36.754,12.058 z"
               fill="#ffffff"
               id="path183" />
            <path
               d="m 4925.9,2120.6 c 12.794,-4.1889 20.872,-17.26 18.452,-30.887 -2.6684,-14.92 -16.92,-24.857 -31.838,-22.199 -14.924,2.6601 -24.854,16.908 -22.203,31.833 0.4553,2.5221 1.241,4.9056 2.2931,7.1035"
               fill="#ffffff"
               id="path184" />
            <path
               d="m 4935.1,2114.1 c -14.626,1.5136 -14.918,-12.727 -2.5187,-14.121 0,0 5.5534,-6.0459 11.83,-10.258 7.9204,9.5326 22.45,10.306 23.907,25.365 z"
               fill="#ffde55"
               id="path185" />
            <path
               d="m 4875.3,2128.1 c 7.3754,-5.9986 44.058,-2.3577 44.853,4.769 0.7961,7.135 -0.7559,21.892 -16.505,23.406 0,0 -57.097,3.21 -56.29,-7.6416 l 27.942,-20.533"
               fill="#b3b3b3"
               id="path186" />
          </g>
          <path
             d="m 4911.3,2091.3 c 0.7548,2.7278 3.5791,4.331 6.3089,3.5687 2.7325,-0.7513 4.3261,-3.5838 3.5707,-6.3109 -0.7547,-2.7243 -3.579,-4.3241 -6.3136,-3.5687 -2.7278,0.7617 -4.3207,3.5825 -3.566,6.3109 z"
             fill="#283f00"
             id="path187" />
        </g>
        <g
           transform="matrix(0.21545,0.050005,-0.050005,0.21545,2816.9,2938.6)"
           id="g189">
          <g
             stroke="#283f00"
             stroke-linecap="round"
             stroke-linejoin="round"
             stroke-miterlimit="10"
             id="g188">
            <path
               d="m -2242,-2580.9 c -3.973,-3.974 -10.215,-4.29 -14.554,-0.954 -4.338,-3.335 -10.579,-3.02 -14.554,0.954 -3.971,3.973 -4.287,10.214 -0.951,14.553 -3.336,4.338 -3.02,10.58 0.951,14.552 3.975,3.974 10.216,4.29 14.554,0.954 4.339,3.335 10.581,3.02 14.554,-0.954 3.973,-3.973 4.29,-10.214 0.954,-14.552 3.336,-4.339 3.019,-10.58 -0.954,-14.553 z"
               fill="#ffcc00"
               stroke-width="2.5855"
               id="path188" />
            <circle
               cx="-2256.5"
               cy="-2566.3999"
               r="7.1368999"
               fill="#ffe680"
               stroke-width="3.5445"
               id="circle188" />
          </g>
        </g>
        <g
           transform="matrix(0.21545,0.050005,-0.050005,0.21545,3012.6,2946.5)"
           id="g191">
          <g
             stroke="#283f00"
             stroke-linecap="round"
             stroke-linejoin="round"
             stroke-miterlimit="10"
             id="g190">
            <path
               d="m -2242,-2580.9 c -3.973,-3.974 -10.215,-4.29 -14.554,-0.954 -4.338,-3.335 -10.579,-3.02 -14.554,0.954 -3.971,3.973 -4.287,10.214 -0.951,14.553 -3.336,4.338 -3.02,10.58 0.951,14.552 3.975,3.974 10.216,4.29 14.554,0.954 4.339,3.335 10.581,3.02 14.554,-0.954 3.973,-3.973 4.29,-10.214 0.954,-14.552 3.336,-4.339 3.019,-10.58 -0.954,-14.553 z"
               fill="#ffcc00"
               stroke-width="2.5855"
               id="path189" />
            <circle
               cx="-2256.5"
               cy="-2566.3999"
               r="7.1368999"
               fill="#ffe680"
               stroke-width="3.5445"
               id="circle189" />
          </g>
        </g>
        <g
           transform="matrix(-3.1993,0,0,3.2181,4411.3,2046.1)"
           id="g202">
          <path
             d="m 558.46,15.698 c -4.4173,0.54768 -9.7067,3.4372 -10.138,-6.716 0,0 -12.994,4.0608 -12.566,-6.5598 l 0.42845,-10.621 2.9987,-6.4036 c -4.0091,-0.78715 -1.6406,-4.6748 -2.4275,-7.0284 -4.5754,-7.0048 1.5395,-11.159 8.5674,-12.022 1.2905,-4.9378 3.7935,-8.4985 14.851,-2.3428 l 7.4252,-9.8398 c 10.913,-2.4519 17.74,3.5934 20.276,12.803 11.843,-3.671 9.0449,4.1887 12.423,7.1847 6.0448,3.6964 1.4721,8.6832 1.428,13.12 6.7251,17.274 -0.0828,16.157 -6.9969,21.397 0.76193,6.3363 -2.7154,8.4992 -9.5669,7.3408 -7.9839,-2.7249 -13.607,-5.3628 -17.402,-2.9261 -4.0035,2.5707 -7.0297,4.1042 -9.3001,2.6137 z"
             fill="#43cc32"
             stroke="#43cc32"
             stroke-width="1.1827px"
             id="path191" />
          <g
             transform="matrix(-2.8111,0,0,3.3424,1603.8,-281.36)"
             fill="#916f6f"
             id="g192">
            <path
               d="m 366.26,88.642 c -0.68926,-1.0208 -1.3886,-2.117 -2.7007,-2.8709 -0.76316,-0.43377 -1.3843,-0.0191 -2.6292,0.02894 -0.31184,-0.10072 -0.66929,-0.18775 -0.11625,-0.54793 l 1.7426,-0.07748 c -0.61734,-0.58621 -0.38726,-0.42005 -0.79888,-1.0929 -0.25824,-0.42216 -0.39918,-0.88466 -0.32644,-1.4167 0.12197,-0.63955 0.26331,-0.77547 0.4298,-0.25731 0.68962,1.478 0.4694,1.6867 1.305,2.2242 1.6442,1.0577 2.2117,1.8463 3.2648,2.4799 0.15356,-1.1454 0.73824,-2.7579 -0.0945,-2.8348 -1.3569,-1.6465 -2.7418,-3.3425 -4.8203,-5.0907 -0.95217,-0.84718 -1.5692,-1.5396 -0.33378,-1.5993 0.0208,0.70932 2.3802,3.1181 3.3031,3.4579 0.38196,-0.90387 -0.25182,-2.5568 -0.51771,-3.79 -0.19251,-0.07764 -0.349,-1.5034 0.70652,0.17044 0.23274,0.36909 0.39443,1.3511 0.62352,4.2765 0.39457,1.0419 1.9471,2.3361 2.7508,1.2512 2.7572,-0.82621 3.5563,-3.1555 5.791,-5.0935 0.99838,-0.86586 1.0234,-0.07788 0.88689,0.09641 -0.22915,0.02864 -3.5076,2.9829 -2.2068,2.7317 0.82192,-0.25381 1.9576,-0.18612 2.5213,-0.0859 0.62308,0.12263 0.24092,0.51202 -0.23087,0.52236 -3.3002,0.0723 -3.2349,0.40555 -4.2146,1.44 -0.29414,0.47433 -2.0983,0.9568 -1.9826,2.5437 1.7227,-0.23793 6.8486,-2.2968 5.8628,-0.6523 -1.5723,-0.07752 -2.7334,0.63649 -3.4943,0.80241 0.46446,0.58694 1.0572,0.78909 1.6523,0.98404 0.20863,0.57954 -0.11158,0.45395 -0.4239,0.33888 -2.3941,-1.0817 -3.6075,-0.68714 -3.9845,0.7733 -0.17538,1.9568 -0.43803,3.1801 0.0853,5.1515 -0.74522,0.03847 -1.8256,0.0103 -2.6262,0.01329 0.294,-1.2665 0.51107,-2.0219 0.57586,-3.8769 z"
               fill="url(#linearGradient15121)"
               id="path192"
               style="fill:url(#linearGradient15121)" />
          </g>
          <g
             transform="matrix(1.2939,0,0,1.5385,22.342,-63.895)"
             fill="#fa4545"
             id="g201">
            <ellipse
               cx="409.17999"
               cy="43.112"
               rx="0.67365003"
               ry="0.72547001"
               id="ellipse192" />
            <ellipse
               cx="412.64999"
               cy="36.220001"
               rx="0.67365003"
               ry="0.72547001"
               id="ellipse193" />
            <ellipse
               cx="406.59"
               cy="30.157"
               rx="0.67365003"
               ry="0.72547001"
               id="ellipse194" />
            <ellipse
               cx="402.44"
               cy="37.203999"
               rx="0.67365003"
               ry="0.72547001"
               id="ellipse195" />
            <ellipse
               cx="402.44"
               cy="37.203999"
               rx="0.67365003"
               ry="0.72547001"
               id="ellipse196" />
            <ellipse
               cx="437.22"
               cy="32.299"
               rx="0.76525003"
               ry="0.72547001"
               id="ellipse197" />
            <ellipse
               cx="437.98999"
               cy="46.731998"
               rx="0.76525003"
               ry="0.72547001"
               id="ellipse198" />
            <ellipse
               cx="444.25"
               cy="37.612"
               rx="0.76525003"
               ry="0.72547001"
               id="ellipse199" />
            <ellipse
               cx="426.39001"
               cy="32.116001"
               rx="0.76525003"
               ry="0.72547001"
               id="ellipse200" />
            <ellipse
               cx="419.19"
               cy="26.07"
               rx="0.76525003"
               ry="0.72547001"
               id="ellipse201" />
          </g>
        </g>
        <g
           transform="matrix(0.17047,0.039564,-0.039564,0.17047,2966.3,2811.9)"
           id="g204">
          <g
             stroke="#283f00"
             stroke-linecap="round"
             stroke-linejoin="round"
             stroke-miterlimit="10"
             id="g203">
            <path
               d="m -2242,-2580.9 c -3.973,-3.974 -10.215,-4.29 -14.554,-0.954 -4.338,-3.335 -10.579,-3.02 -14.554,0.954 -3.971,3.973 -4.287,10.214 -0.951,14.553 -3.336,4.338 -3.02,10.58 0.951,14.552 3.975,3.974 10.216,4.29 14.554,0.954 4.339,3.335 10.581,3.02 14.554,-0.954 3.973,-3.973 4.29,-10.214 0.954,-14.552 3.336,-4.339 3.019,-10.58 -0.954,-14.553 z"
               fill="#ffcc00"
               stroke-width="2.5855"
               id="path202" />
            <circle
               cx="-2256.5"
               cy="-2566.3999"
               r="7.1368999"
               fill="#ffe680"
               stroke-width="3.5445"
               id="circle202" />
          </g>
        </g>
      </g>
      <path
         d="m 27.652,115.95 c -2.3526,-7.7296 -2.5036,-3.7599 -2.0517,-0.65438 -2.3724,-5.5795 0.93667,5.6872 -2.3768,-1.1786 2.2548,7.6831 -3.8993,-6.8685 -1.0674,1.7401 -3.2065,-5.8212 -3.5678,-6.634 -1.1847,0.1306 -1.3727,-1.8307 -3.2812,-5.2382 -1.2645,1.5877 -1.9959,-1.4074 -1.4598,-3.1136 -1.5514,0.12933 -2.7521,-1.538 1.5684,3.8365 -2.6095,-0.77986 0.2178,2.3917 -1.2139,0.30231 0.73943,5.3073 -2.5203,-3.8927 -3.5041,-8.3722 -2.2113,-1.2625 -4.1771,-7.1789 0.22333,4.5843 -3.7081,-3.1999 -0.18628,1.0159 0.39681,4.8408 0.60237,7"
         stroke-opacity="0"
         stroke-width="3.1393"
         id="path28" />
      <path
         d="m 69.029,116.3 c 2.3942,-8.5628 2.6562,-4.2106 2.2356,-0.78675 2.468,-6.2036 -0.88986,6.2737 2.5796,-1.3731 -2.288,8.5086 4.1123,-7.6691 1.2136,1.8744 3.3777,-6.4966 3.7545,-7.4009 1.3033,0.10406 1.4619,-2.0552 3.4739,-5.8593 1.4262,1.7006 2.1561,-1.6114 1.5264,-3.4662 1.7056,0.0904 2.9829,-1.7798 -1.628,4.2636 2.8448,-0.94298 -0.18097,2.6324 1.3395,0.29125 -0.68263,5.85 2.6714,-4.357 3.6424,-9.3065 2.396,-1.4594 4.4096,-8.019 -0.1338,5.0395 3.9917,-3.6359 0.22899,1.109 -0.31797,5.3267 -0.49113,7.7034"
         stroke-opacity="0"
         stroke-width="3.4466"
         id="path29" />
    </g>
  </g>
</svg>
