<?xml version="1.0" encoding="UTF-8" standalone="no"?>
<!-- Created with Inkscape (http://www.inkscape.org/) -->

<svg
   width="173.66287mm"
   height="65.436974mm"
   version="1.1"
   viewBox="0 0 173.66287 65.436977"
   id="svg131"
   sodipodi:docname="credentials-banner-day.svg"
   inkscape:version="1.4.2 (2aeb623e1d, 2025-05-12)"
   xmlns:inkscape="http://www.inkscape.org/namespaces/inkscape"
   xmlns:sodipodi="http://sodipodi.sourceforge.net/DTD/sodipodi-0.dtd"
   xmlns="http://www.w3.org/2000/svg"
   xmlns:svg="http://www.w3.org/2000/svg">
  <sodipodi:namedview
     id="namedview131"
     pagecolor="#ffffff"
     bordercolor="#000000"
     borderopacity="0.25"
     inkscape:showpageshadow="2"
     inkscape:pageopacity="0.0"
     inkscape:pagecheckerboard="0"
     inkscape:deskcolor="#d1d1d1"
     inkscape:document-units="mm"
     inkscape:zoom="1.6667591"
     inkscape:cx="325.48195"
     inkscape:cy="123.89313"
     inkscape:window-width="2256"
     inkscape:window-height="1425"
     inkscape:window-x="0"
     inkscape:window-y="40"
     inkscape:window-maximized="1"
     inkscape:current-layer="svg131" />
  <defs
     id="defs8">
    <linearGradient
       id="linearGradient50606"
       x1="421.45999"
       x2="458.98999"
       y1="81.216003"
       y2="80.958"
       gradientTransform="matrix(0.36219,-0.0075634,0.0085593,0.45242,-122.38,55.957)"
       gradientUnits="userSpaceOnUse">
      <stop
         stop-color="#d1a448"
         offset="0"
         id="stop1" />
      <stop
         stop-color="#9b7527"
         stop-opacity=".9918"
         offset="1"
         id="stop2" />
    </linearGradient>
    <linearGradient
       id="linearGradient33560"
       x1="439.64001"
       x2="412.56"
       y1="53.484001"
       y2="53.870998"
       gradientTransform="matrix(0.36219,-0.0075634,0.0085593,0.45242,-123.44,56.069)"
       gradientUnits="userSpaceOnUse">
      <stop
         stop-color="#96312a"
         offset="0"
         id="stop3" />
      <stop
         stop-color="#65211c"
         stop-opacity=".9959"
         offset="1"
         id="stop4" />
    </linearGradient>
    <linearGradient
       id="linearGradient33562"
       x1="419.64999"
       x2="452.28"
       y1="64.963997"
       y2="65.350998"
       gradientTransform="matrix(0.36219,-0.0071478,0.0085593,0.42756,-122.85,57.356)"
       gradientUnits="userSpaceOnUse">
      <stop
         stop-color="#c33f37"
         offset="0"
         id="stop5" />
      <stop
         stop-color="#b33a33"
         stop-opacity=".98039"
         offset="1"
         id="stop6" />
    </linearGradient>
    <linearGradient
       id="linearGradient15121"
       x1="367.10999"
       x2="367.22"
       y1="87.487"
       y2="90.810997"
       gradientUnits="userSpaceOnUse">
      <stop
         stop-color="#916f6f"
         offset="0"
         id="stop7" />
      <stop
         stop-color="#685050"
         stop-opacity=".9918"
         offset="1"
         id="stop8" />
    </linearGradient>
    <clipPath
       id="clipPath14">
      <ellipse
         transform="matrix(0.9996,0.028384,-0.013912,0.9999,0,0)"
         cx="106.13"
         cy="91.443001"
         rx="117.86"
         ry="38.66"
         fill="#00ffff"
         stroke-width="0.32164"
         id="ellipse8" />
    </clipPath>
  </defs>
  <g
     transform="matrix(0.96302817,0,0,1,-12.7842,-42.158998)"
     style="mix-blend-mode:normal"
     id="g19">
    <ellipse
       cx="103.44"
       cy="70.320999"
       rx="90.165001"
       ry="28.162001"
       fill="#0ff"
       stroke-width="0.2401"
       id="ellipse9"
       style="fill:#00ffff;fill-opacity:1" />
    <g
       transform="matrix(0.92895,-0.020679,0.012925,0.72824,6.7956,3.7091)"
       clip-path="url(#clipPath14)"
       fill="#32c63d"
       opacity="0.86056"
       id="g14">
      <path
         d="m 80.205,119.5 c 0.78266,-2.441 0.81359,-1.1754 0.65624,-0.19034 0.77965,-1.7561 -0.32288,1.803 0.76204,-0.35445 -0.75132,2.4271 1.2715,-2.1531 0.33244,0.5636 1.0464,-1.8257 1.165,-2.0814 0.37675,0.0521 0.44508,-0.57094 1.0677,-1.6394 0.39586,0.51681 0.64173,-0.43065 0.47837,-0.97874 0.49353,0.0549 0.88314,-0.46552 -0.51607,1.2081 0.83446,-0.22535 -0.0797,0.75977 0.3853,0.10695 -0.25842,1.6837 0.81951,-1.2176 1.1522,-2.6355 0.7097,-0.38257 1.3613,-2.2495 -0.09093,1.4581 1.1948,-0.9864 0.05491,0.32522 -0.14729,1.5382 -0.22208,2.224"
         fill="#32c63d"
         stroke-opacity="0"
         id="path9" />
      <path
         d="m 15.274,121.06 c -0.05467,-5.4217 -0.58405,-11.475 6.9305,-6.8322 2.1259,-2.8852 0.42816,-6.2696 7.0794,-8.564 l 0.56058,1.7068 c 6.613,-1.8719 5.6384,-0.5814 6.6693,1.4147 1.5957,-3.9695 5.014,-4.3044 8.2441,-5.0149 8.2767,-0.86306 7.3899,4.0338 9.8397,6.8333 2.3327,-2.4244 3.9663,-6.9934 9.5577,-2.9283 1.9929,-3.972 4.0214,-7.7994 8.785,-0.51663 3.1456,-5.3403 5.7476,-6.0531 7.8647,-2.6387 l 6.274,21.746 z"
         fill="#26972e"
         stroke-width="0.32162"
         id="path10" />
      <path
         d="m 9.0677,127.45 c -2.6365,-6.3204 27.569,-15.03 37.542,-15.489 16.721,-0.76192 39.3,6.6615 44.083,15.534 0.2996,0.55578 0.16868,0.31312 0.38521,0.78324 0.28639,0.6218 0.38004,1.2773 -0.0052,1.5815 -14.96,12.445 -66.933,11.824 -82.006,-2.4102 z"
         fill="#32c63d"
         id="path11" />
      <path
         d="m 28.658,116.04 c -0.50948,-2.5589 -0.67781,-1.3119 -0.62917,-0.30821 -0.58102,-1.8804 0.12358,1.8434 -0.71609,-0.48995 0.47994,2.5394 -1.0249,-2.3632 -0.39054,0.49711 -0.83757,-1.9981 -0.92721,-2.2728 -0.37876,-0.0173 -0.37864,-0.64637 -0.87894,-1.8175 -0.44824,0.43922 -0.58864,-0.54341 -0.36724,-1.0561 -0.49471,-0.0358 -0.8239,-0.62205 0.37962,1.2899 -0.80184,-0.37544 -0.0037,0.76654 -0.39321,0.0355 0.07271,1.7136 -0.67907,-1.3547 -0.85424,-2.8188 -0.66119,-0.50827 -1.1034,-2.475 -0.0686,1.4597 -1.0759,-1.1944 -0.08979,0.31182 -0.02151,1.5493 -0.02206,2.2417"
         fill="#32c63d"
         stroke-opacity="0"
         id="path12" />
      <path
         d="m 185.13,131.15 c 0.63699,-5.3569 -0.34021,-14.314 -8.2782,-11.119 -1.7943,-3.2523 2.4021,-3.2224 -3.9356,-6.7332 l -2.7632,1.5277 c -6.3452,-3.0854 -3.4943,-1.5688 -4.7294,0.21509 -1.1529,-4.2269 -4.3756,-2.5316 -7.4967,-3.8368 -4.6285,-5.1958 -7.8744,-0.0478 -10.6,2.267 -2.0485,-2.8347 0.12337,-8.5676 -5.8487,-5.5854 -1.0198,-2.8389 -3.5257,-3.1504 -6.6721,-2.6303 -1.6232,0.26829 -3.3956,-0.7641 -5.2668,1.3873 -2.5399,-5.8727 -5.039,-7.0633 -7.5019,-4.0778 l -8.5486,20.358 z"
         fill="#26972e"
         stroke-width="0.32162"
         id="path13" />
      <path
         d="m 185.95,134.06 c 2.8102,-6.1657 -27.129,-16.584 -37.082,-17.608 -16.687,-1.7106 -39.454,4.4252 -44.481,13.02 -0.31483,0.53833 -0.17725,0.3033 -0.40669,0.76075 -0.30346,0.60506 -0.41527,1.2547 -0.039,1.5805 14.602,13.284 66.552,15.615 82.008,2.247 z"
         fill="#32c63d"
         id="path14" />
    </g>
    <g
       transform="matrix(0.090962,0,0,0.090962,-30.683,344.62)"
       fill="#ffffff"
       id="g18">
      <path
         d="m 870.53,-3108 c -1.7571,5e-4 -3.4298,0.3656 -4.977,0.9983 -2.3148,-10.109 -10.856,-17.617 -21.046,-17.617 -10.193,-1e-4 -18.735,7.5079 -21.047,17.616 -1.5463,-0.6331 -3.223,-0.9977 -4.9783,-0.9977 -7.6652,0 -13.878,6.6331 -13.878,14.81 0,8.1793 6.2132,14.81 13.878,14.809 2.4052,1e-4 14.43,1e-4 26.026,1e-4 11.594,1e-4 23.617,1e-4 26.023,-1e-4 7.6645,1e-4 13.878,-6.6301 13.878,-14.81 -7e-5,-8.1764 -6.2136,-14.81 -13.878,-14.81 z"
         stroke-width="0.24007"
         id="path15" />
      <path
         d="m 1842.9,-3026.3 c -2.0895,0 -4.0787,0.4069 -5.918,1.1126 -2.7525,-11.267 -12.908,-19.636 -25.026,-19.636 -12.121,2e-4 -22.278,8.3687 -25.027,19.636 -1.8383,-0.7054 -3.8327,-1.1124 -5.9196,-1.1124 -9.1149,-1e-4 -16.503,7.3938 -16.503,16.508 -10e-5,9.1165 7.3878,16.507 16.503,16.507 2.8597,3e-4 17.158,0 30.947,10e-5 13.786,-10e-5 28.083,-10e-5 30.944,-10e-5 9.1137,0 16.502,-7.3899 16.502,-16.507 0,-9.1136 -7.3887,-16.507 -16.502,-16.508 z"
         stroke-width="0.27638"
         id="path16" />
      <path
         d="m 2114.7,-3137.2 c -1.6645,-6e-4 -3.2489,0.3244 -4.7145,0.8864 -2.1924,-8.9753 -10.282,-15.642 -19.934,-15.642 -9.6553,10e-5 -17.746,6.6665 -19.936,15.642 -1.4644,-0.5619 -3.053,-0.886 -4.7154,-0.8862 -7.2605,2e-4 -13.146,5.89 -13.146,13.15 -2e-4,7.2624 5.8852,13.149 13.146,13.149 2.2777,0 13.668,-4e-4 24.652,0 h 24.649 c 7.2597,0 13.146,-5.8869 13.146,-13.149 0,-7.2596 -5.8859,-13.149 -13.145,-13.15 z"
         stroke-width="0.22016"
         id="path17" />
      <path
         d="m 1067.3,-3165.7 c -1.412,-5e-4 -2.7561,0.2752 -3.9993,0.752 -1.8599,-7.6138 -8.7226,-13.269 -16.91,-13.269 -8.1906,1e-4 -15.054,5.6552 -16.912,13.269 -1.2422,-0.4767 -2.5899,-0.7516 -4.0001,-0.7518 -6.159,2e-4 -11.152,4.9965 -11.152,11.155 -2e-4,6.1607 4.9924,11.154 11.152,11.154 1.9322,0 11.595,-3e-4 20.912,0 h 20.91 c 6.1584,0 11.151,-4.9939 11.151,-11.154 0,-6.1584 -4.993,-11.155 -11.151,-11.155 z"
         stroke-width="0.18676"
         id="path18" />
    </g>
  </g>
  <g
     transform="translate(42.616468,-16.874998)"
     id="g40">
    <path
       d="m 13.781,67.223 c -1.5045,1.5662 -3.2398,3.801 -2.1216,-0.89097 0.17309,-0.72635 -0.9171,-1.2467 -1.0589,-2.344 0.40788,-0.92 0.06293,-2.1518 2.3789,-2.2816 0.3585,-0.57961 2.0157,0.49174 1.9522,1.5096 -0.01694,0.27185 0.31012,-0.29028 -0.14164,-1.2985 -0.47321,-1.0561 -0.06342,-1.9755 2.0119,-2.637 5.5326,-0.362 2.3093,0.87738 3.4901,-1.6961 -1.1328,-0.72167 -1.021,-1.4718 -0.25811,-2.2368 1.2629,-1.0504 1.8434,-0.72734 2.3784,-0.31263 1.7702,0.4306 -0.15971,1.6879 0.32087,1.7831 4.1466,0.82154 1.707,2.2241 2.9515,0.74253 l 2.2757,5.3588"
       fill="#008000"
       id="path19" />
    <path
       d="m 61.558,56.916 c 0.65557,-0.09885 1.2509,1.3802 1.9673,-0.31281 -0.19082,-1.1811 1.0209,-1.3774 2.4324,-1.4335 2.9615,0.89405 2.1445,1.7539 1.2433,2.613 0.12252,0.41875 -0.3725,1.3325 0.50001,1.1501 1.3796,-1.7871 1.3786,-0.03481 1.9814,0.1694 1.7249,1.4707 0.25722,1.4374 0.29889,2.1152 -1.1826,2.2136 1.6429,0.87307 2.5707,1.2152 2.714,0.73916 1.1599,1.8285 1.0952,2.7956 l -0.9997,2.8043 -12.047,-3.563"
       fill="#008000"
       id="path20" />
    <g
       transform="matrix(3.1915,-0.44338,0.39792,2.923,-717.68,-305.61)"
       fill="#d4aa00"
       stroke="#000000"
       stroke-width="0.035278"
       id="g27">
      <g
         transform="matrix(0.83053,0,0,0.83053,35.401,27.148)"
         fill="#d4aa00"
         stroke="none"
         id="g26">
        <path
           d="m 211.08,158.21 c -0.21225,-2.1516 -0.16841,-3.9297 0.002,-6.2666 l 0.50937,0.13464 c -0.15963,2.5373 0.0433,4.5528 0.40487,6.0783"
           fill="#c87137"
           id="path21" />
        <g
           transform="matrix(-0.84478,-0.26123,-0.21471,0.84478,422.89,79.744)"
           id="g25">
          <path
             d="m 211.99,150.27 -1.1567,0.11273 -0.11539,-0.46053 c 0,0 -0.46031,-0.68929 -0.39419,0.0327 0.0227,1.1534 0.0596,0.7977 0.44262,0.87987 0.97155,0.20755 0.87908,0.39722 0.87908,0.39722"
             fill="#b3b3b3"
             id="path22" />
          <ellipse
             transform="matrix(0.99911,0.042121,-0.032812,0.99946,0,0)"
             cx="216.98"
             cy="141.71001"
             rx="0.53320998"
             ry="0.57339001"
             fill="#999999"
             stroke-width="0.056203"
             id="ellipse22" />
          <g
             transform="matrix(-0.43756,-0.98348,0.82432,-0.43263,180.68,424.6)"
             id="g24">
            <g
               transform="matrix(-0.3527,-1.0231,-0.8558,0.3527,415.81,314.7)"
               fill="#f9f9f9"
               id="g23">
              <path
                 transform="matrix(0.097965,0.01486,-0.013336,0.10697,208.55,129.55)"
                 d="m 44.165,168.43 c 13.548,-0.32833 9.6482,12.892 22.578,16.952 9.9943,3.1388 26.623,-12.271 21.607,-3.0744 -6.4897,11.897 -15.989,1.9098 -25.97,11.077 -7.7154,7.086 -2.6847,29.192 -8.1408,20.249 -7.0584,-11.569 6.3404,-14.801 3.3922,-28.029 -2.2789,-10.225 -23.938,-16.921 -13.466,-17.175 z"
                 fill="#ffffff"
                 id="path23" />
            </g>
            <ellipse
               transform="matrix(0.99911,0.042121,-0.032812,0.99946,0,0)"
               cx="216.98"
               cy="141.71001"
               rx="0.30408999"
               ry="0.32699999"
               fill="#cccccc"
               stroke-width="0.032052"
               id="ellipse23" />
            <ellipse
               transform="matrix(-0.98869,-0.14997,-0.12372,0.99232,0,0)"
               cx="-229.23"
               cy="117.28"
               rx="2.9870999"
               ry="3.2495999"
               fill="none"
               id="ellipse24" />
          </g>
        </g>
      </g>
    </g>
    <g
       transform="matrix(0.26458,0,0,0.26458,-731.87,-510.27)"
       id="g30">
      <g
         transform="translate(-352.25,60.347)"
         id="g29">
        <g
           transform="matrix(0.45476,0,0,0.45476,1907.3,1127.6)"
           stroke="#283f00"
           stroke-linecap="round"
           stroke-linejoin="round"
           stroke-miterlimit="10"
           id="g28">
          <path
             d="m 3221.8,2045.5 c -0.9497,27.558 -6.2188,82.753 -32.69,109.84 0,0 3.528,1.5642 15.013,1.5642 7.9184,0 14.338,-0.8178 14.338,-1.8267 0,-0.2149 15.526,-54.023 13.6,-110.85 l -10.261,1.2727 z"
             fill="#c1a778"
             stroke-width="0.61761"
             id="path27" />
          <path
             d="m 3235.9,2049.4 4.6006,3.4422 -0.2956,5.3781 3.5241,-0.9006 1.3881,7.7103 15.934,11.378 c 4.1419,-18.149 -2.2928,-33.317 -11.741,-42.512 l 10.342,-9.0257 5.2054,1.4055 -0.1572,-3.6304 7.8379,0.257 14.458,-13.208 c -23.962,-11.125 -46.516,-0.2072 -54.737,13.508 -4.7948,-12.78 -21.796,-25.452 -43.593,-20.158 l 9.9385,13.511 6.6193,1.1004 -0.7322,3.0217 4.5988,-0.3077 2.9039,3.762 c -13.957,-2.6944 -31.429,1.0842 -44.768,16.224 l 19.778,6.6906 7.5307,-3.6026 1.4192,3.6026 4.4672,-3.6026 8.5111,2.6696 c -3.2155,5.733 -4.9304,12.928 -3.8351,21.205 l 12.398,-7.2303 1.5335,-5.5352 2.5042,0.8965 0.1589,-3.9465 4.6195,-2.8276 9.7864,14.358 c 0,0 1.6669,-6.5542 -0.1969,-13.633 z"
             fill="#75c108"
             stroke-width="0.44507"
             id="path28" />
        </g>
      </g>
    </g>
    <g
       transform="matrix(0.10901,0,0,0.10901,-252.95,-161.51)"
       id="g39">
      <g
         transform="translate(-352.25,60.347)"
         id="g38">
        <g
           transform="matrix(0.13024,0,0,0.13024,2156.3,1790.8)"
           id="g37">
          <path
             d="m 4964.9,2184.7 c 0,12.865 -10.43,23.293 -23.294,23.293 h -166.32 c -12.864,0 -23.293,-10.429 -23.293,-23.293 0,-12.865 10.429,-23.293 23.293,-23.293 h 166.32 c 12.864,0 23.294,10.428 23.294,23.293 z"
             fill="#38200e"
             opacity="0.2"
             id="path30" />
          <g
             stroke="#283f00"
             stroke-linecap="round"
             stroke-linejoin="round"
             stroke-miterlimit="10"
             stroke-width="4.298"
             id="g36">
            <path
               d="m 4863.5,2174.7 v -31.525 c 0,-1.928 1.562,-3.493 3.501,-3.493 1.928,0 3.486,1.565 3.486,3.493 v 30.983 c 41.307,0.472 40.213,9.235 40.213,9.235 h -53.613 c -0.541,-5.616 3.346,-7.826 6.413,-8.693 z"
               fill="#ffde55"
               id="path31" />
            <path
               d="m 4847.2,2180.7 v -31.53 c 0,-1.928 1.559,-3.494 3.486,-3.494 1.939,0 3.5,1.566 3.5,3.494 v 30.983 c 41.308,0.472 40.213,9.235 40.213,9.235 h -53.624 c -0.532,-5.617 3.358,-7.821 6.425,-8.688 z"
               fill="#ffde55"
               id="path32" />
            <path
               d="m 4792.5,2130.8 c -0.064,-0.455 74.498,-73.248 99.785,-73.248 25.273,0 45.777,20.501 45.777,45.786 0,25.285 -20.504,45.786 -45.777,45.786 -21.063,0 -76.32,3.857 -94.206,-9.457 -27.938,50.054 -53.277,17.479 -53.277,17.479 z"
               fill="#ffffff"
               id="path33" />
            <path
               d="m 4928.7,2087.2 c 18.546,-6.072 30.256,-25.019 26.747,-44.773 -3.868,-21.628 -24.526,-36.031 -46.151,-32.179 -21.633,3.856 -36.028,24.509 -32.184,46.144 0.66,3.656 1.799,7.111 3.324,10.297"
               fill="#ffffff"
               id="path34" />
            <path
               d="m 4942,2077.8 c -21.202,2.194 -21.624,-18.449 -3.651,-20.469 0,0 8.05,-8.764 17.149,-14.869 11.481,13.818 32.543,14.939 34.655,36.768 z"
               fill="#ffde55"
               id="path35" />
            <path
               d="m 4919.7,2099.5 c 0,0 6.986,36.644 -23.314,39.557 0,0 -82.766,4.653 -81.596,-11.077 l 31.234,-13.405"
               fill="#ffffff"
               id="path36" />
          </g>
          <path
             d="m 4907.5,2044.8 c 1.094,3.954 5.188,6.278 9.145,5.173 3.961,-1.089 6.271,-5.195 5.176,-9.148 -1.094,-3.949 -5.188,-6.268 -9.152,-5.173 -3.954,1.104 -6.263,5.193 -5.169,9.148 z"
             fill="#283f00"
             id="path37" />
        </g>
      </g>
    </g>
  </g>
  <g
     transform="translate(-17.243532,-42.158998)"
     id="g44">
    <g
       transform="matrix(0.92895,-0.020679,0.012925,0.72824,55.479,5.1355)"
       fill="#2db337"
       id="g42">
      <path
         d="m 9.0677,127.45 c -2.6365,-6.3204 27.682,-17.354 34.41,-18.729 10.078,-0.65272 42.433,9.9018 47.216,18.775 0.2996,0.55578 0.16868,0.31312 0.38521,0.78324 0.28639,0.6218 0.38004,1.2773 -0.0052,1.5815 -14.96,12.445 -66.933,11.824 -82.006,-2.4102 z"
         id="path40" />
      <path
         d="m 22.343,116.72 c -0.74942,-2.4622 -0.7975,-1.1977 -0.65354,-0.20845 -0.7557,-1.7773 0.29837,1.8116 -0.7571,-0.37545 0.71825,2.4474 -1.2421,-2.1879 -0.34002,0.5543 -1.0214,-1.8543 -1.1365,-2.1132 -0.37738,0.0416 -0.43726,-0.58316 -1.0452,-1.6686 -0.40279,0.50576 -0.63577,-0.44832 -0.46501,-0.9918 -0.49418,0.0412 -0.87665,-0.48991 0.49959,1.2221 -0.83125,-0.24842 0.06938,0.76185 -0.38668,0.0963 0.23554,1.6906 -0.80283,-1.24 -1.1162,-2.6669 -0.70438,-0.40216 -1.3306,-2.2868 0.07114,1.4603 -1.1812,-1.0193 -0.05934,0.32361 0.1264,1.542 0.19188,2.2298"
         stroke-opacity="0"
         id="path41" />
      <path
         d="m 80.205,119.5 c 0.78266,-2.441 0.81359,-1.1754 0.65624,-0.19034 0.77965,-1.7561 -0.32288,1.803 0.76204,-0.35445 -0.75132,2.4271 1.2715,-2.1531 0.33244,0.5636 1.0464,-1.8257 1.165,-2.0814 0.37675,0.0521 0.44508,-0.57094 1.0677,-1.6394 0.39586,0.51681 0.64173,-0.43065 0.47837,-0.97874 0.49353,0.0549 0.88314,-0.46552 -0.51607,1.2081 0.83446,-0.22535 -0.0797,0.75977 0.3853,0.10695 -0.25842,1.6837 0.81951,-1.2176 1.1522,-2.6355 0.7097,-0.38257 1.3613,-2.2495 -0.09093,1.4581 1.1948,-0.9864 0.05491,0.32522 -0.14729,1.5382 -0.22208,2.224"
         stroke-opacity="0"
         id="path42" />
    </g>
    <path
       d="m 99.3,92.147 c -2.629,2.7077 -1.9672,4.6154 -0.38569,6.6888 2.1165,2.7747 -3.4397,5.0997 -4.8731,6.3073 -0.27617,0.23321 -1.9075,1.7766 -1.6922,1.811 4.8504,0.77525 14.574,0.91548 20.074,0.0469 0.16693,-0.0264 1.6797,0.59349 1.6444,0.28402 0,0 -1.0199,-7.3671 -4.3747,-9.0963 -3.5389,-1.8241 -4.9331,-3.1987 -4.917,-6.2713"
       fill="#b0c767"
       id="path43" />
    <path
       d="m 84.848,87.419 c -15.152,5.8809 1.9169,10.048 19.104,9.2567 16.679,-0.76843 32.631,-4.8225 19.367,-8.4686 l -22.113,-1.6149 z"
       opacity="0.2"
       id="path44" />
  </g>
  <g
     transform="matrix(0.10901,0,0,0.10901,-196.23453,-199.63)"
     id="g131">
    <g
       transform="matrix(9.7025,0,0,9.7025,2280.2,1361.8)"
       id="g107">
      <g
         id="g49">
        <path
           d="m 13.371,93.457 c -1.524,-3.4624 -1.3981,-6.2868 -0.81767,-9.5353 0.12664,-1.7274 2.9456,-4.307 2.9456,-4.307 l 5.6019,-1.4437 8.5354,-0.77527 12.74,-0.26604 6.7757,1.6496 1.649,2.9507 c 0.21782,1.085 0.6517,2.2002 0.76971,3.2317 0.32795,2.867 0.38797,5.8858 -0.39467,8.1703 -2.7312,2.2785 -13.245,3.2692 -16.842,3.2946 l -7.2782,0.27329 c -4.7611,-0.07077 -9.3197,-1.0078 -13.685,-3.2428 z"
           fill="url(#linearGradient50606)"
           id="path45"
           style="fill:url(#linearGradient50606)" />
        <path
           d="m 33.885,96.361 c -2.1631,0.74165 -4.1984,0.61127 -7.0846,0.31366 l 1.9031,-3.4922 0.80002,-0.7969 1.9782,0.0144 0.80329,0.76778 z"
           fill="#7a6d5e"
           stroke-width="0.31674"
           id="path46" />
        <ellipse
           cx="30.683001"
           cy="90.960999"
           rx="3.4353001"
           ry="3.4558001"
           fill="#7a6d5e"
           stroke-width="0.28309"
           id="ellipse46" />
        <path
           d="m 11.871,90.793 c 1.8544,-0.83026 2.4126,-0.74364 2.4607,0.49454 0.04659,1.225 0.73459,0.53924 0.04659,1.225 -0.79611,0.69249 -0.38767,0.32707 -0.7812,1.4377 -0.55425,-0.10051 -0.99472,-0.30527 -1.2967,-0.63689 C 12.10381,92.3989 11.6291,93.19566 11.871,90.79305 Z"
           fill="#43cc32"
           id="path47" />
        <path
           d="m 49.95,91.679 c 2.3175,-2.4968 2.5339,-1.6274 2.5811,-0.3891 0.0466,1.225 0.33907,0.86951 0.11154,1.4677 -0.36897,0.55315 -0.7498,0.79732 -2.0245,1.1701 -0.42748,-0.7244 -1.3213,0.59513 -0.66813,-2.2487 z"
           fill="#43cc32"
           id="path48" />
        <path
           d="M 21.017,79.366 C 32.23,76.9428 31.111,76.7671 32.23,76.9428 l 1.1185,0.17566 c 0,0 6.1365,-1.2559 9.4592,0.33315 l 3.3226,1.589 -6.3263,2.4539 -11.626,0.24278 z"
           fill="#906821"
           stroke="#000000"
           stroke-width="0.083078px"
           id="path49" />
      </g>
      <g
         fill="#74541a"
         id="g52">
        <path
           d="m 36.185,78.041 0.11682,2.6808 0.59384,-0.05367 -0.16155,-3.299 -0.58994,0.26 z"
           id="path50" />
        <path
           d="m 29.906,78.172 0.11682,2.6808 0.59382,-0.05366 -0.16154,-3.299 -0.58995,0.26001 z"
           id="path51" />
        <path
           d="m 26.075,78.293 0.11683,2.6808 0.59381,-0.05366 -0.16155,-3.299 -0.58994,0.26 z"
           id="path52" />
      </g>
      <g
         id="g59">
        <path
           d="m 39.324,77.975 0.11682,2.6808 0.59384,-0.05367 -0.16157,-3.299 -0.58992,0.26 z"
           fill="#6f5019"
           id="path53" />
        <path
           d="m 21.712,79.309 c 10.145,-2.9778 15.871,-1.1007 22.097,0.26826 l 2.8314,-1.9165 -3.43,-1.6531 c -3.9462,-0.3755 -5.6547,-1.2747 -11.838,-1.1265 -4.7249,0.48679 -5.5175,0.69683 -6.2664,0.90379 l -7.0336,2.0081 z"
           fill="url(#linearGradient33560)"
           id="path54"
           style="fill:url(#linearGradient33560)" />
        <ellipse
           transform="matrix(0.99978,-0.020878,0.018915,0.99982,0,0)"
           cx="18.944"
           cy="89.616997"
           rx="2.7227001"
           ry="3.1271999"
           fill="#836652"
           id="ellipse54" />
        <ellipse
           transform="matrix(0.99978,-0.020878,0.018915,0.99982,0,0)"
           cx="19.224001"
           cy="89.616997"
           rx="2.1782999"
           ry="2.6529"
           fill="#8fffff"
           id="ellipse55" />
        <ellipse
           transform="matrix(0.99983,-0.018221,0.021673,0.99977,0,0)"
           cx="38.908001"
           cy="89.736"
           rx="2.8633001"
           ry="2.9012001"
           fill="#755b49"
           id="ellipse56" />
        <ellipse
           transform="matrix(0.99983,-0.018426,0.021432,0.99977,0,0)"
           cx="38.694"
           cy="89.741997"
           rx="2.3654001"
           ry="2.6198001"
           fill="#8fffff"
           id="ellipse57" />
        <ellipse
           transform="matrix(0.99978,-0.020878,0.018915,0.99982,0,0)"
           cx="47.806999"
           cy="88.075996"
           rx="1.3746001"
           ry="2.1772001"
           fill="#836652"
           id="ellipse58" />
        <ellipse
           transform="matrix(0.99978,-0.020878,0.018915,0.99982,0,0)"
           cx="47.599998"
           cy="88.078003"
           rx="1.1681"
           ry="1.9895999"
           fill="#8fffff"
           id="ellipse59" />
        <path
           d="m 11.583,82.414 c 4.2043,-5.0355 5.1443,-5.0541 5.1563,-5.0543 9.3154,-2.9691 16.553,-1.9032 15.388,-2.0745 -3.0326,-0.54809 -15.586,2.6677 -12.456,2.9196 1.6395,1.6068 17.56,2.5166 26.181,-0.29129 -0.56564,-1.6898 -11.632,-2.6726 -13.649,-2.6771 5.4035,-0.55233 11.109,-0.38676 15.704,1.8842 2.5877,1.7927 2.6707,3.046 3.968,4.5608 -7.2228,2.337 -12.785,3.0227 -19.473,3.4024 -7.4187,0.95978 -15.113,-1.39 -20.82,-2.6699 z"
           fill="url(#linearGradient33562)"
           id="path59"
           style="fill:url(#linearGradient33562)" />
      </g>
      <g
         transform="translate(4.6805,0.46368)"
         id="g61">
        <ellipse
           transform="matrix(0.99978,-0.020878,0.018915,0.99982,0,0)"
           cx="7.7874999"
           cy="86.828003"
           rx="1.0638"
           ry="2.4870999"
           fill="#836652"
           id="ellipse60" />
        <ellipse
           transform="matrix(0.99978,-0.020878,0.018915,0.99982,0,0)"
           cx="7.9752002"
           cy="86.828003"
           rx="0.87608999"
           ry="2.4870999"
           fill="#8fffff"
           id="ellipse61" />
      </g>
      <g
         fill="#ac9393"
         id="g99">
        <ellipse
           transform="matrix(0.99978,-0.020878,0.018915,0.99982,0,0)"
           cx="23.969999"
           cy="95.666"
           rx="0.31913"
           ry="0.42207"
           id="ellipse62" />
        <ellipse
           transform="matrix(0.99978,-0.020878,0.018915,0.99982,0,0)"
           cx="22.823999"
           cy="95.526001"
           rx="0.31913"
           ry="0.42207"
           id="ellipse63" />
        <ellipse
           transform="matrix(0.99978,-0.020878,0.018915,0.99982,0,0)"
           cx="21.698"
           cy="95.337997"
           rx="0.26280999"
           ry="0.34759"
           id="ellipse64" />
        <ellipse
           transform="matrix(0.99978,-0.020878,0.018915,0.99982,0,0)"
           cx="20.666"
           cy="95.151001"
           rx="0.31913"
           ry="0.42207"
           id="ellipse65" />
        <ellipse
           transform="matrix(0.99978,-0.020878,0.018915,0.99982,0,0)"
           cx="23.444"
           cy="94.494003"
           rx="0.31913"
           ry="0.42207"
           id="ellipse66" />
        <ellipse
           transform="matrix(0.99978,-0.020878,0.018915,0.99982,0,0)"
           cx="22.224001"
           cy="94.330002"
           rx="0.31913"
           ry="0.42207"
           id="ellipse67" />
        <ellipse
           transform="matrix(0.99978,-0.020878,0.018915,0.99982,0,0)"
           cx="18.488001"
           cy="94.705002"
           rx="0.31913"
           ry="0.42207"
           id="ellipse68" />
        <ellipse
           transform="matrix(0.99978,-0.020878,0.018915,0.99982,0,0)"
           cx="17.417999"
           cy="94.400002"
           rx="0.31913"
           ry="0.42207"
           id="ellipse69" />
        <ellipse
           transform="matrix(0.99978,-0.020878,0.018915,0.99982,0,0)"
           cx="33.469002"
           cy="94.352997"
           rx="0.31913"
           ry="0.42207"
           id="ellipse70" />
        <ellipse
           transform="matrix(0.99978,-0.020878,0.018915,0.99982,0,0)"
           cx="34.481998"
           cy="94.306"
           rx="0.26594001"
           ry="0.35172001"
           id="ellipse71" />
        <ellipse
           transform="matrix(0.99978,-0.020878,0.018915,0.99982,0,0)"
           cx="35.477001"
           cy="94.166"
           rx="0.31913"
           ry="0.42207"
           id="ellipse72" />
        <ellipse
           transform="matrix(0.99978,-0.020878,0.018915,0.99982,0,0)"
           cx="35.063999"
           cy="95.455002"
           rx="0.31913"
           ry="0.42207"
           id="ellipse73" />
        <ellipse
           transform="matrix(0.99978,-0.020878,0.018915,0.99982,0,0)"
           cx="42.426998"
           cy="87.400002"
           rx="0.31913"
           ry="0.42207"
           id="ellipse74" />
        <ellipse
           transform="matrix(0.99978,-0.020878,0.018915,0.99982,0,0)"
           cx="43.467999"
           cy="87.213997"
           rx="0.31913"
           ry="0.42207"
           id="ellipse75" />
        <ellipse
           transform="matrix(0.99978,-0.020878,0.018915,0.99982,0,0)"
           cx="44.360001"
           cy="87.028"
           rx="0.31913"
           ry="0.42207"
           id="ellipse76" />
        <ellipse
           transform="matrix(0.99978,-0.020878,0.018915,0.99982,0,0)"
           cx="45.698002"
           cy="86.843002"
           rx="0.31913"
           ry="0.42207"
           id="ellipse77" />
        <ellipse
           transform="matrix(0.99978,-0.020878,0.018915,0.99982,0,0)"
           cx="44.063"
           cy="88.328003"
           rx="0.31913"
           ry="0.42207"
           id="ellipse78" />
        <ellipse
           transform="matrix(0.99978,-0.020878,0.018915,0.99982,0,0)"
           cx="43.617001"
           cy="92.042"
           rx="0.31913"
           ry="0.42207"
           id="ellipse79" />
        <ellipse
           transform="matrix(0.99978,-0.020878,0.018915,0.99982,0,0)"
           cx="44.508999"
           cy="91.857002"
           rx="0.31913"
           ry="0.42207"
           id="ellipse80" />
        <ellipse
           transform="matrix(0.99978,-0.020878,0.018915,0.99982,0,0)"
           cx="45.401001"
           cy="91.485001"
           rx="0.31913"
           ry="0.42207"
           id="ellipse81" />
        <ellipse
           transform="matrix(0.99978,-0.020878,0.018915,0.99982,0,0)"
           cx="44.063"
           cy="93.342003"
           rx="0.31913"
           ry="0.42207"
           id="ellipse82" />
        <ellipse
           transform="matrix(0.99978,-0.020878,0.018915,0.99982,0,0)"
           cx="42.576"
           cy="92.227997"
           rx="0.31913"
           ry="0.42207"
           id="ellipse83" />
        <ellipse
           transform="matrix(0.99978,-0.020878,0.018915,0.99982,0,0)"
           cx="43.021999"
           cy="90.928001"
           rx="0.31913"
           ry="0.42207"
           id="ellipse84" />
        <ellipse
           transform="matrix(0.99978,-0.020878,0.018915,0.99982,0,0)"
           cx="33.722"
           cy="90.290001"
           rx="0.24821"
           ry="0.32828"
           id="ellipse85" />
        <ellipse
           transform="matrix(0.99978,-0.020878,0.018915,0.99982,0,0)"
           cx="34.763"
           cy="90.103996"
           rx="0.31913"
           ry="0.42207"
           id="ellipse86" />
        <ellipse
           transform="matrix(0.99978,-0.020878,0.018915,0.99982,0,0)"
           cx="34.167999"
           cy="88.989998"
           rx="0.31913"
           ry="0.42207"
           id="ellipse87" />
        <ellipse
           transform="matrix(0.99978,-0.020878,0.018915,0.99982,0,0)"
           cx="39.724998"
           cy="94.735001"
           rx="0.31913"
           ry="0.42207"
           id="ellipse88" />
        <ellipse
           transform="matrix(0.99978,-0.020878,0.018915,0.99982,0,0)"
           cx="47.158001"
           cy="92.789001"
           rx="0.31913"
           ry="0.42207"
           id="ellipse89" />
        <ellipse
           transform="matrix(0.99978,-0.020878,0.018915,0.99982,0,0)"
           cx="24.438999"
           cy="89.170998"
           rx="0.31913"
           ry="0.42207"
           id="ellipse90" />
        <ellipse
           transform="matrix(0.99978,-0.020878,0.018915,0.99982,0,0)"
           cx="23.462999"
           cy="89.007004"
           rx="0.28159001"
           ry="0.37241"
           id="ellipse91" />
        <ellipse
           transform="matrix(0.99978,-0.020878,0.018915,0.99982,0,0)"
           cx="22.504999"
           cy="88.773003"
           rx="0.31913"
           ry="0.42207"
           id="ellipse92" />
        <ellipse
           transform="matrix(0.99978,-0.020878,0.018915,0.99982,0,0)"
           cx="23.988001"
           cy="88.045998"
           rx="0.31913"
           ry="0.42207"
           id="ellipse93" />
        <ellipse
           transform="matrix(0.99978,-0.020878,0.018915,0.99982,0,0)"
           cx="15.635"
           cy="87.202003"
           rx="0.31913"
           ry="0.42207"
           id="ellipse94" />
        <ellipse
           transform="matrix(0.99978,-0.020878,0.018915,0.99982,0,0)"
           cx="14.743"
           cy="86.830002"
           rx="0.31913"
           ry="0.42207"
           id="ellipse95" />
        <ellipse
           transform="matrix(0.99978,-0.020878,0.018915,0.99982,0,0)"
           cx="14.891"
           cy="90.730003"
           rx="0.31913"
           ry="0.42207"
           id="ellipse96" />
        <ellipse
           transform="matrix(0.99978,-0.020878,0.018915,0.99982,0,0)"
           cx="14.148"
           cy="91.844002"
           rx="0.26280999"
           ry="0.34759"
           id="ellipse97" />
        <ellipse
           transform="matrix(0.84468,0.53528,-0.37309,0.92779,0,0)"
           cx="44.772999"
           cy="64.810997"
           rx="0.25942001"
           ry="0.31123999"
           id="ellipse98" />
        <ellipse
           transform="matrix(0.99978,-0.020878,0.018915,0.99982,0,0)"
           cx="48.626999"
           cy="84.849998"
           rx="0.24821"
           ry="0.32828"
           id="ellipse99" />
      </g>
      <g
         fill="#ffffff"
         fill-opacity="0.9918"
         id="g103">
        <ellipse
           transform="matrix(0.99978,-0.020878,0.018915,0.99982,0,0)"
           cx="18.375"
           cy="88.929001"
           rx="0.63081998"
           ry="0.76824999"
           id="ellipse100" />
        <ellipse
           transform="matrix(0.99978,-0.020878,0.018915,0.99982,0,0)"
           cx="37.953999"
           cy="89.192001"
           rx="0.63081998"
           ry="0.76824999"
           id="ellipse101" />
        <ellipse
           transform="matrix(0.99999,-0.0037542,0.0079401,0.99997,0,0)"
           cx="13.341"
           cy="87.191002"
           rx="0.33877999"
           ry="0.76823997"
           id="ellipse102" />
        <ellipse
           transform="matrix(0.99816,-0.060674,0.044444,0.99901,0,0)"
           cx="46.015999"
           cy="89.357002"
           rx="0.25709"
           ry="0.76806998"
           id="ellipse103" />
      </g>
      <path
         d="m 36.823,96.756 c 0,0 -0.81782,-1.0798 -0.49843,-1.5639 0.31945,-0.48412 0.38394,-0.55362 0.38394,-0.55362 0,0 -0.94526,-0.8725 0.30068,-1.3043 l 1.2459,-0.43178 c 3.3504,2.1277 1.2422,-0.08851 2.1126,-0.10491 1.2249,-0.07802 0.59735,0.46522 1.466,0.52162 1.0587,0.05006 0.96058,-0.5028 1.113,0.38341 0.28088,0.74304 0.10734,1.3449 -0.51576,2.6146 -1.6737,0.45969 -3.423,0.79838 -5.608,0.43884 z"
         fill="#43cc32"
         id="path103" />
      <path
         d="m 14.702,94.892 c 0,0 -0.40142,-1.2124 -0.05672,-1.5721 1.0332,-0.82297 -0.26683,-1.4078 0.90888,-1.5255 l 1.0424,-0.06335 c 0.39421,2.1918 0.63441,0.31287 2.6502,1.3422 0.79922,0.3297 0.83887,-0.20513 0.77164,0.65087 0.06066,0.75875 -0.19687,1.2658 -0.93673,2.2669 -1.3753,-0.0256 -2.7832,-0.18276 -4.3796,-1.0989 z"
         fill="#43cc32"
         id="path104" />
      <g
         fill="#ffcc00"
         id="g106">
        <path
           d="m 33.352,96.457 c -1.6008,0.54883 -3.8201,0.55548 -5.956,0.33525 l 1.7611,-3.4016 0.59203,-0.58972 1.4639,0.01062 0.41477,0.56817 z"
           stroke-width="0.23439"
           id="path105" />
        <ellipse
           transform="matrix(0.99978,-0.020878,0.018915,0.99982,0,0)"
           cx="27.712999"
           cy="94.385002"
           rx="0.41302001"
           ry="0.51589"
           id="ellipse105" />
        <ellipse
           cx="30.677999"
           cy="90.949997"
           rx="2.8443999"
           ry="2.8613"
           stroke-width="0.23439"
           id="ellipse106" />
      </g>
    </g>
    <g
       transform="matrix(0.16434,0,0,0.16434,1934,1752.3)"
       id="g113">
      <ellipse
         cx="4888.7002"
         cy="2190.7"
         rx="49.935001"
         ry="12.142"
         opacity="0.2"
         id="ellipse107" />
      <g
         stroke="#283f00"
         stroke-linecap="round"
         stroke-linejoin="round"
         stroke-miterlimit="10"
         stroke-width="2.965"
         id="g112">
        <path
           d="m 4881,2180.9 v -21.748 c 0,-1.3301 1.0776,-2.4097 2.4152,-2.4097 1.3301,0 2.4049,1.0796 2.4049,2.4097 v 21.374 c 28.496,0.3256 27.742,6.3709 27.742,6.3709 h -36.986 c -0.3732,-3.8743 2.3083,-5.3989 4.4241,-5.997 z"
           fill="#ffde55"
           id="path107" />
        <path
           d="m 4869.7,2185.1 v -21.752 c 0,-1.33 1.0755,-2.4103 2.4049,-2.4103 1.3377,0 2.4145,1.0803 2.4145,2.4103 v 21.374 c 28.497,0.3256 27.742,6.3709 27.742,6.3709 h -36.993 c -0.367,-3.875 2.3166,-5.3955 4.4324,-5.9936 z"
           fill="#ffde55"
           id="path108" />
        <path
           d="m 4832,2150.6 c -0.044,-0.3139 51.394,-50.531 68.838,-50.531 17.435,0 31.58,14.143 31.58,31.586 0,17.443 -14.145,31.586 -31.58,31.586 -14.531,0 -52.651,2.6608 -64.99,-6.5241 -19.274,34.531 -36.754,12.058 -36.754,12.058 z"
           fill="#ffffff"
           id="path109" />
        <path
           d="m 4925.9,2120.6 c 12.794,-4.1889 20.872,-17.26 18.452,-30.887 -2.6684,-14.92 -16.92,-24.857 -31.838,-22.199 -14.924,2.6601 -24.854,16.908 -22.203,31.833 0.4553,2.5221 1.241,4.9056 2.2931,7.1035"
           fill="#ffffff"
           id="path110" />
        <path
           d="m 4935.1,2114.1 c -14.626,1.5136 -14.918,-12.727 -2.5187,-14.121 0,0 5.5534,-6.0459 11.83,-10.258 7.9204,9.5326 22.45,10.306 23.907,25.365 z"
           fill="#ffde55"
           id="path111" />
        <path
           d="m 4875.3,2128.1 c 7.3754,-5.9986 44.058,-2.3577 44.853,4.769 0.7961,7.135 -0.7559,21.892 -16.505,23.406 0,0 -57.097,3.21 -56.29,-7.6416 l 27.942,-20.533"
           fill="#b3b3b3"
           id="path112" />
      </g>
      <path
         d="m 4911.3,2091.3 c 0.7548,2.7278 3.5791,4.331 6.3089,3.5687 2.7325,-0.7513 4.3261,-3.5838 3.5707,-6.3109 -0.7547,-2.7243 -3.579,-4.3241 -6.3136,-3.5687 -2.7278,0.7617 -4.3207,3.5825 -3.566,6.3109 z"
         fill="#283f00"
         id="path113" />
    </g>
    <g
       transform="matrix(0.21545,0.050005,-0.050005,0.21545,2816.9,2938.6)"
       id="g115">
      <g
         stroke="#283f00"
         stroke-linecap="round"
         stroke-linejoin="round"
         stroke-miterlimit="10"
         id="g114">
        <path
           d="m -2242,-2580.9 c -3.973,-3.974 -10.215,-4.29 -14.554,-0.954 -4.338,-3.335 -10.579,-3.02 -14.554,0.954 -3.971,3.973 -4.287,10.214 -0.951,14.553 -3.336,4.338 -3.02,10.58 0.951,14.552 3.975,3.974 10.216,4.29 14.554,0.954 4.339,3.335 10.581,3.02 14.554,-0.954 3.973,-3.973 4.29,-10.214 0.954,-14.552 3.336,-4.339 3.019,-10.58 -0.954,-14.553 z"
           fill="#ffcc00"
           stroke-width="2.5855"
           id="path114" />
        <circle
           cx="-2256.5"
           cy="-2566.3999"
           r="7.1368999"
           fill="#ffe680"
           stroke-width="3.5445"
           id="circle114" />
      </g>
    </g>
    <g
       transform="matrix(0.21545,0.050005,-0.050005,0.21545,3012.6,2946.5)"
       id="g117">
      <g
         stroke="#283f00"
         stroke-linecap="round"
         stroke-linejoin="round"
         stroke-miterlimit="10"
         id="g116">
        <path
           d="m -2242,-2580.9 c -3.973,-3.974 -10.215,-4.29 -14.554,-0.954 -4.338,-3.335 -10.579,-3.02 -14.554,0.954 -3.971,3.973 -4.287,10.214 -0.951,14.553 -3.336,4.338 -3.02,10.58 0.951,14.552 3.975,3.974 10.216,4.29 14.554,0.954 4.339,3.335 10.581,3.02 14.554,-0.954 3.973,-3.973 4.29,-10.214 0.954,-14.552 3.336,-4.339 3.019,-10.58 -0.954,-14.553 z"
           fill="#ffcc00"
           stroke-width="2.5855"
           id="path115" />
        <circle
           cx="-2256.5"
           cy="-2566.3999"
           r="7.1368999"
           fill="#ffe680"
           stroke-width="3.5445"
           id="circle115" />
      </g>
    </g>
    <g
       transform="matrix(3.4383,0,0,3.4585,624.29,2039)"
       id="g128">
      <path
         d="m 558.46,15.698 c -4.4173,0.54768 -9.7067,3.4372 -10.138,-6.716 0,0 -12.994,4.0608 -12.566,-6.5598 l 0.42845,-10.621 2.9987,-6.4036 c -4.0091,-0.78715 -1.6406,-4.6748 -2.4275,-7.0284 -4.5754,-7.0048 1.5395,-8.3515 8.5674,-9.2151 1.2905,-4.9378 3.7935,-8.4985 14.851,-2.3428 l 7.4252,-9.8398 c 10.913,-2.4519 17.74,0.78612 20.276,9.9959 11.843,-3.671 9.0449,4.1887 12.423,7.1847 6.0448,3.6964 1.4721,8.6832 1.428,13.12 6.7251,17.274 -0.0828,16.157 -6.9969,21.397 0.76193,6.3363 -2.7154,8.4992 -9.5669,7.3408 -7.9839,-2.7249 -13.607,-5.3628 -17.402,-2.9261 -4.0035,2.5707 -7.0297,4.1042 -9.3001,2.6137 z"
         fill="#43cc32"
         stroke="#43cc32"
         stroke-width="1.1827px"
         id="path117" />
      <g
         transform="matrix(-2.8111,0,0,3.3424,1603.8,-281.36)"
         fill="#916f6f"
         id="g118">
        <path
           d="m 366.26,88.642 c -0.68926,-1.0208 -1.3886,-2.117 -2.7007,-2.8709 -0.76316,-0.43377 -1.3843,-0.0191 -2.6292,0.02894 -0.31184,-0.10072 -0.66929,-0.18775 -0.11625,-0.54793 l 1.7426,-0.07748 c -0.61734,-0.58621 -0.38726,-0.42005 -0.79888,-1.0929 -0.25824,-0.42216 -0.39918,-0.88466 -0.32644,-1.4167 0.12197,-0.63955 0.26331,-0.77547 0.4298,-0.25731 0.68962,1.478 0.4694,1.6867 1.305,2.2242 1.6442,1.0577 2.2117,1.8463 3.2648,2.4799 0.15356,-1.1454 0.73824,-2.7579 -0.0945,-2.8348 -1.3569,-1.6465 -2.7418,-3.3425 -4.8203,-5.0907 -0.95217,-0.84718 -1.5692,-1.5396 -0.33378,-1.5993 0.0208,0.70932 2.3802,3.1181 3.3031,3.4579 0.38196,-0.90387 -0.25182,-2.5568 -0.51771,-3.79 -0.19251,-0.07764 -0.349,-1.5034 0.70652,0.17044 0.23274,0.36909 0.39443,1.3511 0.62352,4.2765 0.39457,1.0419 1.9471,2.3361 2.7508,1.2512 2.7572,-0.82621 3.5563,-3.1555 5.791,-5.0935 0.99838,-0.86586 1.0234,-0.07788 0.88689,0.09641 -0.22915,0.02864 -3.5076,2.9829 -2.2068,2.7317 0.82192,-0.25381 1.9576,-0.18612 2.5213,-0.0859 0.62308,0.12263 0.24092,0.51202 -0.23087,0.52236 -3.3002,0.0723 -3.2349,0.40555 -4.2146,1.44 -0.29414,0.47433 -2.0983,0.9568 -1.9826,2.5437 1.7227,-0.23793 6.8486,-2.2968 5.8628,-0.6523 -1.5723,-0.07752 -2.7334,0.63649 -3.4943,0.80241 0.46446,0.58694 1.0572,0.78909 1.6523,0.98404 0.20863,0.57954 -0.11158,0.45395 -0.4239,0.33888 -2.3941,-1.0817 -3.6075,-0.68714 -3.9845,0.7733 -0.17538,1.9568 -0.43803,3.1801 0.0853,5.1515 -0.74522,0.03847 -1.8256,0.0103 -2.6262,0.01329 0.294,-1.2665 0.51107,-2.0219 0.57586,-3.8769 z"
           fill="url(#linearGradient15121)"
           id="path118"
           style="fill:url(#linearGradient15121)" />
      </g>
      <g
         transform="matrix(1.2939,0,0,1.5385,22.342,-63.895)"
         fill="#fa4545"
         id="g127">
        <ellipse
           cx="409.17999"
           cy="43.112"
           rx="0.67365003"
           ry="0.72547001"
           id="ellipse118" />
        <ellipse
           cx="412.64999"
           cy="36.220001"
           rx="0.67365003"
           ry="0.72547001"
           id="ellipse119" />
        <ellipse
           cx="406.59"
           cy="30.157"
           rx="0.67365003"
           ry="0.72547001"
           id="ellipse120" />
        <ellipse
           cx="402.44"
           cy="37.203999"
           rx="0.67365003"
           ry="0.72547001"
           id="ellipse121" />
        <ellipse
           cx="402.44"
           cy="37.203999"
           rx="0.67365003"
           ry="0.72547001"
           id="ellipse122" />
        <ellipse
           cx="437.22"
           cy="32.299"
           rx="0.76525003"
           ry="0.72547001"
           id="ellipse123" />
        <ellipse
           cx="437.98999"
           cy="46.731998"
           rx="0.76525003"
           ry="0.72547001"
           id="ellipse124" />
        <ellipse
           cx="444.25"
           cy="37.612"
           rx="0.76525003"
           ry="0.72547001"
           id="ellipse125" />
        <ellipse
           cx="426.39001"
           cy="32.116001"
           rx="0.76525003"
           ry="0.72547001"
           id="ellipse126" />
        <ellipse
           cx="419.19"
           cy="26.07"
           rx="0.76525003"
           ry="0.72547001"
           id="ellipse127" />
      </g>
    </g>
    <g
       transform="matrix(0.17047,0.039564,-0.039564,0.17047,2966.3,2811.9)"
       id="g130">
      <g
         stroke="#283f00"
         stroke-linecap="round"
         stroke-linejoin="round"
         stroke-miterlimit="10"
         id="g129">
        <path
           d="m -2242,-2580.9 c -3.973,-3.974 -10.215,-4.29 -14.554,-0.954 -4.338,-3.335 -10.579,-3.02 -14.554,0.954 -3.971,3.973 -4.287,10.214 -0.951,14.553 -3.336,4.338 -3.02,10.58 0.951,14.552 3.975,3.974 10.216,4.29 14.554,0.954 4.339,3.335 10.581,3.02 14.554,-0.954 3.973,-3.973 4.29,-10.214 0.954,-14.552 3.336,-4.339 3.019,-10.58 -0.954,-14.553 z"
           fill="#ffcc00"
           stroke-width="2.5855"
           id="path128" />
        <circle
           cx="-2256.5"
           cy="-2566.3999"
           r="7.1368999"
           fill="#ffe680"
           stroke-width="3.5445"
           id="circle128" />
      </g>
    </g>
  </g>
</svg>
