<?xml version="1.0" encoding="UTF-8" standalone="no"?>
<!-- Created with Inkscape (http://www.inkscape.org/) -->

<svg
   width="101.85mm"
   height="20.191mm"
   version="1.1"
   viewBox="0 0 101.85 20.191"
   id="svg2"
   sodipodi:docname="earthcal-wordmark.svg"
   inkscape:version="1.4.1-rc (06eac75fbf, 2025-03-29)"
   xmlns:inkscape="http://www.inkscape.org/namespaces/inkscape"
   xmlns:sodipodi="http://sodipodi.sourceforge.net/DTD/sodipodi-0.dtd"
   xmlns="http://www.w3.org/2000/svg"
   xmlns:svg="http://www.w3.org/2000/svg">
  <defs
     id="defs2" />
  <sodipodi:namedview
     id="namedview2"
     pagecolor="#ffffff"
     bordercolor="#000000"
     borderopacity="0.25"
     inkscape:showpageshadow="2"
     inkscape:pageopacity="0.0"
     inkscape:pagecheckerboard="0"
     inkscape:deskcolor="#d1d1d1"
     inkscape:document-units="mm"
     inkscape:zoom="0.89107358"
     inkscape:cx="281.12157"
     inkscape:cy="40.961825"
     inkscape:window-width="2256"
     inkscape:window-height="1427"
     inkscape:window-x="0"
     inkscape:window-y="40"
     inkscape:window-maximized="1"
     inkscape:current-layer="svg2" />
  <g
     id="text4"
     style="font-size:2.64228px;white-space:pre;inline-size:47.3423;fill:#666666;stroke-width:0.123857"
     transform="matrix(8.1565298,0,0,8.1565298,1916.7657,-4978.1969)"
     aria-label="earthcal">
    <path
       style="font-family:Mulish;-inkscape-font-specification:Mulish;fill:#666666"
       d="m -232.56466,612.29624 q -0.0872,0.0819 -0.22459,0.12947 -0.13476,0.0476 -0.27744,0.0476 -0.2061,0 -0.35671,-0.0819 -0.14797,-0.0819 -0.22988,-0.23516 -0.0793,-0.1559 -0.0793,-0.36992 0,-0.2061 0.0793,-0.362 0.0793,-0.15589 0.21931,-0.24309 0.14269,-0.0872 0.32764,-0.0872 0.17704,0 0.30387,0.0793 0.12683,0.0766 0.19288,0.22195 0.0687,0.14532 0.0687,0.34878 v 0.0396 h -1.00406 v -0.14004 h 0.88252 l -0.0687,0.0978 q 0.005,-0.23252 -0.0925,-0.35671 -0.0951,-0.12419 -0.28008,-0.12419 -0.19289,0 -0.30387,0.1374 -0.10833,0.13476 -0.10833,0.3752 0,0.25895 0.11362,0.39106 0.11626,0.13212 0.33821,0.13212 0.11626,0 0.22195,-0.037 0.10834,-0.0396 0.2061,-0.1189 z m 0.85874,0.17703 q -0.17703,0 -0.31179,-0.0819 -0.13211,-0.0845 -0.2061,-0.23781 -0.0713,-0.15589 -0.0713,-0.36463 0,-0.20874 0.074,-0.36464 0.074,-0.15589 0.20609,-0.24309 0.13476,-0.0872 0.30915,-0.0872 0.18232,0 0.30915,0.0898 0.12683,0.0898 0.17174,0.2563 l -0.0317,0.0211 v -0.33557 h 0.21138 v 1.32906 h -0.21138 v -0.34349 l 0.0317,0.0159 q -0.0449,0.16646 -0.17174,0.2563 -0.12683,0.0898 -0.30915,0.0898 z m 0.0423,-0.17703 q 0.19553,0 0.30122,-0.13212 0.10569,-0.13475 0.10569,-0.38049 0,-0.24573 -0.10834,-0.37784 -0.10569,-0.13212 -0.29857,-0.13212 -0.19553,0 -0.30651,0.1374 -0.10833,0.13476 -0.10833,0.37785 0,0.24309 0.10833,0.3752 0.11098,0.13212 0.30651,0.13212 z m 1.03312,0.15853 v -0.9565 q 0,-0.0925 -0.005,-0.18496 -0.003,-0.0951 -0.0159,-0.1876 h 0.20345 l 0.0291,0.32764 -0.0291,-0.008 q 0.037,-0.17439 0.15854,-0.26158 0.12419,-0.0898 0.27744,-0.0898 0.0344,0 0.0634,0.005 0.0317,0.003 0.0581,0.0106 l -0.005,0.19553 q -0.0608,-0.0211 -0.14004,-0.0211 -0.1374,0 -0.22195,0.0608 -0.0819,0.0608 -0.12155,0.15589 -0.037,0.0925 -0.037,0.19553 v 0.75833 z m 0.87459,-1.15996 v -0.1691 h 0.85346 v 0.1691 z m 0.84818,0.96972 v 0.18232 q -0.0449,0.0132 -0.0898,0.0185 -0.0423,0.008 -0.0951,0.008 -0.18496,0 -0.29594,-0.10569 -0.10833,-0.10569 -0.10833,-0.31708 v -1.26565 l 0.21402,-0.0766 v 1.31321 q 0,0.10569 0.0291,0.16382 0.0317,0.0581 0.0846,0.0819 0.0529,0.0211 0.1189,0.0211 0.0396,0 0.0713,-0.005 0.0317,-0.005 0.0713,-0.0185 z m 0.26422,0.19024 v -1.94472 h 0.21403 v 0.88517 l -0.0344,0.0264 q 0.0555,-0.16118 0.18496,-0.24309 0.12947,-0.0845 0.29857,-0.0845 0.47826,0 0.47826,0.52581 v 0.83496 h -0.21403 v -0.82439 q 0,-0.18496 -0.074,-0.26951 -0.074,-0.0872 -0.23252,-0.0872 -0.18496,0 -0.29594,0.11362 -0.11097,0.11362 -0.11097,0.30651 v 0.76097 z"
       id="path6" />
    <path
       style="font-weight:bold;font-family:Mulish;-inkscape-font-specification:'Mulish Bold';fill:#666666"
       d="m -226.52178,612.47327 q -0.20874,0 -0.36199,-0.0819 -0.15061,-0.0845 -0.23252,-0.23781 -0.0793,-0.15589 -0.0793,-0.36463 0,-0.21138 0.0846,-0.36992 0.0846,-0.15854 0.24045,-0.24573 0.15589,-0.0872 0.36463,-0.0872 0.14004,0 0.27216,0.0449 0.13475,0.0449 0.21931,0.12419 l -0.0951,0.23252 q -0.0846,-0.0687 -0.17967,-0.10305 -0.0951,-0.037 -0.19024,-0.037 -0.1744,0 -0.27744,0.11097 -0.10041,0.11098 -0.10041,0.325 0,0.21139 0.10041,0.32236 0.1004,0.11098 0.28008,0.11098 0.0925,0 0.1876,-0.0343 0.0951,-0.037 0.17967,-0.10834 l 0.0951,0.23253 q -0.0872,0.0793 -0.2246,0.12418 -0.13475,0.0423 -0.28272,0.0423 z m 1.24715,0 q -0.17439,0 -0.30914,-0.0819 -0.13476,-0.0845 -0.20874,-0.23781 -0.0713,-0.15589 -0.0713,-0.36463 0,-0.21138 0.074,-0.36728 0.074,-0.15854 0.2061,-0.24573 0.13475,-0.0898 0.30914,-0.0898 0.16911,0 0.2933,0.0846 0.12683,0.0819 0.17175,0.22988 l -0.0317,0.0185 v -0.29858 h 0.325 v 1.33435 h -0.325 v -0.30122 l 0.0317,0.0106 q -0.0449,0.14797 -0.17175,0.22988 -0.12419,0.0793 -0.2933,0.0793 z m 0.0898,-0.25366 q 0.16382,0 0.25366,-0.11362 0.0898,-0.11362 0.0898,-0.32236 0,-0.21402 -0.0898,-0.325 -0.0898,-0.11361 -0.25366,-0.11361 -0.16646,0 -0.25894,0.11626 -0.0925,0.11626 -0.0925,0.32764 0,0.2061 0.0925,0.31971 0.0925,0.11098 0.25894,0.11098 z m 1.02521,0.23516 v -1.94472 h 0.33028 v 1.94472 z"
       id="path7" />
  </g>
</svg>
