<?xml version="1.0" encoding="UTF-8" standalone="no"?>
<!-- Created with Inkscape (http://www.inkscape.org/) -->

<svg
   width="180.33mm"
   height="68.844429mm"
   version="1.1"
   viewBox="0 0 180.33 68.844433"
   id="svg131"
   sodipodi:docname="earthen-subscribe-top-day.svg"
   inkscape:version="1.4.1-rc (06eac75fbf, 2025-03-29)"
   xmlns:inkscape="http://www.inkscape.org/namespaces/inkscape"
   xmlns:sodipodi="http://sodipodi.sourceforge.net/DTD/sodipodi-0.dtd"
   xmlns="http://www.w3.org/2000/svg"
   xmlns:svg="http://www.w3.org/2000/svg">
  <sodipodi:namedview
     id="namedview131"
     pagecolor="#ffffff"
     bordercolor="#000000"
     borderopacity="0.25"
     inkscape:showpageshadow="2"
     inkscape:pageopacity="0.0"
     inkscape:pagecheckerboard="0"
     inkscape:deskcolor="#d1d1d1"
     inkscape:document-units="mm"
     inkscape:zoom="1"
     inkscape:cx="368"
     inkscape:cy="283.5"
     inkscape:window-width="2256"
     inkscape:window-height="1427"
     inkscape:window-x="0"
     inkscape:window-y="40"
     inkscape:window-maximized="1"
     inkscape:current-layer="g19" />
  <defs
     id="defs8">
    <linearGradient
       id="linearGradient50606"
       x1="421.45999"
       x2="458.98999"
       y1="81.216003"
       y2="80.958"
       gradientTransform="matrix(0.36219,-0.0075634,0.0085593,0.45242,-122.38,55.957)"
       gradientUnits="userSpaceOnUse">
      <stop
         stop-color="#d1a448"
         offset="0"
         id="stop1" />
      <stop
         stop-color="#9b7527"
         stop-opacity=".9918"
         offset="1"
         id="stop2" />
    </linearGradient>
    <linearGradient
       id="linearGradient33560"
       x1="439.64001"
       x2="412.56"
       y1="53.484001"
       y2="53.870998"
       gradientTransform="matrix(0.36219,-0.0075634,0.0085593,0.45242,-123.44,56.069)"
       gradientUnits="userSpaceOnUse">
      <stop
         stop-color="#96312a"
         offset="0"
         id="stop3" />
      <stop
         stop-color="#65211c"
         stop-opacity=".9959"
         offset="1"
         id="stop4" />
    </linearGradient>
    <linearGradient
       id="linearGradient33562"
       x1="419.64999"
       x2="452.28"
       y1="64.963997"
       y2="65.350998"
       gradientTransform="matrix(0.36219,-0.0071478,0.0085593,0.42756,-122.85,57.356)"
       gradientUnits="userSpaceOnUse">
      <stop
         stop-color="#c33f37"
         offset="0"
         id="stop5" />
      <stop
         stop-color="#b33a33"
         stop-opacity=".98039"
         offset="1"
         id="stop6" />
    </linearGradient>
    <linearGradient
       id="linearGradient15121"
       x1="367.10999"
       x2="367.22"
       y1="87.487"
       y2="90.810997"
       gradientUnits="userSpaceOnUse">
      <stop
         stop-color="#916f6f"
         offset="0"
         id="stop7" />
      <stop
         stop-color="#685050"
         stop-opacity=".9918"
         offset="1"
         id="stop8" />
    </linearGradient>
    <clipPath
       id="clipPath14">
      <ellipse
         transform="matrix(0.9996,0.028384,-0.013912,0.9999,0,0)"
         cx="106.13"
         cy="91.443001"
         rx="117.86"
         ry="38.66"
         fill="#00ffff"
         stroke-width="0.32164"
         id="ellipse8" />
    </clipPath>
  </defs>
  <g
     transform="translate(-13.275002,-38.751549)"
     style="mix-blend-mode:difference"
     id="g19">
    <ellipse
       cx="103.44"
       cy="70.320999"
       rx="90.165001"
       ry="28.162001"
       fill="#0ff"
       stroke-width="0.2401"
       id="ellipse9"
       style="fill:#00ffff;fill-opacity:1" />
    <g
       id="g1"
       style="display:inline;opacity:1;mix-blend-mode:normal;stroke:#528106;stroke-width:1.89896;stroke-miterlimit:4;stroke-dasharray:none;stroke-opacity:0.996078"
       transform="matrix(-1.122355,-1.11011e-8,0,1.122355,263.30094,-11.127675)">
      <g
         id="g2255"
         transform="matrix(0.98138998,0,0,0.98138998,2.7412462,1.2809828)"
         style="display:inline;stroke:#528106;stroke-width:1.93497;stroke-miterlimit:4;stroke-dasharray:none;stroke-opacity:0.996078">
        <circle
           style="fill:none;stroke:#528106;stroke-width:1.93497;stroke-miterlimit:4;stroke-dasharray:none;stroke-opacity:0.996078"
           id="circle2249"
           cx="145.52554"
           cy="73.794655"
           r="19.228128" />
        <path
           sodipodi:type="spiral"
           style="fill:none;fill-rule:evenodd;stroke:#528106;stroke-width:7.31329;stroke-miterlimit:4;stroke-dasharray:none;stroke-opacity:0.996078"
           id="path2251"
           sodipodi:cx="221.35513"
           sodipodi:cy="282.80667"
           sodipodi:expansion="2.1400001"
           sodipodi:revolution="3.1941473"
           sodipodi:radius="74.808487"
           sodipodi:argument="-17.566807"
           sodipodi:t0="0.106"
           transform="matrix(-0.24908598,0.0892217,-0.0892217,-0.24908598,227.10702,125.93926)"
           d="m 220.76322,282.6438 c -0.44771,-0.78222 0.43524,-1.58958 1.12372,-1.76984 1.88275,-0.49294 3.39193,1.37958 3.59076,3.06708 0.40702,3.45445 -2.94033,5.96122 -6.10523,6.07113 -5.52077,0.19172 -9.33194,-5.15048 -9.2324,-10.29143 0.15683,-8.10006 8.03507,-13.53059 15.66678,-13.09272 11.20685,0.643 18.57896,11.61455 17.66779,22.26505 -1.27072,14.85326 -15.9062,24.49574 -30.11508,22.9715 -19.04974,-2.04352 -31.29727,-20.92507 -29.01627,-39.24208 2.9645,-23.80562 26.6845,-38.99824 49.66853,-35.81337 29.12929,4.0364 47.61193,33.19649 43.37315,61.41472 -5.26175,35.02839 -40.47196,57.15051 -74.49921,51.70514 -15.92385,-2.54829 -30.663,-10.67678 -41.57975,-22.50826" />
      </g>
      <circle
         style="fill:none;stroke:#528106;stroke-width:1.89896;stroke-miterlimit:4;stroke-dasharray:none;stroke-opacity:0.996078"
         id="circle4495"
         cx="142.34222"
         cy="69.487465"
         r="24.096409" />
      <circle
         style="opacity:1;fill:#518106;fill-opacity:0.996078;stroke:none;stroke-width:0.824005"
         id="path1-7"
         cx="-146.59639"
         cy="75.078705"
         r="1.6345247"
         transform="scale(-1,1)" />
    </g>
    <g
       transform="matrix(0.92895,-0.020679,0.012925,0.72824,6.7956,3.7091)"
       clip-path="url(#clipPath14)"
       fill="#32c63d"
       opacity=".86056"
       id="g14"
       style="opacity:1">
      <path
         d="m 80.205,119.5 c 0.78266,-2.441 0.81359,-1.1754 0.65624,-0.19034 0.77965,-1.7561 -0.32288,1.803 0.76204,-0.35445 -0.75132,2.4271 1.2715,-2.1531 0.33244,0.5636 1.0464,-1.8257 1.165,-2.0814 0.37675,0.0521 0.44508,-0.57094 1.0677,-1.6394 0.39586,0.51681 0.64173,-0.43065 0.47837,-0.97874 0.49353,0.0549 0.88314,-0.46552 -0.51607,1.2081 0.83446,-0.22535 -0.0797,0.75977 0.3853,0.10695 -0.25842,1.6837 0.81951,-1.2176 1.1522,-2.6355 0.7097,-0.38257 1.3613,-2.2495 -0.09093,1.4581 1.1948,-0.9864 0.05491,0.32522 -0.14729,1.5382 -0.22208,2.224"
         fill="#32c63d"
         stroke-opacity="0"
         id="path9" />
      <path
         d="m 80.604819,74.365546 c -0.187952,-0.0053 -0.36755,0.03946 -0.534248,0.12109 -0.228398,-1.386304 -1.127732,-2.436651 -2.21766,-2.4676 -1.090262,-0.03097 -2.01818,0.967488 -2.284664,2.339615 -0.164196,-0.09108 -0.342841,-0.145913 -0.530595,-0.151244 -0.819876,-0.02328 -1.497,0.862877 -1.512522,1.978539 -0.01553,1.115988 0.636454,2.039562 1.456294,2.062704 0.257268,0.0073 1.543457,0.04384 2.78378,0.07906 1.240116,0.03523 2.526108,0.07174 2.783456,0.07903 0.819808,0.02329 1.497003,-0.862465 1.512532,-1.978539 0.01551,-1.1156 -0.636504,-2.039563 -1.456302,-2.062842 z"
         stroke-width="0.0290074"
         id="path2"
         style="opacity:0.97;mix-blend-mode:normal;fill:#ffffff" />
      <path
         d="m 139.77721,128.95495 c 0.20544,-5.41431 0.90278,-11.43278 -6.73498,-7.22024 -2.04396,-3.00361 -0.25342,-6.28895 -6.83559,-8.95913 l -0.60761,1.67363 c -6.55571,-2.24584 -4.40085,-2.39233 -5.48646,-0.45633 -1.48402,-4.05695 -3.52075,-4.76473 -6.72854,-5.65804 -8.24615,-1.33224 -8.64952,0.52663 -11.17527,3.18485 -2.263416,-2.55491 -3.463384,-4.58862 -9.163443,-0.84415 -1.88084,-4.08199 -5.53974,-5.89109 -10.502156,1.11549 -2.994569,-5.51465 -5.574686,-6.3746 -7.78509,-3.08309 l -6.873933,21.37265 z"
         fill="#26972e"
         stroke-width="0.32162"
         id="path1"
         sodipodi:nodetypes="cccccccccccc"
         style="fill:#30c03b;fill-opacity:1" />
      <path
         d="m 15.274,121.06 c -0.05467,-5.4217 -0.58405,-11.475 6.9305,-6.8322 2.1259,-2.8852 0.42816,-6.2696 7.0794,-8.564 l 0.56058,1.7068 c 6.613,-1.8719 5.6384,-0.5814 6.6693,1.4147 1.5957,-3.9695 5.014,-4.3044 8.2441,-5.0149 8.2767,-0.86306 7.3899,4.0338 9.8397,6.8333 2.3327,-2.4244 3.9663,-6.9934 9.5577,-2.9283 1.9929,-3.972 4.0214,-7.7994 8.785,-0.51663 3.1456,-5.3403 5.7476,-6.0531 7.8647,-2.6387 1.44174,1.41816 2.025215,3.6555 3.279111,4.14124 8.657047,3.35362 1.279427,11.65888 2.994889,17.60476 z"
         fill="#26972e"
         stroke-width="0.32162"
         id="path10"
         sodipodi:nodetypes="ccccccccccscc" />
      <path
         d="m 9.0677,127.45 c -2.6365,-6.3204 27.569,-15.03 37.542,-15.489 16.721,-0.76192 39.3,6.6615 44.083,15.534 0.2996,0.55578 0.16868,0.31312 0.38521,0.78324 0.28639,0.6218 0.38004,1.2773 -0.0052,1.5815 -14.96,12.445 -66.933,11.824 -82.006,-2.4102 z"
         fill="#32c63d"
         id="path11" />
      <path
         d="m 28.658,116.04 c -0.50948,-2.5589 -0.67781,-1.3119 -0.62917,-0.30821 -0.58102,-1.8804 0.12358,1.8434 -0.71609,-0.48995 0.47994,2.5394 -1.0249,-2.3632 -0.39054,0.49711 -0.83757,-1.9981 -0.92721,-2.2728 -0.37876,-0.0173 -0.37864,-0.64637 -0.87894,-1.8175 -0.44824,0.43922 -0.58864,-0.54341 -0.36724,-1.0561 -0.49471,-0.0358 -0.8239,-0.62205 0.37962,1.2899 -0.80184,-0.37544 -0.0037,0.76654 -0.39321,0.0355 0.07271,1.7136 -0.67907,-1.3547 -0.85424,-2.8188 -0.66119,-0.50827 -1.1034,-2.475 -0.0686,1.4597 -1.0759,-1.1944 -0.08979,0.31182 -0.02151,1.5493 -0.02206,2.2417"
         fill="#32c63d"
         stroke-opacity="0"
         id="path12" />
      <path
         d="m 185.13,131.15 c 0.63699,-5.3569 -0.34021,-14.314 -8.2782,-11.119 -1.7943,-3.2523 2.4021,-3.2224 -3.9356,-6.7332 l -2.7632,1.5277 c -6.3452,-3.0854 -3.4943,-1.5688 -4.7294,0.21509 -1.1529,-4.2269 -4.3756,-2.5316 -7.4967,-3.8368 -4.6285,-5.1958 -7.8744,-0.0478 -10.6,2.267 -2.0485,-2.8347 0.12337,-8.5676 -5.8487,-5.5854 -1.0198,-2.8389 -3.5257,-3.1504 -6.6721,-2.6303 -1.6232,0.26829 -3.3956,-0.7641 -5.2668,1.3873 -2.5399,-5.8727 -5.039,-7.0633 -7.5019,-4.0778 l -2.07207,4.93451 c -9.88018,3.41843 -4.31812,10.28223 -6.47653,15.42349 z"
         fill="#26972e"
         stroke-width="0.32162"
         id="path13"
         sodipodi:nodetypes="ccccccccsccccc" />
      <path
         d="m 185.95,134.06 c 2.8102,-6.1657 -27.129,-16.584 -37.082,-17.608 -16.687,-1.7106 -39.454,4.4252 -44.481,13.02 -0.31483,0.53833 -0.17725,0.3033 -0.40669,0.76075 -0.30346,0.60506 -0.41527,1.2547 -0.039,1.5805 14.602,13.284 66.552,15.615 82.008,2.247 z"
         fill="#32c63d"
         id="path14" />
    </g>
    <g
       transform="matrix(0.090962,0,0,0.090962,-30.683,344.62)"
       fill="#ffffff"
       id="g18">
      <path
         d="m 817.41445,-3062.0343 c -1.92012,6e-4 -3.748,0.3995 -5.43875,1.0909 -2.52955,-11.0468 -11.86317,-19.2514 -22.99856,-19.2514 -11.13867,-10e-5 -20.47316,8.2045 -22.99966,19.2503 -1.68976,-0.6918 -3.52201,-1.0902 -5.44016,-1.0902 -8.37635,0 -15.16555,7.2485 -15.16555,16.184 0,8.9381 6.78964,16.184 15.16555,16.1829 2.62834,1e-4 15.76875,1e-4 28.44058,1e-4 12.66965,10e-5 25.8081,10e-5 28.43732,-1e-4 8.37558,1e-4 15.16554,-7.2452 15.16554,-16.184 -8e-5,-8.935 -6.79007,-16.184 -15.16554,-16.184 z"
         stroke-width="0.262343"
         id="path15" />
      <path
         d="m 1842.9,-3026.3 c -2.0895,0 -4.0787,0.4069 -5.918,1.1126 -2.7525,-11.267 -12.908,-19.636 -25.026,-19.636 -12.121,2e-4 -22.278,8.3687 -25.027,19.636 -1.8383,-0.7054 -3.8327,-1.1124 -5.9196,-1.1124 -9.1149,-1e-4 -16.503,7.3938 -16.503,16.508 -10e-5,9.1165 7.3878,16.507 16.503,16.507 2.8597,3e-4 17.158,0 30.947,10e-5 13.786,-10e-5 28.083,-10e-5 30.944,-10e-5 9.1137,0 16.502,-7.3899 16.502,-16.507 0,-9.1136 -7.3887,-16.507 -16.502,-16.508 z"
         stroke-width="0.27638"
         id="path16" />
      <path
         d="m 2114.7,-3137.2 c -1.6645,-6e-4 -3.2489,0.3244 -4.7145,0.8864 -2.1924,-8.9753 -10.282,-15.642 -19.934,-15.642 -9.6553,10e-5 -17.746,6.6665 -19.936,15.642 -1.4644,-0.5619 -3.053,-0.886 -4.7154,-0.8862 -7.2605,2e-4 -13.146,5.89 -13.146,13.15 -2e-4,7.2624 5.8852,13.149 13.146,13.149 2.2777,0 13.668,-4e-4 24.652,0 h 24.649 c 7.2597,0 13.146,-5.8869 13.146,-13.149 0,-7.2596 -5.8859,-13.149 -13.145,-13.15 z"
         stroke-width="0.22016"
         id="path17" />
      <path
         d="m 1695.253,-3183.2837 c -2.2125,-7e-4 -4.3186,0.4313 -6.2666,1.1784 -2.9143,-11.9303 -13.6677,-20.7916 -26.4967,-20.7916 -12.8341,2e-4 -23.5886,8.8613 -26.4999,20.7916 -1.9465,-0.747 -4.0582,-1.1777 -6.2679,-1.178 -9.6507,3e-4 -17.4744,7.8291 -17.4744,17.4791 -3e-4,9.6533 7.8227,17.4775 17.4744,17.4775 3.0276,0 18.1685,-5e-4 32.7676,0 h 32.7645 c 9.6498,0 17.4728,-7.8251 17.4728,-17.4775 0,-9.6498 -7.8237,-17.4791 -17.4728,-17.4791 z"
         stroke-width="0.29264"
         id="path18" />
    </g>
  </g>
  <g
     transform="translate(46.584998,-13.467549)"
     id="g40">
    <path
       d="m 13.781,67.223 c -1.5045,1.5662 -3.2398,3.801 -2.1216,-0.89097 0.17309,-0.72635 -0.9171,-1.2467 -1.0589,-2.344 0.40788,-0.92 0.06293,-2.1518 2.3789,-2.2816 0.3585,-0.57961 2.0157,0.49174 1.9522,1.5096 -0.01694,0.27185 0.31012,-0.29028 -0.14164,-1.2985 -0.47321,-1.0561 -0.06342,-1.9755 2.0119,-2.637 5.5326,-0.362 2.3093,0.87738 3.4901,-1.6961 -1.1328,-0.72167 -1.021,-1.4718 -0.25811,-2.2368 1.2629,-1.0504 1.8434,-0.72734 2.3784,-0.31263 1.7702,0.4306 -0.15971,1.6879 0.32087,1.7831 4.1466,0.82154 1.707,2.2241 2.9515,0.74253 5.28899,2.263153 2.070209,3.630752 2.2757,5.3588"
       fill="#008000"
       id="path19"
       sodipodi:nodetypes="cscccsccccccc" />
    <path
       d="m 56.787504,62.023237 c -0.07031,-0.851876 3.263844,-6.59602 6.737796,-5.420047 -0.19082,-1.1811 1.0209,-1.3774 2.4324,-1.4335 2.9615,0.89405 2.1445,1.7539 1.2433,2.613 0.12252,0.41875 -0.3725,1.3325 0.50001,1.1501 1.3796,-1.7871 1.3786,-0.03481 1.9814,0.1694 1.7249,1.4707 0.25722,1.4374 0.29889,2.1152 -1.1826,2.2136 1.6429,0.87307 2.5707,1.2152 2.714,0.73916 1.1599,1.8285 1.0952,2.7956 l -0.9997,2.8043 -12.047,-3.563"
       fill="#008000"
       id="path20"
       sodipodi:nodetypes="ccccccccccc" />
    <g
       transform="matrix(3.1915,-0.44338,0.39792,2.923,-717.68,-305.61)"
       fill="#d4aa00"
       stroke="#000000"
       stroke-width="0.035278"
       id="g27">
      <g
         transform="matrix(0.83053,0,0,0.83053,35.401,27.148)"
         fill="#d4aa00"
         stroke="none"
         id="g26">
        <path
           d="m 211.08,158.21 c -0.21225,-2.1516 -0.16841,-3.9297 0.002,-6.2666 l 0.50937,0.13464 c -0.15963,2.5373 0.0433,4.5528 0.40487,6.0783"
           fill="#c87137"
           id="path21" />
        <g
           transform="matrix(-0.84478,-0.26123,-0.21471,0.84478,422.89,79.744)"
           id="g25">
          <path
             d="m 211.99,150.27 -1.1567,0.11273 -0.11539,-0.46053 c 0,0 -0.46031,-0.68929 -0.39419,0.0327 0.0227,1.1534 0.0596,0.7977 0.44262,0.87987 0.97155,0.20755 0.87908,0.39722 0.87908,0.39722"
             fill="#b3b3b3"
             id="path22" />
          <ellipse
             transform="matrix(0.99911,0.042121,-0.032812,0.99946,0,0)"
             cx="216.98"
             cy="141.71001"
             rx="0.53320998"
             ry="0.57339001"
             fill="#999999"
             stroke-width="0.056203"
             id="ellipse22" />
          <g
             transform="matrix(-0.43756,-0.98348,0.82432,-0.43263,180.68,424.6)"
             id="g24">
            <g
               transform="matrix(-0.3527,-1.0231,-0.8558,0.3527,415.81,314.7)"
               fill="#f9f9f9"
               id="g23">
              <path
                 transform="matrix(0.097965,0.01486,-0.013336,0.10697,208.55,129.55)"
                 d="m 44.165,168.43 c 13.548,-0.32833 9.6482,12.892 22.578,16.952 9.9943,3.1388 26.623,-12.271 21.607,-3.0744 -6.4897,11.897 -15.989,1.9098 -25.97,11.077 -7.7154,7.086 -2.6847,29.192 -8.1408,20.249 -7.0584,-11.569 6.3404,-14.801 3.3922,-28.029 -2.2789,-10.225 -23.938,-16.921 -13.466,-17.175 z"
                 fill="#ffffff"
                 id="path23" />
            </g>
            <ellipse
               transform="matrix(0.99911,0.042121,-0.032812,0.99946,0,0)"
               cx="216.98"
               cy="141.71001"
               rx="0.30408999"
               ry="0.32699999"
               fill="#cccccc"
               stroke-width="0.032052"
               id="ellipse23" />
            <ellipse
               transform="matrix(-0.98869,-0.14997,-0.12372,0.99232,0,0)"
               cx="-229.23"
               cy="117.28"
               rx="2.9870999"
               ry="3.2495999"
               fill="none"
               id="ellipse24" />
          </g>
        </g>
      </g>
    </g>
    <g
       transform="matrix(0.26458,0,0,0.26458,-731.87,-510.27)"
       id="g30">
      <g
         transform="translate(-352.25,60.347)"
         id="g29">
        <g
           transform="matrix(0.45476,0,0,0.45476,1907.3,1127.6)"
           stroke="#283f00"
           stroke-linecap="round"
           stroke-linejoin="round"
           stroke-miterlimit="10"
           id="g28">
          <path
             d="m 3221.8,2045.5 c -0.9497,27.558 -6.2188,82.753 -32.69,109.84 0,0 3.528,1.5642 15.013,1.5642 7.9184,0 14.338,-0.8178 14.338,-1.8267 0,-0.2149 15.526,-54.023 13.6,-110.85 l -10.261,1.2727 z"
             fill="#c1a778"
             stroke-width="0.61761"
             id="path27" />
          <path
             d="m 3235.9,2049.4 4.6006,3.4422 -0.2956,5.3781 3.5241,-0.9006 1.3881,7.7103 15.934,11.378 c 4.1419,-18.149 -2.2928,-33.317 -11.741,-42.512 l 10.342,-9.0257 5.2054,1.4055 -0.1572,-3.6304 7.8379,0.257 14.458,-13.208 c -23.962,-11.125 -46.516,-0.2072 -54.737,13.508 -4.7948,-12.78 -21.796,-25.452 -43.593,-20.158 l 9.9385,13.511 6.6193,1.1004 -0.7322,3.0217 4.5988,-0.3077 2.9039,3.762 c -13.957,-2.6944 -31.429,1.0842 -44.768,16.224 l 19.778,6.6906 7.5307,-3.6026 1.4192,3.6026 4.4672,-3.6026 8.5111,2.6696 c -3.2155,5.733 -4.9304,12.928 -3.8351,21.205 l 12.398,-7.2303 1.5335,-5.5352 2.5042,0.8965 0.1589,-3.9465 4.6195,-2.8276 9.7864,14.358 c 0,0 1.6669,-6.5542 -0.1969,-13.633 z"
             fill="#75c108"
             stroke-width="0.44507"
             id="path28" />
        </g>
      </g>
    </g>
    <g
       transform="matrix(0.10901,0,0,0.10901,-252.95,-161.51)"
       id="g39">
      <g
         transform="translate(-352.25,60.347)"
         id="g38">
        <g
           transform="matrix(0.13024,0,0,0.13024,2156.3,1790.8)"
           id="g37">
          <path
             d="m 4964.9,2184.7 c 0,12.865 -10.43,23.293 -23.294,23.293 h -166.32 c -12.864,0 -23.293,-10.429 -23.293,-23.293 0,-12.865 10.429,-23.293 23.293,-23.293 h 166.32 c 12.864,0 23.294,10.428 23.294,23.293 z"
             fill="#38200e"
             opacity="0.2"
             id="path30" />
          <g
             stroke="#283f00"
             stroke-linecap="round"
             stroke-linejoin="round"
             stroke-miterlimit="10"
             stroke-width="4.298"
             id="g36">
            <path
               d="m 4863.5,2174.7 v -31.525 c 0,-1.928 1.562,-3.493 3.501,-3.493 1.928,0 3.486,1.565 3.486,3.493 v 30.983 c 41.307,0.472 40.213,9.235 40.213,9.235 h -53.613 c -0.541,-5.616 3.346,-7.826 6.413,-8.693 z"
               fill="#ffde55"
               id="path31" />
            <path
               d="m 4847.2,2180.7 v -31.53 c 0,-1.928 1.559,-3.494 3.486,-3.494 1.939,0 3.5,1.566 3.5,3.494 v 30.983 c 41.308,0.472 40.213,9.235 40.213,9.235 h -53.624 c -0.532,-5.617 3.358,-7.821 6.425,-8.688 z"
               fill="#ffde55"
               id="path32" />
            <path
               d="m 4792.5,2130.8 c -0.064,-0.455 74.498,-73.248 99.785,-73.248 25.273,0 45.777,20.501 45.777,45.786 0,25.285 -20.504,45.786 -45.777,45.786 -21.063,0 -76.32,3.857 -94.206,-9.457 -27.938,50.054 -53.277,17.479 -53.277,17.479 z"
               fill="#ffffff"
               id="path33" />
            <path
               d="m 4928.7,2087.2 c 18.546,-6.072 30.256,-25.019 26.747,-44.773 -3.868,-21.628 -24.526,-36.031 -46.151,-32.179 -21.633,3.856 -36.028,24.509 -32.184,46.144 0.66,3.656 1.799,7.111 3.324,10.297"
               fill="#ffffff"
               id="path34" />
            <path
               d="m 4942,2077.8 c -21.202,2.194 -21.624,-18.449 -3.651,-20.469 0,0 8.05,-8.764 17.149,-14.869 11.481,13.818 32.543,14.939 34.655,36.768 z"
               fill="#ffde55"
               id="path35" />
            <path
               d="m 4919.7,2099.5 c 0,0 6.986,36.644 -23.314,39.557 0,0 -82.766,4.653 -81.596,-11.077 l 31.234,-13.405"
               fill="#ffffff"
               id="path36" />
          </g>
          <path
             d="m 4907.5,2044.8 c 1.094,3.954 5.188,6.278 9.145,5.173 3.961,-1.089 6.271,-5.195 5.176,-9.148 -1.094,-3.949 -5.188,-6.268 -9.152,-5.173 -3.954,1.104 -6.263,5.193 -5.169,9.148 z"
             fill="#283f00"
             id="path37" />
        </g>
      </g>
    </g>
  </g>
  <g
     transform="translate(-13.275002,-38.751549)"
     id="g44">
    <g
       transform="matrix(0.92895,-0.020679,0.012925,0.72824,55.479,5.1355)"
       fill="#2db337"
       id="g42">
      <path
         d="m 9.0677,127.45 c -2.6365,-6.3204 26.852179,-19.1214 36.096927,-17.15524 10.078,-0.65272 40.746073,8.32804 45.529073,17.20124 0.2996,0.55578 0.16868,0.31312 0.38521,0.78324 0.28639,0.6218 0.38004,1.2773 -0.0052,1.5815 -14.96,12.445 -66.933,11.824 -82.006,-2.4102 z"
         id="path40"
         sodipodi:nodetypes="ccssccc" />
      <path
         d="m 22.343,116.72 c -0.74942,-2.4622 -0.7975,-1.1977 -0.65354,-0.20845 -0.7557,-1.7773 0.29837,1.8116 -0.7571,-0.37545 0.71825,2.4474 -1.2421,-2.1879 -0.34002,0.5543 -1.0214,-1.8543 -1.1365,-2.1132 -0.37738,0.0416 -0.43726,-0.58316 -1.0452,-1.6686 -0.40279,0.50576 -0.63577,-0.44832 -0.46501,-0.9918 -0.49418,0.0412 -0.87665,-0.48991 0.49959,1.2221 -0.83125,-0.24842 0.06938,0.76185 -0.38668,0.0963 0.23554,1.6906 -0.80283,-1.24 -1.1162,-2.6669 -0.70438,-0.40216 -1.3306,-2.2868 0.07114,1.4603 -1.1812,-1.0193 -0.05934,0.32361 0.1264,1.542 0.19188,2.2298"
         stroke-opacity="0"
         id="path41" />
      <path
         d="m 80.205,119.5 c 0.78266,-2.441 0.81359,-1.1754 0.65624,-0.19034 0.77965,-1.7561 -0.32288,1.803 0.76204,-0.35445 -0.75132,2.4271 1.2715,-2.1531 0.33244,0.5636 1.0464,-1.8257 1.165,-2.0814 0.37675,0.0521 0.44508,-0.57094 1.0677,-1.6394 0.39586,0.51681 0.64173,-0.43065 0.47837,-0.97874 0.49353,0.0549 0.88314,-0.46552 -0.51607,1.2081 0.83446,-0.22535 -0.0797,0.75977 0.3853,0.10695 -0.25842,1.6837 0.81951,-1.2176 1.1522,-2.6355 0.7097,-0.38257 1.3613,-2.2495 -0.09093,1.4581 1.1948,-0.9864 0.05491,0.32522 -0.14729,1.5382 -0.22208,2.224"
         stroke-opacity="0"
         id="path42" />
    </g>
    <path
       d="m 102.63357,84.686164 c -5.089494,1.596511 -8.634335,4.377288 -9.275201,6.847541 -0.264619,4.20337 8.148411,7.322077 0.682841,13.609395 -0.27617,0.23321 -1.9075,1.7766 -1.6922,1.811 4.8504,0.77525 14.574,0.91548 20.074,0.0469 0.16693,-0.0264 1.91781,-0.20022 1.88251,-0.50969 0,0 2.36118,-5.57572 -2.70792,-7.826366 -18.770924,-8.33417 -7.91252,-11.678678 -3.80581,-13.890878"
       fill="#b0c767"
       id="path43"
       sodipodi:nodetypes="ccccccsc" />
  </g>
</svg>
