<?xml version="1.0" encoding="UTF-8" standalone="no"?>
<svg
   inkscape:export-ydpi="128.44003"
   inkscape:export-xdpi="128.44003"
   inkscape:export-filename="/home/russs/Documents/GEA NextCloud/Vision Ecobrick Source Files/GEA Logos/GEA Logos/Emblem with Perspective/2020 GEA Logo with perspective.png"
   sodipodi:docname="learning-night.svg"
   inkscape:version="1.4.2 (2aeb623e1d, 2025-05-12)"
   id="svg92220"
   version="1.1"
   viewBox="0 0 154.28471 206.47604"
   height="206.47604mm"
   width="154.28471mm"
   xmlns:inkscape="http://www.inkscape.org/namespaces/inkscape"
   xmlns:sodipodi="http://sodipodi.sourceforge.net/DTD/sodipodi-0.dtd"
   xmlns="http://www.w3.org/2000/svg"
   xmlns:svg="http://www.w3.org/2000/svg"
   xmlns:rdf="http://www.w3.org/1999/02/22-rdf-syntax-ns#"
   xmlns:cc="http://creativecommons.org/ns#"
   xmlns:dc="http://purl.org/dc/elements/1.1/">
  <defs
     id="defs92214">
    <filter
       id="filter92872"
       inkscape:label="Drop Shadow"
       style="color-interpolation-filters:sRGB"
       x="-0.085281372"
       y="-0.077997036"
       width="1.1705627"
       height="1.1537247">
      <feFlood
         id="feFlood92862"
         result="flood"
         flood-color="rgb(0,0,0)"
         flood-opacity="0.262745" />
      <feComposite
         id="feComposite92864"
         result="composite1"
         operator="in"
         in2="SourceGraphic"
         in="flood" />
      <feGaussianBlur
         id="feGaussianBlur92866"
         result="blur"
         stdDeviation="6.95187"
         in="composite1" />
      <feOffset
         id="feOffset92868"
         result="offset"
         dy="-0.5"
         dx="-2.77556e-17" />
      <feComposite
         id="feComposite92870"
         result="composite2"
         operator="atop"
         in2="offset"
         in="offset" />
    </filter>
  </defs>
  <sodipodi:namedview
     inkscape:document-rotation="0"
     fit-margin-bottom="0"
     fit-margin-right="0"
     fit-margin-left="0"
     fit-margin-top="0"
     inkscape:window-maximized="1"
     inkscape:window-y="40"
     inkscape:window-x="0"
     inkscape:window-height="1425"
     inkscape:window-width="2256"
     showgrid="false"
     inkscape:current-layer="layer1"
     inkscape:document-units="mm"
     inkscape:cy="636.14029"
     inkscape:cx="1489.3652"
     inkscape:zoom="0.36391344"
     inkscape:pageshadow="2"
     inkscape:pageopacity="0.0"
     borderopacity="1.0"
     bordercolor="#666666"
     pagecolor="#ffffff"
     id="base"
     inkscape:showpageshadow="2"
     inkscape:pagecheckerboard="0"
     inkscape:deskcolor="#d1d1d1" />
  <metadata
     id="metadata92217">
    <rdf:RDF>
      <cc:Work
         rdf:about="">
        <dc:format>image/svg+xml</dc:format>
        <dc:type
           rdf:resource="http://purl.org/dc/dcmitype/StillImage" />
      </cc:Work>
    </rdf:RDF>
  </metadata>
  <g
     transform="translate(-29.384092,-57.845122)"
     id="layer1"
     inkscape:groupmode="layer"
     inkscape:label="Layer 1">
    <path
       style="font-weight:bold;font-size:107.452px;line-height:1.4;font-family:Arvo;-inkscape-font-specification:'Arvo Bold';letter-spacing:0px;fill:#4d4d4d;stroke-width:1.31901"
       d="m 44.719037,236.93895 h 8.97075 v 3.80117 H 51.4782 v 13.36627 h 4.561397 q 0.179691,0 0.345561,-0.0968 0.179691,-0.11058 0.304093,-0.27645 0.138225,-0.16587 0.221159,-0.35938 0.08293,-0.19351 0.08293,-0.3732 v -2.80596 h 4.478462 v 7.69909 H 44.719037 v -3.78735 h 2.17012 v -13.36627 h -2.17012 z m 21.867063,14.69323 0.04147,0.4285 q 0.152046,0.62201 0.51143,1.09197 0.373205,0.46996 0.870812,0.78788 0.497605,0.31792 1.105792,0.48378 0.608187,0.15205 1.230197,0.15205 0.622007,0 1.174903,-0.0692 0.56672,-0.083 1.091972,-0.20734 0.525252,-0.13822 1.022858,-0.30409 0.497608,-0.1797 1.009037,-0.37321 l 1.520466,2.8336 q -0.787878,0.48378 -1.451355,0.82935 -0.649651,0.33173 -1.313128,0.55289 -0.663477,0.22116 -1.409886,0.31791 -0.74641,0.11058 -1.741624,0.11058 -1.866027,0 -3.317381,-0.60819 -1.451355,-0.622 -2.446569,-1.67251 -0.98139,-1.0505 -1.506642,-2.46039 -0.511428,-1.40988 -0.511428,-2.98563 0,-1.57576 0.539075,-2.958 0.552896,-1.38224 1.548109,-2.4051 0.995213,-1.03668 2.377455,-1.63105 1.382242,-0.59436 3.068578,-0.59436 1.686334,0 2.985639,0.56671 1.31313,0.5529 2.211587,1.54811 0.898457,0.9814 1.382242,2.32217 0.483785,1.32695 0.525252,2.86125 0.04147,0.34555 0.04147,0.69111 0.01383,0.33174 -0.01383,0.69113 z m 3.303556,-5.22487 q -0.774055,0 -1.326951,0.19352 -0.539076,0.17968 -0.91228,0.51142 -0.373205,0.31792 -0.594363,0.73259 -0.221159,0.41468 -0.345561,0.87081 h 5.985106 q -0.09676,-0.46996 -0.276447,-0.88463 -0.179692,-0.41467 -0.497608,-0.73259 -0.317914,-0.31792 -0.815523,-0.4976 -0.483785,-0.19352 -1.216373,-0.19352 z m 18.176478,10.71237 q -0.483783,0.3041 -0.884633,0.52525 -0.400851,0.20734 -0.801702,0.33175 -0.400847,0.13821 -0.829343,0.19351 -0.428494,0.0692 -0.939926,0.0692 -1.285484,0 -2.308342,-0.34556 -1.009038,-0.35938 -1.71398,-0.96757 -0.69112,-0.622 -1.064327,-1.45136 -0.373204,-0.84317 -0.373204,-1.82456 0,-0.99521 0.373204,-1.83837 0.387027,-0.84317 1.105795,-1.43754 0.718765,-0.60818 1.755446,-0.93992 1.050504,-0.34556 2.391279,-0.34556 0.981391,0 1.78309,0.11058 0.815522,0.0968 1.506643,0.2488 v -0.44232 q 0,-0.53907 -0.207335,-0.9261 -0.207336,-0.40084 -0.580541,-0.64965 -0.373207,-0.26263 -0.898459,-0.37321 -0.52525,-0.1244 -1.147259,-0.1244 -1.299308,0 -2.294521,0.26263 -0.981392,0.2488 -1.893672,0.73258 l -1.326951,-2.68154 q 1.409886,-0.96757 2.944172,-1.479 1.548114,-0.51143 3.275916,-0.51143 1.340774,0 2.47421,0.30409 1.147263,0.29027 1.962785,0.96756 0.815522,0.66348 1.271661,1.74163 0.469964,1.07815 0.469964,2.62626 v 5.21106 h 1.921315 v 3.78734 h -5.971285 z m -3.151511,-2.14247 q 0.981393,0 1.783093,-0.31792 0.801699,-0.31791 1.368418,-0.77405 v -1.82456 h -3.317379 q -0.317915,0 -0.622008,0.0968 -0.304093,0.0968 -0.552899,0.27645 -0.23498,0.1797 -0.387027,0.44233 -0.138222,0.26261 -0.138222,0.60818 0,0.63583 0.456139,1.06433 0.469962,0.42849 1.409885,0.42849 z M 109.947,248.78476 h -3.88411 v -1.47899 q -0.56671,0 -1.03668,0.083 -0.46995,0.0692 -0.82934,0.24879 -0.34555,0.1797 -0.59437,0.49762 -0.23497,0.31791 -0.33173,0.78788 v 5.1834 h 2.91653 v 3.78735 h -9.343932 v -3.78735 h 2.142448 v -6.74533 h -2.114808 v -3.78735 h 6.372122 v 1.00904 q 0.60819,-0.48379 1.36841,-0.74642 0.76024,-0.26262 1.65869,-0.26262 0.91228,0 1.87985,0.0138 0.96757,0.0138 1.79692,0.0138 z m 14.1265,0.87082 q 0,-1.20255 -0.63583,-1.87985 -0.63583,-0.69112 -1.68633,-0.69112 -0.71877,0 -1.45136,0.31791 -0.73258,0.31792 -1.42371,1.18873 v 5.51514 h 2.32217 v 3.78735 h -8.90163 v -3.78735 h 2.101 v -6.74533 h -2.07336 v -3.78734 h 6.52418 v 1.25784 q 0.89845,-0.70494 2.00425,-1.1058 1.11961,-0.41467 2.34981,-0.41467 2.58479,0 3.98086,1.45135 1.39607,1.43753 1.39607,4.21584 v 5.12811 h 2.03189 v 3.78735 h -6.53801 z m 8.40403,-6.08186 h 6.42743 v 10.53267 h 1.99042 v 3.78735 h -8.41785 v -3.78735 h 2.1563 v -6.74533 h -2.1563 z m 1.93514,-4.61669 q 0,-0.51143 0.1797,-0.95375 0.19351,-0.45615 0.52524,-0.78787 0.33175,-0.33174 0.77406,-0.52526 0.45614,-0.19351 0.98139,-0.19351 0.49761,0 0.93993,0.19351 0.44231,0.19352 0.77405,0.52526 0.33175,0.33172 0.52526,0.78787 0.19351,0.44232 0.19351,0.95375 0,0.51143 -0.19351,0.96757 -0.19351,0.44231 -0.52526,0.77406 -0.33174,0.33173 -0.77405,0.52524 -0.44232,0.19352 -0.93993,0.19352 -0.52525,0 -0.98139,-0.19352 -0.44231,-0.19351 -0.77406,-0.52524 -0.33173,-0.33175 -0.52524,-0.77406 -0.1797,-0.45614 -0.1797,-0.96757 z m 20.76127,10.69855 q 0,-1.20255 -0.63583,-1.87985 -0.63583,-0.69112 -1.68634,-0.69112 -0.71877,0 -1.45135,0.31791 -0.73259,0.31792 -1.42371,1.18873 v 5.51514 h 2.32217 v 3.78735 h -8.90164 v -3.78735 h 2.10101 v -6.74533 h -2.07337 v -3.78734 h 6.52419 v 1.25784 q 0.89845,-0.70494 2.00425,-1.1058 1.11961,-0.41467 2.34981,-0.41467 2.58479,0 3.98086,1.45135 1.39606,1.43753 1.39606,4.21584 v 5.12811 h 2.0319 v 3.78735 h -6.53801 z m 19.03347,7.49174 q -0.77405,0.44233 -1.54811,0.63584 -0.77406,0.19352 -1.57576,0.19352 -1.65868,0 -3.05475,-0.56673 -1.39607,-0.56671 -2.41892,-1.56193 -1.00904,-1.00903 -1.57575,-2.37745 -0.56673,-1.36842 -0.56673,-2.97183 0,-1.50664 0.53908,-2.83359 0.55289,-1.34077 1.53429,-2.33599 0.98139,-1.00903 2.3498,-1.58957 1.36843,-0.58054 2.97182,-0.59437 0.9814,0.0138 1.79692,0.20734 0.82935,0.19352 1.54811,0.52525 v -0.30409 h 4.1882 v 13.72566 q 0,1.81073 -0.62202,3.12386 -0.62201,1.32696 -1.67251,2.18394 -1.03668,0.87081 -2.41892,1.28549 -1.38224,0.42849 -2.90271,0.42849 -1.87985,0 -3.48324,-0.51143 -1.58958,-0.51142 -2.83361,-1.38224 l 1.72781,-3.06857 q 0.95374,0.60818 2.07337,0.95374 1.11961,0.35938 2.48803,0.35938 0.74641,0 1.36841,-0.16587 0.63584,-0.16586 1.09197,-0.56672 0.46997,-0.38703 0.73259,-1.0505 0.26263,-0.66347 0.26263,-1.67251 z m -2.98564,-2.99945 q 0.96757,0 1.74163,-0.48379 0.78788,-0.49761 1.24401,-1.29931 l 0.0276,-3.48325 q -0.46995,-0.87081 -1.28549,-1.38224 -0.81552,-0.51142 -1.76926,-0.52525 -0.67729,0.0138 -1.32695,0.27645 -0.64966,0.2488 -1.13344,0.71877 -0.46995,0.46996 -0.74641,1.11961 -0.27645,0.63583 -0.27645,1.42371 0,0.82934 0.27645,1.50664 0.27646,0.6773 0.74641,1.14726 0.46997,0.46996 1.1058,0.73259 0.64965,0.24881 1.39606,0.24881 z"
       id="text1"
       aria-label="Learning" />
    <g
       transform="matrix(0.99033616,0,0,1,-0.24008981,3.1750001)"
       id="g22866">
      <path
         id="path22806"
         d="m 57.667603,152.74436 c -9.25023,-1.35344 -19.06138,-7.67961 -23.50168,-15.15375 -6.52072,-10.97599 -5.47984,-24.12571 2.69018,-33.98583 9.24594,-11.158595 25.30589,-15.484308 39.55101,-10.652971 9.60125,3.256338 17.37464,10.864171 20.45514,20.019491 1.18117,3.51041 1.60489,9.90451 0.91783,13.84995 -2.11156,12.12547 -13.2933,22.85979 -26.69336,25.62528 -3.53138,0.7288 -9.55923,0.86258 -13.41912,0.29783 z m 13.69532,-25.06612 c 2.33566,-0.87388 4.72691,-3.05334 5.69893,-5.1942 0.91624,-2.01795 0.92305,-5.72342 0.0142,-7.7245 -1.48849,-3.27735 -4.93029,-5.50919 -9.02538,-5.85251 -4.94843,-0.41486 -9.20229,1.95179 -10.99388,6.11648 -1.1678,2.71459 -0.95213,6.09357 0.54254,8.50064 1.13981,1.83556 3.83693,3.94447 5.75577,4.50047 2.10551,0.61011 5.88877,0.44646 8.00781,-0.34638 z"
         style="fill:#ff13ff;fill-opacity:1;stroke:none;stroke-width:0.255555;stop-color:#000000" />
      <path
         id="path22808"
         d="m 91.761503,95.146297 c -6.03227,-1.102394 -10.81686,-3.273692 -15.61404,-7.08583 -7.75245,-6.160595 -11.29815,-14.300774 -9.5199,-21.855751 1.2517,-5.317977 5.70694,-9.333242 12.25786,-11.047362 3.20627,-0.838954 10.3193,-0.557091 14.09302,0.558456 8.894847,2.629386 15.926407,8.084883 19.653067,15.247979 2.98316,5.734017 3.27648,10.437523 0.94567,15.164101 -3.47214,7.04106 -12.41235,10.736858 -21.815677,9.018407 z m 5.60982,-15.97 c 0.63114,-0.326383 1.46687,-1.117137 1.85716,-1.757231 2.588787,-4.245746 -2.97812,-10.433699 -9.38653,-10.433699 -6.30533,0 -7.50953,6.862705 -1.92487,10.969718 2.86978,2.110453 6.76231,2.613255 9.45424,1.221212 z"
         style="fill:#ff0000;fill-opacity:1;stroke:none;stroke-width:0.255555;stop-color:#000000" />
      <path
         id="path22810"
         d="m 139.14667,96.049984 c -4.27464,-0.647131 -9.8151,-3.548941 -13.86329,-7.260899 -6.12678,-5.617882 -9.81617,-13.84172 -8.64972,-19.280689 0.77912,-3.63287 3.06033,-6.36779 6.52629,-7.82429 1.69972,-0.714278 7.37893,-0.673467 9.88596,0.07104 6.76189,2.008068 13.49781,7.328567 17.35654,13.709422 4.01897,6.645825 4.02817,14.148781 0.022,17.948629 -2.44458,2.318687 -6.74203,3.323445 -11.27777,2.636787 z m 0.60256,-13.276781 c 4.55156,-2.159856 0.19972,-10.213677 -5.90989,-10.937271 -1.73579,-0.205579 -1.94625,-0.14272 -2.97861,0.889638 -0.84498,0.844987 -1.11084,1.438082 -1.11084,2.478137 0,2.932467 2.74556,6.413648 5.95648,7.552409 1.96765,0.697834 2.60264,0.700517 4.04286,0.01709 z"
         style="fill:#fa8d04;fill-opacity:1;stroke:none;stroke-width:0.255555;stop-color:#000000" />
      <path
         id="path22818"
         d="m 170.19041,135.15057 c -4.41017,-0.97864 -8.84675,-3.81852 -13.23856,-8.47406 -5.23696,-5.55146 -8.11825,-11.25796 -9.02385,-17.87213 -0.63718,-4.65377 0.26393,-8.7691 2.55296,-11.65924 3.44278,-4.346866 10.75094,-4.611124 17.35649,-0.6276 6.47649,3.90569 11.85812,10.52185 14.66251,18.02605 1.03002,2.7562 1.19746,3.70316 1.32892,7.51583 0.13263,3.8467 0.0549,4.61661 -0.6578,6.51394 -1.99023,5.29842 -7.09267,7.88379 -12.98067,6.57721 z m 1.14557,-16.52738 c 0.62187,-0.62195 0.75888,-1.18683 0.73404,-3.02652 -0.065,-4.81172 -4.04744,-9.31826 -8.25618,-9.34261 -2.16079,-0.0125 -3.16526,1.2216 -3.16077,3.88339 0.008,4.91806 4.47503,9.86171 8.50175,9.40949 0.78023,-0.0876 1.76003,-0.50259 2.18116,-0.92375 z"
         style="fill:#fddf00;fill-opacity:1;stroke:none;stroke-width:0.255555;stop-color:#000000" />
      <path
         id="path22820"
         d="m 123.97384,141.85511 c -16.88788,-4.42269 -27.812837,-25.14445 -20.84932,-39.54566 1.39011,-2.874865 5.08513,-6.48007 8.21033,-8.010753 10.74769,-5.264092 25.84667,1.400122 32.92745,14.533153 5.93707,11.01174 5.01489,22.26088 -2.37884,29.01834 -4.72343,4.31695 -11.19349,5.76377 -17.90962,4.00492 z m 6.86662,-19.55149 c 0.49984,-0.35766 1.28876,-1.37685 1.75313,-2.26487 2.64788,-5.06353 -2.33721,-12.68613 -8.29658,-12.68613 -2.56399,0 -4.61577,1.11697 -5.45718,2.97084 -2.07019,4.56122 0.99593,11.0129 6.00247,12.63032 1.5268,0.49325 4.91317,0.12619 5.99816,-0.65016 z"
         style="fill:#999999;fill-opacity:1;stroke:none;stroke-width:0.255555;stop-color:#000000" />
      <path
         id="path22822"
         d="m 102.44266,222.86994 c -2.609027,-0.32932 -4.932167,-1.11811 -8.662297,-2.94124 -2.46895,-1.20671 -3.80576,-2.20891 -6.82366,-5.11565 -5.32395,-5.1279 -8.06429,-9.53221 -10.43847,-16.77689 -1.57938,-4.81942 -2.14546,-8.85827 -2.16539,-15.44982 -0.0204,-6.74652 0.52093,-10.28688 2.37758,-15.54974 4.54609,-12.88625 13.506,-22.07946 24.193397,-24.82328 3.11628,-0.80007 8.46749,-0.97647 11.55862,-0.38103 5.26719,1.01459 10.88441,4.13967 15.07051,8.38431 10.74668,10.89698 14.71629,28.9454 9.97904,45.37113 -1.04611,3.62721 -3.80252,9.61986 -5.82927,12.6733 -4.23908,6.38645 -11.81241,12.15485 -18.34545,13.97322 -2.09877,0.58416 -8.41046,0.95177 -10.91461,0.63569 z m 10.41067,-33.87004 c 2.34514,-1.09206 5.0049,-4.04369 5.97126,-6.62654 0.83893,-2.24225 1.03395,-7.644 0.36318,-10.05938 -0.61285,-2.20681 -3.28284,-5.77959 -5.20965,-6.97116 -1.51906,-0.93941 -2.05808,-1.0661 -4.51846,-1.06197 -3.23634,0.005 -4.47306,0.51471 -6.61859,2.72553 -2.869557,2.95687 -4.416917,8.1492 -3.678237,12.34271 0.44409,2.52114 1.899277,5.92315 3.071017,7.17962 2.99049,3.20669 7.02428,4.14537 10.61948,2.47119 z"
         style="fill:#00e6ff;fill-opacity:1;stroke:none;stroke-width:0.255555;stop-color:#000000" />
      <path
         id="path22824"
         d="m 166.38476,196.3701 c -7.70422,-1.12849 -16.52076,-8.83497 -21.52502,-18.81489 -3.42167,-6.82378 -5.13036,-14.65983 -4.8084,-22.05148 0.22139,-5.08294 0.82226,-7.56122 2.86453,-11.81457 4.28764,-8.92976 12.90321,-11.83332 22.07288,-7.43888 8.3075,3.98127 15.47078,13.21883 18.87664,24.3428 1.6615,5.42668 1.97224,7.90422 1.7934,14.299 -0.14458,5.16957 -0.26035,5.98385 -1.25512,8.82765 -3.21229,9.18319 -9.85431,13.84629 -18.01891,12.65037 z m 1.53918,-24.87329 c 0.58211,-0.30102 1.45604,-1.24165 1.94207,-2.09027 1.77497,-3.09918 1.54907,-6.87742 -0.68336,-11.42938 -3.44099,-7.01625 -10.55914,-7.96103 -12.39519,-1.64521 -2.34838,8.07813 5.13494,18.26837 11.13648,15.16486 z"
         style="fill:#05f30a;fill-opacity:1;stroke:none;stroke-width:0.255555;stop-color:#000000" />
    </g>
  </g>
</svg>
