<?xml version="1.0" encoding="UTF-8" standalone="no"?>
<svg
   inkscape:export-ydpi="128.44003"
   inkscape:export-xdpi="128.44003"
   inkscape:export-filename="/home/russs/Documents/GEA NextCloud/Vision Ecobrick Source Files/GEA Logos/GEA Logos/Emblem with Perspective/2020 GEA Logo with perspective.png"
   sodipodi:docname="learning-night.svg"
   inkscape:version="1.4.2 (2aeb623e1d, 2025-05-12)"
   id="svg92220"
   version="1.1"
   viewBox="0 0 686.48327 168.31599"
   height="168.31599mm"
   width="686.48328mm"
   xmlns:inkscape="http://www.inkscape.org/namespaces/inkscape"
   xmlns:sodipodi="http://sodipodi.sourceforge.net/DTD/sodipodi-0.dtd"
   xmlns="http://www.w3.org/2000/svg"
   xmlns:svg="http://www.w3.org/2000/svg"
   xmlns:rdf="http://www.w3.org/1999/02/22-rdf-syntax-ns#"
   xmlns:cc="http://creativecommons.org/ns#"
   xmlns:dc="http://purl.org/dc/elements/1.1/">
  <defs
     id="defs92214">
    <filter
       id="filter92872"
       inkscape:label="Drop Shadow"
       style="color-interpolation-filters:sRGB"
       x="-0.085281372"
       y="-0.077997036"
       width="1.1705627"
       height="1.1537247">
      <feFlood
         id="feFlood92862"
         result="flood"
         flood-color="rgb(0,0,0)"
         flood-opacity="0.262745" />
      <feComposite
         id="feComposite92864"
         result="composite1"
         operator="in"
         in2="SourceGraphic"
         in="flood" />
      <feGaussianBlur
         id="feGaussianBlur92866"
         result="blur"
         stdDeviation="6.95187"
         in="composite1" />
      <feOffset
         id="feOffset92868"
         result="offset"
         dy="-0.5"
         dx="-2.77556e-17" />
      <feComposite
         id="feComposite92870"
         result="composite2"
         operator="atop"
         in2="offset"
         in="offset" />
    </filter>
  </defs>
  <sodipodi:namedview
     inkscape:document-rotation="0"
     fit-margin-bottom="0"
     fit-margin-right="0"
     fit-margin-left="0"
     fit-margin-top="0"
     inkscape:window-maximized="1"
     inkscape:window-y="40"
     inkscape:window-x="0"
     inkscape:window-height="1425"
     inkscape:window-width="2256"
     showgrid="false"
     inkscape:current-layer="layer1"
     inkscape:document-units="mm"
     inkscape:cy="636.14029"
     inkscape:cx="1489.3652"
     inkscape:zoom="0.36391344"
     inkscape:pageshadow="2"
     inkscape:pageopacity="0.0"
     borderopacity="1.0"
     bordercolor="#666666"
     pagecolor="#ffffff"
     id="base"
     inkscape:showpageshadow="2"
     inkscape:pagecheckerboard="0"
     inkscape:deskcolor="#d1d1d1" />
  <metadata
     id="metadata92217">
    <rdf:RDF>
      <cc:Work
         rdf:about="">
        <dc:format>image/svg+xml</dc:format>
        <dc:type
           rdf:resource="http://purl.org/dc/dcmitype/StillImage" />
      </cc:Work>
    </rdf:RDF>
  </metadata>
  <g
     transform="translate(-29.384092,-57.845122)"
     id="layer1"
     inkscape:groupmode="layer"
     inkscape:label="Layer 1">
    <path
       style="font-weight:bold;font-size:107.452px;line-height:1.4;font-family:Arvo;-inkscape-font-specification:'Arvo Bold';letter-spacing:0px;fill:#4d4d4d;stroke-width:5.00666"
       d="m 208.46097,93.991141 h 34.05096 v 14.428369 h -8.39469 v 50.73539 h 17.31404 q 0.68207,0 1.31167,-0.36726 0.68207,-0.41974 1.15427,-1.04934 0.52467,-0.6296 0.83947,-1.36414 0.3148,-0.73453 0.3148,-1.4166 V 144.3068 h 16.99924 v 29.22401 H 208.46097 V 159.1549 h 8.23729 v -50.73539 h -8.23729 z m 83.00248,55.772209 0.1574,1.62647 q 0.57713,2.361 1.94127,4.14488 1.4166,1.78387 3.30541,2.9906 1.8888,1.20674 4.19734,1.83634 2.30854,0.57714 4.66955,0.57714 2.361,0 4.45967,-0.26234 2.15114,-0.3148 4.14488,-0.787 1.99374,-0.52467 3.88254,-1.15427 1.88881,-0.68207 3.83008,-1.4166 l 5.77135,10.75569 q -2.99061,1.83634 -5.50902,3.14801 -2.46593,1.2592 -4.98434,2.09867 -2.51841,0.83947 -5.35161,1.20674 -2.83321,0.41973 -6.61082,0.41973 -7.08302,0 -12.59203,-2.30854 -5.50902,-2.361 -9.28663,-6.34848 -3.72514,-3.98748 -5.71888,-9.33909 -1.94127,-5.35161 -1.94127,-11.33283 0,-5.98121 2.04621,-11.22789 2.09867,-5.24668 5.87628,-9.12923 3.77761,-3.93501 9.02429,-6.19108 5.24668,-2.25607 11.64763,-2.25607 6.40095,0 11.33282,2.15114 4.98435,2.09867 8.39469,5.87628 3.41034,3.72514 5.24668,8.81442 1.83634,5.03681 1.99374,10.86063 0.1574,1.31167 0.1574,2.62334 0.0525,1.2592 -0.0525,2.62334 z m 12.53956,-19.83245 q -2.93814,0 -5.03681,0.73453 -2.04621,0.68207 -3.46281,1.94127 -1.4166,1.20674 -2.25607,2.78074 -0.83947,1.57401 -1.31167,3.30541 h 22.71812 q -0.36727,-1.78387 -1.04933,-3.35787 -0.68207,-1.57401 -1.88881,-2.78074 -1.20673,-1.20674 -3.09554,-1.88881 -1.83634,-0.73453 -4.61708,-0.73453 z m 68.99384,40.66177 q -1.83633,1.15427 -3.35787,1.99374 -1.52154,0.787 -3.04308,1.2592 -1.52153,0.52467 -3.148,0.73453 -1.62647,0.26234 -3.56775,0.26234 -4.87941,0 -8.76195,-1.31167 -3.83008,-1.36414 -6.50588,-3.67268 -2.62334,-2.361 -4.03995,-5.50901 -1.4166,-3.20048 -1.4166,-6.92562 0,-3.77761 1.4166,-6.97808 1.46907,-3.20048 4.19735,-5.45655 2.72827,-2.30854 6.66328,-3.56774 3.98748,-1.31167 9.07676,-1.31167 3.72514,0 6.76821,0.41973 3.09554,0.36727 5.71888,0.9444 v -1.67893 q 0,-2.04621 -0.787,-3.51528 -0.787,-1.52154 -2.2036,-2.46594 -1.41661,-0.99687 -3.41035,-1.4166 -1.99373,-0.4722 -4.35474,-0.4722 -4.93188,0 -8.70949,0.99687 -3.72514,0.9444 -7.18795,2.78074 l -5.03681,-10.17856 q 5.35161,-3.67268 11.17542,-5.61395 5.87629,-1.94127 12.43464,-1.94127 5.08928,0 9.39155,1.15427 4.35475,1.1018 7.45029,3.67267 3.09554,2.51841 4.82694,6.61082 1.78388,4.09241 1.78388,9.96869 v 19.77998 h 7.29288 v 14.37591 h -22.66566 z m -11.96243,-8.13236 q 3.72515,0 6.76822,-1.20673 3.04307,-1.20674 5.19421,-2.93814 v -6.92562 h -12.59203 q -1.20673,0 -2.361,0.36727 -1.15427,0.36726 -2.09868,1.04933 -0.89193,0.68207 -1.46907,1.67894 -0.52466,0.99687 -0.52466,2.30854 0,2.41347 1.7314,4.03994 1.78387,1.62647 5.35161,1.62647 z m 95.01737,-23.50512 h -14.74317 v -5.61395 q -2.15113,0 -3.93501,0.3148 -1.78387,0.26233 -3.148,0.9444 -1.31167,0.68207 -2.25608,1.88881 -0.89193,1.20673 -1.2592,2.99061 v 19.67504 h 11.0705 v 14.37591 H 406.31327 V 159.1549 h 8.13235 V 133.55111 H 406.4182 V 119.1752 h 24.1872 v 3.83008 q 2.30854,-1.83634 5.19421,-2.83321 2.88567,-0.99687 6.29602,-0.99687 3.4628,0 7.13548,0.0525 3.67268,0.0525 6.82068,0.0525 z m 53.62107,3.30541 q 0,-4.56462 -2.41347,-7.13549 -2.41348,-2.62334 -6.40095,-2.62334 -2.72828,0 -5.50902,1.20674 -2.78074,1.20673 -5.40408,4.51214 v 20.93425 h 8.81443 v 14.37591 H 464.97115 V 159.1549 h 7.97495 v -25.60379 h -7.87002 V 119.1752 h 24.76433 v 4.77448 q 3.41034,-2.6758 7.60769,-4.19734 4.24981,-1.57401 8.91935,-1.57401 9.81129,0 15.11044,5.50902 5.29915,5.45655 5.29915,16.00237 v 19.46518 h 7.71262 v 14.37591 h -24.8168 z m 31.89982,-23.0854 h 24.39706 v 39.9797 h 7.55522 v 14.37591 H 541.57268 V 159.1549 h 8.18482 v -25.60379 h -8.18482 z m 7.34535,-17.52391 q 0,-1.941268 0.68207,-3.620206 0.73453,-1.731404 1.99374,-2.990607 1.2592,-1.259203 2.93814,-1.993739 1.7314,-0.734535 3.72514,-0.734535 1.88881,0 3.56774,0.734535 1.67894,0.734536 2.93814,1.993739 1.25921,1.259203 1.99374,2.990607 0.73454,1.678938 0.73454,3.620206 0,1.94127 -0.73454,3.67268 -0.73453,1.67894 -1.99374,2.93814 -1.2592,1.2592 -2.93814,1.99374 -1.67893,0.73453 -3.56774,0.73453 -1.99374,0 -3.72514,-0.73453 -1.67894,-0.73454 -2.93814,-1.99374 -1.25921,-1.2592 -1.99374,-2.93814 -0.68207,-1.73141 -0.68207,-3.67268 z m 78.80512,40.60931 q 0,-4.56462 -2.41347,-7.13549 -2.41347,-2.62334 -6.40095,-2.62334 -2.72827,0 -5.50901,1.20674 -2.78074,1.20673 -5.40408,4.51214 v 20.93425 h 8.81442 v 14.37591 H 583.02144 V 159.1549 h 7.97495 v -25.60379 h -7.87002 V 119.1752 h 24.76433 v 4.77448 q 3.41034,-2.6758 7.60769,-4.19734 4.24981,-1.57401 8.91935,-1.57401 9.8113,0 15.11044,5.50902 5.29915,5.45655 5.29915,16.00237 v 19.46518 h 7.71262 v 14.37591 h -24.8168 z m 72.24679,28.437 q -2.93814,1.67894 -5.87628,2.41347 -2.93814,0.73454 -5.98122,0.73454 -6.29601,0 -11.59516,-2.15114 -5.29914,-2.15114 -9.18169,-5.92875 -3.83007,-3.83007 -5.98121,-9.02429 -2.15114,-5.19421 -2.15114,-11.28036 0,-5.71888 2.0462,-10.75569 2.09868,-5.08928 5.82382,-8.86689 3.72514,-3.83008 8.91935,-6.03368 5.19422,-2.20361 11.28037,-2.25608 3.72514,0.0525 6.82068,0.78701 3.14801,0.73453 5.87628,1.99373 v -1.15427 h 15.89744 v 52.09954 q 0,6.87315 -2.36101,11.85749 -2.361,5.03681 -6.34848,8.28976 -3.93501,3.3054 -9.18169,4.87941 -5.24668,1.62647 -11.01803,1.62647 -7.13548,0 -13.22163,-1.94127 -6.03368,-1.94127 -10.75569,-5.24668 l 6.55835,-11.64763 q 3.62021,2.30854 7.87002,3.62021 4.24981,1.36413 9.44402,1.36413 2.83321,0 5.19421,-0.6296 2.41348,-0.6296 4.14488,-2.15114 1.78387,-1.46907 2.78074,-3.98747 0.99687,-2.51841 0.99687,-6.34849 z m -11.33283,-11.38529 q 3.67268,0 6.61082,-1.83634 2.99061,-1.88881 4.72201,-4.93188 l 0.10493,-13.22164 q -1.78387,-3.3054 -4.87941,-5.24668 -3.09554,-1.94127 -6.71575,-1.99373 -2.57087,0.0525 -5.03681,1.04933 -2.46594,0.9444 -4.30228,2.72828 -1.78387,1.78387 -2.83321,4.24981 -1.04933,2.41347 -1.04933,5.40408 0,3.148 1.04933,5.71888 1.04934,2.57087 2.83321,4.35474 1.78387,1.78387 4.19735,2.78074 2.46594,0.94441 5.29914,0.94441 z"
       id="text1"
       aria-label="Learning" />
    <g
       transform="matrix(0.99033616,0,0,1,-0.24008981,3.1750001)"
       id="g22866">
      <path
         id="path22806"
         d="m 57.667603,152.74436 c -9.25023,-1.35344 -19.06138,-7.67961 -23.50168,-15.15375 -6.52072,-10.97599 -5.47984,-24.12571 2.69018,-33.98583 9.24594,-11.158595 25.30589,-15.484308 39.55101,-10.652971 9.60125,3.256338 17.37464,10.864171 20.45514,20.019491 1.18117,3.51041 1.60489,9.90451 0.91783,13.84995 -2.11156,12.12547 -13.2933,22.85979 -26.69336,25.62528 -3.53138,0.7288 -9.55923,0.86258 -13.41912,0.29783 z m 13.69532,-25.06612 c 2.33566,-0.87388 4.72691,-3.05334 5.69893,-5.1942 0.91624,-2.01795 0.92305,-5.72342 0.0142,-7.7245 -1.48849,-3.27735 -4.93029,-5.50919 -9.02538,-5.85251 -4.94843,-0.41486 -9.20229,1.95179 -10.99388,6.11648 -1.1678,2.71459 -0.95213,6.09357 0.54254,8.50064 1.13981,1.83556 3.83693,3.94447 5.75577,4.50047 2.10551,0.61011 5.88877,0.44646 8.00781,-0.34638 z"
         style="fill:#ff13ff;fill-opacity:1;stroke:none;stroke-width:0.255555;stop-color:#000000" />
      <path
         id="path22808"
         d="m 91.761503,95.146297 c -6.03227,-1.102394 -10.81686,-3.273692 -15.61404,-7.08583 -7.75245,-6.160595 -11.29815,-14.300774 -9.5199,-21.855751 1.2517,-5.317977 5.70694,-9.333242 12.25786,-11.047362 3.20627,-0.838954 10.3193,-0.557091 14.09302,0.558456 8.894847,2.629386 15.926407,8.084883 19.653067,15.247979 2.98316,5.734017 3.27648,10.437523 0.94567,15.164101 -3.47214,7.04106 -12.41235,10.736858 -21.815677,9.018407 z m 5.60982,-15.97 c 0.63114,-0.326383 1.46687,-1.117137 1.85716,-1.757231 2.588787,-4.245746 -2.97812,-10.433699 -9.38653,-10.433699 -6.30533,0 -7.50953,6.862705 -1.92487,10.969718 2.86978,2.110453 6.76231,2.613255 9.45424,1.221212 z"
         style="fill:#ff0000;fill-opacity:1;stroke:none;stroke-width:0.255555;stop-color:#000000" />
      <path
         id="path22810"
         d="m 139.14667,96.049984 c -4.27464,-0.647131 -9.8151,-3.548941 -13.86329,-7.260899 -6.12678,-5.617882 -9.81617,-13.84172 -8.64972,-19.280689 0.77912,-3.63287 3.06033,-6.36779 6.52629,-7.82429 1.69972,-0.714278 7.37893,-0.673467 9.88596,0.07104 6.76189,2.008068 13.49781,7.328567 17.35654,13.709422 4.01897,6.645825 4.02817,14.148781 0.022,17.948629 -2.44458,2.318687 -6.74203,3.323445 -11.27777,2.636787 z m 0.60256,-13.276781 c 4.55156,-2.159856 0.19972,-10.213677 -5.90989,-10.937271 -1.73579,-0.205579 -1.94625,-0.14272 -2.97861,0.889638 -0.84498,0.844987 -1.11084,1.438082 -1.11084,2.478137 0,2.932467 2.74556,6.413648 5.95648,7.552409 1.96765,0.697834 2.60264,0.700517 4.04286,0.01709 z"
         style="fill:#fa8d04;fill-opacity:1;stroke:none;stroke-width:0.255555;stop-color:#000000" />
      <path
         id="path22818"
         d="m 170.19041,135.15057 c -4.41017,-0.97864 -8.84675,-3.81852 -13.23856,-8.47406 -5.23696,-5.55146 -8.11825,-11.25796 -9.02385,-17.87213 -0.63718,-4.65377 0.26393,-8.7691 2.55296,-11.65924 3.44278,-4.346866 10.75094,-4.611124 17.35649,-0.6276 6.47649,3.90569 11.85812,10.52185 14.66251,18.02605 1.03002,2.7562 1.19746,3.70316 1.32892,7.51583 0.13263,3.8467 0.0549,4.61661 -0.6578,6.51394 -1.99023,5.29842 -7.09267,7.88379 -12.98067,6.57721 z m 1.14557,-16.52738 c 0.62187,-0.62195 0.75888,-1.18683 0.73404,-3.02652 -0.065,-4.81172 -4.04744,-9.31826 -8.25618,-9.34261 -2.16079,-0.0125 -3.16526,1.2216 -3.16077,3.88339 0.008,4.91806 4.47503,9.86171 8.50175,9.40949 0.78023,-0.0876 1.76003,-0.50259 2.18116,-0.92375 z"
         style="fill:#fddf00;fill-opacity:1;stroke:none;stroke-width:0.255555;stop-color:#000000" />
      <path
         id="path22820"
         d="m 123.97384,141.85511 c -16.88788,-4.42269 -27.812837,-25.14445 -20.84932,-39.54566 1.39011,-2.874865 5.08513,-6.48007 8.21033,-8.010753 10.74769,-5.264092 25.84667,1.400122 32.92745,14.533153 5.93707,11.01174 5.01489,22.26088 -2.37884,29.01834 -4.72343,4.31695 -11.19349,5.76377 -17.90962,4.00492 z m 6.86662,-19.55149 c 0.49984,-0.35766 1.28876,-1.37685 1.75313,-2.26487 2.64788,-5.06353 -2.33721,-12.68613 -8.29658,-12.68613 -2.56399,0 -4.61577,1.11697 -5.45718,2.97084 -2.07019,4.56122 0.99593,11.0129 6.00247,12.63032 1.5268,0.49325 4.91317,0.12619 5.99816,-0.65016 z"
         style="fill:#999999;fill-opacity:1;stroke:none;stroke-width:0.255555;stop-color:#000000" />
      <path
         id="path22822"
         d="m 102.44266,222.86994 c -2.609027,-0.32932 -4.932167,-1.11811 -8.662297,-2.94124 -2.46895,-1.20671 -3.80576,-2.20891 -6.82366,-5.11565 -5.32395,-5.1279 -8.06429,-9.53221 -10.43847,-16.77689 -1.57938,-4.81942 -2.14546,-8.85827 -2.16539,-15.44982 -0.0204,-6.74652 0.52093,-10.28688 2.37758,-15.54974 4.54609,-12.88625 13.506,-22.07946 24.193397,-24.82328 3.11628,-0.80007 8.46749,-0.97647 11.55862,-0.38103 5.26719,1.01459 10.88441,4.13967 15.07051,8.38431 10.74668,10.89698 14.71629,28.9454 9.97904,45.37113 -1.04611,3.62721 -3.80252,9.61986 -5.82927,12.6733 -4.23908,6.38645 -11.81241,12.15485 -18.34545,13.97322 -2.09877,0.58416 -8.41046,0.95177 -10.91461,0.63569 z m 10.41067,-33.87004 c 2.34514,-1.09206 5.0049,-4.04369 5.97126,-6.62654 0.83893,-2.24225 1.03395,-7.644 0.36318,-10.05938 -0.61285,-2.20681 -3.28284,-5.77959 -5.20965,-6.97116 -1.51906,-0.93941 -2.05808,-1.0661 -4.51846,-1.06197 -3.23634,0.005 -4.47306,0.51471 -6.61859,2.72553 -2.869557,2.95687 -4.416917,8.1492 -3.678237,12.34271 0.44409,2.52114 1.899277,5.92315 3.071017,7.17962 2.99049,3.20669 7.02428,4.14537 10.61948,2.47119 z"
         style="fill:#00e6ff;fill-opacity:1;stroke:none;stroke-width:0.255555;stop-color:#000000" />
      <path
         id="path22824"
         d="m 166.38476,196.3701 c -7.70422,-1.12849 -16.52076,-8.83497 -21.52502,-18.81489 -3.42167,-6.82378 -5.13036,-14.65983 -4.8084,-22.05148 0.22139,-5.08294 0.82226,-7.56122 2.86453,-11.81457 4.28764,-8.92976 12.90321,-11.83332 22.07288,-7.43888 8.3075,3.98127 15.47078,13.21883 18.87664,24.3428 1.6615,5.42668 1.97224,7.90422 1.7934,14.299 -0.14458,5.16957 -0.26035,5.98385 -1.25512,8.82765 -3.21229,9.18319 -9.85431,13.84629 -18.01891,12.65037 z m 1.53918,-24.87329 c 0.58211,-0.30102 1.45604,-1.24165 1.94207,-2.09027 1.77497,-3.09918 1.54907,-6.87742 -0.68336,-11.42938 -3.44099,-7.01625 -10.55914,-7.96103 -12.39519,-1.64521 -2.34838,8.07813 5.13494,18.26837 11.13648,15.16486 z"
         style="fill:#05f30a;fill-opacity:1;stroke:none;stroke-width:0.255555;stop-color:#000000" />
    </g>
  </g>
</svg>
