<?xml version="1.0" encoding="UTF-8" standalone="no"?>
<!-- Created with Inkscape (http://www.inkscape.org/) -->

<svg
   width="11.812716mm"
   height="2.4510131mm"
   viewBox="0 0 11.812715 2.4510131"
   version="1.1"
   id="svg1"
   inkscape:version="1.4.1-rc (06eac75fbf, 2025-03-29)"
   sodipodi:docname="b-logo.svg"
   xmlns:inkscape="http://www.inkscape.org/namespaces/inkscape"
   xmlns:sodipodi="http://sodipodi.sourceforge.net/DTD/sodipodi-0.dtd"
   xmlns="http://www.w3.org/2000/svg"
   xmlns:svg="http://www.w3.org/2000/svg">
  <sodipodi:namedview
     id="namedview1"
     pagecolor="#ffffff"
     bordercolor="#000000"
     borderopacity="0.25"
     inkscape:showpageshadow="2"
     inkscape:pageopacity="0.0"
     inkscape:pagecheckerboard="0"
     inkscape:deskcolor="#d1d1d1"
     inkscape:document-units="mm"
     inkscape:zoom="17.937883"
     inkscape:cx="23.191142"
     inkscape:cy="8.5573086"
     inkscape:window-width="2256"
     inkscape:window-height="1427"
     inkscape:window-x="0"
     inkscape:window-y="40"
     inkscape:window-maximized="1"
     inkscape:current-layer="layer1" />
  <defs
     id="defs1" />
  <g
     inkscape:label="Layer 1"
     inkscape:groupmode="layer"
     id="layer1"
     transform="translate(-64.993185,-84.480933)">
    <path
       id="text1"
       style="font-weight:bold;font-size:3.175px;font-family:Arvo;-inkscape-font-specification:'Arvo Bold';letter-spacing:-0.264583px;stroke-width:0.264583"
       d="m 64.993185,84.480933 v 0.42478 h 0.224792 v 1.987476 h 0.47594 v -0.04341 c 0.05271,0.02274 0.108519,0.04031 0.167432,0.05271 0.05891,0.0124 0.120922,0.0186 0.186035,0.0186 0.120923,0 0.232027,-0.02171 0.333313,-0.06511 0.101286,-0.04444 0.188619,-0.104386 0.262,-0.179834 0.07338,-0.07648 0.130225,-0.165882 0.170532,-0.268201 0.04134,-0.102319 0.06201,-0.211356 0.06201,-0.327112 0,-0.114722 -0.02119,-0.223242 -0.06356,-0.325561 -0.04134,-0.10232 -0.0987,-0.19172 -0.172083,-0.268201 -0.07338,-0.07648 -0.160713,-0.136944 -0.261999,-0.181384 -0.101286,-0.04444 -0.211357,-0.06666 -0.330213,-0.06666 -0.06201,0 -0.122471,0.0072 -0.181384,0.0217 -0.05891,0.01447 -0.116269,0.03514 -0.172083,0.06201 v -0.841809 z m 7.185608,0.770496 c -0.129191,0 -0.251664,0.01912 -0.36742,0.05736 -0.104824,0.03494 -0.205765,0.08438 -0.302823,0.147795 v -0.169499 h -0.838709 v 0.424781 h 0.172083 l -0.204639,0.623217 -0.333313,-1.047998 h -0.454236 l -0.330212,0.996839 -0.170533,-0.572058 h 0.181385 v -0.424781 h -0.838709 v 0.424781 h 0.179834 l 0.398426,1.187524 h 0.451135 l 0.342615,-1.024744 0.336413,1.024744 h 0.463538 l 0.429431,-1.187524 h 0.215491 v -0.181901 l 0.121439,0.245463 c 0.06821,-0.03617 0.13901,-0.06357 0.21239,-0.08217 0.07441,-0.01964 0.160198,-0.02945 0.257349,-0.02945 0.04651,0 0.0894,0.0047 0.128674,0.01395 0.03927,0.0083 0.07286,0.02222 0.100769,0.04186 0.02791,0.0186 0.04961,0.04289 0.06511,0.07286 0.0155,0.02894 0.02325,0.06356 0.02325,0.103869 v 0.04961 c -0.05167,-0.01137 -0.108002,-0.02067 -0.168982,-0.02791 -0.05994,-0.0083 -0.126608,-0.0124 -0.199988,-0.0124 -0.100252,0 -0.189652,0.01292 -0.2682,0.03876 -0.07752,0.02481 -0.143148,0.05995 -0.196888,0.105419 -0.05374,0.04444 -0.09508,0.09818 -0.124023,0.161231 -0.02791,0.06305 -0.04186,0.131774 -0.04186,0.206189 0,0.07338 0.01395,0.141592 0.04186,0.204639 0.02791,0.06201 0.0677,0.116274 0.119373,0.16278 0.05271,0.04547 0.116789,0.08165 0.192236,0.108521 0.07648,0.02584 0.162781,0.03876 0.258899,0.03876 0.03824,0 0.07338,-0.0026 0.10542,-0.0078 0.03204,-0.0041 0.06304,-0.01137 0.09302,-0.0217 0.02997,-0.0093 0.05994,-0.02171 0.08992,-0.03721 0.02997,-0.01653 0.06305,-0.03617 0.09922,-0.05891 v 0.08682 h 0.669727 v -0.42478 h -0.215491 v -0.584461 c 0,-0.115755 -0.01757,-0.21394 -0.05271,-0.294556 -0.0341,-0.08062 -0.08165,-0.14573 -0.142627,-0.195336 -0.06098,-0.05064 -0.134359,-0.08681 -0.220142,-0.108521 -0.08475,-0.02274 -0.177249,-0.03411 -0.277502,-0.03411 z m 3.718636,0 c -0.129191,0 -0.251664,0.01912 -0.367419,0.05736 -0.114722,0.03824 -0.224793,0.09353 -0.330213,0.165882 l 0.148828,0.300757 c 0.06821,-0.03617 0.13901,-0.06357 0.21239,-0.08217 0.07441,-0.01964 0.160198,-0.02945 0.257349,-0.02945 0.04651,0 0.0894,0.0047 0.128674,0.01395 0.03927,0.0083 0.07286,0.02222 0.100769,0.04186 0.02791,0.0186 0.04961,0.04289 0.06511,0.07286 0.0155,0.02894 0.02325,0.06356 0.02325,0.103869 v 0.04961 c -0.05168,-0.01137 -0.108002,-0.02067 -0.168982,-0.02791 -0.05994,-0.0083 -0.126608,-0.0124 -0.199988,-0.0124 -0.100252,0 -0.189652,0.01292 -0.2682,0.03876 -0.07752,0.02481 -0.143148,0.05995 -0.196888,0.105419 -0.05374,0.04444 -0.09508,0.09818 -0.124023,0.161231 -0.02791,0.06305 -0.04186,0.131774 -0.04186,0.206189 0,0.01732 0.001,0.03441 0.0026,0.05116 H 74.976038 V 85.89325 c 0,-0.207739 -0.05219,-0.365352 -0.156579,-0.472839 -0.104387,-0.108521 -0.253215,-0.162781 -0.446485,-0.162781 -0.09198,0 -0.179834,0.0155 -0.26355,0.04651 -0.08268,0.02998 -0.157613,0.07132 -0.224792,0.124023 v -0.141077 h -0.731738 v 0.424781 h 0.232544 v 0.756543 h -0.235645 v 0.42478 h 0.998389 v -0.42478 h -0.260449 v -0.618567 c 0.05167,-0.06511 0.1049,-0.109552 0.15968,-0.133326 0.05478,-0.02377 0.10904,-0.03566 0.16278,-0.03566 0.07855,0 0.141596,0.02583 0.189136,0.07751 0.04754,0.05064 0.07131,0.120923 0.07131,0.21084 v 0.923975 h 0.733288 V 86.67149 c 0.02495,0.04178 0.05613,0.07951 0.09354,0.113171 0.05271,0.04547 0.116789,0.08165 0.192236,0.108521 0.07648,0.02584 0.162781,0.03876 0.258899,0.03876 0.03824,0 0.07338,-0.0026 0.10542,-0.0078 0.03204,-0.0041 0.06304,-0.01137 0.09302,-0.0217 0.02997,-0.0093 0.05994,-0.02171 0.08992,-0.03721 0.02997,-0.01653 0.06305,-0.03617 0.09922,-0.05891 v 0.08682 h 0.669727 v -0.42478 H 76.59041 v -0.584461 c 0,-0.115755 -0.01757,-0.21394 -0.05271,-0.294556 -0.0341,-0.08062 -0.08165,-0.14573 -0.142627,-0.195336 -0.06098,-0.05064 -0.134359,-0.08681 -0.220142,-0.108521 -0.08475,-0.02274 -0.177249,-0.03411 -0.277502,-0.03411 z m -9.097636,0.03566 v 0.424781 h 0.20929 v 0.520898 c 0,0.114721 0.01654,0.214457 0.04961,0.299207 0.0341,0.08475 0.0801,0.155543 0.137976,0.21239 0.05891,0.05581 0.127641,0.09767 0.206189,0.125573 0.07855,0.02791 0.162264,0.04186 0.251147,0.04186 0.09612,0 0.180868,-0.01343 0.254249,-0.04031 0.07338,-0.02687 0.137456,-0.06512 0.192236,-0.114722 v 0.136426 h 0.680578 v -0.42478 h -0.193786 v -1.181324 h -0.759644 v 0.424781 h 0.257349 v 0.629419 c -0.02274,0.06511 -0.05943,0.116789 -0.110071,0.155029 -0.05064,0.03824 -0.106968,0.05736 -0.168982,0.05736 -0.08785,0 -0.15916,-0.02636 -0.21394,-0.07906 -0.05478,-0.05374 -0.08217,-0.134359 -0.08217,-0.241846 V 85.287085 Z M 66.036015,85.4509 a 0.63621825,0.63621825 0 0 1 0.636137,0.636137 0.63621825,0.63621825 0 0 1 -0.636137,0.636136 0.63621825,0.63621825 0 0 1 -0.636136,-0.636136 0.63621825,0.63621825 0 0 1 0.636136,-0.636137 z m 6.009453,0.788065 h 0.37207 v 0.204639 c -0.04237,0.03411 -0.09353,0.06304 -0.153479,0.08682 -0.05994,0.02377 -0.126608,0.03566 -0.199988,0.03566 -0.07028,0 -0.12299,-0.01602 -0.15813,-0.04806 -0.03411,-0.03204 -0.05116,-0.07183 -0.05116,-0.119373 0,-0.02583 0.0052,-0.04857 0.0155,-0.06821 0.01137,-0.01964 0.02583,-0.03618 0.04341,-0.04961 0.0186,-0.01344 0.03927,-0.02377 0.06201,-0.03101 0.02273,-0.0072 0.04599,-0.01085 0.06976,-0.01085 z m 3.718636,0 h 0.37207 v 0.204639 c -0.04237,0.03411 -0.09353,0.06304 -0.153479,0.08682 -0.05995,0.02377 -0.126607,0.03566 -0.199988,0.03566 -0.07028,0 -0.12299,-0.01602 -0.15813,-0.04806 -0.03411,-0.03204 -0.05116,-0.07183 -0.05116,-0.119373 0,-0.02583 0.0052,-0.04857 0.0155,-0.06821 0.01137,-0.01964 0.02584,-0.03618 0.04341,-0.04961 0.0186,-0.01344 0.03927,-0.02377 0.06201,-0.03101 0.02273,-0.0072 0.04599,-0.01085 0.06976,-0.01085 z" />
  </g>
</svg>
