<?xml version="1.0" encoding="UTF-8"?>
<!-- Created with Inkscape (http://www.inkscape.org/) -->
<svg width="13.136mm" height="2.451mm" version="1.1" viewBox="0 0 13.136 2.451" xmlns="http://www.w3.org/2000/svg">
 <g transform="translate(-64.993 -84.481)">
  <path d="m64.993 84.481v0.42478h0.22479v1.9875h0.47594v-0.043408c0.052708 0.02274 0.10852 0.04031 0.16743 0.05271 0.058911 0.0124 0.12092 0.018603 0.18604 0.018603 0.12092 0 0.23203-0.021706 0.33331-0.065112 0.10129-0.044442 0.18862-0.10439 0.262-0.17983 0.073381-0.076481 0.13022-0.16588 0.17053-0.2682 0.04134-0.10232 0.062012-0.21136 0.062012-0.32711 0-0.11472-0.021189-0.22324-0.063562-0.32556-0.041342-0.10232-0.098703-0.19172-0.17208-0.2682-0.073381-0.076483-0.16071-0.13694-0.262-0.18138s-0.21136-0.066663-0.33021-0.066663c-0.06201 0-0.12247 0.007238-0.18138 0.021704-0.058908 0.014467-0.11627 0.035139-0.17208 0.062012v-0.84181h-0.70073zm7.1856 0.7705c-0.12919 0-0.25166 0.01912-0.36742 0.05736-0.10482 0.034942-0.20576 0.084379-0.30282 0.1478v-0.1695h-0.83871v0.42478h0.17208l-0.20464 0.62322-0.33331-1.048h-0.45424l-0.33021 0.99684-0.17053-0.57206h0.18138v-0.42478h-0.83871v0.42478h0.17983l0.39843 1.1875h0.45114l0.34262-1.0247 0.33641 1.0247h0.46354l0.42943-1.1875h0.21549v-0.1819l0.12144 0.24546c0.068214-0.036174 0.13901-0.063566 0.21239-0.082166 0.074414-0.01964 0.1602-0.029455 0.25735-0.029455 0.04651 0 0.089401 0.004652 0.12867 0.013952 0.039273 0.008267 0.072863 0.022218 0.10077 0.041858 0.027907 0.0186 0.049613 0.042891 0.065113 0.072864 0.0155 0.02894 0.023254 0.063563 0.023254 0.10387v0.04961c-0.051675-0.011373-0.108-0.020672-0.16898-0.027905-0.059945-0.008267-0.12661-0.012403-0.19999-0.012403-0.10025 0-0.18965 0.012918-0.2682 0.038758-0.077518 0.024806-0.14315 0.059946-0.19689 0.10542-0.053742 0.044441-0.095083 0.098184-0.12402 0.16123-0.027907 0.063045-0.041858 0.13177-0.041858 0.20619 0 0.073379 0.013951 0.14159 0.041858 0.20464 0.027909 0.062014 0.067699 0.11627 0.11937 0.16278 0.05271 0.045474 0.11679 0.081648 0.19224 0.10852 0.076481 0.02584 0.16278 0.038757 0.2589 0.038757 0.03824 0 0.07338-0.002551 0.10542-0.007751 0.03204-0.004134 0.063044-0.011371 0.093017-0.021704 0.029974-0.009307 0.059944-0.021707 0.089917-0.037207 0.029974-0.016534 0.063046-0.036172 0.099219-0.058912v0.086817h0.66973v-0.42478h-0.21549v-0.58446c0-0.11576-0.01757-0.21394-0.05271-0.29456-0.034105-0.080618-0.081647-0.14573-0.14263-0.19534-0.060978-0.05064-0.13436-0.086814-0.22014-0.10852-0.084749-0.02274-0.17725-0.034106-0.2775-0.034106zm3.7186 0c-0.12919 0-0.25166 0.01912-0.36742 0.05736-0.11472 0.038241-0.22479 0.093535-0.33021 0.16588l0.14883 0.30076c0.068214-0.036174 0.13901-0.063566 0.21239-0.082166 0.074414-0.01964 0.1602-0.029455 0.25735-0.029455 0.04651 0 0.089401 0.004652 0.12867 0.013952 0.039273 0.008267 0.072863 0.022218 0.10077 0.041858 0.027907 0.0186 0.049613 0.042891 0.065113 0.072864 0.0155 0.02894 0.023254 0.063563 0.023254 0.10387v0.04961c-0.051675-0.011373-0.108-0.020672-0.16898-0.027905-0.059945-0.008267-0.12661-0.012403-0.19999-0.012403-0.10025 0-0.18965 0.012918-0.2682 0.038758-0.077518 0.024806-0.14315 0.059946-0.19689 0.10542-0.053742 0.044441-0.095083 0.098184-0.12402 0.16123-0.027907 0.063045-0.041858 0.13177-0.041858 0.20619 0 0.017325 0.001028 0.03441 0.002584 0.05116h-0.16278v-0.57516c0-0.20774-0.052193-0.36535-0.15658-0.47284-0.10439-0.10852-0.25322-0.16278-0.44648-0.16278-0.091984 0-0.17983 0.015502-0.26355 0.046509-0.082682 0.029976-0.15761 0.071316-0.22479 0.12402v-0.14108h-0.73174v0.42478h0.23254v0.75654h-0.23564v0.42478h0.99839v-0.42478h-0.26045v-0.61857c0.051673-0.06511 0.1049-0.10955 0.15968-0.13333 0.05478-0.023773 0.10904-0.035656 0.16278-0.035656 0.078551 0 0.1416 0.025834 0.18914 0.077514 0.04754 0.050643 0.071314 0.12092 0.071314 0.21084v0.92398h0.73329v-0.22169c0.024951 0.041783 0.056135 0.079511 0.093535 0.11317 0.05271 0.045474 0.11679 0.081648 0.19224 0.10852 0.076481 0.02584 0.16278 0.038757 0.2589 0.038757 0.03824 0 0.07338-0.002551 0.10542-0.007751 0.03204-0.004134 0.063044-0.011371 0.093017-0.021704 0.029974-0.009307 0.059944-0.021707 0.089917-0.037207 0.029974-0.016534 0.063046-0.036172 0.099219-0.058912v0.086817h0.66973v-0.42478h-0.21549v-0.58446c0-0.11576-0.01757-0.21394-0.05271-0.29456-0.034105-0.080618-0.081647-0.14573-0.14263-0.19534-0.060978-0.05064-0.13436-0.086814-0.22014-0.10852-0.084749-0.02274-0.17725-0.034106-0.2775-0.034106zm-9.0976 0.035656v0.42478h0.20929v0.5209c0 0.11472 0.016536 0.21446 0.049609 0.29921 0.034104 0.084746 0.080096 0.15554 0.13798 0.21239 0.058911 0.055809 0.12764 0.097667 0.20619 0.12557 0.078548 0.027907 0.16226 0.041858 0.25115 0.041858 0.096118 0 0.18087-0.013434 0.25425-0.040307 0.073378-0.026874 0.13746-0.065115 0.19224-0.11472v0.13643h0.68058v-0.42478h-0.19379v-1.1813h-0.75964v0.42478h0.25735v0.62942c-0.022741 0.065112-0.059431 0.11679-0.11007 0.15503-0.050641 0.03824-0.10697 0.057361-0.16898 0.057361-0.087846 0-0.15916-0.026359-0.21394-0.079065-0.05478-0.053744-0.082166-0.13436-0.082166-0.24185v-0.94568h-0.71003zm-0.76378 0.16382a0.63622 0.63622 0 0 1 0.63614 0.63614 0.63622 0.63622 0 0 1-0.63614 0.63614 0.63622 0.63622 0 0 1-0.63614-0.63614 0.63622 0.63622 0 0 1 0.63614-0.63614zm6.0095 0.78806h0.37207v0.20464c-0.042373 0.034107-0.093532 0.063043-0.15348 0.086816-0.059945 0.023774-0.12661 0.035657-0.19999 0.035657-0.07028 0-0.12299-0.016019-0.15813-0.048059-0.034106-0.032042-0.051159-0.071833-0.051159-0.11937 0-0.025833 0.005169-0.048572 0.015503-0.068212 0.011366-0.01964 0.025834-0.036177 0.043408-0.04961 0.0186-0.01344 0.039272-0.023772 0.062012-0.031006 0.022733-0.007233 0.045989-0.010852 0.069763-0.010852zm3.7186 0h0.37207v0.20464c-0.042373 0.034107-0.093532 0.063043-0.15348 0.086816-0.059945 0.023774-0.12661 0.035657-0.19999 0.035657-0.070279 0-0.12299-0.016019-0.15813-0.048059-0.034106-0.032042-0.051159-0.071833-0.051159-0.11937 0-0.025833 0.005169-0.048572 0.015503-0.068212 0.011373-0.01964 0.025841-0.036177 0.043408-0.04961 0.0186-0.01344 0.039272-0.023772 0.062012-0.031006 0.022733-0.007233 0.045989-0.010852 0.069763-0.010852z" stroke-width=".26458"/>
 </g>
</svg>
