<?xml version="1.0" encoding="UTF-8"?>
<!-- Created with Inkscape (http://www.inkscape.org/) -->
<svg width="156.42mm" height="63.157mm" version="1.1" viewBox="0 0 156.42 63.157" xmlns="http://www.w3.org/2000/svg" xmlns:xlink="http://www.w3.org/1999/xlink">
 <defs>
  <linearGradient id="linearGradient50606" x1="421.46" x2="458.99" y1="81.216" y2="80.958" gradientTransform="matrix(.36219 -.0075634 .0085593 .45242 -122.38 55.957)" gradientUnits="userSpaceOnUse" xlink:href="#linearGradient15073"/>
  <linearGradient id="linearGradient15073">
   <stop stop-color="#d1a448" offset="0"/>
   <stop stop-color="#9b7527" stop-opacity=".9918" offset="1"/>
  </linearGradient>
  <linearGradient id="linearGradient33560" x1="439.64" x2="412.56" y1="53.484" y2="53.871" gradientTransform="matrix(.36219 -.0075634 .0085593 .45242 -123.44 56.069)" gradientUnits="userSpaceOnUse" xlink:href="#linearGradient15111"/>
  <linearGradient id="linearGradient15111">
   <stop stop-color="#96312a" offset="0"/>
   <stop stop-color="#65211c" stop-opacity=".9959" offset="1"/>
  </linearGradient>
  <linearGradient id="linearGradient33562" x1="419.65" x2="452.28" y1="64.964" y2="65.351" gradientTransform="matrix(.36219 -.0071478 .0085593 .42756 -122.85 57.356)" gradientUnits="userSpaceOnUse" xlink:href="#linearGradient15103"/>
  <linearGradient id="linearGradient15103">
   <stop stop-color="#c33f37" offset="0"/>
   <stop stop-color="#b33a33" stop-opacity=".98039" offset="1"/>
  </linearGradient>
  <linearGradient id="linearGradient15121" x1="367.11" x2="367.22" y1="87.487" y2="90.811" gradientUnits="userSpaceOnUse">
   <stop stop-color="#916f6f" offset="0"/>
   <stop stop-color="#685050" stop-opacity=".9918" offset="1"/>
  </linearGradient>
  <linearGradient id="linearGradient1" x1="421.46" x2="458.99" y1="81.216" y2="80.958" gradientTransform="matrix(.36219 -.0075634 .0085593 .45242 -122.38 55.957)" gradientUnits="userSpaceOnUse" xlink:href="#linearGradient15073"/>
  <linearGradient id="linearGradient2" x1="439.64" x2="412.56" y1="53.484" y2="53.871" gradientTransform="matrix(.36219 -.0075634 .0085593 .45242 -123.44 56.069)" gradientUnits="userSpaceOnUse" xlink:href="#linearGradient15111"/>
  <linearGradient id="linearGradient3" x1="419.65" x2="452.28" y1="64.964" y2="65.351" gradientTransform="matrix(.36219 -.0071478 .0085593 .42756 -122.85 57.356)" gradientUnits="userSpaceOnUse" xlink:href="#linearGradient15103"/>
 </defs>
 <path d="m148.16 23.016c0 14.336-34.912 34.024-70.516 34.024-35.605 0-71.191-18.683-71.191-33.019 0-14.336 35.421-23.365 71.026-23.365 35.605-8.2e-7 70.681 8.0233 70.681 22.36z" fill="#0ff"/>
 <g transform="translate(35.573 -21.791)">
  <path d="m5.4386 67.223c-2.3897 1.5662-5.146 3.801-3.37-0.89097 0.27493-0.72635-29.842-1.3879-30.068-2.4852 0.33683-0.48763-1.4733-2.6067 0.73092-4.3723 0.66696-0.53426 0.94253-1.4759 2.0153-1.1132 0.54415 0.18397 0.91066-0.74523 1.494-1.0258 0.83924-0.40363 1.8666-0.66061 3.1315-0.68606 0.56944-0.57961 27.994 5.5487 27.893 6.5665-0.026907 0.27185 0.49258-0.29028-0.22498-1.2985-0.75164-1.0561-14.539-2.3145-11.242-2.976 8.7878-0.362 8.6757-0.35409 10.551-2.9276-0.2636-1.3367 2.4491 2.1316 4.7659 1.0059 2.3445-1.1391 4.8242 0.29446 4.4542 1.3785 0.89609-1.3425 1.3224-4.1481 3.5778-3.3634 2.8118 0.4306-0.25368 1.6879 0.50966 1.7831 4.2998 0.53633 33.686 14.253 49.914 0.17166 3.6715-3.1858 6.9002 0.3583 7.0548 0.80848 8.0371-1.3762 22.692-8.2353 32.62 0.05623 0.36592 0.30563 0.6211 0.80002 1.0177 0.82163 3.4142 0.18606 4.126 0.83916 4.1249 1.7657-8.5e-4 0.73237 1.0668 2.4398-0.35622 2.614l-3.3915 0.40883" fill="#469946"/>
  <path d="m13.781 67.223c-1.5045 1.5662-3.2398 3.801-2.1216-0.89097 0.17309-0.72635-0.9171-1.2467-1.0589-2.344 0.40788-0.92 0.06293-2.1518 2.3789-2.2816 0.3585-0.57961 2.0157 0.49174 1.9522 1.5096-0.01694 0.27185 0.31012-0.29028-0.14164-1.2985-0.47321-1.0561-0.06342-1.9755 2.0119-2.637 5.5326-0.362 2.3093 0.87738 3.4901-1.6961-1.1328-0.72167-1.021-1.4718-0.25811-2.2368 1.2629-1.0504 1.8434-0.72734 2.3784-0.31263 1.7702 0.4306-0.15971 1.6879 0.32087 1.7831 4.1466 0.82154 1.707 2.2241 2.9515 0.74253l2.2757 5.3588" fill="#008000"/>
  <path d="m24.09 59.092c0.1363-0.02055 1.6059-3.0001 4.3046-3.0759 1.575-0.04427 3.9517 1.3895 6.0483 1.4411 1.4134 0.03475 4.1009-2.1756 5.4832-2.8432 3.1169-1.5054 4.4235 1.236 4.8209 1.5716 0.62777 0.53021-1.12-0.42493 3.4258-1.0673 4.9715-0.70251 4.6978 1.5243 5.1685 1.6192 2.0697 0.41746 5.331-0.94507 6.1509-0.87788 4.6984 0.38511 3.7943 1.3077 4.0331 0.74349-0.19082-1.1811 1.0209-1.3774 2.4324-1.4335 2.9615 0.89405 2.1445 1.7539 1.2433 2.613 0.12252 0.41875-0.3725 1.3325 0.50001 1.1501 1.3796-1.7871 1.3786-0.03481 1.9814 0.1694 1.7249 1.4707 0.25722 1.4374 0.29889 2.1152-1.1826 2.2136 1.6429 0.87307 2.5707 1.2152 2.714 0.73916 1.1599 1.8285 1.0952 2.7956l-0.9997 2.8043-12.047-3.563" fill="#008000"/>
  <g transform="matrix(.10901 0 0 .10901 -252.95 -161.51)">
   <g transform="translate(-352.25 60.347)">
    <g transform="matrix(.13024 0 0 .13024 2156.3 1790.8)">
     <path d="m4964.9 2184.7c0 12.865-10.43 23.293-23.294 23.293h-166.32c-12.864 0-23.293-10.429-23.293-23.293 0-12.865 10.429-23.293 23.293-23.293h166.32c12.864-1e-3 23.294 10.428 23.294 23.293z" fill="#38200e" opacity=".2"/>
     <g stroke="#283f00" stroke-linecap="round" stroke-linejoin="round" stroke-miterlimit="10" stroke-width="4.298">
      <path d="m4863.5 2174.7v-31.525c0-1.928 1.562-3.493 3.501-3.493 1.928 0 3.486 1.565 3.486 3.493v30.983c41.307 0.472 40.213 9.235 40.213 9.235h-53.613c-0.541-5.616 3.346-7.826 6.413-8.693z" fill="#ffde55"/>
      <path d="m4847.2 2180.7v-31.53c0-1.928 1.559-3.494 3.486-3.494 1.939 0 3.5 1.566 3.5 3.494v30.983c41.308 0.472 40.213 9.235 40.213 9.235h-53.624c-0.532-5.617 3.358-7.821 6.425-8.688z" fill="#ffde55"/>
      <path d="m4792.5 2130.8c-0.064-0.455 74.498-73.248 99.785-73.248 25.273 0 45.777 20.501 45.777 45.786s-20.504 45.786-45.777 45.786c-21.063 0-76.32 3.857-94.206-9.457-27.938 50.054-53.277 17.479-53.277 17.479z" fill="#fff"/>
      <path d="m4928.7 2087.2c18.546-6.072 30.256-25.019 26.747-44.773-3.868-21.628-24.526-36.031-46.151-32.179-21.633 3.856-36.028 24.509-32.184 46.144 0.66 3.656 1.799 7.111 3.324 10.297" fill="#fff"/>
      <path d="m4942 2077.8c-21.202 2.194-21.624-18.449-3.651-20.469 0 0 8.05-8.764 17.149-14.869 11.481 13.818 32.543 14.939 34.655 36.768z" fill="#ffde55"/>
      <path d="m4919.7 2099.5s6.986 36.644-23.314 39.557c0 0-82.766 4.653-81.596-11.077l31.234-13.405" fill="#fff"/>
     </g>
     <path d="m4907.5 2044.8c1.094 3.954 5.188 6.278 9.145 5.173 3.961-1.089 6.271-5.195 5.176-9.148-1.094-3.949-5.188-6.268-9.152-5.173-3.954 1.104-6.263 5.193-5.169 9.148z" fill="#283f00"/>
    </g>
   </g>
  </g>
 </g>
 <g transform="matrix(-2.2795 .3594 .34437 2.0267 439.24 -355.4)" fill="#d4aa00" stroke="#000" stroke-width=".035278">
  <g transform="matrix(.82313 .13569 -.10768 .82025 54.921 .34744)" fill="#d4aa00" stroke="none">
   <path d="m210.74 156.93c0.11722-2.1182 0.17196-2.6453 0.34237-4.9822l0.50937 0.13464c-0.15963 2.5373-0.0796 3.2676 0.0645 4.7939" fill="#784421"/>
   <g transform="matrix(-.84478 -.26123 -.21471 .84478 422.89 79.744)">
    <path d="m211.99 150.27-1.1567 0.11273-0.11539-0.46053s-0.46031-0.68929-0.39419 0.0327c0.0227 1.1534 0.0596 0.7977 0.44262 0.87987 0.97155 0.20755 0.87908 0.39722 0.87908 0.39722" fill="#b3b3b3"/>
    <ellipse transform="matrix(.99911 .042121 -.032812 .99946 0 0)" cx="216.98" cy="141.71" rx=".53321" ry=".57339" fill="#999" stroke-width=".056203"/>
    <g transform="matrix(-.43756 -.98348 .82432 -.43263 180.68 424.6)">
     <g transform="matrix(-.3527 -1.0231 -.8558 .3527 415.81 314.7)" fill="#f9f9f9">
      <path transform="matrix(.097965 .01486 -.013336 .10697 208.55 129.55)" d="m44.165 168.43c13.548-0.32833 9.6482 12.892 22.578 16.952 9.9943 3.1388 26.623-12.271 21.607-3.0744-6.4897 11.897-15.989 1.9098-25.97 11.077-7.7154 7.086-2.6847 29.192-8.1408 20.249-7.0584-11.569 6.3404-14.801 3.3922-28.029-2.2789-10.225-23.938-16.921-13.466-17.175z" fill="#fff"/>
     </g>
     <ellipse transform="matrix(.99911 .042121 -.032812 .99946 0 0)" cx="216.98" cy="141.71" rx=".30409" ry=".327" fill="#ccc" stroke-width=".032052"/>
     <ellipse transform="matrix(-.98869 -.14997 -.12372 .99232 0 0)" cx="-229.23" cy="117.28" rx="2.9871" ry="3.2496" fill="none"/>
    </g>
   </g>
  </g>
 </g>
 <g transform="translate(-24.288 -47.076)">
  <path d="m49.995 98.132c2.9869 6.4101 7.9946 5.606 11.034 5.4279l4.9769-1.0765c8.5707 6.5975 48.72 11.885 75.684-0.26456 2.2182 1.268 4.6133 0.94375 7.0053 0.64724 4.1175-1.2183 6.2257-2.625 6.8157-4.7281l-24.697-3.184-57.105 1.2775z" fill="#b0c767" stroke-width="5.413"/>
  <g transform="matrix(.10901 0 0 .10901 -76.174 -159.14)">
   <g transform="matrix(20.911 3.297 -3.1591 18.592 -1681.3 -1367.2)" fill="#d4aa00" stroke="#000" stroke-width=".035278">
    <g transform="matrix(.82313 .13569 -.10768 .82025 54.921 .34744)" fill="#d4aa00" stroke="none">
     <path d="m210.74 156.93c0.11722-2.1182 0.17196-2.6453 0.34237-4.9822l0.50937 0.13464c-0.15963 2.5373-0.0796 3.2676 0.0645 4.7939" fill="#784421"/>
     <g transform="matrix(-.84478 -.26123 -.21471 .84478 422.89 79.744)">
      <path d="m211.99 150.27-1.1567 0.11273-0.11539-0.46053s-0.46031-0.68929-0.39419 0.0327c0.0227 1.1534 0.0596 0.7977 0.44262 0.87987 0.97155 0.20755 0.87908 0.39722 0.87908 0.39722" fill="#b3b3b3"/>
      <ellipse transform="matrix(.99911 .042121 -.032812 .99946 0 0)" cx="216.98" cy="141.71" rx=".53321" ry=".57339" fill="#999" stroke-width=".056203"/>
      <g transform="matrix(-.43756 -.98348 .82432 -.43263 180.68 424.6)">
       <g transform="matrix(-.3527 -1.0231 -.8558 .3527 415.81 314.7)" fill="#f9f9f9">
        <path transform="matrix(.097965 .01486 -.013336 .10697 208.55 129.55)" d="m44.165 168.43c13.548-0.32833 9.6482 12.892 22.578 16.952 9.9943 3.1388 26.623-12.271 21.607-3.0744-6.4897 11.897-15.989 1.9098-25.97 11.077-7.7154 7.086-2.6847 29.192-8.1408 20.249-7.0584-11.569 6.3404-14.801 3.3922-28.029-2.2789-10.225-23.938-16.921-13.466-17.175z" fill="#fff"/>
       </g>
       <ellipse transform="matrix(.99911 .042121 -.032812 .99946 0 0)" cx="216.98" cy="141.71" rx=".30409" ry=".327" fill="#ccc" stroke-width=".032052"/>
       <ellipse transform="matrix(-.98869 -.14997 -.12372 .99232 0 0)" cx="-229.23" cy="117.28" rx="2.9871" ry="3.2496" fill="none"/>
      </g>
     </g>
    </g>
   </g>
   <g transform="translate(-56.498 23.317)">
    <g transform="matrix(6.3401 -.14113 .088212 4.9703 1822.7 1661.8)" fill="#31c23c">
     <path d="m9.0677 127.45c-2.6365-6.3204 27.682-17.354 34.41-18.729 10.078-0.65272 42.433 9.9018 47.216 18.775 0.2996 0.55578 0.16868 0.31312 0.38521 0.78324 0.28639 0.6218 0.38004 1.2773-0.0052 1.5815-14.96 12.445-66.933 11.824-82.006-2.4102z"/>
     <path d="m22.343 116.72c-0.74942-2.4622-0.7975-1.1977-0.65354-0.20845-0.7557-1.7773 0.29837 1.8116-0.7571-0.37545 0.71825 2.4474-1.2421-2.1879-0.34002 0.5543-1.0214-1.8543-1.1365-2.1132-0.37738 0.0416-0.43726-0.58316-1.0452-1.6686-0.40279 0.50576-0.63577-0.44832-0.46501-0.9918-0.49418 0.0412-0.87665-0.48991 0.49959 1.2221-0.83125-0.24842 0.06938 0.76185-0.38668 0.0963 0.23554 1.6906-0.80283-1.24-1.1162-2.6669-0.70438-0.40216-1.3306-2.2868 0.07114 1.4603-1.1812-1.0193-0.05934 0.32361 0.1264 1.542 0.19188 2.2298" stroke-opacity="0"/>
     <path d="m80.205 119.5c0.78266-2.441 0.81359-1.1754 0.65624-0.19034 0.77965-1.7561-0.32288 1.803 0.76204-0.35445-0.75132 2.4271 1.2715-2.1531 0.33244 0.5636 1.0464-1.8257 1.165-2.0814 0.37675 0.0521 0.44508-0.57094 1.0677-1.6394 0.39586 0.51681 0.64173-0.43065 0.47837-0.97874 0.49353 0.0549 0.88314-0.46552-0.51607 1.2081 0.83446-0.22535-0.0797 0.75977 0.3853 0.10695-0.25842 1.6837 0.81951-1.2176 1.1522-2.6355 0.7097-0.38257 1.3613-2.2495-0.09093 1.4581 1.1948-0.9864 0.05491 0.32522-0.14729 1.5382-0.22208 2.224" stroke-opacity="0"/>
    </g>
    <path transform="matrix(9.1738 0 0 9.1738 1642 1444.7)" d="m52.289 88.401c-1.9559 2.0144-1.4635 3.4337-0.28694 4.9762 1.5746 2.0643-2.5591 3.794-3.6254 4.6924-0.20546 0.1735 0.21165 0.25759 0.37183 0.2832 3.6085 0.57676 5.2318 0.57048 9.3235-0.07568 2.3117-1.2399 2.0671-4.3372 0.10415-5.4633-2.6328-1.3571-1.8252-2.2977-1.8132-4.5837" fill="#b0c767"/>
    <path transform="matrix(9.1738 0 0 9.1738 1642 1444.7)" d="m41.537 84.883c-11.272 4.3752 1.4261 7.4758 14.212 6.8867 12.409-0.57169 24.277-3.5878 14.409-6.3004l-16.452-1.2015z" opacity=".2"/>
    <g transform="matrix(7.2183 0 0 7.2183 1918.7 1565)">
     <path d="m13.371 93.457c-1.524-3.4624-1.3981-6.2868-0.81767-9.5353 0.12664-1.7274 2.9456-4.307 2.9456-4.307l5.6019-1.4437 8.5354-0.77527 12.74-0.26604 6.7757 1.6496 1.649 2.9507c0.21782 1.085 0.6517 2.2002 0.76971 3.2317 0.32795 2.867 0.38797 5.8858-0.39467 8.1703-2.7312 2.2785-13.245 3.2692-16.842 3.2946l-7.2782 0.27329c-4.7611-0.07077-9.3197-1.0078-13.685-3.2428z" fill="url(#linearGradient50606)"/>
     <path d="m49.95 91.679c2.3175-2.4968 2.5339-1.6274 2.5811-0.3891 0.0466 1.225 0.33907 0.86951 0.11154 1.4677-0.36897 0.55315-0.7498 0.79732-2.0245 1.1701-0.42748-0.7244-1.3213 0.59513-0.66813-2.2487z" fill="#43cc32"/>
     <path d="m27.188 96.752c-0.21241-4.913-0.59134-8.7796 3.4735-9.6391 4.4574 0 3.4789 5.6776 3.7577 9.4217" fill="#6c5353"/>
     <path d="m21.017 79.366c11.213-2.4232 10.094-2.5989 11.213-2.4232l1.1185 0.17566s6.1365-1.2559 9.4592 0.33315l3.3226 1.589-6.3263 2.4539-11.626 0.24278z" fill="#906821" stroke="#000" stroke-width=".083078px"/>
     <g fill="#74541a">
      <path d="m36.185 78.041 0.11682 2.6808 0.59384-0.05367-0.16155-3.299-0.58994 0.26z"/>
      <path d="m29.906 78.172 0.11682 2.6808 0.59382-0.05366-0.16154-3.299-0.58995 0.26001z"/>
      <path d="m26.075 78.293 0.11683 2.6808 0.59381-0.05366-0.16155-3.299-0.58994 0.26z"/>
     </g>
     <path d="m39.324 77.975 0.11682 2.6808 0.59384-0.05367-0.16157-3.299-0.58992 0.26z" fill="#6f5019"/>
     <path d="m21.712 79.309c10.145-2.9778 15.871-1.1007 22.097 0.26826l2.8314-1.9165-3.43-1.6531c-3.9462-0.3755-5.6547-1.2747-11.838-1.1265-4.7249 0.48679-5.5175 0.69683-6.2664 0.90379l-7.0336 2.0081z" fill="url(#linearGradient33560)"/>
     <ellipse transform="matrix(.99978 -.020878 .018915 .99982 0 0)" cx="18.944" cy="89.617" rx="2.7227" ry="3.1272" fill="#836652"/>
     <ellipse transform="matrix(.99978 -.020878 .018915 .99982 0 0)" cx="19.224" cy="89.617" rx="2.1783" ry="2.6529" fill="#8fffff"/>
     <ellipse transform="matrix(.99983 -.018221 .021673 .99977 0 0)" cx="38.908" cy="89.736" rx="2.8633" ry="2.9012" fill="#755b49"/>
     <ellipse transform="matrix(.99983 -.018426 .021432 .99977 0 0)" cx="38.694" cy="89.742" rx="2.3654" ry="2.6198" fill="#8fffff"/>
     <ellipse transform="matrix(.99978 -.020878 .018915 .99982 0 0)" cx="47.807" cy="88.076" rx="1.3746" ry="2.1772" fill="#836652"/>
     <ellipse transform="matrix(.99978 -.020878 .018915 .99982 0 0)" cx="47.6" cy="88.078" rx="1.1681" ry="1.9896" fill="#8fffff"/>
     <path d="m11.583 82.414c4.2043-5.0355 5.1443-5.0541 5.1563-5.0543 9.3154-2.9691 16.553-1.9032 15.388-2.0745-3.0326-0.54809-15.586 2.6677-12.456 2.9196 1.6395 1.6068 17.56 2.5166 26.181-0.29129-0.56564-1.6898-11.632-2.6726-13.649-2.6771 5.4035-0.55233 11.109-0.38676 15.704 1.8842 2.5877 1.7927 2.6707 3.046 3.968 4.5608-7.2228 2.337-12.785 3.0227-19.473 3.4024-7.4187 0.95978-15.113-1.39-20.82-2.6699z" fill="url(#linearGradient33562)"/>
     <g transform="translate(4.6805 .46368)">
      <ellipse transform="matrix(.99978 -.020878 .018915 .99982 0 0)" cx="7.7875" cy="86.828" rx="1.0638" ry="2.4871" fill="#836652"/>
      <ellipse transform="matrix(.99978 -.020878 .018915 .99982 0 0)" cx="7.9752" cy="86.828" rx=".87609" ry="2.4871" fill="#8fffff"/>
     </g>
     <g fill="#ac9393">
      <ellipse transform="matrix(.99978 -.020878 .018915 .99982 0 0)" cx="23.97" cy="95.666" rx=".31913" ry=".42207"/>
      <ellipse transform="matrix(.99978 -.020878 .018915 .99982 0 0)" cx="22.824" cy="95.526" rx=".31913" ry=".42207"/>
      <ellipse transform="matrix(.99978 -.020878 .018915 .99982 0 0)" cx="21.698" cy="95.338" rx=".26281" ry=".34759"/>
      <ellipse transform="matrix(.99978 -.020878 .018915 .99982 0 0)" cx="20.666" cy="95.151" rx=".31913" ry=".42207"/>
      <ellipse transform="matrix(.99978 -.020878 .018915 .99982 0 0)" cx="23.444" cy="94.494" rx=".31913" ry=".42207"/>
      <ellipse transform="matrix(.99978 -.020878 .018915 .99982 0 0)" cx="22.224" cy="94.33" rx=".31913" ry=".42207"/>
      <ellipse transform="matrix(.99978 -.020878 .018915 .99982 0 0)" cx="18.488" cy="94.705" rx=".31913" ry=".42207"/>
      <ellipse transform="matrix(.99978 -.020878 .018915 .99982 0 0)" cx="17.418" cy="94.4" rx=".31913" ry=".42207"/>
      <ellipse transform="matrix(.99978 -.020878 .018915 .99982 0 0)" cx="33.469" cy="94.353" rx=".31913" ry=".42207"/>
      <ellipse transform="matrix(.99978 -.020878 .018915 .99982 0 0)" cx="34.482" cy="94.306" rx=".26594" ry=".35172"/>
      <ellipse transform="matrix(.99978 -.020878 .018915 .99982 0 0)" cx="35.477" cy="94.166" rx=".31913" ry=".42207"/>
      <ellipse transform="matrix(.99978 -.020878 .018915 .99982 0 0)" cx="35.064" cy="95.455" rx=".31913" ry=".42207"/>
      <ellipse transform="matrix(.99978 -.020878 .018915 .99982 0 0)" cx="42.427" cy="87.4" rx=".31913" ry=".42207"/>
      <ellipse transform="matrix(.99978 -.020878 .018915 .99982 0 0)" cx="43.468" cy="87.214" rx=".31913" ry=".42207"/>
      <ellipse transform="matrix(.99978 -.020878 .018915 .99982 0 0)" cx="44.36" cy="87.028" rx=".31913" ry=".42207"/>
      <ellipse transform="matrix(.99978 -.020878 .018915 .99982 0 0)" cx="45.698" cy="86.843" rx=".31913" ry=".42207"/>
      <ellipse transform="matrix(.99978 -.020878 .018915 .99982 0 0)" cx="44.063" cy="88.328" rx=".31913" ry=".42207"/>
      <ellipse transform="matrix(.99978 -.020878 .018915 .99982 0 0)" cx="43.617" cy="92.042" rx=".31913" ry=".42207"/>
      <ellipse transform="matrix(.99978 -.020878 .018915 .99982 0 0)" cx="44.509" cy="91.857" rx=".31913" ry=".42207"/>
      <ellipse transform="matrix(.99978 -.020878 .018915 .99982 0 0)" cx="45.401" cy="91.485" rx=".31913" ry=".42207"/>
      <ellipse transform="matrix(.99978 -.020878 .018915 .99982 0 0)" cx="44.063" cy="93.342" rx=".31913" ry=".42207"/>
      <ellipse transform="matrix(.99978 -.020878 .018915 .99982 0 0)" cx="42.576" cy="92.228" rx=".31913" ry=".42207"/>
      <ellipse transform="matrix(.99978 -.020878 .018915 .99982 0 0)" cx="43.022" cy="90.928" rx=".31913" ry=".42207"/>
      <ellipse transform="matrix(.99978 -.020878 .018915 .99982 0 0)" cx="33.722" cy="90.29" rx=".24821" ry=".32828"/>
      <ellipse transform="matrix(.99978 -.020878 .018915 .99982 0 0)" cx="34.763" cy="90.104" rx=".31913" ry=".42207"/>
      <ellipse transform="matrix(.99978 -.020878 .018915 .99982 0 0)" cx="34.168" cy="88.99" rx=".31913" ry=".42207"/>
      <ellipse transform="matrix(.99978 -.020878 .018915 .99982 0 0)" cx="39.725" cy="94.735" rx=".31913" ry=".42207"/>
      <ellipse transform="matrix(.99978 -.020878 .018915 .99982 0 0)" cx="47.158" cy="92.789" rx=".31913" ry=".42207"/>
      <ellipse transform="matrix(.99978 -.020878 .018915 .99982 0 0)" cx="24.439" cy="89.171" rx=".31913" ry=".42207"/>
      <ellipse transform="matrix(.99978 -.020878 .018915 .99982 0 0)" cx="23.463" cy="89.007" rx=".28159" ry=".37241"/>
      <ellipse transform="matrix(.99978 -.020878 .018915 .99982 0 0)" cx="22.505" cy="88.773" rx=".31913" ry=".42207"/>
      <ellipse transform="matrix(.99978 -.020878 .018915 .99982 0 0)" cx="23.988" cy="88.046" rx=".31913" ry=".42207"/>
      <ellipse transform="matrix(.99978 -.020878 .018915 .99982 0 0)" cx="15.635" cy="87.202" rx=".31913" ry=".42207"/>
      <ellipse transform="matrix(.99978 -.020878 .018915 .99982 0 0)" cx="14.743" cy="86.83" rx=".31913" ry=".42207"/>
      <ellipse transform="matrix(.99978 -.020878 .018915 .99982 0 0)" cx="14.891" cy="90.73" rx=".31913" ry=".42207"/>
      <ellipse transform="matrix(.99978 -.020878 .018915 .99982 0 0)" cx="14.148" cy="91.844" rx=".26281" ry=".34759"/>
      <ellipse transform="matrix(.84468 .53528 -.37309 .92779 0 0)" cx="44.773" cy="64.811" rx=".25942" ry=".31124"/>
      <ellipse transform="matrix(.99978 -.020878 .018915 .99982 0 0)" cx="48.627" cy="84.85" rx=".24821" ry=".32828"/>
     </g>
     <ellipse transform="matrix(.99978 -.020878 .018915 .99982 0 0)" cx="27.384" cy="93.501" rx=".41302" ry=".51589" fill="#6c5353"/>
     <g fill="#fff" fill-opacity=".9918">
      <ellipse transform="matrix(.99978 -.020878 .018915 .99982 0 0)" cx="18.375" cy="88.929" rx=".63082" ry=".76825"/>
      <ellipse transform="matrix(.99978 -.020878 .018915 .99982 0 0)" cx="37.954" cy="89.192" rx=".63082" ry=".76825"/>
      <ellipse transform="matrix(.99999 -.0037542 .0079401 .99997 0 0)" cx="13.341" cy="87.191" rx=".33878" ry=".76824"/>
      <ellipse transform="matrix(.99816 -.060674 .044444 .99901 0 0)" cx="46.016" cy="89.357" rx=".25709" ry=".76807"/>
     </g>
     <path d="m36.823 96.756s-0.81782-1.0798-0.49843-1.5639c0.31945-0.48412 0.38394-0.55362 0.38394-0.55362s-0.94526-0.8725 0.30068-1.3043l1.2459-0.43178c3.3504 2.1277 1.2422-0.08851 2.1126-0.10491 1.2249-0.07802 0.59735 0.46522 1.466 0.52162 1.0587 0.05006 0.96058-0.5028 1.113 0.38341 0.28088 0.74304 0.10734 1.3449-0.51576 2.6146-1.6737 0.45969-3.423 0.79838-5.608 0.43884z" fill="#43cc32"/>
     <path d="m18.169 95.685s-0.40142-1.2124-0.05672-1.5721c2.5848 0.60868-1.561-1.3754 1.9512-1.5889 0.39421 2.1918-0.47664 0.7989 1.5392 1.8282 1.5868 0.41096 1.7001 1.4044 0.94597 2.4317-1.3753-0.0256-2.7832-0.18276-4.3796-1.0989z" fill="#43cc32"/>
     <path d="m27.761 96.633c-0.1792-4.3817-0.49886-7.8302 2.9303-8.5967 3.7603 0 2.9348 5.0636 3.1701 8.4029" fill="#f2b200" stroke-width=".96259"/>
     <path d="m36.895 97.736c0.09839-4.3586 0.25337-8.742-1.4647-9.491-1.8856 0.01497-1.2777 4.9619-1.4022 8.2839" fill="#97623e" stroke-width=".96259"/>
     <path d="m30.195 96.562c0.02907-0.08175 0.05323-0.16783 0.07329-0.25754 0.02432-0.10878 0.33562 0.01351 0.34926-0.10471 0.03235-0.28046-0.13257-0.70094-0.19094-1.0571-0.08541-0.52126 0.38123-1.2005 0.40766-1.6294l-0.14155-1.4742-1.1251-0.57791-0.42154-0.93866-0.26201-0.40121c0.03568-0.19209 0.19301-0.47579 0.53959-0.54879l0.03124 0.47735 0.22448-0.03994-0.08592 0.383 0.57533 0.75177 0.88845 0.35524 0.24151-0.34157-0.17031-0.22438c-0.03456-0.2448-0.04613-0.41969-0.0196-0.5543 0.02061-0.10458-0.03899-0.20823 0.03186-0.29248 0.07962-0.09467 0.19464-0.18926 0.35338-0.31245l0.71333 0.05754 0.24474 0.64958-0.162 0.07766-0.04778 0.48533-0.15886 0.13693 0.11442 0.2529 0.29671 0.12315c0.31571 0.04008 0.58539 0.17353 1.0177-0.02303l0.65702-0.26055c0.07982-0.35317 0.14598-0.21886 0.21212-0.08412l0.22973-0.0911c0.2043 0.1444 0.21842 0.37508 0.11336 0.65983-0.09614 0.03818-0.29664 0.16691-0.39336 0.19899-0.09716 0.03222-0.09054-0.03224-0.18834-0.0054-0.52126 0.14333-1.0518 0.21676-1.5955 0.2827-0.11947 0.54823-0.12071 1.0965-0.07465 1.6447 0.0036 0.9345 0.15238 1.5178 0.27254 2.1942 0.01061 0.05973 0.20128 0.15727 0.21132 0.21876 0.01176 0.07201 0.02305 0.14544 0.03368 0.22077l-0.81078-0.01436c-0.01349-0.06687-0.02729-0.1314-0.04131-0.1941-0.02042-0.0913 0.04783-0.09722 0.02677-0.18223-0.14997-0.60529-0.39811-1.1708-0.46314-2.0799l-0.27567 0.01611c-0.12385 0.39006-0.23809 0.43652-0.30552 1.1545l0.1018 1.3113z" fill="#4d4d4d" stroke-width="4.9266" style="mix-blend-mode:normal"/>
    </g>
   </g>
   <g transform="matrix(2.4272 0 0 2.4272 -5234.5 -3072.8)">
    <g transform="translate(-352.25 60.347)">
     <g transform="matrix(.45476 0 0 .45476 1907.3 1127.6)" stroke="#283f00" stroke-linecap="round" stroke-linejoin="round" stroke-miterlimit="10">
      <path d="m3221.8 2045.5c-0.9497 27.558 1.3953 47.908-8.08 86.859 6.0949-0.5045 7.1257 2.7217 16.428-1.5828 0-0.2149 3.8392-29.724 1.9134-86.549z" fill="#c1a778" stroke-width=".61761"/>
      <path d="m3237.7 2051.5 5.555 4.1563-0.3569 6.4938 4.2552-1.0874 1.6761 9.3099 19.24 13.738c5.0012-21.914-2.7684-40.229-14.177-51.332l12.488-10.898 6.2853 1.697-0.1898-4.3835 9.464 0.3103 17.458-15.948c-28.933-13.433-56.166-0.2502-66.093 16.31-5.7896-15.431-26.318-30.732-52.637-24.34l12 16.314 7.9926 1.3287-0.8841 3.6486 5.5529-0.3715 3.5063 4.5424c-16.852-3.2533-37.949 1.3092-54.056 19.59l23.881 8.0787 9.0931-4.35 1.7136 4.35 5.394-4.35 10.277 3.2234c-3.8826 6.9224-5.9533 15.61-4.6307 25.604l14.97-8.7304 1.8516-6.6835 3.0238 1.0825 0.1918-4.7653 5.5779-3.4142 11.817 17.337s2.0127-7.914-0.2377-16.461z" fill="#75c108" stroke-width=".5374"/>
     </g>
    </g>
   </g>
   <path d="m2053.7 2133.7c17.261-10.805 22.456-9.6773 22.903 6.4359 0.4336 15.942 31.255-9.5627 24.852-0.6387-7.41 9.0117 47.803 8.1542 44.139 22.608-5.1589-1.3079-88.027 11.02-126.84-4.9644-1.8297-11.9 32.689 7.827 34.94-23.441z" fill="#36a528" stroke-width="1.5247"/>
  </g>
  <g transform="matrix(.10901 0 0 .10901 -175.61 -159.26)">
   <g transform="translate(-56.498 23.317)">
    <g transform="matrix(6.3401 -.14113 .088212 4.9703 1822.7 1661.8)" fill="#31c23c">
     <path d="m9.0677 127.45c-2.6365-6.3204 27.682-17.354 34.41-18.729 10.078-0.65272 42.433 9.9018 47.216 18.775 0.2996 0.55578 0.16868 0.31312 0.38521 0.78324 0.28639 0.6218 0.38004 1.2773-0.0052 1.5815-14.96 12.445-66.933 11.824-82.006-2.4102z"/>
     <path d="m22.343 116.72c-0.74942-2.4622-0.7975-1.1977-0.65354-0.20845-0.7557-1.7773 0.29837 1.8116-0.7571-0.37545 0.71825 2.4474-1.2421-2.1879-0.34002 0.5543-1.0214-1.8543-1.1365-2.1132-0.37738 0.0416-0.43726-0.58316-1.0452-1.6686-0.40279 0.50576-0.63577-0.44832-0.46501-0.9918-0.49418 0.0412-0.87665-0.48991 0.49959 1.2221-0.83125-0.24842 0.06938 0.76185-0.38668 0.0963 0.23554 1.6906-0.80283-1.24-1.1162-2.6669-0.70438-0.40216-1.3306-2.2868 0.07114 1.4603-1.1812-1.0193-0.05934 0.32361 0.1264 1.542 0.19188 2.2298" stroke-opacity="0"/>
     <path d="m80.205 119.5c0.78266-2.441 0.81359-1.1754 0.65624-0.19034 0.77965-1.7561-0.32288 1.803 0.76204-0.35445-0.75132 2.4271 1.2715-2.1531 0.33244 0.5636 1.0464-1.8257 1.165-2.0814 0.37675 0.0521 0.44508-0.57094 1.0677-1.6394 0.39586 0.51681 0.64173-0.43065 0.47837-0.97874 0.49353 0.0549 0.88314-0.46552-0.51607 1.2081 0.83446-0.22535-0.0797 0.75977 0.3853 0.10695-0.25842 1.6837 0.81951-1.2176 1.1522-2.6355 0.7097-0.38257 1.3613-2.2495-0.09093 1.4581 1.1948-0.9864 0.05491 0.32522-0.14729 1.5382-0.22208 2.224" stroke-opacity="0"/>
    </g>
    <path transform="matrix(9.1738,0,0,9.1738,1642,1444.7)" d="m52.289 88.401c-1.9559 2.0144-3.1481 3.8339-1.9715 5.3764 0.80524 2.4323 2.5405 4.789 3.4477 5.4198 7.819 0.74904 3.6551-0.15968 8.0309-1.0112-3.99 0.94224 3.0069 0.01397 2.9806-0.21627 0 0-3.8024-1.7175-6.1156-3.3092-4.4487-3.0611-2.3101-4.1445-2.298-6.4304" fill="#b0c767"/>
    <path transform="matrix(9.1738 0 0 9.1738 1642 1444.7)" d="m41.537 84.883c-11.272 4.3752 1.4261 7.4758 14.212 6.8867 12.409-0.57169 24.277-3.5878 14.409-6.3004l-16.452-1.2015z" opacity=".2"/>
   </g>
  </g>
  <path d="m98.574 50.897-10.036 0.08827c-1.6677 2.0252-2.3167 4.3899-1.8598 7.1233 1.0736 0.146 2.2463 0.04922 3.816 0v33.739c2.6932 0.83572 5.3863 0.56971 8.0795 0v-0.73692c0.8948 0.38603 1.8423 0.68429 2.8423 0.8948 1 0.2105 2.0528 0.31575 3.1581 0.31575 2.0528 0 3.9388-0.36838 5.6583-1.1053 1.7194-0.75441 3.202-1.772 4.4477-3.0528 1.2457-1.2983 2.2106-2.816 2.8949-4.5529 0.7018-1.737 1.0527-3.588 1.0527-5.553 0-1.9475-0.35971-3.7897-1.079-5.5267-0.70179-1.7369-1.6755-3.2546-2.9213-4.5529-1.2457-1.2983-2.7282-2.3247-4.4476-3.0791-1.7194-0.75441-3.588-1.1316-5.6056-1.1316-1.0527 0-2.0791 0.12222-3.0791 0.36838-1 0.24564-1.9738 0.59653-2.9213 1.0527zm5.9741 19.633c4.1467 0.0015 7.5079 3.3626 7.5093 7.5093 4e-3 4.1501-3.3592 7.5166-7.5093 7.518-4.1535 4e-3 -7.5215-3.3645-7.518-7.518 0.0015-4.1501 3.3679-7.5127 7.518-7.5093z" fill="#fff" stroke-width="4.4915"/>
  <g transform="matrix(.92895 -.020679 .012925 .72824 55.479 5.1355)" fill="#2db337">
   <path d="m9.0677 127.45c-2.6365-6.3204 24.306-16.281 34.287-17.173 15.076-1.1604 42.556 8.3462 47.339 17.219 0.2996 0.55578 0.16868 0.31312 0.38521 0.78324 0.28639 0.6218 0.38004 1.2773-0.0052 1.5815-14.96 12.445-66.933 11.824-82.006-2.4102z"/>
   <path d="m22.343 116.72c-0.74942-2.4622-0.7975-1.1977-0.65354-0.20845-0.7557-1.7773 0.29837 1.8116-0.7571-0.37545 0.71825 2.4474-1.2421-2.1879-0.34002 0.5543-1.0214-1.8543-1.1365-2.1132-0.37738 0.0416-0.43726-0.58316-1.0452-1.6686-0.40279 0.50576-0.63577-0.44832-0.46501-0.9918-0.49418 0.0412-0.87665-0.48991 0.49959 1.2221-0.83125-0.24842 0.06938 0.76185-0.38668 0.0963 0.23554 1.6906-0.80283-1.24-1.1162-2.6669-0.70438-0.40216-1.3306-2.2868 0.07114 1.4603-1.1812-1.0193-0.05934 0.32361 0.1264 1.542 0.19188 2.2298" stroke-opacity="0"/>
   <path d="m80.205 119.5c0.78266-2.441 0.81359-1.1754 0.65624-0.19034 0.77965-1.7561-0.32288 1.803 0.76204-0.35445-0.75132 2.4271 1.2715-2.1531 0.33244 0.5636 1.0464-1.8257 1.165-2.0814 0.37675 0.0521 0.44508-0.57094 1.0677-1.6394 0.39586 0.51681 0.64173-0.43065 0.47837-0.97874 0.49353 0.0549 0.88314-0.46552-0.51607 1.2081 0.83446-0.22535-0.0797 0.75977 0.3853 0.10695-0.25842 1.6837 0.81951-1.2176 1.1522-2.6355 0.7097-0.38257 1.3613-2.2495-0.09093 1.4581 1.1948-0.9864 0.05491 0.32522-0.14729 1.5382-0.22208 2.224" stroke-opacity="0"/>
  </g>
  <path d="m105.26 84.597c0.35494 0.32511-4.6811-0.21686-5.7611 0.52476-5.973 4.1016-1.8228 7.7167-0.58538 10.144 2.1165 4.1508-3.4397 7.6288-4.8731 9.4353-0.27617 0.34887 0.28448 0.51795 0.49979 0.56944 4.8504 1.1597 12.038 0.96381 17.538-0.33546 0.16693-0.0395 0.56544-0.0601 0.53006-0.52309 0 0 0.43883-7.5274-2.916-10.114-4.4897-2.696-9.8497-4.684-4.1601-9.4761" fill="#b0c767" stroke-width="1.2231"/>
 </g>
 <path d="m106.6 22.967c-0.88706-0.05106-1.7196-0.16524-2.3136-0.31732-0.49708-0.12732-1.0866-0.38924-1.3012-0.57849-0.19184-0.16914-0.19776-0.20982-0.0908-0.6203 0.26278-1.0089 1.2011-1.9745 2.4553-2.5269 0.27998-0.12327 0.35952-0.14284 0.63949-0.15752 0.54405-0.02867 0.90594 0.09025 2.0687 0.67918 0.88685 0.44914 1.1422 0.53409 1.6093 0.5355 0.30631 9.29e-4 0.39122-0.01087 0.52718-0.07365 0.0891-0.04103 0.17626-0.07473 0.19346-0.07473 0.0484 0 0.45678 0.25994 0.74568 0.47593 0.9019 0.67369 1.096 1.3006 0.54663 1.7663-0.30309 0.25717-0.76003 0.45275-1.4294 0.61207-0.96542 0.22979-2.4902 0.34668-3.6509 0.27991zm-63.125-2.737c-0.76266-0.12678-1.4913-0.4785-2.0513-0.99033-0.34877-0.31881-0.5964-0.67153-0.73112-1.0419-0.18594-0.51162-0.07631-1.0092 0.29126-1.321 0.34877-0.29548 0.90416-0.47317 1.6767-0.53625l0.28696-0.02323 0.12091-0.34006c0.14294-0.40254 0.22732-0.56281 0.4412-0.84076 0.71983-0.93445 2.0281-1.0772 3.6211-0.39512 0.64707 0.27704 1.4658 0.82636 1.8722 1.256 0.14832 0.15678 0.26816 0.23962 0.52987 0.36636 1.136 0.55007 1.6866 1.1576 1.6078 1.7742-0.08866 0.69477-0.97477 1.3534-2.2711 1.6882-0.9508 0.24556-1.92 0.26725-2.8283 0.06337l-0.31222-0.07014-0.26117 0.121c-0.4455 0.20646-0.83688 0.29508-1.3595 0.30798-0.25096 0.0064-0.53578-0.0019-0.6331-0.01829zm47.715-7.7886c-0.42668-0.02966-0.99771-0.12456-1.2909-0.21451-0.90109-0.2766-1.1701-0.7662-0.79813-1.4524 0.17035-0.31446 0.76686-0.87508 1.2127-1.14 1.8756-1.1146 3.6919-1.0511 4.3649 0.15263 0.13757 0.2459 0.15422 0.26182 0.345 0.33097 0.37778 0.13676 1.0539 0.47297 1.2643 0.62895 0.12682 0.09411 0.24558 0.21951 0.29986 0.31638 0.08013 0.14339 0.08546 0.17433 0.04838 0.29073-0.10742 0.33037-0.78695 0.62657-1.9243 0.83899-1.0187 0.1903-2.6747 0.30704-3.5211 0.24827z" fill="#fff" opacity=".7" stroke-width=".035017"/>
 <g transform="matrix(.078065 0 0 .078065 -174.1 -135.86)">
  <g transform="matrix(9.7025,0,0,9.7025,2280.2,1361.8)">
   <path d="m13.371 93.457c-1.524-3.4624-1.3981-6.2868-0.81767-9.5353 0.12664-1.7274 2.9456-4.307 2.9456-4.307l5.6019-1.4437 8.5354-0.77527 12.74-0.26604 6.7757 1.6496 1.649 2.9507c0.21782 1.085 0.6517 2.2002 0.76971 3.2317 0.32795 2.867 0.38797 5.8858-0.39467 8.1703-2.7312 2.2785-13.245 3.2692-16.842 3.2946l-7.2782 0.27329c-4.7611-0.07077-9.3197-1.0078-13.685-3.2428z" fill="url(#linearGradient1)"/>
   <path d="m11.871 90.793c1.8544-0.83026 2.4126-0.74364 2.4607 0.49454 0.04659 1.225 0.73459 0.53924 0.04659 1.225-0.79611 0.69249-0.38767 0.32707-0.7812 1.4377-0.55425-0.10051-0.99472-0.30527-1.2967-0.63689-0.19658-0.91445-0.67129-0.11769-0.42939-2.5203z" fill="#43cc32"/>
   <path d="m49.95 91.679c2.3175-2.4968 2.5339-1.6274 2.5811-0.3891 0.0466 1.225 0.33907 0.86951 0.11154 1.4677-0.36897 0.55315-0.7498 0.79732-2.0245 1.1701-0.42748-0.7244-1.3213 0.59513-0.66813-2.2487z" fill="#43cc32"/>
   <path d="m27.188 96.752c-0.21241-4.913-0.59134-8.7796 3.4735-9.6391 4.4574 0 3.4789 5.6776 3.7577 9.4217" fill="#6c5353"/>
   <path d="m21.017 79.366c11.213-2.4232 10.094-2.5989 11.213-2.4232l1.1185 0.17566s6.1365-1.2559 9.4592 0.33315l3.3226 1.589-6.3263 2.4539-11.626 0.24278z" fill="#906821" stroke="#000" stroke-width=".083078px"/>
   <g fill="#74541a">
    <path d="m36.185 78.041 0.11682 2.6808 0.59384-0.05367-0.16155-3.299-0.58994 0.26z"/>
    <path d="m29.906 78.172 0.11682 2.6808 0.59382-0.05366-0.16154-3.299-0.58995 0.26001z"/>
    <path d="m26.075 78.293 0.11683 2.6808 0.59381-0.05366-0.16155-3.299-0.58994 0.26z"/>
   </g>
   <path d="m39.324 77.975 0.11682 2.6808 0.59384-0.05367-0.16157-3.299-0.58992 0.26z" fill="#6f5019"/>
   <path d="m21.712 79.309c10.145-2.9778 15.871-1.1007 22.097 0.26826l2.8314-1.9165-3.43-1.6531c-3.9462-0.3755-5.6547-1.2747-11.838-1.1265-4.7249 0.48679-5.5175 0.69683-6.2664 0.90379l-7.0336 2.0081z" fill="url(#linearGradient2)"/>
   <ellipse transform="matrix(.99978 -.020878 .018915 .99982 0 0)" cx="18.944" cy="89.617" rx="2.7227" ry="3.1272" fill="#836652"/>
   <ellipse transform="matrix(.99978 -.020878 .018915 .99982 0 0)" cx="19.224" cy="89.617" rx="2.1783" ry="2.6529" fill="#8fffff"/>
   <ellipse transform="matrix(.99983 -.018221 .021673 .99977 0 0)" cx="38.908" cy="89.736" rx="2.8633" ry="2.9012" fill="#755b49"/>
   <ellipse transform="matrix(.99983 -.018426 .021432 .99977 0 0)" cx="38.694" cy="89.742" rx="2.3654" ry="2.6198" fill="#8fffff"/>
   <ellipse transform="matrix(.99978 -.020878 .018915 .99982 0 0)" cx="47.807" cy="88.076" rx="1.3746" ry="2.1772" fill="#836652"/>
   <ellipse transform="matrix(.99978 -.020878 .018915 .99982 0 0)" cx="47.6" cy="88.078" rx="1.1681" ry="1.9896" fill="#8fffff"/>
   <path d="m11.583 82.414c4.2043-5.0355 5.1443-5.0541 5.1563-5.0543 9.3154-2.9691 16.553-1.9032 15.388-2.0745-3.0326-0.54809-15.586 2.6677-12.456 2.9196 1.6395 1.6068 17.56 2.5166 26.181-0.29129-0.56564-1.6898-11.632-2.6726-13.649-2.6771 5.4035-0.55233 11.109-0.38676 15.704 1.8842 2.5877 1.7927 2.6707 3.046 3.968 4.5608-7.2228 2.337-12.785 3.0227-19.473 3.4024-7.4187 0.95978-15.113-1.39-20.82-2.6699z" fill="url(#linearGradient3)"/>
   <g transform="translate(4.6805 .46368)">
    <ellipse transform="matrix(.99978 -.020878 .018915 .99982 0 0)" cx="7.7875" cy="86.828" rx="1.0638" ry="2.4871" fill="#836652"/>
    <ellipse transform="matrix(.99978 -.020878 .018915 .99982 0 0)" cx="7.9752" cy="86.828" rx=".87609" ry="2.4871" fill="#8fffff"/>
   </g>
   <g fill="#ac9393">
    <ellipse transform="matrix(.99978 -.020878 .018915 .99982 0 0)" cx="23.97" cy="95.666" rx=".31913" ry=".42207"/>
    <ellipse transform="matrix(.99978 -.020878 .018915 .99982 0 0)" cx="22.824" cy="95.526" rx=".31913" ry=".42207"/>
    <ellipse transform="matrix(.99978 -.020878 .018915 .99982 0 0)" cx="21.698" cy="95.338" rx=".26281" ry=".34759"/>
    <ellipse transform="matrix(.99978 -.020878 .018915 .99982 0 0)" cx="20.666" cy="95.151" rx=".31913" ry=".42207"/>
    <ellipse transform="matrix(.99978 -.020878 .018915 .99982 0 0)" cx="23.444" cy="94.494" rx=".31913" ry=".42207"/>
    <ellipse transform="matrix(.99978 -.020878 .018915 .99982 0 0)" cx="22.224" cy="94.33" rx=".31913" ry=".42207"/>
    <ellipse transform="matrix(.99978 -.020878 .018915 .99982 0 0)" cx="18.488" cy="94.705" rx=".31913" ry=".42207"/>
    <ellipse transform="matrix(.99978 -.020878 .018915 .99982 0 0)" cx="17.418" cy="94.4" rx=".31913" ry=".42207"/>
    <ellipse transform="matrix(.99978 -.020878 .018915 .99982 0 0)" cx="33.469" cy="94.353" rx=".31913" ry=".42207"/>
    <ellipse transform="matrix(.99978 -.020878 .018915 .99982 0 0)" cx="34.482" cy="94.306" rx=".26594" ry=".35172"/>
    <ellipse transform="matrix(.99978 -.020878 .018915 .99982 0 0)" cx="35.477" cy="94.166" rx=".31913" ry=".42207"/>
    <ellipse transform="matrix(.99978 -.020878 .018915 .99982 0 0)" cx="35.064" cy="95.455" rx=".31913" ry=".42207"/>
    <ellipse transform="matrix(.99978 -.020878 .018915 .99982 0 0)" cx="42.427" cy="87.4" rx=".31913" ry=".42207"/>
    <ellipse transform="matrix(.99978 -.020878 .018915 .99982 0 0)" cx="43.468" cy="87.214" rx=".31913" ry=".42207"/>
    <ellipse transform="matrix(.99978 -.020878 .018915 .99982 0 0)" cx="44.36" cy="87.028" rx=".31913" ry=".42207"/>
    <ellipse transform="matrix(.99978 -.020878 .018915 .99982 0 0)" cx="45.698" cy="86.843" rx=".31913" ry=".42207"/>
    <ellipse transform="matrix(.99978 -.020878 .018915 .99982 0 0)" cx="44.063" cy="88.328" rx=".31913" ry=".42207"/>
    <ellipse transform="matrix(.99978 -.020878 .018915 .99982 0 0)" cx="43.617" cy="92.042" rx=".31913" ry=".42207"/>
    <ellipse transform="matrix(.99978 -.020878 .018915 .99982 0 0)" cx="44.509" cy="91.857" rx=".31913" ry=".42207"/>
    <ellipse transform="matrix(.99978 -.020878 .018915 .99982 0 0)" cx="45.401" cy="91.485" rx=".31913" ry=".42207"/>
    <ellipse transform="matrix(.99978 -.020878 .018915 .99982 0 0)" cx="44.063" cy="93.342" rx=".31913" ry=".42207"/>
    <ellipse transform="matrix(.99978 -.020878 .018915 .99982 0 0)" cx="42.576" cy="92.228" rx=".31913" ry=".42207"/>
    <ellipse transform="matrix(.99978 -.020878 .018915 .99982 0 0)" cx="43.022" cy="90.928" rx=".31913" ry=".42207"/>
    <ellipse transform="matrix(.99978 -.020878 .018915 .99982 0 0)" cx="33.722" cy="90.29" rx=".24821" ry=".32828"/>
    <ellipse transform="matrix(.99978 -.020878 .018915 .99982 0 0)" cx="34.763" cy="90.104" rx=".31913" ry=".42207"/>
    <ellipse transform="matrix(.99978 -.020878 .018915 .99982 0 0)" cx="34.168" cy="88.99" rx=".31913" ry=".42207"/>
    <ellipse transform="matrix(.99978 -.020878 .018915 .99982 0 0)" cx="39.725" cy="94.735" rx=".31913" ry=".42207"/>
    <ellipse transform="matrix(.99978 -.020878 .018915 .99982 0 0)" cx="47.158" cy="92.789" rx=".31913" ry=".42207"/>
    <ellipse transform="matrix(.99978 -.020878 .018915 .99982 0 0)" cx="24.439" cy="89.171" rx=".31913" ry=".42207"/>
    <ellipse transform="matrix(.99978 -.020878 .018915 .99982 0 0)" cx="23.463" cy="89.007" rx=".28159" ry=".37241"/>
    <ellipse transform="matrix(.99978 -.020878 .018915 .99982 0 0)" cx="22.505" cy="88.773" rx=".31913" ry=".42207"/>
    <ellipse transform="matrix(.99978 -.020878 .018915 .99982 0 0)" cx="23.988" cy="88.046" rx=".31913" ry=".42207"/>
    <ellipse transform="matrix(.99978 -.020878 .018915 .99982 0 0)" cx="15.635" cy="87.202" rx=".31913" ry=".42207"/>
    <ellipse transform="matrix(.99978 -.020878 .018915 .99982 0 0)" cx="14.743" cy="86.83" rx=".31913" ry=".42207"/>
    <ellipse transform="matrix(.99978 -.020878 .018915 .99982 0 0)" cx="14.891" cy="90.73" rx=".31913" ry=".42207"/>
    <ellipse transform="matrix(.99978 -.020878 .018915 .99982 0 0)" cx="14.148" cy="91.844" rx=".26281" ry=".34759"/>
    <ellipse transform="matrix(.84468 .53528 -.37309 .92779 0 0)" cx="44.773" cy="64.811" rx=".25942" ry=".31124"/>
    <ellipse transform="matrix(.99978 -.020878 .018915 .99982 0 0)" cx="48.627" cy="84.85" rx=".24821" ry=".32828"/>
   </g>
   <g fill="#fff" fill-opacity=".9918">
    <ellipse transform="matrix(.99978 -.020878 .018915 .99982 0 0)" cx="18.375" cy="88.929" rx=".63082" ry=".76825"/>
    <ellipse transform="matrix(.99978 -.020878 .018915 .99982 0 0)" cx="37.954" cy="89.192" rx=".63082" ry=".76825"/>
    <ellipse transform="matrix(.99999 -.0037542 .0079401 .99997 0 0)" cx="13.341" cy="87.191" rx=".33878" ry=".76824"/>
    <ellipse transform="matrix(.99816 -.060674 .044444 .99901 0 0)" cx="46.016" cy="89.357" rx=".25709" ry=".76807"/>
   </g>
   <path d="m36.823 96.756s-0.81782-1.0798-0.49843-1.5639c0.31945-0.48412 0.38394-0.55362 0.38394-0.55362s-0.94526-0.8725 0.30068-1.3043l1.2459-0.43178c3.3504 2.1277 1.2422-0.08851 2.1126-0.10491 1.2249-0.07802 0.59735 0.46522 1.466 0.52162 1.0587 0.05006 0.96058-0.5028 1.113 0.38341 0.28088 0.74304 0.10734 1.3449-0.51576 2.6146-1.6737 0.45969-3.423 0.79838-5.608 0.43884z" fill="#43cc32"/>
   <path d="m14.702 94.892s-0.40142-1.2124-0.05672-1.5721c1.0332-0.82297-0.26683-1.4078 0.90888-1.5255l1.0424-0.06335c0.39421 2.1918 0.63441 0.31287 2.6502 1.3422 0.79922 0.3297 0.83887-0.20513 0.77164 0.65087 0.06066 0.75875-0.19687 1.2658-0.93673 2.2669-1.3753-0.0256-2.7832-0.18276-4.3796-1.0989z" fill="#43cc32"/>
   <path d="m27.627 96.656c-0.18616-4.552-0.51825-8.1345 3.0442-8.9308 3.9065 0 3.0489 5.2604 3.2933 8.7295" fill="#f2b200"/>
   <path d="m24.146 98.023c-0.10221-4.528-0.26322-9.0818 1.5216-9.8599 1.9589 0.01555 1.3274 5.1548 1.4567 8.6059" fill="#97623e"/>
   <ellipse transform="matrix(-.99935 -.035965 -.010977 .99994 0 0)" cx="-25.818" cy="93.239" rx=".23976" ry=".51583" fill="#6c5353"/>
   <path d="m30.648 92.97-0.26887 2.1727 0.54716-0.0059-0.08545 1.6764c-0.64623 0.38236-0.20912 0.2699-3e-3 0.26296l0.35472 0.0068 0.25325-1.9588 0.4598 0.0513-0.09335 1.8981 0.29327-0.03063c0.09101-0.08864 0.57012 0.12518 0.03722-0.4497l0.1625-1.415 0.32031 0.01271 0.08673-2.0375-0.19081-1.0719c0.0967-0.3613-0.03616-0.61013-0.1648-0.94634l0.47189-0.161 0.05276-0.13512 1.0886-0.25429 0.65918-0.98497c0.2348-0.2382 0.09503-0.47639-0.10408-0.71459l-0.32091 0.01931-0.1301 0.21244 0.06939 0.39592-0.43367 0.71458-0.90135 0.23829-0.14812-0.1031-0.64183 0.11588-0.37295 0.03865-0.01734-0.31866 0.28622-0.04828 0.02601-0.56008c-0.19439-0.9263-0.48153-1.1407-1.275-0.94634-0.25904 0.41018-0.26506 0.76621-0.27754 1.2457l0.12142 0.61802 0.45101-0.08692 0.04337 0.2221-0.45102 0.19313-0.75458 0.82081 0.10408 0.18348-0.36978 0.71665c-0.2114 0.19658 0.01915 0.18517 0.04489 0.32984l0.71518 0.69169 0.16479 0.20279 0.14744-0.09656 0.03469-0.54076c-0.33246-0.06604-0.48057-0.26098-0.70254-0.52147l0.32959-0.41523 0.13877 0.13519 0.26887-0.2897c0.03485 0.26303 0.16199 0.34811 0.31224 0.40557l-0.14744 0.60836-0.19081 0.17382" fill="#4d4d4d" stroke-width=".40947"/>
  </g>
  <g transform="matrix(.16434 0 0 .16434 1936.5 1755.3)">
   <ellipse cx="4894.7" cy="2192.6" rx="49.935" ry="12.142" opacity=".3"/>
   <g stroke="#283f00" stroke-linecap="round" stroke-linejoin="round" stroke-miterlimit="10" stroke-width="2.965">
    <path d="m4881 2180.9v-21.748c0-1.3301 1.0776-2.4097 2.4152-2.4097 1.3301 0 2.4049 1.0796 2.4049 2.4097v21.374c28.496 0.3256 27.742 6.3709 27.742 6.3709h-36.986c-0.3732-3.8743 2.3083-5.3989 4.4241-5.997z" fill="#ffde55"/>
    <path d="m4869.7 2185.1v-21.752c0-1.33 1.0755-2.4103 2.4049-2.4103 1.3377 0 2.4145 1.0803 2.4145 2.4103v21.374c28.497 0.3256 27.742 6.3709 27.742 6.3709h-36.993c-0.367-3.875 2.3166-5.3955 4.4324-5.9936z" fill="#ffde55"/>
    <path d="m4832 2150.6c-0.044-0.3139 51.394-50.531 68.838-50.531 17.435 0 31.58 14.143 31.58 31.586s-14.145 31.586-31.58 31.586c-14.531 0-52.651 2.6608-64.99-6.5241-19.274 34.531-36.754 12.058-36.754 12.058z" fill="#fff"/>
    <path d="m4925.9 2120.6c12.794-4.1889 20.872-17.26 18.452-30.887-2.6684-14.92-16.92-24.857-31.838-22.199-14.924 2.6601-24.854 16.908-22.203 31.833 0.4553 2.5221 1.241 4.9056 2.2931 7.1035" fill="#fff"/>
    <path d="m4935.1 2114.1c-14.626 1.5136-14.918-12.727-2.5187-14.121 0 0 5.5534-6.0459 11.83-10.258 7.9204 9.5326 22.45 10.306 23.907 25.365z" fill="#ffde55"/>
    <path d="m4875.3 2128.1c7.3754-5.9986 44.058-2.3577 44.853 4.769 0.7961 7.135-0.7559 21.892-16.505 23.406 0 0-57.097 3.21-56.29-7.6416l27.942-20.533" fill="#b3b3b3"/>
   </g>
   <path d="m4911.3 2091.3c0.7548 2.7278 3.5791 4.331 6.3089 3.5687 2.7325-0.7513 4.3261-3.5838 3.5707-6.3109-0.7547-2.7243-3.579-4.3241-6.3136-3.5687-2.7278 0.7617-4.3207 3.5825-3.566 6.3109z" fill="#283f00"/>
  </g>
  <g transform="matrix(.21545 .050005 -.050005 .21545 2816.9 2938.6)">
   <g stroke="#283f00" stroke-linecap="round" stroke-linejoin="round" stroke-miterlimit="10">
    <path d="m-2242-2580.9c-3.973-3.974-10.215-4.29-14.554-0.954-4.338-3.335-10.579-3.02-14.554 0.954-3.971 3.973-4.287 10.214-0.951 14.553-3.336 4.338-3.02 10.58 0.951 14.552 3.975 3.974 10.216 4.29 14.554 0.954 4.339 3.335 10.581 3.02 14.554-0.954 3.973-3.973 4.29-10.214 0.954-14.552 3.336-4.339 3.019-10.58-0.954-14.553z" fill="#fc0" stroke-width="2.5855"/>
    <circle cx="-2256.5" cy="-2566.4" r="7.1369" fill="#ffe680" stroke-width="3.5445"/>
   </g>
  </g>
  <g transform="matrix(.21545 .050005 -.050005 .21545 3012.6 2946.5)">
   <g stroke="#283f00" stroke-linecap="round" stroke-linejoin="round" stroke-miterlimit="10">
    <path d="m-2242-2580.9c-3.973-3.974-10.215-4.29-14.554-0.954-4.338-3.335-10.579-3.02-14.554 0.954-3.971 3.973-4.287 10.214-0.951 14.553-3.336 4.338-3.02 10.58 0.951 14.552 3.975 3.974 10.216 4.29 14.554 0.954 4.339 3.335 10.581 3.02 14.554-0.954 3.973-3.973 4.29-10.214 0.954-14.552 3.336-4.339 3.019-10.58-0.954-14.553z" fill="#fc0" stroke-width="2.5855"/>
    <circle cx="-2256.5" cy="-2566.4" r="7.1369" fill="#ffe680" stroke-width="3.5445"/>
   </g>
  </g>
  <g transform="matrix(-3.1993 0 0 3.2181 4411.3 2046.1)">
   <path d="m558.46 15.698c-4.4173 0.54768-9.7067 3.4372-10.138-6.716 0 0-12.994 4.0608-12.566-6.5598l0.42845-10.621 2.9987-6.4036c-4.0091-0.78715-1.6406-4.6748-2.4275-7.0284-4.5754-7.0048 1.5395-11.159 8.5674-12.022 1.2905-4.9378 3.7935-8.4985 14.851-2.3428l7.4252-9.8398c10.913-2.4519 17.74 3.5934 20.276 12.803 11.843-3.671 9.0449 4.1887 12.423 7.1847 6.0448 3.6964 1.4721 8.6832 1.428 13.12 6.7251 17.274-0.0828 16.157-6.9969 21.397 0.76193 6.3363-2.7154 8.4992-9.5669 7.3408-7.9839-2.7249-13.607-5.3628-17.402-2.9261-4.0035 2.5707-7.0297 4.1042-9.3001 2.6137z" fill="#43cc32" stroke="#43cc32" stroke-width="1.1827px"/>
   <g transform="matrix(-2.8111,0,0,3.3424,1603.8,-281.36)" fill="#916f6f">
    <path d="m366.26 88.642c-0.68926-1.0208-1.3886-2.117-2.7007-2.8709-0.76316-0.43377-1.3843-0.0191-2.6292 0.02894-0.31184-0.10072-0.66929-0.18775-0.11625-0.54793l1.7426-0.07748c-0.61734-0.58621-0.38726-0.42005-0.79888-1.0929-0.25824-0.42216-0.39918-0.88466-0.32644-1.4167 0.12197-0.63955 0.26331-0.77547 0.4298-0.25731 0.68962 1.478 0.4694 1.6867 1.305 2.2242 1.6442 1.0577 2.2117 1.8463 3.2648 2.4799 0.15356-1.1454 0.73824-2.7579-0.0945-2.8348-1.3569-1.6465-2.7418-3.3425-4.8203-5.0907-0.95217-0.84718-1.5692-1.5396-0.33378-1.5993 0.0208 0.70932 2.3802 3.1181 3.3031 3.4579 0.38196-0.90387-0.25182-2.5568-0.51771-3.79-0.19251-0.07764-0.349-1.5034 0.70652 0.17044 0.23274 0.36909 0.39443 1.3511 0.62352 4.2765 0.39457 1.0419 1.9471 2.3361 2.7508 1.2512 2.7572-0.82621 3.5563-3.1555 5.791-5.0935 0.99838-0.86586 1.0234-0.07788 0.88689 0.09641-0.22915 0.02864-3.5076 2.9829-2.2068 2.7317 0.82192-0.25381 1.9576-0.18612 2.5213-0.0859 0.62308 0.12263 0.24092 0.51202-0.23087 0.52236-3.3002 0.0723-3.2349 0.40555-4.2146 1.44-0.29414 0.47433-2.0983 0.9568-1.9826 2.5437 1.7227-0.23793 6.8486-2.2968 5.8628-0.6523-1.5723-0.07752-2.7334 0.63649-3.4943 0.80241 0.46446 0.58694 1.0572 0.78909 1.6523 0.98404 0.20863 0.57954-0.11158 0.45395-0.4239 0.33888-2.3941-1.0817-3.6075-0.68714-3.9845 0.7733-0.17538 1.9568-0.43803 3.1801 0.0853 5.1515-0.74522 0.03847-1.8256 0.0103-2.6262 0.01329 0.294-1.2665 0.51107-2.0219 0.57586-3.8769z" fill="url(#linearGradient15121)"/>
   </g>
   <g transform="matrix(1.2939,0,0,1.5385,22.342,-63.895)" fill="#fa4545">
    <ellipse cx="409.18" cy="43.112" rx=".67365" ry=".72547"/>
    <ellipse cx="412.65" cy="36.22" rx=".67365" ry=".72547"/>
    <ellipse cx="406.59" cy="30.157" rx=".67365" ry=".72547"/>
    <ellipse cx="402.44" cy="37.204" rx=".67365" ry=".72547"/>
    <ellipse cx="402.44" cy="37.204" rx=".67365" ry=".72547"/>
    <ellipse cx="437.22" cy="32.299" rx=".76525" ry=".72547"/>
    <ellipse cx="437.99" cy="46.732" rx=".76525" ry=".72547"/>
    <ellipse cx="444.25" cy="37.612" rx=".76525" ry=".72547"/>
    <ellipse cx="426.39" cy="32.116" rx=".76525" ry=".72547"/>
    <ellipse cx="419.19" cy="26.07" rx=".76525" ry=".72547"/>
   </g>
  </g>
  <g transform="matrix(.17047 .039564 -.039564 .17047 2966.3 2811.9)">
   <g stroke="#283f00" stroke-linecap="round" stroke-linejoin="round" stroke-miterlimit="10">
    <path d="m-2242-2580.9c-3.973-3.974-10.215-4.29-14.554-0.954-4.338-3.335-10.579-3.02-14.554 0.954-3.971 3.973-4.287 10.214-0.951 14.553-3.336 4.338-3.02 10.58 0.951 14.552 3.975 3.974 10.216 4.29 14.554 0.954 4.339 3.335 10.581 3.02 14.554-0.954 3.973-3.973 4.29-10.214 0.954-14.552 3.336-4.339 3.019-10.58-0.954-14.553z" fill="#fc0" stroke-width="2.5855"/>
    <circle cx="-2256.5" cy="-2566.4" r="7.1369" fill="#ffe680" stroke-width="3.5445"/>
   </g>
  </g>
 </g>
</svg>
