<?xml version="1.0" encoding="UTF-8"?>
<!-- Created with Inkscape (http://www.inkscape.org/) -->
<svg width="168.71mm" height="56.324mm" version="1.1" viewBox="0 0 168.71 56.324" xmlns="http://www.w3.org/2000/svg">
 <defs>
  <clipPath id="clipPath5535">
   <path d="m393.29-172.81a52.077 52.077 0 0 0-52.077 52.076 52.077 52.077 0 0 0 52.077 52.077 52.077 52.077 0 0 0 52.077-52.077 52.077 52.077 0 0 0-52.077-52.076zm-1.0583 22.029a30.048 30.048 0 0 1 30.048 30.047 30.048 30.048 0 0 1-30.048 30.048 30.048 30.048 0 0 1-30.048-30.048 30.048 30.048 0 0 1 30.048-30.047z" fill="#0ff" stroke-width="0"/>
  </clipPath>
 </defs>
 <g transform="matrix(.93555 0 0 1 -12.419 -42.159)" style="mix-blend-mode:difference">
  <ellipse cx="103.44" cy="70.321" rx="90.165" ry="28.162" fill="#0ff" stroke-width=".2401"/>
  <g transform="matrix(.090962 0 0 .090962 -30.683 344.62)" fill="#fff">
   <path d="m862.03-3084.6c-3.1215 8e-4 -6.0931 0.6494-8.8417 1.7735-4.1123-17.959-19.286-31.297-37.388-31.297-18.108-1e-4 -33.283 13.338-37.39 31.295-2.747-1.1248-5.7257-1.7725-8.844-1.7725-13.617 0-24.654 11.784-24.654 26.31 0 14.531 11.038 26.31 24.654 26.308 4.2728 2e-4 25.635 2e-4 46.235 2e-4 20.597 3e-4 41.956 3e-4 46.23-2e-4 13.616 2e-4 24.654-11.778 24.654-26.31-1.2e-4 -14.525-11.039-26.31-24.654-26.31z" stroke-width=".42649"/>
   <path d="m1965.2-2952.5c-3.8754 0-7.5643 0.7548-10.976 2.0637-5.1049-20.896-23.939-36.417-46.414-36.417-22.48 5e-4 -41.317 15.521-46.415 36.417-3.4092-1.3084-7.108-2.0629-10.978-2.0629-16.905-5e-4 -30.607 13.712-30.607 30.616-2e-4 16.907 13.702 30.614 30.607 30.614 5.3036 4e-4 31.822 0 57.395 2e-4 25.568-2e-4 52.083-2e-4 57.389-2e-4 16.902 0 30.605-13.705 30.605-30.614 0-16.902-13.703-30.614-30.605-30.616z" stroke-width=".51258"/>
   <path d="m2106.7-3096.3c-1.9475-7e-4 -3.8013 0.3796-5.5161 1.0371-2.5652-10.501-12.03-18.302-23.323-18.302-11.297 1e-4 -20.763 7.8-23.326 18.302-1.7134-0.6574-3.5721-1.0366-5.5172-1.0369-8.495 3e-4 -15.381 6.8915-15.381 15.386-2e-4 8.4973 6.8859 15.385 15.381 15.385 2.665 0 15.992-4e-4 28.844 0h28.84c8.494 0 15.381-6.8878 15.381-15.385 0-8.4939-6.8867-15.385-15.38-15.386z" stroke-width=".25759"/>
   <path d="m1410.5-3076.7c-1.412-5e-4 -2.7561 0.2752-3.9993 0.752-1.8599-7.6138-8.7226-13.269-16.91-13.269-8.1906 1e-4 -15.054 5.6552-16.912 13.269-1.2422-0.4767-2.5899-0.7516-4.0001-0.7518-6.159 2e-4 -11.152 4.9965-11.152 11.155-2e-4 6.1607 4.9924 11.154 11.152 11.154 1.9322 0 11.595-3e-4 20.912 0h20.91c6.1584 0 11.151-4.9939 11.151-11.154 0-6.1584-4.993-11.155-11.151-11.155z" stroke-width=".18676"/>
  </g>
  <g transform="matrix(.52684 0 0 .49289 -102.82 130.64)" clip-path="url(#clipPath5535)">
   <g transform="matrix(.57548 0 0 .57548 393.14 -121.3)" stroke-width=".92194">
    <path id="october" d="m-45.782-77.133a90 90 0 0 1 45.225-12.02l-0.29047 90z" fill="#00e6a7"/>
    <path id="september" d="m-78.752-44.219a90 90 0 0 1 32.97-32.915l44.934 77.98z" fill="#00e513"/>
    <path id="august" d="m-90.848 0.77143a90 90 0 0 1 12.095-44.989l77.904 45.065z" fill="#beee00"/>
    <path d="m-78.827 45.782a90 90 0 0 1-12.02-45.01l90 0.075889z" fill="#fbfb00"/>
    <path id="june" d="m-45.914 78.752a90 90 0 0 1-32.915-32.97l77.98-44.934z" fill="#ffd119"/>
    <path id="july" d="m-0.92271 90.847a90 90 0 0 1-44.989-12.095l45.065-77.904z" fill="#ff8201"/>
    <path id="april" d="m44.087 78.827a90 90 0 0 1-45.01 12.02l0.075889-90z" fill="#ff6303"/>
    <path id="march" d="m77.057 45.913a90 90 0 0 1-32.97 32.915l-44.934-77.98z" fill="#fb0000"/>
    <path id="february" d="m89.152 0.92271a90 90 0 0 1-12.095 44.989l-77.904-45.065z" fill="#ff11ce"/>
    <path id="january" d="m77.309-43.817c7.8877 13.688 11.857 28.941 11.844 44.74l-90-0.075889z" fill="#7f2aff"/>
    <path id="december" d="m43.78-77.057a91.197 91.197 0 0 1 33.353 33.408l-79.017 45.531z" fill="#4343ff" stroke-width=".9342"/>
    <path id="november" d="m-0.77143-89.153a90 90 0 0 1 44.989 12.095l-45.065 77.904z" fill="#0cacf5"/>
   </g>
  </g>
  <path d="m88.267 88.682c-0.26358-8.4e-5 -0.5145 0.05134-0.74659 0.14045-0.34721-1.4214-1.6284-2.4771-3.1568-2.4771-1.529 1.4e-5 -2.8103 1.0557-3.1572 2.4771-0.23191-0.08897-0.4835-0.14031-0.74674-0.14031-1.1498 4.2e-5 -2.0819 0.93277-2.0819 2.0824-3.8e-5 1.1501 0.93199 2.0822 2.0819 2.0822 0.36071 0 2.1646-4.2e-5 3.9039 0h3.9035c1.1497 0 2.0817-0.93227 2.0817-2.0822 0-1.1497-0.9321-2.0824-2.0817-2.0824z" fill="#fff" stroke-width=".034865" style="mix-blend-mode:normal"/>
 </g>
</svg>
