<?xml version="1.0" encoding="UTF-8" standalone="no"?>
<!-- Created with Inkscape (http://www.inkscape.org/) -->

<svg
   width="168.70805mm"
   height="62.91975mm"
   version="1.1"
   viewBox="0 0 168.70805 62.919754"
   id="svg131"
   sodipodi:docname="bug-report-day.svg"
   inkscape:version="1.4.1-rc (06eac75fbf, 2025-03-29)"
   xmlns:inkscape="http://www.inkscape.org/namespaces/inkscape"
   xmlns:sodipodi="http://sodipodi.sourceforge.net/DTD/sodipodi-0.dtd"
   xmlns="http://www.w3.org/2000/svg"
   xmlns:svg="http://www.w3.org/2000/svg">
  <sodipodi:namedview
     id="namedview131"
     pagecolor="#ffffff"
     bordercolor="#000000"
     borderopacity="0.25"
     inkscape:showpageshadow="2"
     inkscape:pageopacity="0.0"
     inkscape:pagecheckerboard="0"
     inkscape:deskcolor="#d1d1d1"
     inkscape:document-units="mm"
     inkscape:zoom="1.6667592"
     inkscape:cx="355.18028"
     inkscape:cy="147.29182"
     inkscape:window-width="2256"
     inkscape:window-height="1427"
     inkscape:window-x="0"
     inkscape:window-y="40"
     inkscape:window-maximized="1"
     inkscape:current-layer="g18" />
  <defs
     id="defs8">
    <linearGradient
       id="linearGradient50606"
       x1="421.45999"
       x2="458.98999"
       y1="81.216003"
       y2="80.958"
       gradientTransform="matrix(0.36219,-0.0075634,0.0085593,0.45242,-122.38,55.957)"
       gradientUnits="userSpaceOnUse">
      <stop
         stop-color="#d1a448"
         offset="0"
         id="stop1" />
      <stop
         stop-color="#9b7527"
         stop-opacity=".9918"
         offset="1"
         id="stop2" />
    </linearGradient>
    <linearGradient
       id="linearGradient33560"
       x1="439.64001"
       x2="412.56"
       y1="53.484001"
       y2="53.870998"
       gradientTransform="matrix(0.36219,-0.0075634,0.0085593,0.45242,-123.44,56.069)"
       gradientUnits="userSpaceOnUse">
      <stop
         stop-color="#96312a"
         offset="0"
         id="stop3" />
      <stop
         stop-color="#65211c"
         stop-opacity=".9959"
         offset="1"
         id="stop4" />
    </linearGradient>
    <linearGradient
       id="linearGradient33562"
       x1="419.64999"
       x2="452.28"
       y1="64.963997"
       y2="65.350998"
       gradientTransform="matrix(0.36219,-0.0071478,0.0085593,0.42756,-122.85,57.356)"
       gradientUnits="userSpaceOnUse">
      <stop
         stop-color="#c33f37"
         offset="0"
         id="stop5" />
      <stop
         stop-color="#b33a33"
         stop-opacity=".98039"
         offset="1"
         id="stop6" />
    </linearGradient>
    <linearGradient
       id="linearGradient15121"
       x1="367.10999"
       x2="367.22"
       y1="87.487"
       y2="90.810997"
       gradientUnits="userSpaceOnUse">
      <stop
         stop-color="#916f6f"
         offset="0"
         id="stop7" />
      <stop
         stop-color="#685050"
         stop-opacity=".9918"
         offset="1"
         id="stop8" />
    </linearGradient>
    <clipPath
       id="clipPath14">
      <ellipse
         transform="matrix(0.9996,0.028384,-0.013912,0.9999,0,0)"
         cx="106.13"
         cy="91.443001"
         rx="117.86"
         ry="38.66"
         fill="#00ffff"
         stroke-width="0.32164"
         id="ellipse8" />
    </clipPath>
    <clipPath
       clipPathUnits="userSpaceOnUse"
       id="clipPath5535">
      <path
         id="path5537"
         style="fill:#00ffff;stroke-width:0;stroke-linecap:round"
         d="m 393.29228,-172.81412 a 52.076837,52.076837 0 0 0 -52.07693,52.0764 52.076837,52.076837 0 0 0 52.07693,52.076929 52.076837,52.076837 0 0 0 52.07692,-52.076929 52.076837,52.076837 0 0 0 -52.07692,-52.0764 z m -1.05834,22.02914 a 30.047716,30.047716 0 0 1 30.04778,30.04726 30.047716,30.047716 0 0 1 -30.04778,30.047784 30.047716,30.047716 0 0 1 -30.04777,-30.047784 30.047716,30.047716 0 0 1 30.04777,-30.04726 z" />
    </clipPath>
  </defs>
  <g
     transform="matrix(0.93555178,0,0,1,-12.419451,-42.158998)"
     style="mix-blend-mode:difference"
     id="g19">
    <ellipse
       cx="103.44"
       cy="70.320999"
       rx="90.165001"
       ry="28.162001"
       fill="#0ff"
       stroke-width="0.2401"
       id="ellipse9"
       style="fill:#00ffff;fill-opacity:1" />
    <g
       transform="matrix(0.090962,0,0,0.090962,-30.683,344.62)"
       fill="#ffffff"
       id="g18">
      <path
         d="m 862.03097,-3084.6246 c -3.12151,8e-4 -6.09307,0.6494 -8.84169,1.7735 -4.11226,-17.9588 -19.28578,-31.2968 -37.38841,-31.2968 -18.10795,-1e-4 -33.28289,13.3379 -37.39018,31.295 -2.74702,-1.1248 -5.72569,-1.7725 -8.844,-1.7725 -13.6173,0 -24.6544,11.7838 -24.6544,26.3101 0,14.5307 11.03782,26.3101 24.6544,26.3083 4.27285,2e-4 25.63504,2e-4 46.23543,2e-4 20.59685,3e-4 41.95581,3e-4 46.23009,-2e-4 13.61606,2e-4 24.6544,-11.7783 24.6544,-26.3101 -1.2e-4,-14.5254 -11.03852,-26.3101 -24.6544,-26.3101 z"
         stroke-width="0.426486"
         id="path15" />
      <path
         d="m 1965.163,-2952.486 c -3.8754,0 -7.5643,0.7548 -10.9757,2.0637 -5.1049,-20.8961 -23.9393,-36.4172 -46.4135,-36.4172 -22.4795,5e-4 -41.3167,15.5206 -46.4154,36.4172 -3.4092,-1.3084 -7.108,-2.0629 -10.9783,-2.0629 -16.9046,-5e-4 -30.6066,13.7123 -30.6066,30.6157 -2e-4,16.9073 13.7015,30.6139 30.6066,30.6139 5.3036,4e-4 31.8215,0 57.3947,2e-4 25.5676,-2e-4 52.0827,-2e-4 57.3886,-2e-4 16.9025,0 30.6047,-13.7054 30.6047,-30.6139 0,-16.9022 -13.7029,-30.6141 -30.6047,-30.6157 z"
         stroke-width="0.512577"
         id="path16" />
      <path
         d="m 2106.6641,-3096.2981 c -1.9475,-7e-4 -3.8013,0.3796 -5.5161,1.0371 -2.5652,-10.5014 -12.0303,-18.3016 -23.3234,-18.3016 -11.297,1e-4 -20.7634,7.8 -23.3257,18.3016 -1.7134,-0.6574 -3.5721,-1.0366 -5.5172,-1.0369 -8.495,3e-4 -15.3812,6.8915 -15.3812,15.3859 -2e-4,8.4973 6.8859,15.3847 15.3812,15.3847 2.665,0 15.992,-4e-4 28.8436,0 h 28.8401 c 8.494,0 15.3812,-6.8878 15.3812,-15.3847 0,-8.4939 -6.8867,-15.3847 -15.3801,-15.3859 z"
         stroke-width="0.257594"
         id="path17" />
      <path
         d="m 1362.0263,-3019.1085 c -1.412,-5e-4 -2.7561,0.2752 -3.9993,0.752 -1.8599,-7.6138 -8.7226,-13.269 -16.91,-13.269 -8.1906,1e-4 -15.054,5.6552 -16.912,13.269 -1.2422,-0.4767 -2.5899,-0.7516 -4.0001,-0.7518 -6.159,2e-4 -11.152,4.9965 -11.152,11.155 -2e-4,6.1607 4.9924,11.154 11.152,11.154 1.9322,0 11.595,-3e-4 20.912,0 h 20.91 c 6.1584,0 11.151,-4.9939 11.151,-11.154 0,-6.1584 -4.993,-11.155 -11.151,-11.155 z"
         stroke-width="0.18676"
         id="path18" />
    </g>
    <g
       transform="matrix(0.63167228,0,0,0.59096214,-144.00342,145.39825)"
       id="g5340"
       clip-path="url(#clipPath5535)">
      <g
         transform="matrix(0.57548,0,0,0.57548,393.14,-121.3)"
         stroke-width="0.92194"
         id="g5338">
        <path
           id="october"
           d="m -45.782,-77.133 a 90,90 0 0 1 45.225,-12.02 l -0.29047,90 z"
           fill="#00e6a7" />
        <path
           id="september"
           d="m -78.752,-44.219 a 90,90 0 0 1 32.97,-32.915 l 44.934,77.98 z"
           fill="#00e513" />
        <path
           id="august"
           d="m -90.848,0.77143 a 90,90 0 0 1 12.095,-44.989 l 77.904,45.065 z"
           fill="#beee00" />
        <path
           d="m -78.827,45.782 a 90,90 0 0 1 -12.02,-45.01 l 90,0.075889 z"
           fill="#fbfb00"
           id="path5328" />
        <path
           id="june"
           d="M -45.914,78.752 A 90,90 0 0 1 -78.829,45.782 L -0.849,0.848 Z"
           fill="#ffd119" />
        <path
           id="july"
           d="m -0.92271,90.847 a 90,90 0 0 1 -44.989,-12.095 l 45.065,-77.904 z"
           fill="#ff8201" />
        <path
           id="april"
           d="m 44.087,78.827 a 90,90 0 0 1 -45.01,12.02 l 0.075889,-90 z"
           fill="#ff6303" />
        <path
           id="march"
           d="M 77.057,45.913 A 90,90 0 0 1 44.087,78.828 L -0.847,0.848 Z"
           fill="#fb0000" />
        <path
           id="february"
           d="m 89.152,0.92271 a 90,90 0 0 1 -12.095,44.989 L -0.847,0.84671 Z"
           fill="#ff11ce" />
        <path
           id="january"
           d="m 77.309,-43.817 c 7.8877,13.688 11.857,28.941 11.844,44.74 l -90,-0.075889 z"
           fill="#7f2aff" />
        <path
           id="december"
           d="M 43.780351,-77.057 A 91.196669,91.196669 0 0 1 77.133,-43.64862 L -1.8838474,1.8828369 Z"
           fill="#4343ff"
           style="stroke-width:0.934198" />
        <path
           id="november"
           d="m -0.77143,-89.153 a 90,90 0 0 1 44.989,12.095 l -45.065,77.904 z"
           fill="#0cacf5" />
      </g>
    </g>
    <path
       d="m 79.612999,87.094683 c -0.263582,-8.4e-5 -0.514504,0.05134 -0.74659,0.140452 -0.347212,-1.421362 -1.628351,-2.477083 -3.156785,-2.477083 -1.529039,1.4e-5 -2.810307,1.055721 -3.157158,2.477083 -0.231906,-0.08897 -0.483497,-0.14031 -0.746744,-0.14031 -1.149781,4.2e-5 -2.081884,0.932766 -2.081884,2.082446 -3.8e-5,1.150078 0.931989,2.082235 2.081884,2.082235 0.360707,0 2.164571,-4.2e-5 3.903877,0 h 3.903516 c 1.149664,0 2.08169,-0.93227 2.08169,-2.082235 0,-1.149666 -0.932104,-2.082446 -2.08169,-2.082446 z"
       stroke-width="0.0348647"
       id="path1"
       style="mix-blend-mode:normal;fill:#ffffff" />
  </g>
</svg>
