<?xml version="1.0" encoding="UTF-8" standalone="no"?>
<!-- Created with Inkscape (http://www.inkscape.org/) -->

<svg
   width="168.70773mm"
   height="69.094353mm"
   version="1.1"
   viewBox="0 0 168.70774 69.094354"
   id="svg8"
   sodipodi:docname="00002-signup-banner-day.svg"
   inkscape:version="1.4.1-rc (06eac75fbf, 2025-03-29)"
   xmlns:inkscape="http://www.inkscape.org/namespaces/inkscape"
   xmlns:sodipodi="http://sodipodi.sourceforge.net/DTD/sodipodi-0.dtd"
   xmlns="http://www.w3.org/2000/svg"
   xmlns:svg="http://www.w3.org/2000/svg">
  <sodipodi:namedview
     id="namedview8"
     pagecolor="#ffffff"
     bordercolor="#000000"
     borderopacity="0.25"
     inkscape:showpageshadow="2"
     inkscape:pageopacity="0.0"
     inkscape:pagecheckerboard="0"
     inkscape:deskcolor="#d1d1d1"
     inkscape:document-units="mm"
     inkscape:zoom="1.6571892"
     inkscape:cx="275.16472"
     inkscape:cy="134.26349"
     inkscape:window-width="2256"
     inkscape:window-height="1427"
     inkscape:window-x="0"
     inkscape:window-y="40"
     inkscape:window-maximized="1"
     inkscape:current-layer="svg8" />
  <defs
     id="defs1">
    <clipPath
       id="clipPath5535">
      <path
         d="m 393.29,-172.81 a 52.077,52.077 0 0 0 -52.077,52.076 52.077,52.077 0 0 0 52.077,52.077 52.077,52.077 0 0 0 52.077,-52.077 52.077,52.077 0 0 0 -52.077,-52.076 z m -1.0583,22.029 a 30.048,30.048 0 0 1 30.048,30.047 30.048,30.048 0 0 1 -30.048,30.048 30.048,30.048 0 0 1 -30.048,-30.048 30.048,30.048 0 0 1 30.048,-30.047 z"
         fill="#00ffff"
         stroke-width="0"
         id="path1" />
    </clipPath>
    <clipPath
       id="clipPath14">
      <ellipse
         transform="matrix(0.9996,0.028384,-0.013912,0.9999,0,0)"
         cx="106.13"
         cy="91.443001"
         rx="117.86"
         ry="38.66"
         fill="#00ffff"
         stroke-width="0.32164"
         id="ellipse1-7" />
    </clipPath>
  </defs>
  <g
     transform="matrix(0.93555,0,0,1,-12.419428,-40.847837)"
     style="mix-blend-mode:difference"
     id="g8">
    <ellipse
       cx="103.44"
       cy="70.320999"
       rx="90.165001"
       ry="28.162001"
       fill="#00ffff"
       stroke-width="0.2401"
       id="ellipse1" />
    <g
       transform="matrix(0.090962,0,0,0.090962,-30.683,344.62)"
       fill="#ffffff"
       id="g5">
      <path
         d="m 862.03,-3084.6 c -3.1215,8e-4 -6.0931,0.6494 -8.8417,1.7735 -4.1123,-17.959 -19.286,-31.297 -37.388,-31.297 -18.108,-10e-5 -33.283,13.338 -37.39,31.295 -2.747,-1.1248 -5.7257,-1.7725 -8.844,-1.7725 -13.617,0 -24.654,11.784 -24.654,26.31 0,14.531 11.038,26.31 24.654,26.308 4.2728,2e-4 25.635,2e-4 46.235,2e-4 20.597,3e-4 41.956,3e-4 46.23,-2e-4 13.616,2e-4 24.654,-11.778 24.654,-26.31 -1.2e-4,-14.525 -11.039,-26.31 -24.654,-26.31 z"
         stroke-width="0.42649"
         id="path2" />
      <path
         d="m 1928.0545,-2946.2944 c -3.8754,0 -7.5643,0.7548 -10.976,2.0637 -5.1049,-20.896 -23.939,-36.417 -46.414,-36.417 -22.48,5e-4 -41.317,15.521 -46.415,36.417 -3.4092,-1.3084 -7.108,-2.0629 -10.978,-2.0629 -16.905,-5e-4 -30.607,13.712 -30.607,30.616 -2e-4,16.907 13.702,30.614 30.607,30.614 5.3036,4e-4 31.822,0 57.395,2e-4 25.568,-2e-4 52.083,-2e-4 57.389,-2e-4 16.902,0 30.605,-13.705 30.605,-30.614 0,-16.902 -13.703,-30.614 -30.605,-30.616 z"
         stroke-width="0.51258"
         id="path3" />
      <path
         d="m 2106.7,-3096.3 c -1.9475,-7e-4 -3.8013,0.3796 -5.5161,1.0371 -2.5652,-10.501 -12.03,-18.302 -23.323,-18.302 -11.297,10e-5 -20.763,7.8 -23.326,18.302 -1.7134,-0.6574 -3.5721,-1.0366 -5.5172,-1.0369 -8.495,3e-4 -15.381,6.8915 -15.381,15.386 -2e-4,8.4973 6.8859,15.385 15.381,15.385 2.665,0 15.992,-4e-4 28.844,0 h 28.84 c 8.494,0 15.381,-6.8878 15.381,-15.385 0,-8.4939 -6.8867,-15.385 -15.38,-15.386 z"
         stroke-width="0.25759"
         id="path4" />
      <path
         d="m 1410.5,-3076.7 c -1.412,-5e-4 -2.7561,0.2752 -3.9993,0.752 -1.8599,-7.6138 -8.7226,-13.269 -16.91,-13.269 -8.1906,1e-4 -15.054,5.6552 -16.912,13.269 -1.2422,-0.4767 -2.5899,-0.7516 -4.0001,-0.7518 -6.159,2e-4 -11.152,4.9965 -11.152,11.155 -2e-4,6.1607 4.9924,11.154 11.152,11.154 1.9322,0 11.595,-3e-4 20.912,0 h 20.91 c 6.1584,0 11.151,-4.9939 11.151,-11.154 0,-6.1584 -4.993,-11.155 -11.151,-11.155 z"
         stroke-width="0.18676"
         id="path5" />
    </g>
    <g
       transform="matrix(0.58272,0,0,0.54517,-124.61,134.94747)"
       clip-path="url(#clipPath5535)"
       id="g7">
      <g
         transform="matrix(0.57548,0,0,0.57548,393.14,-121.3)"
         stroke-width="0.92194"
         id="g6">
        <path
           id="october"
           d="m -45.782,-77.133 a 90,90 0 0 1 45.225,-12.02 l -0.29047,90 z"
           fill="#00e6a7" />
        <path
           id="september"
           d="m -78.752,-44.219 a 90,90 0 0 1 32.97,-32.915 l 44.934,77.98 z"
           fill="#00e513" />
        <path
           id="august"
           d="m -90.848,0.77143 a 90,90 0 0 1 12.095,-44.989 l 77.904,45.065 z"
           fill="#beee00" />
        <path
           d="m -78.827,45.782 a 90,90 0 0 1 -12.02,-45.01 l 90,0.075889 z"
           fill="#fbfb00"
           id="path6" />
        <path
           id="june"
           d="M -45.914,78.752 A 90,90 0 0 1 -78.829,45.782 L -0.849,0.848 Z"
           fill="#ffd119" />
        <path
           id="july"
           d="m -0.92271,90.847 a 90,90 0 0 1 -44.989,-12.095 l 45.065,-77.904 z"
           fill="#ff8201" />
        <path
           id="april"
           d="m 44.087,78.827 a 90,90 0 0 1 -45.01,12.02 l 0.075889,-90 z"
           fill="#ff6303" />
        <path
           id="march"
           d="M 77.057,45.913 A 90,90 0 0 1 44.087,78.828 L -0.847,0.848 Z"
           fill="#fb0000" />
        <path
           id="february"
           d="m 89.152,0.92271 a 90,90 0 0 1 -12.095,44.989 L -0.847,0.84671 Z"
           fill="#ff11ce" />
        <path
           id="january"
           d="m 77.309,-43.817 c 7.8877,13.688 11.857,28.941 11.844,44.74 l -90,-0.075889 z"
           fill="#7f2aff" />
        <path
           id="december"
           d="m 43.78,-77.057 a 91.197,91.197 0 0 1 33.353,33.408 L -1.884,1.882 Z"
           fill="#4343ff"
           stroke-width="0.9342" />
        <path
           id="november"
           d="m -0.77143,-89.153 a 90,90 0 0 1 44.989,12.095 l -45.065,77.904 z"
           fill="#0cacf5" />
      </g>
    </g>
    <path
       d="m 87.418,88.841 c -0.26358,-8.4e-5 -0.5145,0.05134 -0.74659,0.14045 -0.34721,-1.4214 -1.6284,-2.4771 -3.1568,-2.4771 -1.529,1.4e-5 -2.8103,1.0557 -3.1572,2.4771 -0.23191,-0.08897 -0.4835,-0.14031 -0.74674,-0.14031 -1.1498,4.2e-5 -2.0819,0.93277 -2.0819,2.0824 -3.8e-5,1.1501 0.93199,2.0822 2.0819,2.0822 0.36071,0 2.1646,-4.2e-5 3.9039,0 h 3.9035 c 1.1497,0 2.0817,-0.93227 2.0817,-2.0822 0,-1.1497 -0.9321,-2.0824 -2.0817,-2.0824 z"
       fill="#ffffff"
       stroke-width="0.034865"
       style="mix-blend-mode:normal"
       id="path7" />
  </g>
  <g
     transform="matrix(0.86907917,-0.020679,0.01209198,0.72824,-3.3843703,-32.274934)"
     clip-path="url(#clipPath14)"
     opacity="0.86056"
     id="g11"
     style="opacity:0.881798;mix-blend-mode:normal">
    <path
       d="m 80.205,119.5 c 0.78266,-2.441 0.81359,-1.1754 0.65624,-0.19034 0.77965,-1.7561 -0.32288,1.803 0.76204,-0.35445 -0.75132,2.4271 1.2715,-2.1531 0.33244,0.5636 1.0464,-1.8257 1.165,-2.0814 0.37675,0.0521 0.44508,-0.57094 1.0677,-1.6394 0.39586,0.51681 0.64173,-0.43065 0.47837,-0.97874 0.49353,0.0549 0.88314,-0.46552 -0.51607,1.2081 0.83446,-0.22535 -0.0797,0.75977 0.3853,0.10695 -0.25842,1.6837 0.81951,-1.2176 1.1522,-2.6355 0.7097,-0.38257 1.3613,-2.2495 -0.09093,1.4581 1.1948,-0.9864 0.05491,0.32522 -0.14729,1.5382 -0.22208,2.224"
       fill="#32c63d"
       stroke-opacity="0"
       id="path6-9" />
    <path
       d="m 15.274,121.06 c -0.05467,-5.4217 -0.58405,-11.475 6.9305,-6.8322 2.1259,-2.8852 0.42816,-6.2696 7.0794,-8.564 l 0.56058,1.7068 c 6.613,-1.8719 5.6384,-0.5814 6.6693,1.4147 1.5957,-3.9695 5.7716,-6.2447 9.0017,-6.9552 8.2767,-0.86306 6.6869,2.052 9.1367,4.8515 2.3327,-2.4244 3.9117,-3.0713 9.5031,0.99378 1.9929,-3.972 4.0214,-7.7994 8.785,-0.51663 3.1456,-5.3403 5.7476,-6.0531 7.8647,-2.6387 8.6584,7.5159 3.3309,9.8592 4.8316,17.228 z"
       fill="#26972e"
       stroke-width="0.32162"
       id="path7-2" />
    <path
       d="m 9.0677,127.45 c -2.6365,-6.3204 27.569,-15.03 37.542,-15.489 16.721,-0.76192 39.3,6.6615 44.083,15.534 0.2996,0.55578 0.16868,0.31312 0.38521,0.78324 0.28639,0.6218 0.38004,1.2773 -0.0052,1.5815 -14.96,12.445 -66.933,11.824 -82.006,-2.4102 z"
       fill="#32c63d"
       id="path8" />
    <path
       d="m 28.658,116.04 c -0.50948,-2.5589 -0.67781,-1.3119 -0.62917,-0.30821 -0.58102,-1.8804 0.12358,1.8434 -0.71609,-0.48995 0.47994,2.5394 -1.0249,-2.3632 -0.39054,0.49711 -0.83757,-1.9981 -0.92721,-2.2728 -0.37876,-0.0173 -0.37864,-0.64637 -0.87894,-1.8175 -0.44824,0.43922 -0.58864,-0.54341 -0.36724,-1.0561 -0.49471,-0.0358 -0.8239,-0.62205 0.37962,1.2899 -0.80184,-0.37544 -0.0037,0.76654 -0.39321,0.0355 0.07271,1.7136 -0.67907,-1.3547 -0.85424,-2.8188 -0.66119,-0.50827 -1.1034,-2.475 -0.0686,1.4597 -1.0759,-1.1944 -0.08979,0.31182 -0.02151,1.5493 -0.02206,2.2417"
       fill="#32c63d"
       stroke-opacity="0"
       id="path9" />
    <path
       d="m 185.13,131.15 c 0.63699,-5.3569 -0.34021,-14.314 -8.2782,-11.119 -1.7943,-3.2523 -5.2048,-7.5608 -5.2048,-7.5608 -6.3452,-3.0854 -6.0383,-2.513 -7.2734,-0.72906 -1.1529,-4.2269 -3.3256,0.7679 -6.4467,-0.5373 -4.6285,-5.1958 -7.8744,-0.0478 -10.6,2.267 -2.0485,-2.8347 0.12337,-8.5676 -5.8487,-5.5854 -1.0198,-2.8389 -2.0287,-5.7236 -5.1751,-5.2035 -1.6232,0.26829 -4.8926,1.8091 -6.7638,3.9605 -2.5399,-5.8727 -4.7102,-4.4382 -7.1731,-1.4527 -1.8038,1.3573 -2.3916,5.6654 -3.8205,6.1658 -7.512,2.6305 -5.5212,4.7866 -7.047,10.203 z"
       fill="#26972e"
       stroke-width="0.32162"
       id="path10" />
    <path
       d="m 185.95,134.06 c 2.8102,-6.1657 -27.129,-16.584 -37.082,-17.608 -16.687,-1.7106 -39.454,4.4252 -44.481,13.02 -0.31483,0.53833 -0.17725,0.3033 -0.40669,0.76075 -0.30346,0.60506 -0.41527,1.2547 -0.039,1.5805 14.602,13.284 66.552,15.615 82.008,2.247 z"
       fill="#32c63d"
       id="path11" />
  </g>
  <g
     transform="translate(-18.238994,-35.984034)"
     id="g33">
    <g
       transform="matrix(0.92895,-0.020679,0.012925,0.72824,55.479,5.1355)"
       fill="#2db337"
       id="g32">
      <path
         d="m 9.0677,127.45 c -2.6365,-6.3204 27.402,-16.349 34.13,-17.724 3.2117,-0.20801 7.777,-0.8166 13.939,0.69551 13.174,3.2328 30.299,11.029 33.557,17.074 0.29959,0.55579 0.16868,0.31312 0.38521,0.78324 0.28639,0.6218 0.38004,1.2773 -0.0052,1.5815 -14.96,12.445 -66.933,11.824 -82.006,-2.4102 z"
         id="path12" />
      <path
         d="m 69.029,116.3 c 2.3942,-8.5628 2.6562,-4.2106 2.2356,-0.78675 2.468,-6.2036 -0.88986,6.2737 2.5796,-1.3731 -2.288,8.5086 4.1123,-7.6691 1.2136,1.8744 3.3777,-6.4966 3.7545,-7.4009 1.3033,0.10406 1.4619,-2.0552 3.4739,-5.8593 1.4262,1.7006 2.1561,-1.6114 1.5264,-3.4662 1.7056,0.0904 2.9829,-1.7798 -1.628,4.2636 2.8448,-0.94298 -0.18097,2.6324 1.3395,0.29125 -0.68263,5.85 2.6714,-4.357 3.6424,-9.3065 2.396,-1.4594 4.4096,-8.019 -0.1338,5.0395 3.9917,-3.6359 0.22899,1.109 -0.31797,5.3267 -0.49113,7.7034"
         stroke-opacity="0"
         stroke-width="3.4466"
         id="path13" />
      <g
         transform="translate(-1.0462,0.35683)"
         id="g31" />
      <path
         d="m 27.652,115.95 c -2.3526,-7.7296 -2.5036,-3.7599 -2.0517,-0.65438 -2.3724,-5.5795 0.93667,5.6872 -2.3768,-1.1786 2.2548,7.6831 -3.8993,-6.8685 -1.0674,1.7401 -3.2065,-5.8212 -3.5678,-6.634 -1.1847,0.1306 -1.3727,-1.8307 -3.2812,-5.2382 -1.2645,1.5877 -1.9959,-1.4074 -1.4598,-3.1136 -1.5514,0.12933 -2.7521,-1.538 1.5684,3.8365 -2.6095,-0.77986 0.2178,2.3917 -1.2139,0.30231 0.73943,5.3073 -2.5203,-3.8927 -3.5041,-8.3722 -2.2113,-1.2625 -4.1771,-7.1789 0.22333,4.5843 -3.7081,-3.1999 -0.18628,1.0159 0.39681,4.8408 0.60237,7"
         stroke-opacity="0"
         stroke-width="3.1393"
         id="path31" />
    </g>
  </g>
</svg>
