<?xml version="1.0" encoding="UTF-8" standalone="no"?>
<!-- Created with Inkscape (http://www.inkscape.org/) -->

<svg
   width="101.85mm"
   height="20.191mm"
   version="1.1"
   viewBox="0 0 101.85 20.191"
   id="svg2"
   sodipodi:docname="earthcal-top-logo.svg"
   inkscape:version="1.4.1-rc (06eac75fbf, 2025-03-29)"
   xmlns:inkscape="http://www.inkscape.org/namespaces/inkscape"
   xmlns:sodipodi="http://sodipodi.sourceforge.net/DTD/sodipodi-0.dtd"
   xmlns="http://www.w3.org/2000/svg"
   xmlns:svg="http://www.w3.org/2000/svg">
  <defs
     id="defs2" />
  <sodipodi:namedview
     id="namedview2"
     pagecolor="#ffffff"
     bordercolor="#000000"
     borderopacity="0.25"
     inkscape:showpageshadow="2"
     inkscape:pageopacity="0.0"
     inkscape:pagecheckerboard="0"
     inkscape:deskcolor="#d1d1d1"
     inkscape:document-units="mm"
     inkscape:zoom="0.89107358"
     inkscape:cx="281.12157"
     inkscape:cy="40.961825"
     inkscape:window-width="2256"
     inkscape:window-height="1427"
     inkscape:window-x="0"
     inkscape:window-y="40"
     inkscape:window-maximized="1"
     inkscape:current-layer="svg2" />
  <g
     id="text1"
     style="white-space:pre;fill:#f2f2f2;fill-opacity:1"
     transform="matrix(1.6705583,0,0,1.6705583,403.16469,-987.78418)"
     aria-label="EarthCal">
    <path
       style="font-weight:bold;font-family:Mulish;-inkscape-font-specification:'Mulish Bold';fill:#f2f2f2;fill-opacity:1"
       d="m -234.65217,601.70917 v -8.544 h 5.712 v 1.212 h -4.2 v 2.376 h 3.96 v 1.224 h -3.96 v 2.52 h 4.2 v 1.212 z m 9.38399,0.084 q -0.792,0 -1.404,-0.372 -0.612,-0.384 -0.948,-1.08 -0.324,-0.708 -0.324,-1.656 0,-0.96 0.336,-1.668 0.336,-0.72 0.936,-1.116 0.612,-0.408 1.404,-0.408 0.768,0 1.332,0.384 0.576,0.372 0.78,1.044 l -0.144,0.084 v -1.356 h 1.476 v 6.06 h -1.476 v -1.368 l 0.144,0.048 q -0.204,0.672 -0.78,1.044 -0.564,0.36 -1.332,0.36 z m 0.408,-1.152 q 0.744,0 1.152,-0.516 0.408,-0.516 0.408,-1.464 0,-0.972 -0.408,-1.476 -0.408,-0.516 -1.152,-0.516 -0.756,0 -1.176,0.528 -0.42,0.528 -0.42,1.488 0,0.936 0.42,1.452 0.42,0.504 1.176,0.504 z m 4.65599,1.068 v -4.344 q 0,-0.42 -0.024,-0.852 -0.012,-0.444 -0.072,-0.864 h 1.416 l 0.168,1.56 -0.168,-0.084 q 0.156,-0.804 0.708,-1.212 0.552,-0.408 1.248,-0.408 0.18,0 0.336,0.024 0.156,0.024 0.276,0.072 l -0.024,1.368 q -0.372,-0.156 -0.792,-0.156 -0.54,0 -0.888,0.216 -0.336,0.216 -0.516,0.588 -0.168,0.36 -0.168,0.816 v 3.276 z m 4.51198,-4.932 v -1.128 h 4.272 v 1.128 z m 4.272,3.684 v 1.188 q -0.24,0.084 -0.48,0.108 -0.228,0.036 -0.492,0.036 -1.02,0 -1.584,-0.576 -0.552,-0.576 -0.552,-1.656 v -5.388 l 1.5,-0.504 v 5.82 q 0,0.408 0.132,0.648 0.132,0.228 0.348,0.324 0.228,0.096 0.504,0.096 0.156,0 0.3,-0.024 0.144,-0.024 0.324,-0.072 z m 1.01999,1.248 v -8.832 h 1.5 v 3.996 l -0.18,0.012 q 0.288,-0.684 0.852,-1.032 0.576,-0.36 1.32,-0.36 2.16,0 2.16,2.496 v 3.72 h -1.5 v -3.66 q 0,-0.708 -0.276,-1.032 -0.276,-0.336 -0.852,-0.336 -0.696,0 -1.116,0.444 -0.408,0.432 -0.408,1.152 v 3.432 z"
       id="path2" />
    <path
       style="font-family:Mulish;-inkscape-font-specification:Mulish;fill:#f2f2f2;fill-opacity:1"
       d="m -199.27622,601.80517 q -1.224,0 -2.112,-0.528 -0.888,-0.528 -1.368,-1.512 -0.48,-0.984 -0.48,-2.34 0,-1.356 0.48,-2.328 0.48,-0.972 1.368,-1.5 0.888,-0.528 2.112,-0.528 0.876,0 1.62,0.276 0.744,0.264 1.284,0.804 l -0.372,0.756 q -0.612,-0.528 -1.212,-0.756 -0.6,-0.228 -1.308,-0.228 -1.404,0 -2.184,0.912 -0.768,0.912 -0.768,2.592 0,1.692 0.768,2.616 0.768,0.912 2.184,0.912 0.708,0 1.308,-0.228 0.6,-0.228 1.212,-0.756 l 0.372,0.756 q -0.54,0.54 -1.284,0.816 -0.744,0.264 -1.62,0.264 z m 6.63597,-0.012 q -0.804,0 -1.416,-0.372 -0.6,-0.384 -0.936,-1.08 -0.324,-0.708 -0.324,-1.656 0,-0.948 0.336,-1.656 0.336,-0.708 0.936,-1.104 0.612,-0.396 1.404,-0.396 0.828,0 1.404,0.408 0.576,0.408 0.78,1.164 l -0.144,0.096 v -1.524 h 0.96 v 6.036 h -0.96 v -1.56 l 0.144,0.072 q -0.204,0.756 -0.78,1.164 -0.576,0.408 -1.404,0.408 z m 0.192,-0.804 q 0.888,0 1.368,-0.6 0.48,-0.612 0.48,-1.728 0,-1.116 -0.492,-1.716 -0.48,-0.6 -1.356,-0.6 -0.888,0 -1.392,0.624 -0.492,0.612 -0.492,1.716 0,1.104 0.492,1.704 0.504,0.6 1.392,0.6 z m 4.69198,0.72 v -8.832 h 0.972 v 8.832 z"
       id="path3" />
  </g>
</svg>
