<?xml version="1.0" encoding="UTF-8" standalone="no"?>
<!-- Created with Inkscape (http://www.inkscape.org/) -->

<svg
   width="101.85001mm"
   height="20.190697mm"
   version="1.1"
   viewBox="0 0 101.85001 20.190697"
   id="svg5342"
   sodipodi:docname="earthcal word mark.svg"
   inkscape:version="1.4.1-rc (06eac75fbf, 2025-03-29)"
   inkscape:export-filename="../19bc7766/earthcal.png"
   inkscape:export-xdpi="62.779999"
   inkscape:export-ydpi="62.779999"
   xmlns:inkscape="http://www.inkscape.org/namespaces/inkscape"
   xmlns:sodipodi="http://sodipodi.sourceforge.net/DTD/sodipodi-0.dtd"
   xmlns="http://www.w3.org/2000/svg"
   xmlns:svg="http://www.w3.org/2000/svg">
  <g
     id="text1"
     style="white-space:pre;fill:#666666"
     transform="matrix(2.2645465,0,0,2.2645465,532.16886,-1342.598)"
     aria-label="earthcal">
    <path
       style="font-family:Mulish;-inkscape-font-specification:Mulish"
       d="m -229.69617,600.98917 q -0.396,0.372 -1.02,0.588 -0.612,0.216 -1.26,0.216 -0.936,0 -1.62,-0.372 -0.672,-0.372 -1.044,-1.068 -0.36,-0.708 -0.36,-1.68 0,-0.936 0.36,-1.644 0.36,-0.708 0.996,-1.104 0.648,-0.396 1.488,-0.396 0.804,0 1.38,0.36 0.576,0.348 0.876,1.008 0.312,0.66 0.312,1.584 v 0.18 h -4.56 v -0.636 h 4.008 l -0.312,0.444 q 0.024,-1.056 -0.42,-1.62 -0.432,-0.564 -1.272,-0.564 -0.876,0 -1.38,0.624 -0.492,0.612 -0.492,1.704 0,1.176 0.516,1.776 0.528,0.6 1.536,0.6 0.528,0 1.008,-0.168 0.492,-0.18 0.936,-0.54 z m 3.89998,0.804 q -0.804,0 -1.416,-0.372 -0.6,-0.384 -0.936,-1.08 -0.324,-0.708 -0.324,-1.656 0,-0.948 0.336,-1.656 0.336,-0.708 0.936,-1.104 0.612,-0.396 1.404,-0.396 0.828,0 1.404,0.408 0.576,0.408 0.78,1.164 l -0.144,0.096 v -1.524 h 0.96 v 6.036 h -0.96 v -1.56 l 0.144,0.072 q -0.204,0.756 -0.78,1.164 -0.576,0.408 -1.404,0.408 z m 0.192,-0.804 q 0.888,0 1.368,-0.6 0.48,-0.612 0.48,-1.728 0,-1.116 -0.492,-1.716 -0.48,-0.6 -1.356,-0.6 -0.888,0 -1.392,0.624 -0.492,0.612 -0.492,1.716 0,1.104 0.492,1.704 0.504,0.6 1.392,0.6 z m 4.69198,0.72 v -4.344 q 0,-0.42 -0.024,-0.84 -0.012,-0.432 -0.072,-0.852 h 0.924 l 0.132,1.488 -0.132,-0.036 q 0.168,-0.792 0.72,-1.188 0.564,-0.408 1.26,-0.408 0.156,0 0.288,0.024 0.144,0.012 0.264,0.048 l -0.024,0.888 q -0.276,-0.096 -0.636,-0.096 -0.624,0 -1.008,0.276 -0.372,0.276 -0.552,0.708 -0.168,0.42 -0.168,0.888 v 3.444 z m 3.97199,-5.268 v -0.768 h 3.876 v 0.768 z m 3.852,4.404 v 0.828 q -0.204,0.06 -0.408,0.084 -0.192,0.036 -0.432,0.036 -0.84,0 -1.344,-0.48 -0.492,-0.48 -0.492,-1.44 v -5.748 l 0.972,-0.348 v 5.964 q 0,0.48 0.132,0.744 0.144,0.264 0.384,0.372 0.24,0.096 0.54,0.096 0.18,0 0.324,-0.024 0.144,-0.024 0.324,-0.084 z m 1.19998,0.864 v -8.832 h 0.972 v 4.02 l -0.156,0.12 q 0.252,-0.732 0.84,-1.104 0.588,-0.384 1.356,-0.384 2.172,0 2.172,2.388 v 3.792 h -0.972 v -3.744 q 0,-0.84 -0.336,-1.224 -0.336,-0.396 -1.056,-0.396 -0.84,0 -1.344,0.516 -0.504,0.516 -0.504,1.392 v 3.456 z"
       id="path3" />
    <path
       style="font-weight:bold;font-family:Mulish;-inkscape-font-specification:'Mulish Bold'"
       d="m -202.25225,601.79317 q -0.948,0 -1.644,-0.372 -0.684,-0.384 -1.056,-1.08 -0.36,-0.708 -0.36,-1.656 0,-0.96 0.384,-1.68 0.384,-0.72 1.092,-1.116 0.708,-0.396 1.656,-0.396 0.636,0 1.236,0.204 0.612,0.204 0.996,0.564 l -0.432,1.056 q -0.384,-0.312 -0.816,-0.468 -0.432,-0.168 -0.864,-0.168 -0.792,0 -1.26,0.504 -0.456,0.504 -0.456,1.476 0,0.96 0.456,1.464 0.456,0.504 1.272,0.504 0.42,0 0.852,-0.156 0.432,-0.168 0.816,-0.492 l 0.432,1.056 q -0.396,0.36 -1.02,0.564 -0.612,0.192 -1.284,0.192 z m 5.66399,0 q -0.792,0 -1.404,-0.372 -0.612,-0.384 -0.948,-1.08 -0.324,-0.708 -0.324,-1.656 0,-0.96 0.336,-1.668 0.336,-0.72 0.936,-1.116 0.612,-0.408 1.404,-0.408 0.768,0 1.332,0.384 0.576,0.372 0.78,1.044 l -0.144,0.084 v -1.356 h 1.476 v 6.06 h -1.476 v -1.368 l 0.144,0.048 q -0.204,0.672 -0.78,1.044 -0.564,0.36 -1.332,0.36 z m 0.408,-1.152 q 0.744,0 1.152,-0.516 0.408,-0.516 0.408,-1.464 0,-0.972 -0.408,-1.476 -0.408,-0.516 -1.152,-0.516 -0.756,0 -1.176,0.528 -0.42,0.528 -0.42,1.488 0,0.936 0.42,1.452 0.42,0.504 1.176,0.504 z m 4.656,1.068 v -8.832 h 1.5 v 8.832 z"
       id="path4" />
  </g>
  <defs
     id="defs5346">
    <rect
       x="-235.57634"
       y="590.59985"
       width="718.34198"
       height="177.51175"
       id="rect1" />
    <clipPath
       clipPathUnits="userSpaceOnUse"
       id="clipPath5535">
      <path
         id="path5537"
         style="fill:#00ffff;stroke-width:0;stroke-linecap:round"
         d="m 393.29228,-172.81412 a 52.076837,52.076837 0 0 0 -52.07693,52.0764 52.076837,52.076837 0 0 0 52.07693,52.076929 52.076837,52.076837 0 0 0 52.07692,-52.076929 52.076837,52.076837 0 0 0 -52.07692,-52.0764 z m -1.05834,22.02914 a 30.047716,30.047716 0 0 1 30.04778,30.04726 30.047716,30.047716 0 0 1 -30.04778,30.047784 30.047716,30.047716 0 0 1 -30.04777,-30.047784 30.047716,30.047716 0 0 1 30.04777,-30.04726 z" />
    </clipPath>
  </defs>
  <sodipodi:namedview
     id="namedview5344"
     pagecolor="#ffffff"
     bordercolor="#000000"
     borderopacity="0.25"
     inkscape:showpageshadow="2"
     inkscape:pageopacity="0.0"
     inkscape:pagecheckerboard="0"
     inkscape:deskcolor="#d1d1d1"
     inkscape:document-units="mm"
     showgrid="false"
     inkscape:zoom="1.205554"
     inkscape:cx="55.161362"
     inkscape:cy="-112.39646"
     inkscape:window-width="2256"
     inkscape:window-height="1427"
     inkscape:window-x="0"
     inkscape:window-y="40"
     inkscape:window-maximized="1"
     inkscape:current-layer="svg5342" />
</svg>
