<?xml version="1.0" encoding="UTF-8"?>
<!-- Created with Inkscape (http://www.inkscape.org/) -->
<svg width="168.71mm" height="69.094mm" version="1.1" viewBox="0 0 168.71 69.094" xmlns="http://www.w3.org/2000/svg">
 <defs>
  <clipPath id="clipPath5535">
   <path d="m393.29-172.81a52.077 52.077 0 0 0-52.077 52.076 52.077 52.077 0 0 0 52.077 52.077 52.077 52.077 0 0 0 52.077-52.077 52.077 52.077 0 0 0-52.077-52.076zm-1.0583 22.029a30.048 30.048 0 0 1 30.048 30.047 30.048 30.048 0 0 1-30.048 30.048 30.048 30.048 0 0 1-30.048-30.048 30.048 30.048 0 0 1 30.048-30.047z" fill="#0ff" stroke-width="0"/>
  </clipPath>
  <clipPath id="clipPath14">
   <ellipse transform="matrix(.9996 .028384 -.013912 .9999 0 0)" cx="106.13" cy="91.443" rx="117.86" ry="38.66" fill="#0ff" stroke-width=".32164"/>
  </clipPath>
 </defs>
 <g transform="matrix(.93555 0 0 1 -12.419 -40.848)" style="mix-blend-mode:difference">
  <ellipse cx="103.44" cy="70.321" rx="90.165" ry="28.162" fill="#0ff" stroke-width=".2401"/>
  <g transform="matrix(.090962 0 0 .090962 -30.683 344.62)" fill="#fff">
   <path d="m862.03-3084.6c-3.1215 8e-4 -6.0931 0.6494-8.8417 1.7735-4.1123-17.959-19.286-31.297-37.388-31.297-18.108-1e-4 -33.283 13.338-37.39 31.295-2.747-1.1248-5.7257-1.7725-8.844-1.7725-13.617 0-24.654 11.784-24.654 26.31 0 14.531 11.038 26.31 24.654 26.308 4.2728 2e-4 25.635 2e-4 46.235 2e-4 20.597 3e-4 41.956 3e-4 46.23-2e-4 13.616 2e-4 24.654-11.778 24.654-26.31-1.2e-4 -14.525-11.039-26.31-24.654-26.31z" stroke-width=".42649"/>
   <path d="m1928.1-2946.3c-3.8754 0-7.5643 0.7548-10.976 2.0637-5.1049-20.896-23.939-36.417-46.414-36.417-22.48 5e-4 -41.317 15.521-46.415 36.417-3.4092-1.3084-7.108-2.0629-10.978-2.0629-16.905-5e-4 -30.607 13.712-30.607 30.616-2e-4 16.907 13.702 30.614 30.607 30.614 5.3036 4e-4 31.822 0 57.395 2e-4 25.568-2e-4 52.083-2e-4 57.389-2e-4 16.902 0 30.605-13.705 30.605-30.614 0-16.902-13.703-30.614-30.605-30.616z" stroke-width=".51258"/>
   <path d="m2106.7-3096.3c-1.9475-7e-4 -3.8013 0.3796-5.5161 1.0371-2.5652-10.501-12.03-18.302-23.323-18.302-11.297 1e-4 -20.763 7.8-23.326 18.302-1.7134-0.6574-3.5721-1.0366-5.5172-1.0369-8.495 3e-4 -15.381 6.8915-15.381 15.386-2e-4 8.4973 6.8859 15.385 15.381 15.385 2.665 0 15.992-4e-4 28.844 0h28.84c8.494 0 15.381-6.8878 15.381-15.385 0-8.4939-6.8867-15.385-15.38-15.386z" stroke-width=".25759"/>
   <path d="m1410.5-3076.7c-1.412-5e-4 -2.7561 0.2752-3.9993 0.752-1.8599-7.6138-8.7226-13.269-16.91-13.269-8.1906 1e-4 -15.054 5.6552-16.912 13.269-1.2422-0.4767-2.5899-0.7516-4.0001-0.7518-6.159 2e-4 -11.152 4.9965-11.152 11.155-2e-4 6.1607 4.9924 11.154 11.152 11.154 1.9322 0 11.595-3e-4 20.912 0h20.91c6.1584 0 11.151-4.9939 11.151-11.154 0-6.1584-4.993-11.155-11.151-11.155z" stroke-width=".18676"/>
  </g>
  <g transform="matrix(.58272 0 0 .54517 -124.61 134.95)" clip-path="url(#clipPath5535)">
   <g transform="matrix(.57548 0 0 .57548 393.14 -121.3)" stroke-width=".92194">
    <path id="october" d="m-45.782-77.133a90 90 0 0 1 45.225-12.02l-0.29047 90z" fill="#00e6a7"/>
    <path id="september" d="m-78.752-44.219a90 90 0 0 1 32.97-32.915l44.934 77.98z" fill="#00e513"/>
    <path id="august" d="m-90.848 0.77143a90 90 0 0 1 12.095-44.989l77.904 45.065z" fill="#beee00"/>
    <path d="m-78.827 45.782a90 90 0 0 1-12.02-45.01l90 0.075889z" fill="#fbfb00"/>
    <path id="june" d="m-45.914 78.752a90 90 0 0 1-32.915-32.97l77.98-44.934z" fill="#ffd119"/>
    <path id="july" d="m-0.92271 90.847a90 90 0 0 1-44.989-12.095l45.065-77.904z" fill="#ff8201"/>
    <path id="april" d="m44.087 78.827a90 90 0 0 1-45.01 12.02l0.075889-90z" fill="#ff6303"/>
    <path id="march" d="m77.057 45.913a90 90 0 0 1-32.97 32.915l-44.934-77.98z" fill="#fb0000"/>
    <path id="february" d="m89.152 0.92271a90 90 0 0 1-12.095 44.989l-77.904-45.065z" fill="#ff11ce"/>
    <path id="january" d="m77.309-43.817c7.8877 13.688 11.857 28.941 11.844 44.74l-90-0.075889z" fill="#7f2aff"/>
    <path id="december" d="m43.78-77.057a91.197 91.197 0 0 1 33.353 33.408l-79.017 45.531z" fill="#4343ff" stroke-width=".9342"/>
    <path id="november" d="m-0.77143-89.153a90 90 0 0 1 44.989 12.095l-45.065 77.904z" fill="#0cacf5"/>
   </g>
  </g>
  <path d="m87.418 88.841c-0.26358-8.4e-5 -0.5145 0.05134-0.74659 0.14045-0.34721-1.4214-1.6284-2.4771-3.1568-2.4771-1.529 1.4e-5 -2.8103 1.0557-3.1572 2.4771-0.23191-0.08897-0.4835-0.14031-0.74674-0.14031-1.1498 4.2e-5 -2.0819 0.93277-2.0819 2.0824-3.8e-5 1.1501 0.93199 2.0822 2.0819 2.0822 0.36071 0 2.1646-4.2e-5 3.9039 0h3.9035c1.1497 0 2.0817-0.93227 2.0817-2.0822 0-1.1497-0.9321-2.0824-2.0817-2.0824z" fill="#fff" stroke-width=".034865" style="mix-blend-mode:normal"/>
 </g>
 <g transform="matrix(.86908 -.020679 .012092 .72824 -3.3844 -32.275)" clip-path="url(#clipPath14)" opacity=".8818" style="mix-blend-mode:normal">
  <path d="m80.205 119.5c0.78266-2.441 0.81359-1.1754 0.65624-0.19034 0.77965-1.7561-0.32288 1.803 0.76204-0.35445-0.75132 2.4271 1.2715-2.1531 0.33244 0.5636 1.0464-1.8257 1.165-2.0814 0.37675 0.0521 0.44508-0.57094 1.0677-1.6394 0.39586 0.51681 0.64173-0.43065 0.47837-0.97874 0.49353 0.0549 0.88314-0.46552-0.51607 1.2081 0.83446-0.22535-0.0797 0.75977 0.3853 0.10695-0.25842 1.6837 0.81951-1.2176 1.1522-2.6355 0.7097-0.38257 1.3613-2.2495-0.09093 1.4581 1.1948-0.9864 0.05491 0.32522-0.14729 1.5382-0.22208 2.224" fill="#32c63d" stroke-opacity="0"/>
  <path d="m15.274 121.06c-0.05467-5.4217-0.58405-11.475 6.9305-6.8322 2.1259-2.8852 0.42816-6.2696 7.0794-8.564l0.56058 1.7068c6.613-1.8719 5.6384-0.5814 6.6693 1.4147 1.5957-3.9695 5.7716-6.2447 9.0017-6.9552 8.2767-0.86306 6.6869 2.052 9.1367 4.8515 2.3327-2.4244 3.9117-3.0713 9.5031 0.99378 1.9929-3.972 4.0214-7.7994 8.785-0.51663 3.1456-5.3403 5.7476-6.0531 7.8647-2.6387 8.6584 7.5159 3.3309 9.8592 4.8316 17.228z" fill="#26972e" stroke-width=".32162"/>
  <path d="m9.0677 127.45c-2.6365-6.3204 27.569-15.03 37.542-15.489 16.721-0.76192 39.3 6.6615 44.083 15.534 0.2996 0.55578 0.16868 0.31312 0.38521 0.78324 0.28639 0.6218 0.38004 1.2773-0.0052 1.5815-14.96 12.445-66.933 11.824-82.006-2.4102z" fill="#32c63d"/>
  <path d="m28.658 116.04c-0.50948-2.5589-0.67781-1.3119-0.62917-0.30821-0.58102-1.8804 0.12358 1.8434-0.71609-0.48995 0.47994 2.5394-1.0249-2.3632-0.39054 0.49711-0.83757-1.9981-0.92721-2.2728-0.37876-0.0173-0.37864-0.64637-0.87894-1.8175-0.44824 0.43922-0.58864-0.54341-0.36724-1.0561-0.49471-0.0358-0.8239-0.62205 0.37962 1.2899-0.80184-0.37544-0.0037 0.76654-0.39321 0.0355 0.07271 1.7136-0.67907-1.3547-0.85424-2.8188-0.66119-0.50827-1.1034-2.475-0.0686 1.4597-1.0759-1.1944-0.08979 0.31182-0.02151 1.5493-0.02206 2.2417" fill="#32c63d" stroke-opacity="0"/>
  <path d="m185.13 131.15c0.63699-5.3569-0.34021-14.314-8.2782-11.119-1.7943-3.2523-5.2048-7.5608-5.2048-7.5608-6.3452-3.0854-6.0383-2.513-7.2734-0.72906-1.1529-4.2269-3.3256 0.7679-6.4467-0.5373-4.6285-5.1958-7.8744-0.0478-10.6 2.267-2.0485-2.8347 0.12337-8.5676-5.8487-5.5854-1.0198-2.8389-2.0287-5.7236-5.1751-5.2035-1.6232 0.26829-4.8926 1.8091-6.7638 3.9605-2.5399-5.8727-4.7102-4.4382-7.1731-1.4527-1.8038 1.3573-2.3916 5.6654-3.8205 6.1658-7.512 2.6305-5.5212 4.7866-7.047 10.203z" fill="#26972e" stroke-width=".32162"/>
  <path d="m185.95 134.06c2.8102-6.1657-27.129-16.584-37.082-17.608-16.687-1.7106-39.454 4.4252-44.481 13.02-0.31483 0.53833-0.17725 0.3033-0.40669 0.76075-0.30346 0.60506-0.41527 1.2547-0.039 1.5805 14.602 13.284 66.552 15.615 82.008 2.247z" fill="#32c63d"/>
 </g>
 <g transform="translate(-18.239 -35.984)">
  <g transform="matrix(.92895 -.020679 .012925 .72824 55.479 5.1355)" fill="#2db337">
   <path d="m9.0677 127.45c-2.6365-6.3204 27.402-16.349 34.13-17.724 3.2117-0.20801 7.777-0.8166 13.939 0.69551 13.174 3.2328 30.299 11.029 33.557 17.074 0.29959 0.55579 0.16868 0.31312 0.38521 0.78324 0.28639 0.6218 0.38004 1.2773-0.0052 1.5815-14.96 12.445-66.933 11.824-82.006-2.4102z"/>
   <path d="m69.029 116.3c2.3942-8.5628 2.6562-4.2106 2.2356-0.78675 2.468-6.2036-0.88986 6.2737 2.5796-1.3731-2.288 8.5086 4.1123-7.6691 1.2136 1.8744 3.3777-6.4966 3.7545-7.4009 1.3033 0.10406 1.4619-2.0552 3.4739-5.8593 1.4262 1.7006 2.1561-1.6114 1.5264-3.4662 1.7056 0.0904 2.9829-1.7798-1.628 4.2636 2.8448-0.94298-0.18097 2.6324 1.3395 0.29125-0.68263 5.85 2.6714-4.357 3.6424-9.3065 2.396-1.4594 4.4096-8.019-0.1338 5.0395 3.9917-3.6359 0.22899 1.109-0.31797 5.3267-0.49113 7.7034" stroke-opacity="0" stroke-width="3.4466"/>
   <path d="m27.652 115.95c-2.3526-7.7296-2.5036-3.7599-2.0517-0.65438-2.3724-5.5795 0.93667 5.6872-2.3768-1.1786 2.2548 7.6831-3.8993-6.8685-1.0674 1.7401-3.2065-5.8212-3.5678-6.634-1.1847 0.1306-1.3727-1.8307-3.2812-5.2382-1.2645 1.5877-1.9959-1.4074-1.4598-3.1136-1.5514 0.12933-2.7521-1.538 1.5684 3.8365-2.6095-0.77986 0.2178 2.3917-1.2139 0.30231 0.73943 5.3073-2.5203-3.8927-3.5041-8.3722-2.2113-1.2625-4.1771-7.1789 0.22333 4.5843-3.7081-3.1999-0.18628 1.0159 0.39681 4.8408 0.60237 7" stroke-opacity="0" stroke-width="3.1393"/>
  </g>
 </g>
</svg>
